#N canvas 1269 662 587 421 10;
#X obj 96 185 pix_delay 100;
#X obj 50 131 pix_separator;
#X obj 154 131 pix_separator;
#X floatatom 139 44 5 0 0 0 - - -;
#X obj 50 210 pix_diff;
#X obj 235 188 pix_delay 100;
#X obj 261 130 pix_separator;
#X floatatom 180 45 5 0 0 0 - - -;
#X obj 50 255 pix_diff;
#X obj 353 190 pix_delay 100;
#X obj 379 132 pix_separator;
#X floatatom 221 43 5 0 0 0 - - -;
#X obj 187 211 pix_diff;
#X obj 50 287 outlet;
#X obj 248 17 tgl 15 0 empty empty empty 17 7 0 10 -262144 -1 -1 1
1;
#X obj 50 95 spigot;
#X obj 50 43 inlet;
#X connect 0 0 4 1;
#X connect 1 0 4 0;
#X connect 2 0 0 0;
#X connect 3 0 0 1;
#X connect 4 0 8 0;
#X connect 5 0 12 0;
#X connect 6 0 5 0;
#X connect 7 0 5 1;
#X connect 8 0 13 0;
#X connect 9 0 12 1;
#X connect 10 0 9 0;
#X connect 11 0 9 1;
#X connect 12 0 8 1;
#X connect 14 0 15 1;
#X connect 15 0 1 0;
#X connect 15 0 2 0;
#X connect 15 0 6 0;
#X connect 15 0 10 0;
#X connect 16 0 15 0;
#X coords 0 -1 1 1 165 60 1 100 15;
