#N canvas 796 53 532 645 10;
#X obj 326 498 pix_snap2tex;
#X msg 366 471 0 0;
#X msg 412 470 500 500;
#X obj 366 448 t b b;
#X obj 326 523 alpha;
#X obj 366 429 loadbang;
#X msg 281 105 print;
#X obj 326 380 glsl_program;
#X obj 399 306 pack 0 0;
#X msg 283 187 print;
#X obj 420 286 t b f;
#X obj 420 241 change;
#X obj 398 146 change;
#X msg 399 331 link \$1 \$2;
#X msg 335 321 print;
#X floatatom 420 267 2 0 0 0 ID - -;
#X floatatom 398 169 2 0 0 0 ID - -;
#X obj 417 352 print linking;
#X obj 326 221 glsl_fragment;
#X obj 326 127 glsl_vertex;
#X obj 348 78 bng 15 250 50 0 empty empty empty 0 -6 0 8 -262144 -1
-1;
#X obj 325 6 gemhead -1;
#X obj 326 547 colorRGB 1 1 1 1;
#X text 385 79 <- 2 : load shader;
#X obj 326 402 t b a;
#X floatatom 192 477 3 -4 4 0 X - -;
#X obj 152 533 translateXYZ 1 2 0;
#X floatatom 232 494 3 -4 4 0 Y - -;
#X floatatom 273 509 4 -16 16 0 Z - -;
#X floatatom 100 383 5 0 0 0 - - -;
#X msg 100 404 K1 \$1;
#X floatatom 139 383 10 -2 2 0 - - -;
#X msg 139 404 K2 \$1;
#X floatatom 205 383 5 0 0 0 - - -;
#X msg 205 406 K3 \$1;
#X floatatom 92 211 5 0 0 0 - - -;
#X floatatom 95 255 5 0 0 0 - - -;
#X floatatom 31 333 5 0 0 0 - - -;
#X floatatom 72 331 5 0 0 0 - - -;
#X msg 31 354 b \$1;
#X msg 72 352 a \$1;
#X obj 326 573 outlet;
#X obj 409 49 loadbang;
#X obj 326 50 gate;
#X obj 97 177 tgl 15 0 empty empty empty 17 7 0 10 -262144 -1 -1 1
1;
#X msg 340 105 open antialiasing.vert;
#X msg 337 191 open antialiasing.frag;
#X msg 92 232 bgl_TextureWidth \$1;
#X msg 95 276 bgl_TextureHeight \$1;
#X obj 176 174 bng 15 250 50 0 empty empty empty 17 7 0 10 -262144
-1 -1;
#X connect 0 0 4 0;
#X connect 1 0 0 1;
#X connect 2 0 0 2;
#X connect 3 0 1 0;
#X connect 3 1 2 0;
#X connect 4 0 22 0;
#X connect 5 0 3 0;
#X connect 6 0 19 0;
#X connect 7 0 24 0;
#X connect 8 0 13 0;
#X connect 9 0 18 0;
#X connect 10 0 8 0;
#X connect 10 1 8 1;
#X connect 11 0 15 0;
#X connect 12 0 16 0;
#X connect 13 0 7 0;
#X connect 13 0 17 0;
#X connect 14 0 7 0;
#X connect 15 0 10 0;
#X connect 16 0 8 0;
#X connect 18 0 7 0;
#X connect 18 1 11 0;
#X connect 19 0 18 0;
#X connect 19 1 12 0;
#X connect 20 0 45 0;
#X connect 20 0 46 0;
#X connect 21 0 43 1;
#X connect 22 0 41 0;
#X connect 24 0 0 0;
#X connect 24 1 0 0;
#X connect 25 0 26 1;
#X connect 26 0 41 0;
#X connect 27 0 26 2;
#X connect 28 0 26 3;
#X connect 29 0 30 0;
#X connect 30 0 7 0;
#X connect 31 0 32 0;
#X connect 32 0 7 0;
#X connect 33 0 34 0;
#X connect 34 0 7 0;
#X connect 35 0 47 0;
#X connect 36 0 48 0;
#X connect 37 0 39 0;
#X connect 38 0 40 0;
#X connect 39 0 7 0;
#X connect 40 0 7 0;
#X connect 42 0 20 0;
#X connect 43 0 19 0;
#X connect 44 0 43 0;
#X connect 45 0 19 0;
#X connect 46 0 18 0;
#X connect 47 0 7 0;
#X connect 48 0 7 0;
#X connect 49 0 20 0;
#X coords 0 -1 1 1 205 180 1 80 140;
