#N canvas 1179 545 651 479 10;
#X obj 71 157 adc~;
#X floatatom 69 283 5 0 0 0 - - -;
#X obj 70 218 bp~ 60 1;
#X floatatom 107 82 5 0 0 1 Resonanz - -;
#X obj 125 466 outlet;
#X floatatom 109 59 5 0 0 1 Frequenz - -;
#X obj 69 348 moses 60;
#X obj 69 375 bng 15 250 50 0 empty empty empty 17 7 0 10 -262144 -1
-1;
#X floatatom 125 381 5 0 0 0 - - -;
#X floatatom 111 107 5 0 0 1 dB_min - -;
#X obj 125 400 - 65;
#X obj 125 437 * 30;
#X floatatom 174 414 5 0 0 0 - - -;
#X floatatom 237 285 5 0 0 0 - - -;
#X obj 228 224 bp~ 60 1;
#X floatatom 258 83 5 0 0 1 Resonanz - -;
#X obj 293 468 outlet;
#X floatatom 259 61 5 0 0 1 Frequenz - -;
#X obj 237 350 moses 60;
#X obj 237 377 bng 15 250 50 0 empty empty empty 17 7 0 10 -262144
-1 -1;
#X floatatom 293 383 5 0 0 0 - - -;
#X floatatom 258 108 5 0 0 1 dB_min - -;
#X obj 293 402 - 65;
#X obj 293 439 * 30;
#X floatatom 342 416 5 0 0 0 - - -;
#X obj 69 251 env~ 4096 2048;
#X obj 237 254 env~ 4096 2048;
#X obj 388 32 tgl 15 0 empty empty empty 17 7 0 10 -262144 -1 -1 0
1;
#X obj 237 315 spigot;
#X obj 69 314 spigot;
#X obj 12 8 loadbang;
#X msg 54 34 65;
#X msg 252 36 500;
#X msg 14 40 50;
#X obj 113 128 hsl 128 15 0 100 0 0 empty empty empty -2 -8 0 10 -99865
-4034 -1 0 1;
#X obj 261 128 hsl 128 15 0 100 0 0 empty empty empty -2 -8 0 10 -99865
-4034 -1 0 1;
#X connect 0 0 2 0;
#X connect 0 1 14 0;
#X connect 1 0 29 0;
#X connect 1 0 34 0;
#X connect 2 0 25 0;
#X connect 3 0 2 2;
#X connect 5 0 2 1;
#X connect 6 0 7 0;
#X connect 6 1 8 0;
#X connect 8 0 10 0;
#X connect 9 0 6 1;
#X connect 9 0 10 1;
#X connect 10 0 11 0;
#X connect 11 0 4 0;
#X connect 12 0 11 1;
#X connect 13 0 28 0;
#X connect 13 0 35 0;
#X connect 14 0 26 0;
#X connect 15 0 14 2;
#X connect 17 0 14 1;
#X connect 18 0 19 0;
#X connect 18 1 20 0;
#X connect 20 0 22 0;
#X connect 21 0 18 1;
#X connect 21 0 22 1;
#X connect 22 0 23 0;
#X connect 23 0 16 0;
#X connect 24 0 23 1;
#X connect 25 0 1 0;
#X connect 26 0 13 0;
#X connect 27 0 28 1;
#X connect 27 0 29 1;
#X connect 28 0 18 0;
#X connect 29 0 6 0;
#X connect 30 0 31 0;
#X connect 30 0 32 0;
#X connect 30 0 33 0;
#X connect 31 0 5 0;
#X connect 32 0 17 0;
#X connect 33 0 3 0;
#X connect 33 0 9 0;
#X connect 33 0 15 0;
#X connect 33 0 21 0;
#X coords 0 -1 1 1 305 120 1 100 30;
