#N canvas 230 196 878 759 10;
#X obj 49 529 pix_snap2tex;
#X msg 89 502 0 0;
#X obj 89 479 t b b;
#X obj 89 460 loadbang;
#X msg 4 136 print;
#X obj 49 411 glsl_program;
#X obj 122 337 pack 0 0;
#X msg 6 218 print;
#X obj 143 317 t b f;
#X obj 143 272 change;
#X obj 121 177 change;
#X msg 122 362 link \$1 \$2;
#X msg -2 343 print;
#X floatatom 143 298 2 0 0 0 ID - -;
#X floatatom 121 200 2 0 0 0 ID - -;
#X obj 140 383 print linking;
#X obj 49 252 glsl_fragment;
#X obj 49 158 glsl_vertex;
#X obj 71 109 bng 15 250 50 0 empty empty empty 0 -6 0 8 -262144 -1
-1;
#X text 108 110 <- 2 : load shader;
#X obj 49 437 t b a;
#X obj 91 65 loadbang;
#X obj 49 56 spigot;
#X obj 420 38 tgl 15 0 empty empty empty 17 7 0 10 -1 -4034 -1 -84
-84;
#X obj 402 38 bng 15 250 50 0 empty empty RELOAD -27 7 0 5 -1 -4034
-191407;
#X obj 34 20 inlet;
#X msg 234 386 thresh \$1;
#X msg 313 385 range \$1;
#X obj 215 -82 inlet;
#X obj 305 55 hsl 128 25 0 1 0 0 empty empty value 42 12 0 10 -262144
-1 -1 5800 1;
#X obj 305 82 hsl 128 25 0.01 0.5 0 0 empty empty range 42 12 0 10
-262144 -1 -1 2600 1;
#X msg 478 329 full_color \$1;
#X obj 419 109 tgl 15 0 empty empty full_color -40 7 0 5 -1 -4034 -191407
1 1;
#X obj 302 109 bng 15 250 50 0 empty empty pick_color 17 7 0 5 -1 -4034
-191407;
#X obj 222 85 colorpanel;
#X obj 222 114 unpack f f f;
#X msg 352 331 green \$1;
#X msg 303 329 red \$1;
#X msg 416 332 blue \$1;
#X obj 302 128 vsl 42 128 0 1 0 0 empty \$0-red r 11 64 0 10 -261234
-1 -1 127 0;
#X obj 347 128 vsl 42 128 0 1 0 0 empty \$0-green g 12 63 0 10 -204786
-1 -1 127 1;
#X obj 392 128 vsl 42 128 0 1 0 0 empty \$0-blue b 12 63 0 10 -203904
-1 -1 2 1;
#X msg 135 501 1024 768;
#X msg 63 137 open shader/bunt.vert;
#X msg 62 221 open shader/bunt.frag;
#X obj 71 87 delay 1;
#X obj 49 558 Textur;
#X obj 215 -55 route value range red green blue toggle fader;
#X obj 520 -27 print unknown_ctl;
#X obj 303 286 f;
#X obj 303 307 * 0;
#X obj 312 265 t b f;
#X obj 347 287 f;
#X obj 347 308 * 0;
#X obj 356 266 t b f;
#X obj 392 289 f;
#X obj 392 310 * 0;
#X obj 401 268 t b f;
#X obj 358 109 tgl 15 0 empty empty empty 17 7 0 10 -262144 -1 -1 1
1;
#X obj 479 153 gate 2;
#X obj 534 194 s \$0-green;
#X obj 475 195 s \$0-red;
#X obj 602 194 s \$0-blue;
#X obj 523 152 gate 2;
#X obj 568 152 gate 2;
#X obj 529 95 + 1;
#X obj 653 151 gate 2;
#X obj 698 151 gate 2;
#X obj 664 193 s \$0-threshold;
#X obj 761 192 s \$0-colormode;
#X obj 434 386 print;
#X floatatom 576 248 5 0 0 0 - - -;
#X obj 67 -54 loadbang;
#X msg 83 -30 fader 1;
#X obj 78 30 r cam;
#X msg 146 3 0;
#X obj 134 -79 r b\$1_ctl;
#X connect 0 0 46 0;
#X connect 1 0 0 1;
#X connect 2 0 1 0;
#X connect 2 1 42 0;
#X connect 3 0 2 0;
#X connect 4 0 17 0;
#X connect 5 0 20 0;
#X connect 6 0 11 0;
#X connect 7 0 16 0;
#X connect 8 0 6 0;
#X connect 8 1 6 1;
#X connect 9 0 13 0;
#X connect 10 0 14 0;
#X connect 11 0 5 0;
#X connect 11 0 15 0;
#X connect 12 0 5 0;
#X connect 13 0 8 0;
#X connect 14 0 6 0;
#X connect 16 0 5 0;
#X connect 16 1 9 0;
#X connect 17 0 16 0;
#X connect 17 1 10 0;
#X connect 18 0 43 0;
#X connect 18 0 44 0;
#X connect 20 0 0 0;
#X connect 20 1 0 0;
#X connect 21 0 45 0;
#X connect 22 0 17 0;
#X connect 23 0 22 1;
#X connect 24 0 18 0;
#X connect 25 0 22 0;
#X connect 26 0 5 0;
#X connect 27 0 5 0;
#X connect 28 0 47 0;
#X connect 29 0 26 0;
#X connect 30 0 27 0;
#X connect 31 0 5 0;
#X connect 32 0 31 0;
#X connect 33 0 34 0;
#X connect 34 0 35 0;
#X connect 35 0 39 0;
#X connect 35 1 40 0;
#X connect 35 2 41 0;
#X connect 36 0 5 0;
#X connect 37 0 5 0;
#X connect 38 0 5 0;
#X connect 39 0 49 0;
#X connect 40 0 52 0;
#X connect 41 0 55 0;
#X connect 42 0 0 2;
#X connect 43 0 17 0;
#X connect 44 0 16 0;
#X connect 45 0 18 0;
#X connect 47 0 29 0;
#X connect 47 1 30 0;
#X connect 47 2 59 1;
#X connect 47 3 63 1;
#X connect 47 4 64 1;
#X connect 47 5 23 0;
#X connect 47 6 51 0;
#X connect 47 6 54 0;
#X connect 47 6 57 0;
#X connect 47 7 48 0;
#X connect 49 0 50 0;
#X connect 50 0 37 0;
#X connect 51 0 49 0;
#X connect 51 1 50 1;
#X connect 52 0 53 0;
#X connect 53 0 36 0;
#X connect 54 0 52 0;
#X connect 54 1 53 1;
#X connect 55 0 56 0;
#X connect 56 0 38 0;
#X connect 57 0 55 0;
#X connect 57 1 56 1;
#X connect 58 0 65 0;
#X connect 59 0 49 0;
#X connect 59 0 71 0;
#X connect 59 1 61 0;
#X connect 63 0 52 0;
#X connect 63 1 60 0;
#X connect 64 0 55 0;
#X connect 64 1 62 0;
#X connect 65 0 63 0;
#X connect 65 0 64 0;
#X connect 65 0 59 0;
#X connect 65 0 66 0;
#X connect 65 0 67 0;
#X connect 66 1 68 0;
#X connect 67 1 69 0;
#X connect 72 0 73 0;
#X connect 72 0 75 0;
#X connect 73 0 47 0;
#X connect 74 0 22 0;
#X connect 75 0 58 0;
#X connect 76 0 47 0;
#X coords 0 -1 1 1 137 226 1 300 35;
