#N canvas 117 131 1394 711 10;
#X msg 4 136 print;
#X obj 49 441 glsl_program;
#X obj 122 337 pack 0 0;
#X msg 6 218 print;
#X obj 143 317 t b f;
#X obj 143 272 change;
#X obj 121 177 change;
#X msg 122 362 link \$1 \$2;
#X msg -2 343 print;
#X floatatom 143 298 2 0 0 0 ID - -;
#X floatatom 121 200 2 0 0 0 ID - -;
#X obj 140 383 print linking;
#X obj 49 252 glsl_fragment;
#X obj 49 158 glsl_vertex;
#X obj 71 109 bng 15 250 50 0 empty empty empty 0 -6 0 8 -262144 -1
-1;
#X text 108 110 <- 2 : load shader;
#X obj 91 65 loadbang;
#X obj 49 56 spigot;
#X obj 556 131 tgl 15 0 \$0-mon-toggle empty empty 17 7 0 10 -1 -4034
-1 1 1;
#X obj 538 131 bng 15 250 50 0 \$0-reload empty RELOAD -27 7 0 5 -1
-4034 -191407;
#X obj 34 20 inlet;
#X msg 432 567 range \$1;
#X obj 647 4 inlet;
#X obj 441 149 hsl 128 25 0 1 0 0 \$0s-level \$0r-level level 42 12
0 10 -262144 -1 -1 4312 1;
#X obj 441 177 hsl 128 25 0.01 0.5 0 0 \$0s-range \$0r-range range
42 12 0 10 -262144 -1 -1 12700 1;
#X msg 701 545 full_color \$1;
#X obj 701 516 tgl 15 0 empty \$0-colormode full_color -40 7 0 5 -1
-4034 -191407 1 1;
#X msg 578 545 green \$1;
#X msg 529 543 red \$1;
#X msg 642 546 blue \$1;
#X obj 438 236 vsl 42 42 0 1 0 0 empty \$0-mon-red empty 11 64 0 10
-261234 -1 -1 41 0;
#X obj 483 237 vsl 42 42 0 1 0 0 empty \$0-mon-green empty 12 63 0
10 -204786 -1 -1 41 1;
#X obj 527 237 vsl 42 42 0 1 0 0 empty \$0-mon-blue empty 12 63 0 10
-203904 -1 -1 41 1;
#X msg 63 137 open shader/bunt.vert;
#X msg 62 221 open shader/bunt.frag;
#X obj 71 87 delay 1;
#X obj 49 588 Textur;
#X obj 978 59 print unknown_ctl;
#X obj 529 480 f;
#X obj 529 501 * 0;
#X obj 538 459 t b f;
#X obj 573 481 f;
#X obj 573 502 * 0;
#X obj 582 460 t b f;
#X obj 618 483 f;
#X obj 618 504 * 0;
#X obj 627 462 t b f;
#X obj 820 328 s \$0-green;
#X obj 763 326 s \$0-red;
#X obj 888 328 s \$0-blue;
#X obj 1085 321 s \$0-colormode;
#X obj 660 580 print;
#X obj 78 30 r cam;
#X obj 578 3 r b\$1_ctl;
#X floatatom 348 459 5 0 0 0 - - -;
#X floatatom 395 459 5 0 0 0 - - -;
#X obj 347 437 * 1280;
#X obj 403 438 * 720;
#X floatatom 348 402 5 0 0 0 - - -;
#X obj 349 493 pack 1 1;
#X obj 59 412 r \$0-glsl_program;
#X obj 527 591 s \$0-glsl_program;
#X obj 353 590 s \$0-glsl_program;
#X obj 438 205 hradio 26 1 1 5 empty \$0-mon-scenes empty 0 -8 0 10
-262144 -1 -1 0;
#X obj 360 264 s \$0-scenes;
#X obj 353 544 r \$0s-level;
#X obj 432 546 r \$0s-range;
#X msg 1129 294 1;
#X msg 1090 289 0;
#X obj 1074 251 gate 5;
#X obj 824 132 gate 5;
#X obj 779 132 gate 5;
#X obj 735 133 gate 5;
#X obj 907 60 s \$0-fader;
#X obj 682 437 r \$0-fader;
#X obj 459 314 s \$0-green;
#X obj 400 315 s \$0-red;
#X obj 527 314 s \$0-blue;
#X obj 490 436 r \$0-red;
#X obj 549 435 r \$0-green;
#X obj 617 435 r \$0-blue;
#X obj 1096 56 r \$0-scenes;
#X obj 1096 82 + 1;
#X obj 1079 382 * 0.31;
#X obj 1129 381 * 0.52;
#X obj 1182 380 * 0.17;
#X obj 1086 445 +;
#X obj 1125 419 +;
#X floatatom 1083 470 5 0 0 0 - - -;
#X obj 1077 356 r \$0-red;
#X obj 1136 355 r \$0-green;
#X obj 1204 355 r \$0-blue;
#X obj 835 59 s \$0-toggle;
#X obj 556 105 r \$0-toggle;
#X obj 691 129 gate 5;
#X obj 644 128 gate 5;
#X msg 354 569 level \$1;
#X msg 510 71 fader 1;
#X floatatom 432 67 5 0 0 0 - - -;
#X obj 1173 295 bng 15 250 50 0 empty empty empty 17 7 0 10 -262144
-1 -1;
#X obj 1076 222 t b f;
#X obj 1048 285 bng 15 250 50 0 empty empty empty 17 7 0 10 -262144
-1 -1;
#X obj 735 384 s \$0-mon-red;
#X obj 817 384 s \$0-mon-green;
#X obj 913 383 s \$0-mon-blue;
#X obj 135 28 r \$0-mon-toggle;
#X obj 136 89 r \$0-reload;
#X obj 399 9 r \$0-reload;
#X obj 339 54 bng 15 250 50 0 empty empty empty 17 7 0 10 -262144 -1
-1;
#X obj 286 3 loadbang;
#X obj 412 93 s \$0-mon-scenes;
#X obj 374 117 * \$1;
#X msg 379 87 1;
#X obj 370 144 * 0.2;
#X msg 334 89 0.1;
#X obj 358 170 s \$0r-level;
#X obj 292 115 s \$0r-range;
#X obj 333 30 delay 150;
#X msg 282 195 4;
#X obj 214 489 pix_snap2tex;
#X msg 254 462 0 0;
#X obj 254 439 t b b;
#X obj 254 420 loadbang;
#X obj 214 420 t b a;
#X msg 300 461 1024 768;
#X obj 598 246 s \$0s-level;
#X obj 677 247 s \$0s-range;
#X obj 505 366 s \$0-mon-red;
#X obj 587 366 s \$0-mon-green;
#X obj 648 34 route level range red green blue toggle fader;
#X obj 611 168 s \$0r-level;
#X obj 662 210 s \$0r-range;
#X connect 0 0 13 0;
#X connect 1 0 36 0;
#X connect 2 0 7 0;
#X connect 3 0 12 0;
#X connect 4 0 2 0;
#X connect 4 1 2 1;
#X connect 5 0 9 0;
#X connect 6 0 10 0;
#X connect 7 0 1 0;
#X connect 7 0 11 0;
#X connect 8 0 1 0;
#X connect 9 0 4 0;
#X connect 10 0 2 0;
#X connect 12 0 1 0;
#X connect 12 1 5 0;
#X connect 13 0 12 0;
#X connect 13 1 6 0;
#X connect 14 0 33 0;
#X connect 14 0 34 0;
#X connect 16 0 35 0;
#X connect 17 0 13 0;
#X connect 20 0 17 0;
#X connect 21 0 62 0;
#X connect 22 0 129 0;
#X connect 25 0 61 0;
#X connect 26 0 25 0;
#X connect 27 0 61 0;
#X connect 28 0 61 0;
#X connect 29 0 61 0;
#X connect 30 0 76 0;
#X connect 31 0 75 0;
#X connect 32 0 77 0;
#X connect 33 0 13 0;
#X connect 34 0 12 0;
#X connect 35 0 14 0;
#X connect 38 0 39 0;
#X connect 39 0 28 0;
#X connect 40 0 38 0;
#X connect 40 1 39 1;
#X connect 41 0 42 0;
#X connect 42 0 27 0;
#X connect 43 0 41 0;
#X connect 43 1 42 1;
#X connect 44 0 45 0;
#X connect 45 0 29 0;
#X connect 46 0 44 0;
#X connect 46 1 45 1;
#X connect 52 0 17 0;
#X connect 53 0 129 0;
#X connect 54 0 59 0;
#X connect 55 0 59 1;
#X connect 56 0 54 0;
#X connect 57 0 55 0;
#X connect 58 0 56 0;
#X connect 58 0 57 0;
#X connect 60 0 1 0;
#X connect 63 0 64 0;
#X connect 65 0 96 0;
#X connect 66 0 21 0;
#X connect 67 0 50 0;
#X connect 68 0 50 0;
#X connect 69 3 68 0;
#X connect 69 3 101 0;
#X connect 69 4 67 0;
#X connect 69 4 99 0;
#X connect 70 0 104 0;
#X connect 70 3 49 0;
#X connect 70 4 49 0;
#X connect 71 0 103 0;
#X connect 71 3 47 0;
#X connect 71 4 47 0;
#X connect 72 0 102 0;
#X connect 72 3 48 0;
#X connect 72 4 48 0;
#X connect 74 0 40 0;
#X connect 74 0 43 0;
#X connect 74 0 46 0;
#X connect 78 0 38 0;
#X connect 79 0 41 0;
#X connect 80 0 44 0;
#X connect 81 0 82 0;
#X connect 82 0 70 0;
#X connect 82 0 71 0;
#X connect 82 0 100 0;
#X connect 82 0 72 0;
#X connect 82 0 94 0;
#X connect 82 0 95 0;
#X connect 83 0 86 0;
#X connect 84 0 87 0;
#X connect 85 0 87 1;
#X connect 86 0 88 0;
#X connect 87 0 86 1;
#X connect 93 0 18 0;
#X connect 94 0 131 0;
#X connect 94 2 126 0;
#X connect 94 3 126 0;
#X connect 94 4 126 0;
#X connect 95 0 130 0;
#X connect 95 2 125 0;
#X connect 95 3 125 0;
#X connect 95 4 125 0;
#X connect 96 0 62 0;
#X connect 97 0 129 0;
#X connect 98 0 110 0;
#X connect 100 0 69 1;
#X connect 100 1 69 0;
#X connect 105 0 17 1;
#X connect 106 0 14 0;
#X connect 107 0 117 0;
#X connect 108 0 97 0;
#X connect 108 0 98 0;
#X connect 108 0 112 0;
#X connect 108 0 114 0;
#X connect 109 0 117 0;
#X connect 109 0 118 0;
#X connect 111 0 113 0;
#X connect 112 0 111 0;
#X connect 113 0 115 0;
#X connect 114 0 116 0;
#X connect 117 0 108 0;
#X connect 118 0 63 0;
#X connect 120 0 119 1;
#X connect 121 0 120 0;
#X connect 121 1 124 0;
#X connect 122 0 121 0;
#X connect 123 0 119 0;
#X connect 123 1 119 0;
#X connect 124 0 119 2;
#X connect 129 0 95 1;
#X connect 129 1 94 1;
#X connect 129 2 72 1;
#X connect 129 3 71 1;
#X connect 129 4 70 1;
#X connect 129 5 92 0;
#X connect 129 6 73 0;
#X connect 129 7 37 0;
#X coords 0 -1 1 1 136 156 1 436 129;
