#N canvas 1217 291 636 843 10;
#X obj 49 529 pix_snap2tex;
#X msg 89 502 0 0;
#X obj 89 479 t b b;
#X obj 89 460 loadbang;
#X msg 4 136 print;
#X obj 49 411 glsl_program;
#X obj 122 337 pack 0 0;
#X msg 6 218 print;
#X obj 143 317 t b f;
#X obj 143 272 change;
#X obj 121 177 change;
#X msg 122 362 link \$1 \$2;
#X msg -2 343 print;
#X floatatom 143 298 2 0 0 0 ID - -;
#X floatatom 121 200 2 0 0 0 ID - -;
#X obj 140 383 print linking;
#X obj 49 252 glsl_fragment;
#X obj 49 158 glsl_vertex;
#X obj 71 109 bng 15 250 50 0 empty empty empty 0 -6 0 8 -262144 -1
-1;
#X text 108 110 <- 2 : load shader;
#X obj 49 437 t b a;
#X obj 49 574 outlet;
#X obj 91 65 loadbang;
#X obj 49 56 spigot;
#X obj 420 38 tgl 15 0 empty empty empty 17 7 0 10 -1 -4034 -1 0 -84
;
#X obj 402 38 bng 15 250 50 0 empty empty RELOAD -27 7 0 5 -1 -4034
-191407;
#X obj 34 20 inlet;
#X msg 234 386 thresh \$1;
#X msg 313 385 range \$1;
#X obj 215 -82 inlet;
#X obj 305 55 hsl 128 25 0 1 0 0 empty empty value 42 12 0 10 -262144
-1 -1 4199 1;
#X obj 305 82 hsl 128 25 0.01 0.5 0 0 empty empty range 42 12 0 10
-262144 -1 -1 0 1;
#X msg 478 329 full_color \$1;
#X obj 419 109 tgl 15 0 empty empty full_color -40 7 0 5 -1 -4034 -191407
0 1;
#X obj 302 109 bng 15 250 50 0 empty empty pick_color 17 7 0 5 -1 -4034
-191407;
#X obj 222 85 colorpanel;
#X obj 222 114 unpack f f f;
#X msg 352 331 green \$1;
#X msg 303 329 red \$1;
#X msg 416 332 blue \$1;
#X obj 302 128 vsl 42 128 0 1 0 0 empty empty r 11 64 0 10 -261234
-1 -1 0 0;
#X obj 347 128 vsl 42 128 0 1 0 0 empty empty g 12 63 0 10 -204786
-1 -1 0 1;
#X obj 392 128 vsl 42 128 0 1 0 0 empty empty b 12 63 0 10 -203904
-1 -1 0 1;
#X msg 135 501 1024 768;
#X msg 63 137 open shader/bunt.vert;
#X msg 62 221 open shader/bunt.frag;
#X obj 71 87 delay 1;
#X obj 207 557 Textur;
#X obj 49 554 alpha 0.001;
#X obj 215 -55 route value range red green blue toggle fader;
#X obj 482 -29 print unknown_ctl;
#X obj 303 286 f;
#X obj 303 307 * 0;
#X obj 312 265 t b f;
#X obj 347 287 f;
#X obj 347 308 * 0;
#X obj 356 266 t b f;
#X obj 392 289 f;
#X obj 392 310 * 0;
#X obj 401 268 t b f;
#X connect 0 0 48 0;
#X connect 0 0 47 0;
#X connect 1 0 0 1;
#X connect 2 0 1 0;
#X connect 2 1 43 0;
#X connect 3 0 2 0;
#X connect 4 0 17 0;
#X connect 5 0 20 0;
#X connect 6 0 11 0;
#X connect 7 0 16 0;
#X connect 8 0 6 0;
#X connect 8 1 6 1;
#X connect 9 0 13 0;
#X connect 10 0 14 0;
#X connect 11 0 5 0;
#X connect 11 0 15 0;
#X connect 12 0 5 0;
#X connect 13 0 8 0;
#X connect 14 0 6 0;
#X connect 16 0 5 0;
#X connect 16 1 9 0;
#X connect 17 0 16 0;
#X connect 17 1 10 0;
#X connect 18 0 44 0;
#X connect 18 0 45 0;
#X connect 20 0 0 0;
#X connect 20 1 0 0;
#X connect 22 0 46 0;
#X connect 23 0 17 0;
#X connect 24 0 23 1;
#X connect 25 0 18 0;
#X connect 26 0 23 0;
#X connect 27 0 5 0;
#X connect 28 0 5 0;
#X connect 29 0 49 0;
#X connect 30 0 27 0;
#X connect 31 0 28 0;
#X connect 32 0 5 0;
#X connect 33 0 32 0;
#X connect 34 0 35 0;
#X connect 35 0 36 0;
#X connect 36 0 40 0;
#X connect 36 1 41 0;
#X connect 36 2 42 0;
#X connect 37 0 5 0;
#X connect 38 0 5 0;
#X connect 39 0 5 0;
#X connect 40 0 51 0;
#X connect 41 0 54 0;
#X connect 42 0 57 0;
#X connect 43 0 0 2;
#X connect 44 0 17 0;
#X connect 45 0 16 0;
#X connect 46 0 18 0;
#X connect 48 0 21 0;
#X connect 49 0 30 0;
#X connect 49 1 31 0;
#X connect 49 2 40 0;
#X connect 49 3 41 0;
#X connect 49 4 42 0;
#X connect 49 5 24 0;
#X connect 49 6 53 0;
#X connect 49 6 56 0;
#X connect 49 6 59 0;
#X connect 49 7 50 0;
#X connect 51 0 52 0;
#X connect 52 0 38 0;
#X connect 53 0 51 0;
#X connect 53 1 52 1;
#X connect 54 0 55 0;
#X connect 55 0 37 0;
#X connect 56 0 54 0;
#X connect 56 1 55 1;
#X connect 57 0 58 0;
#X connect 58 0 39 0;
#X connect 59 0 57 0;
#X connect 59 1 58 1;
#X coords 0 -1 1 1 137 226 1 300 35;
