#N canvas 847 633 320 400 10;
#X obj -17 13 gemhead;
#X msg 77 13 colorspace RGBA;
#N canvas 897 390 218 230 flip 0;
#X obj 12 10 inlet;
#X obj 12 176 outlet;
#X obj 12 85 rotateXYZ 0 180 0;
#X obj 65 10 inlet;
#X obj 65 31 sel 0;
#X msg 65 52 0;
#X msg 98 52 180;
#X obj 135 10 inlet;
#X obj 135 31 sel 0;
#X msg 135 52 0;
#X msg 168 52 180;
#X connect 0 0 2 0;
#X connect 2 0 1 0;
#X connect 3 0 4 0;
#X connect 4 0 5 0;
#X connect 4 1 6 0;
#X connect 5 0 2 1;
#X connect 6 0 2 1;
#X connect 7 0 8 0;
#X connect 8 0 9 0;
#X connect 8 1 10 0;
#X connect 9 0 2 2;
#X connect 10 0 2 2;
#X restore -17 204 pd flip;
#X obj 25 137 tgl 15 0 empty empty vert 17 7 0 5 -262144 -1 -1 0 1
;
#X obj 68 137 tgl 15 0 empty empty horiz 17 7 0 5 -262144 -1 -1 0 1
;
#X obj -17 316 outlet;
#X obj 118 122 tgl 15 0 empty empty empty 17 7 0 10 -33289 -4034 -1
1 1;
#X obj -17 35 spigot;
#X obj 166 86 loadbang;
#X obj 160 150 sel 1;
#X msg 102 51 open 0;
#X msg 161 50 close;
#X floatatom 25 154 5 0 0 1 X - -;
#X msg -2 264 dimen \$1 \$2;
#X msg 196 14 dialog;
#X obj -17 96 pix_video;
#X msg 73 -11 dimen 1280 720;
#X obj 23 229 pack 640 480;
#X floatatom 67 154 5 0 0 1 Y - -;
#X obj 41 316 s cam;
#X text 107 138 flip;
#X text 108 155 size;
#X connect 0 0 7 0;
#X connect 1 0 15 0;
#X connect 2 0 5 0;
#X connect 2 0 19 0;
#X connect 3 0 2 1;
#X connect 4 0 2 2;
#X connect 6 0 7 1;
#X connect 6 0 9 0;
#X connect 7 0 15 0;
#X connect 8 0 6 0;
#X connect 9 0 10 0;
#X connect 9 1 11 0;
#X connect 10 0 15 0;
#X connect 11 0 15 0;
#X connect 12 0 17 0;
#X connect 13 0 15 0;
#X connect 14 0 15 0;
#X connect 15 0 2 0;
#X connect 16 0 15 0;
#X connect 17 0 13 0;
#X connect 18 0 17 1;
#X coords 0 -1 1 1 113 52 1 23 120;
