#N canvas 337 102 819 601 10;
#X obj -17 13 gemhead;
#X msg 77 13 colorspace RGBA;
#N canvas 899 423 218 230 flip 0;
#X obj 12 10 inlet;
#X obj 12 176 outlet;
#X obj 12 85 rotateXYZ 0 180 0;
#X obj 65 10 inlet;
#X obj 65 31 sel 0;
#X msg 65 52 0;
#X msg 98 52 180;
#X obj 135 10 inlet;
#X obj 135 31 sel 0;
#X msg 135 52 0;
#X msg 168 52 180;
#X connect 0 0 2 0;
#X connect 2 0 1 0;
#X connect 3 0 4 0;
#X connect 4 0 5 0;
#X connect 4 1 6 0;
#X connect 5 0 2 1;
#X connect 6 0 2 1;
#X connect 7 0 8 0;
#X connect 8 0 9 0;
#X connect 8 1 10 0;
#X connect 9 0 2 2;
#X connect 10 0 2 2;
#X restore -17 204 pd flip;
#X obj 25 137 tgl 15 0 empty empty vert 17 7 0 5 -262144 -1 -1 0 1
;
#X obj 68 137 tgl 15 0 empty empty horiz 17 7 0 5 -262144 -1 -1 0 1
;
#X obj -16 353 outlet;
#X obj -17 35 spigot;
#X obj 166 86 loadbang;
#X obj 114 87 sel 1;
#X msg 161 50 close;
#X floatatom 25 154 5 0 0 1 X - -, f 5;
#X msg -2 264 dimen \$1 \$2;
#X msg 196 14 dialog;
#X obj -17 96 pix_video;
#X msg 73 -11 dimen 1280 720;
#X obj 7 232 pack 640 480;
#X floatatom 67 154 5 0 0 1 Y - -, f 5;
#X obj 41 346 s cam;
#X text 107 138 flip;
#X text 108 155 size;
#X obj 131 122 tgl 15 0 empty empty empty 17 7 0 10 -262144 -1 -1 1
1;
#X obj 5 321 translateXYZ;
#X floatatom 104 174 5 0 0 0 - #0-z -, f 5;
#X floatatom 67 174 5 0 0 0 - #0-y -, f 5;
#X floatatom 26 174 5 0 0 0 - #0-x -, f 5;
#X obj 208 59 r z_cam;
#X obj 458 90 hid;
#X msg 459 21 open \$1;
#X floatatom 462 -5 5 0 0 0 - - -, f 5;
#X msg 492 76 open 0x045e:0x071a5;
#X obj 432 65 tgl 15 0 empty empty empty 17 7 0 10 -262144 -1 -1 0
1;
#X floatatom 440 259 6 0 0 0 - - -, f 6;
#X floatatom 556 170 5 0 0 1 ev_syn - -, f 5;
#X obj 529 169 +;
#X msg 529 149 1;
#X obj 434 118 route key rel abs syn;
#X floatatom 490 259 6 0 0 0 - - -, f 6;
#X floatatom 540 259 6 0 0 0 - - -, f 6;
#X floatatom 590 259 6 0 0 0 - - -, f 6;
#X floatatom 640 259 6 0 0 0 - - -, f 6;
#X floatatom 690 259 6 0 0 0 - - -, f 6;
#X floatatom 740 259 6 0 0 0 - - -, f 6;
#X obj 440 229 route abs_x abs_y abs_z abs_rx abs_ry abs_rz abs_throttle
;
#X obj 344 493 s \$0-y;
#X obj 207 330 gem_add_joypad_axis;
#X obj 207 451 s \$0-x;
#X obj 246 212 hsl 120 25 1000 5 1 0 empty empty gamepadspeed 5 12
0 10 -262144 -1 -1 0 1;
#X obj 339 331 gem_add_joypad_axis;
#X msg 523 18 refresh;
#X msg 479 46 refresh;
#X obj 498 376 gemhead;
#X obj 497 404 b;
#X obj 548 375 / 1000;
#X obj 569 452 +;
#X obj 567 481 f;
#X obj 547 424 f;
#X msg 587 404 0;
#X obj 622 374 hsl 120 25 1000 10 1 0 empty empty speed 5 12 0 10 -262144
-1 -1 0 1;
#X obj 527 346 / 255;
#X obj 581 325 * -1;
#X obj 565 561 s \$0-z;
#X obj 293 437 * -1;
#X floatatom 89 287 5 0 0 0 - - -, f 5;
#X floatatom 120 287 5 0 0 0 - - -, f 5;
#X floatatom 150 290 5 0 0 0 - - -, f 5;
#X obj 205 422 spigot;
#X obj 236 405 tgl 15 0 empty empty empty 17 7 0 10 -262144 -1 -1 0
1;
#X obj 240 383 r \$0-startgamepad;
#X obj 344 457 spigot;
#X obj 375 440 tgl 15 0 empty empty empty 17 7 0 10 -262144 -1 -1 0
1;
#X obj 379 418 r \$0-startgamepad;
#X obj 572 537 spigot;
#X obj 603 520 tgl 15 0 empty empty empty 17 7 0 10 -262144 -1 -1 0
1;
#X obj 607 498 r \$0-startgamepad;
#X obj 339 93 s \$0-startgamepad;
#X obj 26 195 hradio 15 1 0 4 empty empty device 62 8 0 10 -262144
-1 -1 1;
#X msg 158 138 1;
#X msg 102 51 device /dev/video\$1;
#X connect 0 0 6 0;
#X connect 1 0 13 0;
#X connect 2 0 5 0;
#X connect 2 0 21 0;
#X connect 3 0 2 1;
#X connect 4 0 2 2;
#X connect 6 0 13 0;
#X connect 7 0 20 0;
#X connect 7 0 76 0;
#X connect 8 0 75 0;
#X connect 8 1 9 0;
#X connect 9 0 13 0;
#X connect 10 0 15 0;
#X connect 11 0 13 0;
#X connect 12 0 13 0;
#X connect 13 0 2 0;
#X connect 14 0 13 0;
#X connect 15 0 11 0;
#X connect 16 0 15 1;
#X connect 20 0 8 0;
#X connect 20 0 6 1;
#X connect 21 0 17 0;
#X connect 22 0 21 3;
#X connect 23 0 21 2;
#X connect 24 0 21 1;
#X connect 26 0 35 0;
#X connect 27 0 26 0;
#X connect 28 0 27 0;
#X connect 29 0 26 0;
#X connect 30 0 26 0;
#X connect 30 0 74 0;
#X connect 32 0 33 1;
#X connect 33 0 32 0;
#X connect 34 0 33 0;
#X connect 35 2 42 0;
#X connect 35 3 34 0;
#X connect 37 0 58 0;
#X connect 40 0 59 0;
#X connect 42 0 31 0;
#X connect 42 0 44 0;
#X connect 42 1 36 0;
#X connect 42 1 61 0;
#X connect 42 2 37 0;
#X connect 42 3 38 0;
#X connect 42 4 39 0;
#X connect 42 5 40 0;
#X connect 42 6 41 0;
#X connect 44 0 65 0;
#X connect 46 0 44 1;
#X connect 46 0 47 1;
#X connect 47 0 68 0;
#X connect 49 0 26 0;
#X connect 50 0 51 0;
#X connect 51 0 55 0;
#X connect 52 0 55 1;
#X connect 53 0 54 0;
#X connect 54 0 53 1;
#X connect 54 0 71 0;
#X connect 55 0 53 0;
#X connect 56 0 55 1;
#X connect 57 0 52 1;
#X connect 58 0 52 0;
#X connect 59 0 58 0;
#X connect 61 0 47 0;
#X connect 62 0 21 1;
#X connect 63 0 21 2;
#X connect 64 0 21 3;
#X connect 65 0 45 0;
#X connect 66 0 65 1;
#X connect 67 0 66 0;
#X connect 68 0 43 0;
#X connect 69 0 68 1;
#X connect 70 0 69 0;
#X connect 71 0 60 0;
#X connect 72 0 71 1;
#X connect 73 0 72 0;
#X connect 75 0 77 0;
#X connect 76 0 75 0;
#X connect 77 0 13 0;
#X coords 0 -1 1 1 125 100 1 23 120;
