#N canvas 1003 202 822 716 10;
#X msg 119 275 print;
#X obj 164 550 glsl_program;
#X obj 237 476 pack 0 0;
#X msg 121 357 print;
#X obj 258 456 t b f;
#X obj 258 411 change;
#X obj 236 316 change;
#X msg 237 501 link \$1 \$2;
#X msg 181 503 print;
#X floatatom 258 437 2 0 0 0 ID - -;
#X floatatom 236 339 2 0 0 0 ID - -;
#X obj 255 522 print linking;
#X obj 164 391 glsl_fragment;
#X obj 164 297 glsl_vertex;
#X obj 186 248 bng 15 250 50 0 empty empty empty 0 -6 0 8 -262144 -1
-1;
#X obj 164 579 outlet;
#X obj 186 224 loadbang;
#X obj 131 220 spigot;
#X obj 401 22 tgl 15 0 empty empty empty 17 7 0 10 -262144 -1 -1 1
1;
#X obj 384 22 bng 15 250 50 0 empty empty reload -25 7 0 5 -262144
-1 -1;
#X obj 34 170 inlet;
#X obj 69 240 tgl 15 0 empty empty empty 17 7 0 10 -262144 -1 -1 0
-1;
#X obj 69 213 - 1;
#X obj 37 264 spigot;
#X msg 178 277 open shader/cannyedge.vert;
#X msg 186 360 open shader/cannyedge.frag;
#X obj 285 39 hsl 128 25 0 1 0 0 empty \$0-threshold threshold 23 12
0 10 -262144 -1 -1 0 1;
#X obj 21 420 t b f;
#X obj 21 464 / 1;
#X msg 21 441 1;
#X msg 21 513 width \$1;
#X obj 86 427 t b f;
#X obj 86 474 / 1;
#X msg 86 448 1;
#X msg 86 514 height \$1;
#X obj 86 494 f;
#X obj 21 488 f;
#X obj 17 362 pix_info;
#X obj 537 48 inlet;
#X obj 81 402 change;
#X obj 19 394 change;
#X obj 115 474 bng 15 250 50 0 empty empty empty 17 7 0 10 -262144
-1 -1;
#X obj 87 328 delay 100;
#X msg 311 473 threshhold \$1;
#X obj 400 66 tgl 15 0 empty \$0-colormode colormode -36 7 0 5 -262144
-1 -1 1 1;
#X obj 282 66 bng 15 250 50 0 empty empty pick_color 17 7 0 5 -262144
-1 -1;
#X obj 202 50 colorpanel;
#X obj 202 79 unpack f f f;
#X msg 332 246 green \$1;
#X msg 282 246 red \$1;
#X msg 398 248 blue \$1;
#X obj 282 85 vsl 30 128 0 1 0 0 empty \$0-red empty 0 -9 0 10 -261234
-1 -1 0 1;
#X obj 333 85 vsl 30 128 0 1 0 0 empty \$0-green empty 0 -9 0 10 -204786
-1 -1 1 1;
#X obj 384 85 vsl 30 128 0 1 0 0 empty \$0-blue empty 0 -9 0 10 -203904
-1 -1 1 1;
#X obj 443 10 sel 1;
#X obj 446 40 b;
#X obj 446 76 delay 39;
#X msg 509 385 colormode \$1;
#X obj 265 558 Textur;
#X obj 469 143 gate 2;
#X obj 524 184 s \$0-green;
#X obj 465 185 s \$0-red;
#X obj 592 184 s \$0-blue;
#X obj 513 142 gate 2;
#X obj 558 142 gate 2;
#X obj 340 66 tgl 15 0 empty empty empty 17 7 0 10 -262144 -1 -1 0
1;
#X obj 469 113 + 1;
#X obj 513 80 route red green blue threshhold colormode;
#X obj 643 141 gate 2;
#X obj 688 141 gate 2;
#X obj 654 183 s \$0-threshold;
#X obj 688 207 s \$0-colormode;
#X obj 199 17 loadbang;
#X obj 514 24 r canny_ctl;
#X connect 0 0 13 0;
#X connect 1 0 15 0;
#X connect 1 0 58 0;
#X connect 2 0 7 0;
#X connect 3 0 12 0;
#X connect 4 0 2 0;
#X connect 4 1 2 1;
#X connect 5 0 9 0;
#X connect 6 0 10 0;
#X connect 7 0 1 0;
#X connect 7 0 11 0;
#X connect 8 0 1 0;
#X connect 9 0 4 0;
#X connect 10 0 2 0;
#X connect 12 0 1 0;
#X connect 12 1 5 0;
#X connect 13 0 12 0;
#X connect 13 1 6 0;
#X connect 14 0 24 0;
#X connect 14 0 25 0;
#X connect 14 0 42 0;
#X connect 16 0 14 0;
#X connect 17 0 37 0;
#X connect 17 0 13 0;
#X connect 18 0 17 1;
#X connect 18 0 22 0;
#X connect 18 0 54 0;
#X connect 19 0 14 0;
#X connect 20 0 17 0;
#X connect 20 0 23 0;
#X connect 21 0 23 1;
#X connect 22 0 21 0;
#X connect 23 0 15 0;
#X connect 24 0 13 0;
#X connect 25 0 12 0;
#X connect 26 0 43 0;
#X connect 27 0 29 0;
#X connect 27 1 28 1;
#X connect 28 0 36 0;
#X connect 29 0 28 0;
#X connect 30 0 1 0;
#X connect 31 0 33 0;
#X connect 31 1 32 1;
#X connect 32 0 35 0;
#X connect 33 0 32 0;
#X connect 34 0 1 0;
#X connect 35 0 34 0;
#X connect 36 0 30 0;
#X connect 37 1 40 0;
#X connect 37 2 39 0;
#X connect 38 0 67 0;
#X connect 39 0 31 0;
#X connect 40 0 27 0;
#X connect 41 0 35 0;
#X connect 41 0 36 0;
#X connect 42 0 41 0;
#X connect 43 0 1 0;
#X connect 44 0 57 0;
#X connect 45 0 46 0;
#X connect 46 0 47 0;
#X connect 47 0 51 0;
#X connect 47 1 52 0;
#X connect 47 2 53 0;
#X connect 48 0 1 0;
#X connect 49 0 1 0;
#X connect 50 0 1 0;
#X connect 51 0 49 0;
#X connect 52 0 48 0;
#X connect 53 0 50 0;
#X connect 54 0 55 0;
#X connect 55 0 56 0;
#X connect 56 0 19 0;
#X connect 57 0 1 0;
#X connect 59 0 49 0;
#X connect 59 1 61 0;
#X connect 63 0 48 0;
#X connect 63 1 60 0;
#X connect 64 0 50 0;
#X connect 64 1 62 0;
#X connect 65 0 66 0;
#X connect 66 0 63 0;
#X connect 66 0 64 0;
#X connect 66 0 59 0;
#X connect 66 0 68 0;
#X connect 66 0 69 0;
#X connect 67 0 59 1;
#X connect 67 1 63 1;
#X connect 67 2 64 1;
#X connect 67 3 68 1;
#X connect 67 4 69 1;
#X connect 68 0 43 0;
#X connect 68 1 70 0;
#X connect 69 0 57 0;
#X connect 69 1 71 0;
#X connect 72 0 65 0;
#X connect 72 0 44 0;
#X connect 73 0 67 0;
#X coords 0 -1 1 1 137 198 1 280 20;
