#N canvas 943 199 930 816 10;
#X obj 76 5 gemhead;
#X obj 76 476 glsl_program;
#X obj 149 268 pack 0 0;
#X obj 170 248 t b f;
#X obj 164 203 change;
#X msg 149 294 link \$1 \$2;
#X floatatom 170 229 2 0 0 0 ID - -;
#X floatatom 148 121 2 0 0 0 ID - -;
#X obj 167 315 print linking;
#X obj 142 27 bng 15 250 50 0 empty empty empty 0 -6 0 8 -262144 -1
-1;
#X obj 76 79 glsl_vertex;
#X obj 76 183 glsl_fragment;
#X obj 463 464 pix_texture;
#X obj 463 350 gemhead 11;
#X obj 463 324 tgl 15 0 empty empty empty 17 7 0 10 -262144 -1 -1 0
1;
#X msg 503 432 texunit 1;
#X obj 687 467 pix_texture;
#X obj 687 334 tgl 15 0 empty empty empty 17 7 0 10 -262144 -1 -1 0
1;
#X msg 725 430 texunit 0;
#X msg 187 406 MyTex 0;
#X obj 75 644 pix_texture;
#X obj 218 477 bng 15 250 50 0 empty empty empty 17 7 0 10 -262144
-1 -1;
#X msg 254 381 MyTex1 1;
#X msg 255 406 MyTex 1;
#X msg 186 381 MyTex1 0;
#X msg 321 382 MyTex1 2;
#X msg 326 407 MyTex 2;
#N canvas 0 0 450 300 load_shader 0;
#X obj 89 99 t b b;
#X msg 119 126 0;
#X obj 89 154 outlet;
#X obj 89 71 gemhead 1;
#X connect 0 0 2 0;
#X connect 0 1 1 0;
#X connect 1 0 3 0;
#X connect 3 0 0 0;
#X restore 142 5 pd load_shader;
#N canvas 5 58 450 300 init_shader 0;
#X obj 89 154 outlet;
#X obj 89 45 inlet;
#X obj 89 73 change;
#X obj 89 100 t b;
#X connect 1 0 2 0;
#X connect 2 0 3 0;
#X connect 3 0 0 0;
#X restore 303 496 pd init_shader;
#X obj 491 387 loadbang;
#X obj 99 580 loadbang;
#X obj 716 388 loadbang;
#X text 187 360 2) change shader texuinit;
#X obj 148 98 change;
#X text 343 147 This is an example of multitexturing \, this shader
mixes 2 textures;
#X msg 99 602 texunit 2 \, rectangle 0;
#X msg 491 409 texunit 0 \, rectangle 0;
#X msg 716 409 texunit 1 \, rectangle 0;
#X obj 434 229 r cam;
#X obj 687 358 gemhead 22;
#X floatatom 302 662 5 0 0 1 X[deg] - -;
#X obj 86 703 rotateXYZ 45 0 0;
#X floatatom 322 682 5 0 0 1 Y[deg] - -;
#X floatatom 346 702 5 0 0 1 Z[deg] - -;
#X msg 90 57 open shader/multitexture.vert;
#X msg 86 153 open shader/multitexture.frag;
#X floatatom 794 247 5 0 0 0 - - -;
#X obj 756 213 r cam;
#X floatatom 297 283 5 0 0 0 - - -;
#X msg 281 316 threshold \$1;
#X obj 753 286 pix_delay;
#X floatatom 32 338 5 0 0 0 - - -;
#X msg 16 371 brightness \$1;
#X obj 495 648 GEMglColor;
#X obj 82 748 rectangle 5.34 4;
#X connect 0 0 10 0;
#X connect 1 0 20 0;
#X connect 1 1 28 0;
#X connect 2 0 5 0;
#X connect 3 0 2 0;
#X connect 3 1 2 1;
#X connect 4 0 6 0;
#X connect 5 0 1 0;
#X connect 5 0 8 0;
#X connect 6 0 3 0;
#X connect 7 0 2 0;
#X connect 9 0 44 0;
#X connect 9 0 45 0;
#X connect 10 0 11 0;
#X connect 10 1 33 0;
#X connect 11 0 1 0;
#X connect 11 1 4 0;
#X connect 13 0 12 0;
#X connect 14 0 13 0;
#X connect 15 0 12 0;
#X connect 17 0 39 0;
#X connect 18 0 16 0;
#X connect 19 0 1 0;
#X connect 20 0 41 0;
#X connect 22 0 1 0;
#X connect 23 0 1 0;
#X connect 24 0 1 0;
#X connect 25 0 1 0;
#X connect 26 0 1 0;
#X connect 27 0 9 0;
#X connect 28 0 22 0;
#X connect 28 0 19 0;
#X connect 29 0 36 0;
#X connect 30 0 35 0;
#X connect 31 0 37 0;
#X connect 33 0 7 0;
#X connect 35 0 20 0;
#X connect 36 0 12 0;
#X connect 37 0 16 0;
#X connect 38 0 12 0;
#X connect 39 0 16 0;
#X connect 40 0 41 1;
#X connect 41 0 54 0;
#X connect 42 0 41 2;
#X connect 43 0 41 3;
#X connect 44 0 10 0;
#X connect 45 0 11 0;
#X connect 46 0 50 1;
#X connect 47 0 50 0;
#X connect 48 0 49 0;
#X connect 49 0 1 0;
#X connect 50 0 16 0;
#X connect 51 0 52 0;
#X connect 52 0 1 0;
