#N canvas 747 96 930 851 10;
#X obj 76 5 gemhead;
#X obj 76 476 glsl_program;
#X obj 149 268 pack 0 0;
#X obj 170 248 t b f;
#X obj 164 203 change;
#X msg 149 294 link \$1 \$2;
#X floatatom 170 229 2 0 0 0 ID - -;
#X floatatom 148 121 2 0 0 0 ID - -;
#X obj 167 315 print linking;
#X obj 76 79 glsl_vertex;
#X obj 76 183 glsl_fragment;
#X obj 463 464 pix_texture;
#X obj 463 350 gemhead 11;
#X obj 463 324 tgl 15 0 empty empty empty 17 7 0 10 -262144 -1 -1 0
1;
#X msg 503 432 texunit 1;
#X obj 714 469 pix_texture;
#X obj 714 336 tgl 15 0 empty empty empty 17 7 0 10 -262144 -1 -1 0
1;
#X msg 752 432 texunit 0;
#X msg 187 406 MyTex 0;
#X obj 75 644 pix_texture;
#X msg 254 381 MyTex1 1;
#X msg 255 406 MyTex 1;
#X msg 186 381 MyTex1 0;
#X msg 321 382 MyTex1 2;
#X msg 326 407 MyTex 2;
#N canvas 7 63 450 300 init_shader 0;
#X obj 89 154 outlet;
#X obj 89 45 inlet;
#X obj 89 73 change;
#X obj 89 100 t b;
#X connect 1 0 2 0;
#X connect 2 0 3 0;
#X connect 3 0 0 0;
#X restore 303 496 pd init_shader;
#X obj 491 387 loadbang;
#X obj 99 580 loadbang;
#X obj 743 390 loadbang;
#X text 187 360 2) change shader texuinit;
#X obj 148 98 change;
#X msg 99 602 texunit 2 \, rectangle 0;
#X msg 491 409 texunit 0 \, rectangle 0;
#X msg 743 411 texunit 1 \, rectangle 0;
#X obj 418 419 r cam;
#X obj 714 360 gemhead 22;
#X floatatom 302 662 5 0 0 1 X[deg] - -;
#X floatatom 322 682 5 0 0 1 Y[deg] - -;
#X floatatom 346 702 5 0 0 1 Z[deg] - -;
#X msg 90 57 open shader/multitexture.vert;
#X msg 86 153 open shader/multitexture.frag;
#X floatatom 687 398 5 0 0 0 - - -;
#X obj 646 376 r cam;
#X floatatom 639 643 5 0 0 0 - - -;
#X obj 646 437 pix_delay;
#X obj 520 30 tgl 15 0 \$0-mon-toggle empty empty 17 7 0 10 -1 -4034
-1 -84 -84;
#X obj 502 30 bng 15 250 50 0 \$0-reload empty RELOAD -27 7 0 5 -1
-4034 -191407;
#X obj 405 48 hsl 128 25 0 1 0 0 \$0s-level \$0r-level level 42 12
0 10 -262144 -1 -1 1400 1;
#X obj 405 76 hsl 128 25 0.01 0.5 0 0 \$0s-fader \$0r-fader fader 42
12 0 10 -262144 -1 -1 12700 1;
#X obj 402 135 vsl 42 42 0 1 0 0 empty \$0-mon-red empty 11 64 0 10
-261234 -1 -1 4100 0;
#X obj 447 136 vsl 42 42 0 1 0 0 empty \$0-mon-green empty 12 63 0
10 -204786 -1 -1 4100 1;
#X obj 491 136 vsl 42 42 0 1 0 0 empty \$0-mon-blue empty 12 63 0 10
-203904 -1 -1 4100 1;
#X obj 402 104 hradio 26 1 0 5 empty \$0-mon-scenes empty 0 -8 0 10
-262144 -1 -1 1;
#X obj 324 163 s \$0-scenes;
#X obj 423 213 s \$0-green;
#X obj 364 214 s \$0-red;
#X obj 491 213 s \$0-blue;
#X obj 520 4 r \$0-toggle;
#X msg 513 676 green \$1;
#X msg 464 674 red \$1;
#X msg 577 677 blue \$1;
#X obj 464 611 f;
#X obj 464 632 * 0;
#X obj 473 590 t b f;
#X obj 508 612 f;
#X obj 508 633 * 0;
#X obj 517 591 t b f;
#X obj 553 614 f;
#X obj 553 635 * 0;
#X obj 562 593 t b f;
#X obj 462 722 s \$0-glsl_program;
#X obj 425 567 r \$0-red;
#X obj 484 566 r \$0-green;
#X obj 552 566 r \$0-blue;
#X obj 11 434 r \$0-glsl_program;
#X obj 700 98 s \$0r-level;
#X obj 687 301 r \$0-scenes;
#X obj 76 28 spigot;
#X obj 128 6 r \$0-mon-toggle;
#X obj 646 613 r \$0s-level;
#X msg 648 677 brightness \$1;
#X obj 269 297 r \$0-reload;
#X obj 268 325 delay 200;
#X obj 693 22 r \$0-reload;
#X obj 696 49 delay 200;
#X obj 134 30 r \$0-reload;
#X msg 700 76 0.1;
#X obj 617 568 r \$0s-fader;
#X obj 544 326 r \$0-reload;
#X obj 547 353 delay 200;
#X obj 790 323 r \$0-reload;
#X obj 793 350 delay 200;
#X obj 86 703 rotateXYZ 0 0 180;
#X obj 611 779 translateXYZ -1 0 0;
#X floatatom 320 753 5 0 0 1 Y[deg] - -;
#X floatatom 344 773 5 0 0 1 Z[deg] - -;
#X floatatom 174 795 5 0 0 0 - - -;
#X floatatom 120 793 5 0 0 0 - - -;
#X floatatom 300 733 5 0 0 1 X[deg] - -;
#X obj 84 774 translateXYZ 0.97 0.27 0;
#X obj 84 820 rectangle 6.34 4.25;
#X connect 0 0 77 0;
#X connect 1 0 19 0;
#X connect 1 1 25 0;
#X connect 2 0 5 0;
#X connect 3 0 2 0;
#X connect 3 1 2 1;
#X connect 4 0 6 0;
#X connect 5 0 1 0;
#X connect 5 0 8 0;
#X connect 6 0 3 0;
#X connect 7 0 2 0;
#X connect 9 0 10 0;
#X connect 9 1 30 0;
#X connect 10 0 1 0;
#X connect 10 1 4 0;
#X connect 12 0 11 0;
#X connect 13 0 12 0;
#X connect 14 0 11 0;
#X connect 16 0 35 0;
#X connect 17 0 15 0;
#X connect 18 0 1 0;
#X connect 19 0 92 0;
#X connect 20 0 1 0;
#X connect 21 0 1 0;
#X connect 22 0 1 0;
#X connect 23 0 1 0;
#X connect 24 0 1 0;
#X connect 25 0 20 0;
#X connect 25 0 18 0;
#X connect 26 0 32 0;
#X connect 27 0 31 0;
#X connect 28 0 33 0;
#X connect 30 0 7 0;
#X connect 31 0 19 0;
#X connect 32 0 11 0;
#X connect 33 0 15 0;
#X connect 34 0 11 0;
#X connect 35 0 15 0;
#X connect 36 0 92 1;
#X connect 37 0 92 2;
#X connect 38 0 92 3;
#X connect 39 0 9 0;
#X connect 40 0 10 0;
#X connect 41 0 44 1;
#X connect 42 0 44 0;
#X connect 43 0 80 0;
#X connect 44 0 15 0;
#X connect 49 0 55 0;
#X connect 50 0 54 0;
#X connect 51 0 56 0;
#X connect 52 0 53 0;
#X connect 57 0 45 0;
#X connect 58 0 70 0;
#X connect 59 0 70 0;
#X connect 60 0 70 0;
#X connect 61 0 62 0;
#X connect 62 0 59 0;
#X connect 63 0 61 0;
#X connect 63 1 62 1;
#X connect 64 0 65 0;
#X connect 65 0 58 0;
#X connect 66 0 64 0;
#X connect 66 1 65 1;
#X connect 67 0 68 0;
#X connect 68 0 60 0;
#X connect 69 0 67 0;
#X connect 69 1 68 1;
#X connect 71 0 61 0;
#X connect 72 0 64 0;
#X connect 73 0 67 0;
#X connect 74 0 1 0;
#X connect 76 0 41 0;
#X connect 77 0 9 0;
#X connect 78 0 77 1;
#X connect 79 0 43 0;
#X connect 80 0 70 0;
#X connect 81 0 82 0;
#X connect 82 0 20 0;
#X connect 82 0 18 0;
#X connect 83 0 84 0;
#X connect 84 0 86 0;
#X connect 85 0 39 0;
#X connect 85 0 40 0;
#X connect 86 0 75 0;
#X connect 87 0 63 0;
#X connect 87 0 66 0;
#X connect 87 0 69 0;
#X connect 88 0 89 0;
#X connect 89 0 32 0;
#X connect 90 0 91 0;
#X connect 91 0 33 0;
#X connect 92 0 99 0;
#X connect 94 0 99 2;
#X connect 95 0 99 3;
#X connect 96 0 100 2;
#X connect 97 0 100 1;
#X connect 98 0 99 1;
#X connect 99 0 100 0;
#X coords 0 -1 1 1 137 155 1 400 28;
