#N canvas 927 81 925 637 10;
#X obj 6 -25 Fenster;
#X obj -109 -25 Cam;
#X obj 448 368 gaussblur5x5;
#X obj 448 390 cannyedge;
#X obj 115 82 fraktal_shader;
#X obj 188 -17 r amp;
#N canvas 1283 410 450 300 amp2thres 0;
#X floatatom 106 139 5 0 0 2 low - -;
#X floatatom 145 140 5 0 0 2 hi - -;
#X obj 31 138 inlet;
#X obj 74 173 autoscale 0 1;
#X obj 73 253 outlet;
#X floatatom 186 139 5 0 0 2 low - -;
#X floatatom 225 140 5 0 0 2 hi - -;
#X text 187 105 green;
#X floatatom 266 139 5 0 0 2 low - -;
#X floatatom 305 140 5 0 0 2 hi - -;
#X text 107 105 red;
#X text 267 105 blue;
#X msg 72 215 red \$1;
#X obj 171 173 autoscale 0 1;
#X msg 169 215 green \$1;
#X obj 264 172 autoscale 0 1;
#X msg 264 214 blue \$1;
#X connect 0 0 3 1;
#X connect 1 0 3 2;
#X connect 2 0 3 0;
#X connect 2 0 13 0;
#X connect 2 0 15 0;
#X connect 3 0 12 0;
#X connect 5 0 13 1;
#X connect 6 0 13 2;
#X connect 8 0 15 1;
#X connect 9 0 15 2;
#X connect 12 0 4 0;
#X connect 13 0 14 0;
#X connect 14 0 4 0;
#X connect 15 0 16 0;
#X connect 16 0 4 0;
#X coords 0 -1 1 1 255 60 2 100 100;
#X restore 424 273 pd amp2thres;
#X obj 448 343 r cam;
#X obj -109 344 r cam;
#X obj 31 345 r cam;
#X obj 169 344 r cam;
#X obj 307 344 r cam;
#N canvas 1109 756 450 251 amp2thres 0;
#X floatatom 106 119 5 0 0 2 low - -;
#X floatatom 145 120 5 0 0 2 hi - -;
#X obj 70 97 inlet;
#X obj 73 263 outlet;
#X msg 72 225 range \$1;
#X text 110 85 range;
#X obj 74 183 autoscale 0 0.5;
#X obj 50 143 smooth;
#X floatatom 182 120 5 0 0 2 smooth - -;
#X text 101 142 range;
#X floatatom 178 217 5 0 0 0 - - -;
#X connect 0 0 6 1;
#X connect 1 0 6 2;
#X connect 2 0 7 0;
#X connect 4 0 3 0;
#X connect 6 0 4 0;
#X connect 6 0 10 0;
#X connect 7 0 6 0;
#X connect 8 0 7 1;
#X coords 0 -1 1 1 125 60 2 100 100;
#X restore -108 278 pd amp2thres;
#X obj -108 255 r amp;
#X obj 33 254 r amp;
#N canvas 1234 568 450 369 fraktalui 0;
#X obj 155 336 outlet;
#X obj 16 56 inlet;
#X floatatom 79 71 5 0 0 0 - - -;
#X obj 157 212 autoscale 0.12 0.18;
#X floatatom 208 247 5 0 0 0 - - -;
#X obj 15 118 smooth;
#X obj -92 339 outlet;
#X obj -101 246 autoscale 0.12 0.18;
#X floatatom 24 279 5 0 0 0 - - -;
#X obj -70 213 * -1;
#X obj -102 301 pack 0 0 0;
#X obj -102 273 + 2;
#X floatatom 112 119 15 0 0 0 x - -;
#X floatatom 120 140 5 0 0 0 - - -;
#X floatatom 168 140 5 0 0 0 - - -;
#X obj 13 88 spigot;
#X obj 37 237 scale;
#X obj 34 210 tgl 15 0 empty empty empty 17 7 0 10 -262144 -1 -1 0
1;
#X obj 258 178 tgl 15 0 empty empty empty 17 7 0 10 -262144 -1 -1 0
1;
#X obj 76 207;
#X text 102 99 single value;
#X obj -72 274 + 2;
#X floatatom 221 120 15 0 0 0 y - -;
#X floatatom -43 76 5 0 0 0 - - -;
#X obj 296 102 colortoggle;
#X connect 1 0 15 0;
#X connect 3 0 0 0;
#X connect 3 0 4 0;
#X connect 4 0 0 0;
#X connect 5 0 2 0;
#X connect 5 0 3 0;
#X connect 5 0 9 0;
#X connect 7 0 8 0;
#X connect 7 0 11 0;
#X connect 7 0 21 0;
#X connect 9 0 7 0;
#X connect 10 0 6 0;
#X connect 11 0 10 0;
#X connect 12 0 11 1;
#X connect 13 0 3 1;
#X connect 14 0 3 2;
#X connect 15 0 5 0;
#X connect 17 0 7 3;
#X connect 18 0 3 3;
#X connect 21 0 10 1;
#X connect 22 0 21 1;
#X connect 23 0 5 1;
#X connect 24 0 15 1;
#X coords 0 -1 1 1 215 60 2 100 100;
#X restore 115 15 pd fraktalui;
#N canvas 951 416 450 264 amp2thres 0;
#X floatatom 106 119 5 0 0 2 low - -;
#X floatatom 145 120 5 0 0 2 hi - -;
#X obj 70 97 inlet;
#X obj 73 263 outlet;
#X text 110 85 range;
#X obj 74 183 autoscale 0 0.5;
#X obj 50 143 smooth;
#X floatatom 182 120 5 0 0 2 smooth - -;
#X msg 72 225 value \$1;
#X text 105 144 value;
#X connect 0 0 5 1;
#X connect 1 0 5 2;
#X connect 2 0 6 0;
#X connect 5 0 8 0;
#X connect 6 0 5 0;
#X connect 7 0 6 1;
#X connect 8 0 3 0;
#X coords 0 -1 1 1 125 60 2 100 100;
#X restore 33 276 pd amp2thres;
#N canvas 951 416 450 251 amp2thres 0;
#X floatatom 106 119 5 0 0 2 low - -;
#X floatatom 145 120 5 0 0 2 hi - -;
#X obj 70 97 inlet;
#X obj 73 263 outlet;
#X msg 72 225 range \$1;
#X text 110 85 range;
#X obj 74 183 autoscale 0 0.5;
#X obj 50 143 smooth;
#X floatatom 182 120 5 0 0 2 smooth - -;
#X text 101 142 range;
#X connect 0 0 6 1;
#X connect 1 0 6 2;
#X connect 2 0 7 0;
#X connect 4 0 3 0;
#X connect 6 0 4 0;
#X connect 7 0 6 0;
#X connect 8 0 7 1;
#X coords 0 -1 1 1 125 60 2 100 100;
#X restore 163 275 pd amp2thres;
#X obj 170 252 r amp;
#X obj 282 250 r amp;
#N canvas 951 416 450 264 amp2thres 0;
#X floatatom 106 119 5 0 0 2 low - -;
#X floatatom 145 120 5 0 0 2 hi - -;
#X obj 70 97 inlet;
#X obj 73 263 outlet;
#X text 110 85 range;
#X obj 74 183 autoscale 0 0.5;
#X obj 50 143 smooth;
#X floatatom 182 120 5 0 0 2 smooth - -;
#X msg 72 225 value \$1;
#X text 105 144 value;
#X connect 0 0 5 1;
#X connect 1 0 5 2;
#X connect 2 0 6 0;
#X connect 5 0 8 0;
#X connect 6 0 5 0;
#X connect 7 0 6 1;
#X connect 8 0 3 0;
#X coords 0 -1 1 1 125 60 2 100 100;
#X restore 298 273 pd amp2thres;
#X obj -109 369 bunt;
#X obj -92 124 my_fiddle;
#X obj 412 233 r amp1;
#X obj 395 -19 slmkii;
#X obj -33 344 r b1_ctl;
#N canvas 649 600 420 318 routing 1;
#X obj -13 -3 r toggle_r11;
#X obj -13 42 s b1_ctl;
#X msg -13 19 toggle \$1;
#X obj 71 -3 r fader1;
#X msg 71 18 fader \$1;
#X obj 131 -5 r rot1;
#X msg 131 19 value \$1;
#X obj 189 -5 r rot2;
#X msg 189 18 range \$1;
#X msg -13 86 toggle \$1;
#X msg 71 85 fader \$1;
#X msg 131 86 value \$1;
#X msg 189 85 range \$1;
#X msg -13 153 toggle \$1;
#X msg 71 152 fader \$1;
#X msg 131 153 value \$1;
#X msg 189 152 range \$1;
#X msg -13 220 toggle \$1;
#X msg 71 219 fader \$1;
#X msg 131 220 value \$1;
#X msg 189 219 range \$1;
#X obj -13 64 r toggle_r12;
#X obj 71 64 r fader2;
#X obj 131 62 r rot3;
#X obj 189 62 r rot4;
#X obj -13 109 s b2_ctl;
#X obj -13 131 r toggle_r13;
#X obj 71 131 r fader3;
#X obj 131 129 r rot5;
#X obj 189 129 r rot6;
#X obj -13 176 s b3_ctl;
#X obj -13 198 r toggle_r14;
#X obj 71 198 r fader4;
#X obj 131 196 r rot7;
#X obj 189 196 r rot8;
#X obj -13 243 s b4_ctl;
#X connect 0 0 2 0;
#X connect 2 0 1 0;
#X connect 3 0 4 0;
#X connect 4 0 1 0;
#X connect 5 0 6 0;
#X connect 6 0 1 0;
#X connect 7 0 8 0;
#X connect 8 0 1 0;
#X connect 9 0 25 0;
#X connect 10 0 25 0;
#X connect 11 0 25 0;
#X connect 12 0 25 0;
#X connect 13 0 30 0;
#X connect 14 0 30 0;
#X connect 15 0 30 0;
#X connect 16 0 30 0;
#X connect 17 0 35 0;
#X connect 18 0 35 0;
#X connect 19 0 35 0;
#X connect 20 0 35 0;
#X connect 21 0 9 0;
#X connect 22 0 10 0;
#X connect 23 0 11 0;
#X connect 24 0 12 0;
#X connect 26 0 13 0;
#X connect 27 0 14 0;
#X connect 28 0 15 0;
#X connect 29 0 16 0;
#X connect 31 0 17 0;
#X connect 32 0 18 0;
#X connect 33 0 19 0;
#X connect 34 0 20 0;
#X restore 406 122 pd routing;
#X obj 108 344 r b2_ctl;
#X obj 240 341 r b3_ctl;
#X obj 385 343 r b4_ctl;
#X obj 31 369 bunt;
#X obj 169 370 bunt;
#X obj 307 369 bunt;
#X connect 2 0 3 0;
#X connect 6 0 3 1;
#X connect 7 0 2 0;
#X connect 8 0 21 0;
#X connect 9 0 30 0;
#X connect 10 0 31 0;
#X connect 11 0 32 0;
#X connect 13 0 12 0;
#X connect 14 0 16 0;
#X connect 15 0 4 0;
#X connect 15 1 4 1;
#X connect 16 0 30 1;
#X connect 17 0 31 1;
#X connect 18 0 17 0;
#X connect 19 0 20 0;
#X connect 20 0 32 1;
#X connect 23 0 6 0;
#X connect 25 0 21 1;
#X connect 27 0 30 1;
#X connect 28 0 31 1;
#X connect 29 0 32 1;
