#N canvas 1070 61 800 624 10;
#X obj 6 -25 Fenster;
#X obj -109 -25 Cam;
#X obj 448 368 gaussblur5x5;
#X obj 448 390 cannyedge;
#X obj 254 80 fraktal_shader;
#X obj 188 -17 r amp;
#X floatatom 189 3 5 0 0 0 - - -;
#N canvas 1283 410 450 300 amp2thres 0;
#X floatatom 106 139 5 0 0 2 low - -;
#X floatatom 145 140 5 0 0 2 hi - -;
#X obj 31 138 inlet;
#X obj 74 173 autoscale 0 1;
#X obj 73 253 outlet;
#X floatatom 186 139 5 0 0 2 low - -;
#X floatatom 225 140 5 0 0 2 hi - -;
#X text 187 105 green;
#X floatatom 266 139 5 0 0 2 low - -;
#X floatatom 305 140 5 0 0 2 hi - -;
#X text 107 105 red;
#X text 267 105 blue;
#X msg 72 215 red \$1;
#X obj 171 173 autoscale 0 1;
#X msg 169 215 green \$1;
#X obj 264 172 autoscale 0 1;
#X msg 264 214 blue \$1;
#X connect 0 0 3 1;
#X connect 1 0 3 2;
#X connect 2 0 3 0;
#X connect 2 0 13 0;
#X connect 2 0 15 0;
#X connect 3 0 12 0;
#X connect 5 0 13 1;
#X connect 6 0 13 2;
#X connect 8 0 15 1;
#X connect 9 0 15 2;
#X connect 12 0 4 0;
#X connect 13 0 14 0;
#X connect 14 0 4 0;
#X connect 15 0 16 0;
#X connect 16 0 4 0;
#X coords 0 -1 1 1 255 60 2 100 100;
#X restore 420 273 pd amp2thres;
#X obj 448 343 r cam;
#X obj -108 59 sound2video_patcher;
#X obj -109 344 r cam;
#X obj 31 345 r cam;
#X obj 169 344 r cam;
#X obj 307 344 r cam;
#N canvas 951 416 450 251 amp2thres 0;
#X floatatom 106 119 5 0 0 2 low - -;
#X floatatom 145 120 5 0 0 2 hi - -;
#X obj 70 97 inlet;
#X obj 73 263 outlet;
#X msg 72 225 range \$1;
#X text 110 85 range;
#X obj 74 183 autoscale 0 0.5;
#X obj 50 143 smooth;
#X floatatom 182 120 5 0 0 2 smooth - -;
#X text 101 142 range;
#X connect 0 0 6 1;
#X connect 1 0 6 2;
#X connect 2 0 7 0;
#X connect 4 0 3 0;
#X connect 6 0 4 0;
#X connect 7 0 6 0;
#X connect 8 0 7 1;
#X coords 0 -1 1 1 125 60 2 100 100;
#X restore -108 278 pd amp2thres;
#X obj -106 252 r amp;
#X obj 71 242 r amp;
#N canvas 1235 559 450 369 fraktalui 0;
#X obj 155 336 outlet;
#X obj 16 56 inlet;
#X floatatom 79 71 5 0 0 0 - - -;
#X obj 157 212 autoscale 0.12 0.18;
#X floatatom 208 247 5 0 0 0 - - -;
#X obj 15 118 smooth;
#X obj -92 339 outlet;
#X obj -101 246 autoscale 0.12 0.18;
#X floatatom 24 279 5 0 0 0 - - -;
#X obj -70 213 * -1;
#X obj -102 301 pack 0 0 0;
#X obj -102 273 + 2;
#X floatatom 112 119 15 0 0 0 x - -;
#X floatatom 120 140 5 0 0 0 - - -;
#X floatatom 168 140 5 0 0 0 - - -;
#X obj 299 102 tgl 15 0 empty empty empty 17 7 0 10 -262144 -1 -1 1
1;
#X obj 13 88 spigot;
#X obj 37 237 scale;
#X obj 34 210 tgl 15 0 empty empty empty 17 7 0 10 -262144 -1 -1 1
1;
#X obj 258 178 tgl 15 0 empty empty empty 17 7 0 10 -262144 -1 -1 1
1;
#X obj 76 207;
#X text 102 99 single value;
#X obj -72 274 + 2;
#X floatatom 221 120 15 0 0 0 y - -;
#X floatatom -43 76 5 0 0 0 - - -;
#X connect 1 0 16 0;
#X connect 3 0 0 0;
#X connect 3 0 4 0;
#X connect 4 0 0 0;
#X connect 5 0 2 0;
#X connect 5 0 3 0;
#X connect 5 0 9 0;
#X connect 7 0 8 0;
#X connect 7 0 11 0;
#X connect 7 0 22 0;
#X connect 9 0 7 0;
#X connect 10 0 6 0;
#X connect 11 0 10 0;
#X connect 12 0 11 1;
#X connect 13 0 3 1;
#X connect 14 0 3 2;
#X connect 15 0 16 1;
#X connect 16 0 5 0;
#X connect 18 0 7 3;
#X connect 19 0 3 3;
#X connect 22 0 10 1;
#X connect 23 0 22 1;
#X connect 24 0 5 1;
#X coords 0 -1 1 1 215 60 2 100 100;
#X restore 254 13 pd fraktalui;
#N canvas 951 416 450 264 amp2thres 0;
#X floatatom 106 119 5 0 0 2 low - -;
#X floatatom 145 120 5 0 0 2 hi - -;
#X obj 70 97 inlet;
#X obj 73 263 outlet;
#X text 110 85 range;
#X obj 74 183 autoscale 0 0.5;
#X obj 50 143 smooth;
#X floatatom 182 120 5 0 0 2 smooth - -;
#X msg 72 225 value \$1;
#X text 105 144 value;
#X connect 0 0 5 1;
#X connect 1 0 5 2;
#X connect 2 0 6 0;
#X connect 5 0 8 0;
#X connect 6 0 5 0;
#X connect 7 0 6 1;
#X connect 8 0 3 0;
#X coords 0 -1 1 1 125 60 2 100 100;
#X restore 33 276 pd amp2thres;
#N canvas 951 416 450 251 amp2thres 0;
#X floatatom 106 119 5 0 0 2 low - -;
#X floatatom 145 120 5 0 0 2 hi - -;
#X obj 70 97 inlet;
#X obj 73 263 outlet;
#X msg 72 225 range \$1;
#X text 110 85 range;
#X obj 74 183 autoscale 0 0.5;
#X obj 50 143 smooth;
#X floatatom 182 120 5 0 0 2 smooth - -;
#X text 101 142 range;
#X connect 0 0 6 1;
#X connect 1 0 6 2;
#X connect 2 0 7 0;
#X connect 4 0 3 0;
#X connect 6 0 4 0;
#X connect 7 0 6 0;
#X connect 8 0 7 1;
#X coords 0 -1 1 1 125 60 2 100 100;
#X restore 170 274 pd amp2thres;
#X obj 192 249 r amp;
#X obj 319 239 r amp;
#N canvas 951 416 450 264 amp2thres 0;
#X floatatom 106 119 5 0 0 2 low - -;
#X floatatom 145 120 5 0 0 2 hi - -;
#X obj 70 97 inlet;
#X obj 73 263 outlet;
#X text 110 85 range;
#X obj 74 183 autoscale 0 0.5;
#X obj 50 143 smooth;
#X floatatom 182 120 5 0 0 2 smooth - -;
#X msg 72 225 value \$1;
#X text 105 144 value;
#X connect 0 0 5 1;
#X connect 1 0 5 2;
#X connect 2 0 6 0;
#X connect 5 0 8 0;
#X connect 6 0 5 0;
#X connect 7 0 6 1;
#X connect 8 0 3 0;
#X coords 0 -1 1 1 125 60 2 100 100;
#X restore 283 273 pd amp2thres;
#X obj 31 369 bunt;
#X obj -109 369 bunt;
#X obj 169 370 bunt;
#X obj 307 369 bunt;
#X connect 2 0 3 0;
#X connect 5 0 6 0;
#X connect 6 0 17 0;
#X connect 7 0 3 1;
#X connect 8 0 2 0;
#X connect 10 0 24 0;
#X connect 11 0 23 0;
#X connect 12 0 25 0;
#X connect 13 0 26 0;
#X connect 14 0 24 1;
#X connect 15 0 14 0;
#X connect 16 0 18 0;
#X connect 17 0 4 0;
#X connect 17 1 4 1;
#X connect 18 0 23 1;
#X connect 19 0 25 1;
#X connect 20 0 19 0;
#X connect 21 0 22 0;
#X connect 22 0 26 1;
