#N canvas 830 48 1074 1051 10;
#X obj 25 16 Fenster;
#X obj -108 16 Cam;
#X obj -108 410 bunt;
#X obj 80 681 Textur;
#X obj 268 681 Textur;
#X obj 456 681 Textur;
#X obj -108 681 Textur;
#X obj 250 279 Textur;
#X obj 250 18 gaussblur5x5;
#X obj 250 50 cannyedge;
#X obj 80 410 bunt;
#X obj 268 411 bunt;
#X obj 456 410 bunt;
#X obj 643 125 fraktal_shader;
#X obj 644 533 Textur;
#X obj 452 -3 r amp;
#X floatatom 455 24 5 0 0 0 - - -;
#X obj 608 754 adc~;
#X floatatom 687 902 5 0 0 0 - - -;
#X obj 718 796 mtof;
#X floatatom 718 773 5 0 0 0 - #0-pit -;
#X obj 687 842 lop~;
#X text 770 772 <-- cutoff (pitch units);
#X text 781 819 <-- cutoff (Hertz);
#X floatatom 718 821 5 0 0 0 - - -;
#X text 734 844 low-pass filter;
#X obj 685 879 snapshot~;
#X obj 578 791 *~ 0.5;
#X obj 630 795 *~ 0.5;
#X obj 594 823 +~;
#X obj 514 849 metro 40;
#X obj 513 823 tgl 15 0 empty empty empty 17 7 0 10 -262144 -1 -1 0
1;
#N canvas 1283 410 450 300 amp2thres 0;
#X floatatom 106 139 5 0 0 2 low - -;
#X floatatom 145 140 5 0 0 2 hi - -;
#X obj 31 138 inlet;
#X obj 74 173 autoscale 0 1;
#X obj 73 253 outlet;
#X floatatom 186 139 5 0 0 2 low - -;
#X floatatom 225 140 5 0 0 2 hi - -;
#X text 187 105 green;
#X floatatom 266 139 5 0 0 2 low - -;
#X floatatom 305 140 5 0 0 2 hi - -;
#X text 107 105 red;
#X text 267 105 blue;
#X msg 72 215 red \$1;
#X obj 171 173 autoscale 0 1;
#X msg 169 215 green \$1;
#X obj 264 172 autoscale 0 1;
#X msg 264 214 blue \$1;
#X connect 0 0 3 1;
#X connect 1 0 3 2;
#X connect 2 0 3 0;
#X connect 2 0 13 0;
#X connect 2 0 15 0;
#X connect 3 0 12 0;
#X connect 5 0 13 1;
#X connect 6 0 13 2;
#X connect 8 0 15 1;
#X connect 9 0 15 2;
#X connect 12 0 4 0;
#X connect 13 0 14 0;
#X connect 14 0 4 0;
#X connect 15 0 16 0;
#X connect 16 0 4 0;
#X coords 0 -1 1 1 255 60 2 100 100;
#X restore 454 48 pd amp2thres;
#X obj 251 -5 r cam;
#X obj -107 100 sound2video_patcher;
#N canvas 951 416 450 300 amp2thres 0;
#X floatatom 106 139 5 0 0 2 low - -;
#X floatatom 145 140 5 0 0 2 hi - -;
#X obj 70 87 inlet;
#X obj 73 253 outlet;
#X msg 72 215 range \$1;
#X text 110 105 range;
#X obj 74 173 autoscale 0 0.5;
#X connect 0 0 6 1;
#X connect 1 0 6 2;
#X connect 2 0 6 0;
#X connect 4 0 3 0;
#X connect 6 0 4 0;
#X coords 0 -1 1 1 85 60 2 100 100;
#X restore 400 317 pd amp2thres;
#X obj -108 385 r cam;
#X obj 80 386 r cam;
#X obj 268 385 r cam;
#X obj 456 385 r cam;
#X obj 400 293 r amp;
#N canvas 951 416 450 300 amp2thres 0;
#X floatatom 106 139 5 0 0 2 low - -;
#X floatatom 145 140 5 0 0 2 hi - -;
#X obj 70 87 inlet;
#X obj 73 253 outlet;
#X msg 72 215 range \$1;
#X text 110 105 range;
#X obj 74 173 autoscale 0 0.5;
#X connect 0 0 6 1;
#X connect 1 0 6 2;
#X connect 2 0 6 0;
#X connect 4 0 3 0;
#X connect 6 0 4 0;
#X coords 0 -1 1 1 85 60 2 100 100;
#X restore 542 340 pd amp2thres;
#X obj 550 304 r amp;
#N canvas 951 416 450 300 amp2thres 0;
#X floatatom 106 139 5 0 0 2 low - -;
#X floatatom 145 140 5 0 0 2 hi - -;
#X obj 70 87 inlet;
#X obj 73 253 outlet;
#X msg 72 215 range \$1;
#X text 110 105 range;
#X obj 74 173 autoscale 0 0.5;
#X connect 0 0 6 1;
#X connect 1 0 6 2;
#X connect 2 0 6 0;
#X connect 4 0 3 0;
#X connect 6 0 4 0;
#X coords 0 -1 1 1 85 60 2 100 100;
#X restore -29 319 pd amp2thres;
#X obj -27 293 r amp;
#N canvas 951 416 450 300 amp2thres 0;
#X floatatom 106 139 5 0 0 2 low - -;
#X floatatom 145 140 5 0 0 2 hi - -;
#X obj 70 87 inlet;
#X obj 73 253 outlet;
#X text 110 105 value;
#X msg 72 215 value \$1;
#X obj 74 173 autoscale 0 1;
#X connect 0 0 6 1;
#X connect 1 0 6 2;
#X connect 2 0 6 0;
#X connect 5 0 3 0;
#X connect 6 0 5 0;
#X coords 0 -1 1 1 85 60 2 100 100;
#X restore 118 309 pd amp2thres;
#X obj 120 283 r amp;
#X connect 2 0 6 0;
#X connect 8 0 9 0;
#X connect 9 0 7 0;
#X connect 10 0 3 0;
#X connect 11 0 4 0;
#X connect 12 0 5 0;
#X connect 13 0 14 0;
#X connect 15 0 16 0;
#X connect 16 0 32 0;
#X connect 17 0 27 0;
#X connect 17 1 28 0;
#X connect 19 0 24 0;
#X connect 20 0 19 0;
#X connect 21 0 26 0;
#X connect 24 0 21 1;
#X connect 26 0 18 0;
#X connect 27 0 29 0;
#X connect 28 0 29 1;
#X connect 29 0 21 0;
#X connect 30 0 26 0;
#X connect 31 0 30 0;
#X connect 32 0 9 1;
#X connect 33 0 8 0;
#X connect 35 0 11 1;
#X connect 36 0 2 0;
#X connect 37 0 10 0;
#X connect 38 0 11 0;
#X connect 39 0 12 0;
#X connect 40 0 35 0;
#X connect 41 0 12 1;
#X connect 42 0 41 0;
#X connect 43 0 2 1;
#X connect 44 0 43 0;
#X connect 45 0 10 1;
#X connect 46 0 45 0;
