#N canvas 977 412 925 637 10;
#X obj 6 -25 Fenster;
#X obj -109 -25 Cam;
#X obj 448 368 gaussblur5x5;
#X obj 448 390 cannyedge;
#X obj 115 82 fraktal_shader;
#X obj 188 -17 r amp;
#N canvas 1283 410 450 300 amp2thres 0;
#X floatatom 106 139 5 0 0 2 low - -;
#X floatatom 145 140 5 0 0 2 hi - -;
#X obj 31 138 inlet;
#X obj 74 173 autoscale 0 1;
#X obj 73 253 outlet;
#X floatatom 186 139 5 0 0 2 low - -;
#X floatatom 225 140 5 0 0 2 hi - -;
#X text 187 105 green;
#X floatatom 266 139 5 0 0 2 low - -;
#X floatatom 305 140 5 0 0 2 hi - -;
#X text 107 105 red;
#X text 267 105 blue;
#X msg 72 215 red \$1;
#X obj 171 173 autoscale 0 1;
#X msg 169 215 green \$1;
#X obj 264 172 autoscale 0 1;
#X msg 264 214 blue \$1;
#X connect 0 0 3 1;
#X connect 1 0 3 2;
#X connect 2 0 3 0;
#X connect 2 0 13 0;
#X connect 2 0 15 0;
#X connect 3 0 12 0;
#X connect 5 0 13 1;
#X connect 6 0 13 2;
#X connect 8 0 15 1;
#X connect 9 0 15 2;
#X connect 12 0 4 0;
#X connect 13 0 14 0;
#X connect 14 0 4 0;
#X connect 15 0 16 0;
#X connect 16 0 4 0;
#X coords 0 -1 1 1 255 60 2 100 100;
#X restore 424 273 pd amp2thres;
#X obj 448 343 r cam;
#X obj -109 344 r cam;
#X obj 31 345 r cam;
#X obj 169 344 r cam;
#X obj 307 344 r cam;
#N canvas 1109 756 450 251 amp2thres 0;
#X floatatom 106 119 5 0 0 2 low - -;
#X floatatom 145 120 5 0 0 2 hi - -;
#X obj 70 97 inlet;
#X obj 73 263 outlet;
#X msg 72 225 range \$1;
#X text 110 85 range;
#X obj 74 183 autoscale 0 0.5;
#X obj 50 143 smooth;
#X floatatom 182 120 5 0 0 2 smooth - -;
#X text 101 142 range;
#X floatatom 178 217 5 0 0 0 - - -;
#X connect 0 0 6 1;
#X connect 1 0 6 2;
#X connect 2 0 7 0;
#X connect 4 0 3 0;
#X connect 6 0 4 0;
#X connect 6 0 10 0;
#X connect 7 0 6 0;
#X connect 8 0 7 1;
#X coords 0 -1 1 1 125 60 2 100 100;
#X restore -108 278 pd amp2thres;
#X obj -108 255 r amp;
#X obj 33 254 r amp;
#N canvas 1234 568 450 369 fraktalui 0;
#X obj 155 336 outlet;
#X obj 16 56 inlet;
#X floatatom 79 71 5 0 0 0 - - -;
#X obj 157 212 autoscale 0.12 0.18;
#X floatatom 208 247 5 0 0 0 - - -;
#X obj 15 118 smooth;
#X obj -92 339 outlet;
#X obj -101 246 autoscale 0.12 0.18;
#X floatatom 24 279 5 0 0 0 - - -;
#X obj -70 213 * -1;
#X obj -102 301 pack 0 0 0;
#X obj -102 273 + 2;
#X floatatom 112 119 15 0 0 0 x - -;
#X floatatom 120 140 5 0 0 0 - - -;
#X floatatom 168 140 5 0 0 0 - - -;
#X obj 13 88 spigot;
#X obj 37 237 scale;
#X obj 34 210 tgl 15 0 empty empty empty 17 7 0 10 -262144 -1 -1 0
1;
#X obj 258 178 tgl 15 0 empty empty empty 17 7 0 10 -262144 -1 -1 0
1;
#X obj 76 207;
#X text 102 99 single value;
#X obj -72 274 + 2;
#X floatatom 221 120 15 0 0 0 y - -;
#X floatatom -43 76 5 0 0 0 - - -;
#X obj 296 102 colortoggle;
#X connect 1 0 15 0;
#X connect 3 0 0 0;
#X connect 3 0 4 0;
#X connect 4 0 0 0;
#X connect 5 0 2 0;
#X connect 5 0 3 0;
#X connect 5 0 9 0;
#X connect 7 0 8 0;
#X connect 7 0 11 0;
#X connect 7 0 21 0;
#X connect 9 0 7 0;
#X connect 10 0 6 0;
#X connect 11 0 10 0;
#X connect 12 0 11 1;
#X connect 13 0 3 1;
#X connect 14 0 3 2;
#X connect 15 0 5 0;
#X connect 17 0 7 3;
#X connect 18 0 3 3;
#X connect 21 0 10 1;
#X connect 22 0 21 1;
#X connect 23 0 5 1;
#X connect 24 0 15 1;
#X coords 0 -1 1 1 215 60 2 100 100;
#X restore 115 15 pd fraktalui;
#N canvas 951 416 450 264 amp2thres 0;
#X floatatom 106 119 5 0 0 2 low - -;
#X floatatom 145 120 5 0 0 2 hi - -;
#X obj 70 97 inlet;
#X obj 73 263 outlet;
#X text 110 85 range;
#X obj 74 183 autoscale 0 0.5;
#X obj 50 143 smooth;
#X floatatom 182 120 5 0 0 2 smooth - -;
#X msg 72 225 value \$1;
#X text 105 144 value;
#X connect 0 0 5 1;
#X connect 1 0 5 2;
#X connect 2 0 6 0;
#X connect 5 0 8 0;
#X connect 6 0 5 0;
#X connect 7 0 6 1;
#X connect 8 0 3 0;
#X coords 0 -1 1 1 125 60 2 100 100;
#X restore 33 276 pd amp2thres;
#N canvas 951 416 450 251 amp2thres 0;
#X floatatom 106 119 5 0 0 2 low - -;
#X floatatom 145 120 5 0 0 2 hi - -;
#X obj 70 97 inlet;
#X obj 73 263 outlet;
#X msg 72 225 range \$1;
#X text 110 85 range;
#X obj 74 183 autoscale 0 0.5;
#X obj 50 143 smooth;
#X floatatom 182 120 5 0 0 2 smooth - -;
#X text 101 142 range;
#X connect 0 0 6 1;
#X connect 1 0 6 2;
#X connect 2 0 7 0;
#X connect 4 0 3 0;
#X connect 6 0 4 0;
#X connect 7 0 6 0;
#X connect 8 0 7 1;
#X coords 0 -1 1 1 125 60 2 100 100;
#X restore 163 275 pd amp2thres;
#X obj 170 252 r amp;
#X obj 282 250 r amp;
#N canvas 951 416 450 264 amp2thres 0;
#X floatatom 106 119 5 0 0 2 low - -;
#X floatatom 145 120 5 0 0 2 hi - -;
#X obj 70 97 inlet;
#X obj 73 263 outlet;
#X text 110 85 range;
#X obj 74 183 autoscale 0 0.5;
#X obj 50 143 smooth;
#X floatatom 182 120 5 0 0 2 smooth - -;
#X msg 72 225 value \$1;
#X text 105 144 value;
#X connect 0 0 5 1;
#X connect 1 0 5 2;
#X connect 2 0 6 0;
#X connect 5 0 8 0;
#X connect 6 0 5 0;
#X connect 7 0 6 1;
#X connect 8 0 3 0;
#X coords 0 -1 1 1 125 60 2 100 100;
#X restore 298 273 pd amp2thres;
#X obj -109 369 bunt;
#X obj -110 39 my_fiddle;
#X obj 412 233 r amp1;
#X obj 394 -28 slmkii;
#X obj -33 344 r b1_ctl;
#N canvas 319 183 1524 335 routing 0;
#X obj -13 -3 r toggle_r11;
#X obj -13 42 s b1_ctl;
#X msg -13 19 toggle \$1;
#X obj 71 -3 r fader1;
#X msg 71 18 fader \$1;
#X obj 131 -5 r rot1;
#X msg 131 19 value \$1;
#X obj 189 -5 r rot2;
#X msg 189 18 range \$1;
#X msg -13 86 toggle \$1;
#X msg 71 85 fader \$1;
#X msg 131 86 value \$1;
#X msg 189 85 range \$1;
#X msg -13 153 toggle \$1;
#X msg 71 152 fader \$1;
#X msg 131 153 value \$1;
#X msg 189 152 range \$1;
#X msg -13 220 toggle \$1;
#X msg 71 219 fader \$1;
#X msg 131 220 value \$1;
#X msg 189 219 range \$1;
#X obj -13 64 r toggle_r12;
#X obj 71 64 r fader2;
#X obj 131 62 r rot3;
#X obj 189 62 r rot4;
#X obj -13 109 s b2_ctl;
#X obj -13 131 r toggle_r13;
#X obj 71 131 r fader3;
#X obj 131 129 r rot5;
#X obj 189 129 r rot6;
#X obj -13 176 s b3_ctl;
#X obj -13 198 r toggle_r14;
#X obj 71 198 r fader4;
#X obj 131 196 r rot7;
#X obj 189 196 r rot8;
#X obj -13 243 s b4_ctl;
#X obj 301 190 r note_c;
#X msg 301 261 red \$1;
#X obj 301 238 / 127;
#X obj 362 234 / 127;
#X msg 359 262 green \$1;
#X obj 362 188 r note_d;
#X obj 422 239 / 127;
#X obj 422 196 r note_e;
#X msg 422 261 blue \$1;
#X obj 460 222 r note_amp;
#X msg 1254 254 red \$1;
#X obj 1254 231 / 127;
#X obj 1315 227 / 127;
#X msg 1312 255 green \$1;
#X obj 1375 232 / 127;
#X msg 1375 254 blue \$1;
#X obj 1413 215 r note_amp;
#X obj 703 68 r note_c;
#X msg 703 139 red \$1;
#X obj 703 116 / 127;
#X obj 764 112 / 127;
#X obj 702 165 s b1_ctl;
#X msg 761 140 green \$1;
#X obj 764 66 r note_d;
#X obj 824 117 / 127;
#X obj 824 74 r note_e;
#X msg 824 139 blue \$1;
#X obj 862 100 r note_amp;
#X msg 1020 258 red \$1;
#X obj 1020 235 / 127;
#X obj 1081 231 / 127;
#X msg 1078 259 green \$1;
#X obj 1141 236 / 127;
#X msg 1141 258 blue \$1;
#X obj 1179 219 r note_amp;
#X msg 537 262 red \$1;
#X obj 537 239 / 127;
#X obj 598 235 / 127;
#X msg 595 263 green \$1;
#X obj 658 240 / 127;
#X msg 658 262 blue \$1;
#X obj 696 223 r note_amp;
#X msg 777 262 red \$1;
#X obj 777 239 / 127;
#X obj 838 235 / 127;
#X msg 835 263 green \$1;
#X obj 898 240 / 127;
#X msg 898 262 blue \$1;
#X obj 936 223 r note_amp;
#X obj 536 288 s b2_ctl;
#X obj 537 191 r note_f;
#X obj 598 189 r note_g;
#X obj 658 197 r note_a;
#X obj 777 191 r note_h;
#X obj 840 191 r note_c1;
#X obj 776 288 s b3_ctl;
#X obj 1019 284 s b4_ctl;
#X obj 898 197 r note_d1;
#X obj 1020 187 r note_e1;
#X obj 1080 185 r note_f1;
#X obj 1141 193 r note_g1;
#X obj 1254 183 r note_a1;
#X obj 1315 181 r note_h1;
#X obj 1375 188 r note_c2;
#X obj 1253 279 s canny_ctl;
#X obj 280 168 r env_c;
#X obj 353 164 r env_d;
#X obj 429 163 r env_e;
#X obj 300 287 s b1_ctl;
#X connect 0 0 2 0;
#X connect 2 0 1 0;
#X connect 3 0 4 0;
#X connect 4 0 1 0;
#X connect 5 0 6 0;
#X connect 6 0 1 0;
#X connect 7 0 8 0;
#X connect 8 0 1 0;
#X connect 9 0 25 0;
#X connect 10 0 25 0;
#X connect 11 0 25 0;
#X connect 12 0 25 0;
#X connect 13 0 30 0;
#X connect 14 0 30 0;
#X connect 15 0 30 0;
#X connect 16 0 30 0;
#X connect 17 0 35 0;
#X connect 18 0 35 0;
#X connect 19 0 35 0;
#X connect 20 0 35 0;
#X connect 21 0 9 0;
#X connect 22 0 10 0;
#X connect 23 0 11 0;
#X connect 24 0 12 0;
#X connect 26 0 13 0;
#X connect 27 0 14 0;
#X connect 28 0 15 0;
#X connect 29 0 16 0;
#X connect 31 0 17 0;
#X connect 32 0 18 0;
#X connect 33 0 19 0;
#X connect 34 0 20 0;
#X connect 36 0 38 0;
#X connect 37 0 104 0;
#X connect 38 0 37 0;
#X connect 39 0 40 0;
#X connect 40 0 104 0;
#X connect 41 0 39 0;
#X connect 42 0 44 0;
#X connect 43 0 42 0;
#X connect 44 0 104 0;
#X connect 45 0 42 1;
#X connect 45 0 39 1;
#X connect 45 0 38 1;
#X connect 46 0 100 0;
#X connect 47 0 46 0;
#X connect 48 0 49 0;
#X connect 49 0 100 0;
#X connect 50 0 51 0;
#X connect 51 0 100 0;
#X connect 52 0 50 1;
#X connect 52 0 48 1;
#X connect 52 0 47 1;
#X connect 54 0 57 0;
#X connect 55 0 54 0;
#X connect 56 0 58 0;
#X connect 58 0 57 0;
#X connect 60 0 62 0;
#X connect 62 0 57 0;
#X connect 63 0 60 1;
#X connect 63 0 56 1;
#X connect 63 0 55 1;
#X connect 64 0 92 0;
#X connect 65 0 64 0;
#X connect 66 0 67 0;
#X connect 67 0 92 0;
#X connect 68 0 69 0;
#X connect 69 0 92 0;
#X connect 70 0 68 1;
#X connect 70 0 66 1;
#X connect 70 0 65 1;
#X connect 71 0 85 0;
#X connect 72 0 71 0;
#X connect 73 0 74 0;
#X connect 74 0 85 0;
#X connect 75 0 76 0;
#X connect 76 0 85 0;
#X connect 77 0 75 1;
#X connect 77 0 73 1;
#X connect 77 0 72 1;
#X connect 78 0 91 0;
#X connect 79 0 78 0;
#X connect 80 0 81 0;
#X connect 81 0 91 0;
#X connect 82 0 83 0;
#X connect 83 0 91 0;
#X connect 84 0 82 1;
#X connect 84 0 80 1;
#X connect 84 0 79 1;
#X connect 86 0 72 0;
#X connect 87 0 73 0;
#X connect 88 0 75 0;
#X connect 89 0 79 0;
#X connect 90 0 80 0;
#X connect 93 0 82 0;
#X connect 94 0 65 0;
#X connect 95 0 66 0;
#X connect 96 0 68 0;
#X connect 97 0 47 0;
#X connect 98 0 48 0;
#X connect 99 0 50 0;
#X connect 101 0 37 0;
#X connect 102 0 40 0;
#X connect 103 0 44 0;
#X restore 417 176 pd routing;
#X obj 108 344 r b2_ctl;
#X obj 240 341 r b3_ctl;
#X obj 385 343 r b4_ctl;
#X obj 31 369 bunt;
#X obj 169 370 bunt;
#X obj 307 369 bunt;
#X obj 497 201 s note_amp;
#X floatatom 498 180 5 0 0 0 - - -;
#N canvas 1974 416 1497 507 notetriggers 0;
#X obj 36 84 route 48 50 52 53 55 57 59 60 62 64 65 67 69 71 72;
#X obj 304 338 s note_f;
#X obj 394 338 s note_g;
#X obj 487 338 s note_a;
#X obj 584 339 s note_h;
#X obj 674 339 s note_c1;
#X obj 870 337 s note_e1;
#X obj 1053 338 s note_g1;
#X obj 1240 340 s note_h1;
#X obj 767 339 s note_d1;
#X obj 960 338 s note_f1;
#X obj 1150 338 s note_a1;
#X obj 1338 343 s note_c2;
#X obj 37 56 inlet;
#X msg 681 114 amount 1 \, attack 5 \, hold 200 \, sustain 50 \, release
0;
#X obj 738 79 s \$0-all_env;
#X obj 36 200 r \$0-all_env;
#X obj 126 201 r \$0-all_env;
#X obj 219 201 r \$0-all_env;
#X obj 209 337 s note_e;
#X obj 26 335 s env_c;
#X obj 116 336 s env_d;
#X msg 885 22 hold \$1;
#X msg 809 24 attack \$1;
#X msg 736 25 amount \$1;
#X msg 950 21 sustain \$1;
#X msg 1032 18 release \$1;
#X obj 314 201 r \$0-all_env;
#X obj 394 231 envelope;
#X obj 404 202 r \$0-all_env;
#X obj 497 202 r \$0-all_env;
#X obj 594 202 r \$0-all_env;
#X obj 684 203 r \$0-all_env;
#X obj 777 203 r \$0-all_env;
#X obj 880 201 r \$0-all_env;
#X obj 970 202 r \$0-all_env;
#X obj 1063 202 r \$0-all_env;
#X obj 1160 202 r \$0-all_env;
#X obj 1250 203 r \$0-all_env;
#X obj 1343 203 r \$0-all_env;
#X floatatom 104 -6 5 0 0 1 attack #0r-attack #0-attack;
#X floatatom 104 32 5 0 0 1 sustain #0r-sustain #0-sustain;
#X floatatom 104 13 5 0 0 1 hold #0r-hold #0-hold;
#X floatatom 104 -25 5 0 0 1 amount #0r-amount #0-amount;
#X floatatom 104 51 5 0 0 1 release #0r-release #0-release;
#X obj 736 0 r \$0-amount;
#X obj 810 -1 r \$0-attack;
#X obj 887 -1 r \$0-hold;
#X obj 952 -2 r \$0-sustain;
#X obj 1039 -4 r \$0-release;
#X obj 26 229 envelope;
#X obj 116 230 envelope;
#X obj 209 230 envelope;
#X obj 304 230 envelope;
#X obj 487 231 envelope;
#X obj 584 231 envelope;
#X obj 674 232 envelope;
#X obj 767 232 envelope;
#X obj 870 230 envelope;
#X obj 960 231 envelope;
#X obj 1053 231 envelope;
#X obj 1150 231 envelope;
#X obj 1240 232 envelope;
#X obj 1333 232 envelope;
#X connect 0 0 50 0;
#X connect 0 1 51 0;
#X connect 0 2 52 0;
#X connect 0 3 53 0;
#X connect 0 4 28 0;
#X connect 0 5 54 0;
#X connect 0 6 55 0;
#X connect 0 7 56 0;
#X connect 0 8 57 0;
#X connect 0 9 58 0;
#X connect 0 10 59 0;
#X connect 0 11 60 0;
#X connect 0 12 61 0;
#X connect 0 13 62 0;
#X connect 0 14 63 0;
#X connect 13 0 0 0;
#X connect 14 0 15 0;
#X connect 16 0 50 0;
#X connect 17 0 51 0;
#X connect 18 0 52 0;
#X connect 22 0 15 0;
#X connect 23 0 15 0;
#X connect 24 0 15 0;
#X connect 25 0 15 0;
#X connect 26 0 15 0;
#X connect 27 0 53 0;
#X connect 28 0 2 0;
#X connect 29 0 28 0;
#X connect 30 0 54 0;
#X connect 31 0 55 0;
#X connect 32 0 56 0;
#X connect 33 0 57 0;
#X connect 34 0 58 0;
#X connect 35 0 59 0;
#X connect 36 0 60 0;
#X connect 37 0 61 0;
#X connect 38 0 62 0;
#X connect 39 0 63 0;
#X connect 45 0 24 0;
#X connect 46 0 23 0;
#X connect 47 0 22 0;
#X connect 48 0 25 0;
#X connect 49 0 26 0;
#X connect 50 0 20 0;
#X connect 51 0 21 0;
#X connect 52 0 19 0;
#X connect 53 0 1 0;
#X connect 54 0 3 0;
#X connect 55 0 4 0;
#X connect 56 0 5 0;
#X connect 57 0 9 0;
#X connect 58 0 6 0;
#X connect 59 0 10 0;
#X connect 60 0 7 0;
#X connect 61 0 11 0;
#X connect 62 0 8 0;
#X connect 63 0 12 0;
#X coords 0 -1 1 1 86 115 1 100 -45;
#X restore -110 76 pd notetriggers;
#X connect 2 0 3 0;
#X connect 6 0 3 1;
#X connect 7 0 2 0;
#X connect 8 0 21 0;
#X connect 9 0 30 0;
#X connect 10 0 31 0;
#X connect 11 0 32 0;
#X connect 13 0 12 0;
#X connect 14 0 16 0;
#X connect 15 0 4 0;
#X connect 15 1 4 1;
#X connect 16 0 30 1;
#X connect 17 0 31 1;
#X connect 18 0 17 0;
#X connect 19 0 20 0;
#X connect 20 0 32 1;
#X connect 22 0 35 0;
#X connect 23 0 6 0;
#X connect 25 0 21 1;
#X connect 27 0 30 1;
#X connect 28 0 31 1;
#X connect 29 0 32 1;
#X connect 34 0 33 0;
