#N canvas 221 142 1007 536 10;
#X obj 6 -44 Fenster;
#X obj -109 -44 Cam;
#X obj 447 329 gaussblur5x5;
#X obj 447 349 cannyedge;
#X obj 591 376 fraktal_shader;
#N canvas 1240 583 450 369 fraktalui 0;
#X obj 155 336 outlet;
#X obj 16 56 inlet;
#X floatatom 79 71 5 0 0 0 - - -;
#X obj 157 212 autoscale 0.12 0.18;
#X floatatom 208 247 5 0 0 0 - - -;
#X obj 15 118 smooth;
#X obj -92 339 outlet;
#X obj -101 246 autoscale 0.12 0.18;
#X floatatom 24 279 5 0 0 0 - - -;
#X obj -70 213 * -1;
#X obj -102 301 pack 0 0 0;
#X obj -102 273 + 2;
#X floatatom 112 119 15 0 0 0 x - -;
#X floatatom 120 140 5 0 0 0 - - -;
#X floatatom 168 140 5 0 0 0 - - -;
#X obj 13 88 spigot;
#X obj 37 237 scale;
#X obj 34 210 tgl 15 0 empty empty empty 17 7 0 10 -262144 -1 -1 0
1;
#X obj 258 178 tgl 15 0 empty empty empty 17 7 0 10 -262144 -1 -1 0
1;
#X obj 76 207;
#X text 102 99 single value;
#X obj -72 274 + 2;
#X floatatom 221 120 15 0 0 0 y - -;
#X floatatom -43 76 5 0 0 0 - - -;
#X obj 296 102 colortoggle;
#X connect 1 0 15 0;
#X connect 3 0 0 0;
#X connect 3 0 4 0;
#X connect 4 0 0 0;
#X connect 5 0 2 0;
#X connect 5 0 3 0;
#X connect 5 0 9 0;
#X connect 7 0 8 0;
#X connect 7 0 11 0;
#X connect 7 0 21 0;
#X connect 9 0 7 0;
#X connect 10 0 6 0;
#X connect 11 0 10 0;
#X connect 12 0 11 1;
#X connect 13 0 3 1;
#X connect 14 0 3 2;
#X connect 15 0 5 0;
#X connect 17 0 7 3;
#X connect 18 0 3 3;
#X connect 21 0 10 1;
#X connect 22 0 21 1;
#X connect 23 0 5 1;
#X connect 24 0 15 1;
#X coords 0 -1 1 1 215 60 2 100 100;
#X restore 591 314 pd fraktalui;
#X obj -109 60 my_fiddle;
#N canvas 86 119 1718 633 notetriggers 0;
#X obj 274 528 s note_f;
#X obj 364 528 s note_g;
#X obj 457 528 s note_a;
#X obj 554 529 s note_h;
#X obj 644 529 s note_c1;
#X obj 840 527 s note_e1;
#X obj 1023 528 s note_g1;
#X obj 1210 530 s note_h1;
#X obj 737 529 s note_d1;
#X obj 930 528 s note_f1;
#X obj 1120 528 s note_a1;
#X obj 1308 533 s note_c2;
#X obj 179 527 s note_e;
#X obj 86 418 envelope;
#X obj 477 -105 loadbang;
#X msg 748 -66 amount -0.04 \, attack 100 \, hold 100 \, sustain 50
\, release 0.01;
#X obj 1413 524 s note_d2;
#X obj 1503 526 s note_e2;
#X obj 1601 528 s note_f2;
#X obj 364 421 envelope;
#X obj -4 419 envelope;
#X obj 179 420 envelope;
#X obj 274 420 envelope;
#X obj 457 421 envelope;
#X obj 554 421 envelope;
#X obj 644 422 envelope;
#X obj 737 422 envelope;
#X obj 840 420 envelope;
#X obj 930 421 envelope;
#X obj 1023 421 envelope;
#X obj 1120 421 envelope;
#X obj 1210 422 envelope;
#X obj 1303 422 envelope;
#X obj 1413 417 envelope;
#X obj 1503 418 envelope;
#X obj 1596 418 envelope;
#X obj 96 391 r \$0-d;
#X obj 189 391 r \$0-e;
#X obj 284 391 r \$0-f;
#X obj 374 392 r \$0-g;
#X obj 467 392 r \$0-a;
#X obj 564 392 r \$0-h;
#X obj 1033 392 r \$0-g1;
#X obj 940 392 r \$0-f1;
#X obj 851 391 r \$0-e1;
#X obj 747 392 r \$0-d1;
#X obj 654 393 r \$0-c1;
#X obj 1130 392 r \$0-a1;
#X obj 1220 393 r \$0-h1;
#X obj 1313 393 r \$0-c2;
#X obj -5 173 inlet;
#X obj -6 201 route 48 50 52 53 55 57 59 60 62 64 65 67 69 71 72 74
76 77;
#X obj 6 390 r \$0-c;
#X obj 1416 390 r \$0-d2;
#X obj 1509 390 r \$0-e2;
#X obj 1604 390 r \$0-f2;
#X obj -6 365 s \$0-c;
#X obj 7 344 s \$0-d;
#X obj 23 320 s \$0-e;
#X obj 39 297 s \$0-f;
#X obj 55 275 s \$0-g;
#X obj 75 251 s \$0-a;
#X obj 92 229 s \$0-h;
#X obj 138 362 s \$0-c1;
#X obj 147 344 s \$0-d1;
#X obj 158 324 s \$0-e1;
#X obj 170 298 s \$0-f1;
#X obj 186 276 s \$0-g1;
#X obj 201 254 s \$0-a1;
#X obj 219 233 s \$0-h1;
#X obj 274 325 s \$0-c2;
#X obj 284 303 s \$0-d2;
#X obj 295 280 s \$0-e2;
#X obj 311 256 s \$0-f2;
#X obj 392 343 s \$0-c;
#X obj 402 322 s \$0-d;
#X obj 413 301 s \$0-e;
#X obj 692 352 s \$0-e1;
#X obj 704 326 s \$0-f1;
#X obj 720 304 s \$0-g1;
#X obj 391 278 r \$0-bunt1_env;
#X obj 491 343 s \$0-f;
#X obj 507 322 s \$0-g;
#X obj 527 298 s \$0-a;
#X obj 605 324 s \$0-c1;
#X obj 613 306 s \$0-d1;
#X obj 591 343 s \$0-h;
#X obj 688 281 r \$0-bunt4_env;
#X obj 489 276 r \$0-bunt2_env;
#X obj 587 282 r \$0-bunt3_env;
#X obj -1 151 s \$0-bunt1_env;
#X obj 139 151 s \$0-bunt2_env;
#X obj 276 150 s \$0-bunt3_env;
#X obj 417 150 s \$0-bunt4_env;
#X obj 557 150 s \$0-canny_env;
#X obj 697 150 s \$0-fraktal_env;
#X obj 923 272 r \$0-fraktal_env;
#X obj 945 295 s \$0-f2;
#X obj 934 319 s \$0-e2;
#X obj 924 342 s \$0-d2;
#X obj 802 274 r \$0-canny_env;
#X obj 802 337 s \$0-a1;
#X obj 865 296 s \$0-c2;
#X obj 824 317 s \$0-h1;
#X obj 0 -10 envelope_setter 0 127;
#X obj 215 -102 bng 15 250 50 0 empty empty empty 17 7 0 10 -262144
-1 -1;
#X msg 367 -53 amount 127 \, attack 100 \, hold 100 \, sustain 50 \,
release 0.01;
#X msg -3 -52 amount 1 \, attack 100 \, hold 100 \, sustain 50 \, release
0.01;
#X obj 556 -10 envelope_setter;
#X obj 139 -10 envelope_setter;
#X obj 278 -10 envelope_setter;
#X obj 417 -10 envelope_setter;
#X obj 695 -10 envelope_setter;
#X obj 61 390 bng 15 250 50 0 empty empty empty 17 7 0 10 -262144 -1
-1;
#X obj 86 526 s note_d;
#X obj -4 525 s note_c;
#X connect 13 0 114 0;
#X connect 14 0 107 0;
#X connect 14 0 106 0;
#X connect 14 0 15 0;
#X connect 15 0 112 0;
#X connect 19 0 1 0;
#X connect 20 0 115 0;
#X connect 21 0 12 0;
#X connect 22 0 0 0;
#X connect 23 0 2 0;
#X connect 24 0 3 0;
#X connect 25 0 4 0;
#X connect 26 0 8 0;
#X connect 27 0 5 0;
#X connect 28 0 9 0;
#X connect 29 0 6 0;
#X connect 30 0 10 0;
#X connect 31 0 7 0;
#X connect 32 0 11 0;
#X connect 33 0 16 0;
#X connect 34 0 17 0;
#X connect 35 0 18 0;
#X connect 36 0 13 0;
#X connect 37 0 21 0;
#X connect 38 0 22 0;
#X connect 39 0 19 0;
#X connect 40 0 23 0;
#X connect 41 0 24 0;
#X connect 42 0 29 0;
#X connect 43 0 28 0;
#X connect 44 0 27 0;
#X connect 45 0 26 0;
#X connect 46 0 25 0;
#X connect 47 0 30 0;
#X connect 48 0 31 0;
#X connect 49 0 32 0;
#X connect 50 0 51 0;
#X connect 51 0 56 0;
#X connect 51 1 57 0;
#X connect 51 2 58 0;
#X connect 51 3 59 0;
#X connect 51 4 60 0;
#X connect 51 5 61 0;
#X connect 51 6 62 0;
#X connect 51 7 63 0;
#X connect 51 8 64 0;
#X connect 51 9 65 0;
#X connect 51 10 66 0;
#X connect 51 11 67 0;
#X connect 51 12 68 0;
#X connect 51 13 69 0;
#X connect 51 14 70 0;
#X connect 51 15 71 0;
#X connect 51 16 72 0;
#X connect 51 17 73 0;
#X connect 52 0 20 0;
#X connect 53 0 33 0;
#X connect 54 0 34 0;
#X connect 55 0 35 0;
#X connect 80 0 74 0;
#X connect 80 0 75 0;
#X connect 80 0 76 0;
#X connect 87 0 77 0;
#X connect 87 0 78 0;
#X connect 87 0 79 0;
#X connect 88 0 81 0;
#X connect 88 0 82 0;
#X connect 88 0 83 0;
#X connect 89 0 86 0;
#X connect 89 0 84 0;
#X connect 89 0 85 0;
#X connect 96 0 97 0;
#X connect 96 0 98 0;
#X connect 96 0 99 0;
#X connect 100 0 101 0;
#X connect 100 0 103 0;
#X connect 100 0 102 0;
#X connect 104 0 90 0;
#X connect 105 0 15 0;
#X connect 105 0 106 0;
#X connect 105 0 107 0;
#X connect 106 0 108 0;
#X connect 107 0 104 0;
#X connect 107 0 109 0;
#X connect 107 0 110 0;
#X connect 107 0 111 0;
#X connect 108 0 94 0;
#X connect 109 0 91 0;
#X connect 110 0 92 0;
#X connect 111 0 93 0;
#X connect 112 0 95 0;
#X connect 113 0 20 0;
#X coords 0 -1 1 1 834 143 2 0 -10;
#X restore -109 160 pd notetriggers;
#X obj -109 328 bunt 1;
#X obj 727 152 difference;
#N canvas 70 611 1184 396 feedbackautomagic 0;
#X obj 11 167 drunk 255 10;
#X obj 17 108 metro 100;
#X obj 22 72 tgl 15 0 empty empty empty 17 7 0 10 -262144 -1 -1 0 1
;
#X floatatom 65 73 5 0 0 0 - - -;
#X floatatom 78 140 5 0 0 0 - - -;
#X obj 150 111 metro 100;
#X obj 155 75 tgl 15 0 empty empty empty 17 7 0 10 -262144 -1 -1 0
1;
#X floatatom 198 76 5 0 0 0 - - -;
#X floatatom 223 135 5 0 0 0 - - -;
#X msg 78 225 range \$1;
#X floatatom 171 141 5 0 0 0 - - -;
#X obj 113 197 / 255;
#X floatatom 32 139 5 0 0 0 - - -;
#X obj 11 196 / 255;
#X obj 11 32 r \$0-start;
#X obj 294 114 metro 100;
#X obj 299 78 tgl 15 0 empty empty empty 17 7 0 10 -262144 -1 -1 0
1;
#X floatatom 342 79 5 0 0 0 - - -;
#X floatatom 355 146 5 0 0 0 - - -;
#X obj 427 117 metro 100;
#X obj 432 81 tgl 15 0 empty empty empty 17 7 0 10 -262144 -1 -1 0
1;
#X floatatom 475 82 5 0 0 0 - - -;
#X floatatom 500 141 5 0 0 0 - - -;
#X msg 355 231 range \$1;
#X floatatom 448 147 5 0 0 0 - - -;
#X obj 390 203 / 255;
#X floatatom 309 145 5 0 0 0 - - -;
#X obj 288 202 / 255;
#X obj 288 38 r \$0-start;
#X obj 554 164 drunk 255 10;
#X obj 560 105 metro 100;
#X obj 565 69 tgl 15 0 empty empty empty 17 7 0 10 -262144 -1 -1 0
1;
#X floatatom 608 70 5 0 0 0 - - -;
#X floatatom 621 137 5 0 0 0 - - -;
#X obj 693 108 metro 100;
#X obj 698 72 tgl 15 0 empty empty empty 17 7 0 10 -262144 -1 -1 0
1;
#X floatatom 741 73 5 0 0 0 - - -;
#X floatatom 766 132 5 0 0 0 - - -;
#X msg 621 222 range \$1;
#X floatatom 714 138 5 0 0 0 - - -;
#X obj 656 194 / 255;
#X floatatom 575 136 5 0 0 0 - - -;
#X obj 554 193 / 255;
#X obj 554 29 r \$0-start;
#X obj 831 170 drunk 255 10;
#X obj 837 111 metro 100;
#X obj 842 75 tgl 15 0 empty empty empty 17 7 0 10 -262144 -1 -1 0
1;
#X floatatom 885 76 5 0 0 0 - - -;
#X floatatom 898 143 5 0 0 0 - - -;
#X obj 970 114 metro 100;
#X obj 975 78 tgl 15 0 empty empty empty 17 7 0 10 -262144 -1 -1 0
1;
#X floatatom 1018 79 5 0 0 0 - - -;
#X floatatom 1043 138 5 0 0 0 - - -;
#X msg 898 228 range \$1;
#X floatatom 991 144 5 0 0 0 - - -;
#X obj 933 200 / 255;
#X floatatom 852 142 5 0 0 0 - - -;
#X obj 831 199 / 255;
#X obj 831 35 r \$0-start;
#X obj 35 350 s \$0-start;
#X obj 220 282 tgl 15 0 empty empty empty 17 7 0 10 -262144 -1 -1 0
1;
#X obj 732 214 + 5;
#X obj 1041 214 + 5;
#X obj 147 167 drunk 15 10;
#X obj 288 173 drunk 255 10;
#X obj 424 173 drunk 15 10;
#X obj 690 164 drunk 15 10;
#X obj 967 170 drunk 15 10;
#X obj 90 258 r drunkenvalues;
#X msg 8 221 level \$1;
#X msg 285 227 level \$1;
#X msg 551 218 level \$1;
#X msg 828 224 level \$1;
#X obj 43 299 spigot;
#X obj 26 260 s b1_ctl;
#X obj 303 266 s b2_ctl;
#X obj 569 257 s b3_ctl;
#X obj 846 263 s b4_ctl;
#X connect 0 0 13 0;
#X connect 1 0 0 0;
#X connect 2 0 1 0;
#X connect 3 0 1 1;
#X connect 4 0 0 2;
#X connect 5 0 63 0;
#X connect 6 0 5 0;
#X connect 7 0 5 1;
#X connect 8 0 63 2;
#X connect 9 0 74 0;
#X connect 10 0 63 1;
#X connect 11 0 9 0;
#X connect 12 0 0 1;
#X connect 13 0 69 0;
#X connect 14 0 2 0;
#X connect 14 0 6 0;
#X connect 15 0 64 0;
#X connect 16 0 15 0;
#X connect 17 0 15 1;
#X connect 18 0 64 2;
#X connect 19 0 65 0;
#X connect 20 0 19 0;
#X connect 21 0 19 1;
#X connect 22 0 65 2;
#X connect 23 0 75 0;
#X connect 24 0 65 1;
#X connect 25 0 23 0;
#X connect 26 0 64 1;
#X connect 27 0 70 0;
#X connect 28 0 16 0;
#X connect 28 0 20 0;
#X connect 29 0 42 0;
#X connect 30 0 29 0;
#X connect 31 0 30 0;
#X connect 32 0 30 1;
#X connect 33 0 29 2;
#X connect 34 0 66 0;
#X connect 35 0 34 0;
#X connect 36 0 34 1;
#X connect 37 0 66 2;
#X connect 38 0 76 0;
#X connect 39 0 66 1;
#X connect 40 0 38 0;
#X connect 41 0 29 1;
#X connect 42 0 71 0;
#X connect 43 0 31 0;
#X connect 43 0 35 0;
#X connect 44 0 57 0;
#X connect 45 0 44 0;
#X connect 46 0 45 0;
#X connect 47 0 45 1;
#X connect 48 0 44 2;
#X connect 49 0 67 0;
#X connect 50 0 49 0;
#X connect 51 0 49 1;
#X connect 52 0 67 2;
#X connect 53 0 77 0;
#X connect 54 0 67 1;
#X connect 55 0 53 0;
#X connect 56 0 44 1;
#X connect 57 0 72 0;
#X connect 58 0 46 0;
#X connect 58 0 50 0;
#X connect 60 0 73 1;
#X connect 61 0 40 0;
#X connect 63 0 11 0;
#X connect 64 0 27 0;
#X connect 65 0 25 0;
#X connect 66 0 61 0;
#X connect 67 0 55 0;
#X connect 68 0 73 0;
#X connect 69 0 74 0;
#X connect 70 0 75 0;
#X connect 71 0 76 0;
#X connect 72 0 77 0;
#X connect 73 0 59 0;
#X coords 0 -1 1 1 137 19 1 100 280;
#X restore 246 -32 pd feedbackautomagic;
#N canvas 861 166 450 300 startup 0;
#X floatatom 317 123 5 0 0 0 - - -;
#X floatatom 319 216 5 0 0 0 - - -;
#X obj 319 237 s fraktal_gain;
#X obj 317 144 s bunt_gain;
#X floatatom 320 174 5 0 0 0 - - -;
#X obj 320 195 s canny_gain;
#X obj 130 74 loadbang;
#X obj 221 266 s bunt1;
#X msg 221 173 toggle \$1;
#X obj 232 242 s bunt2;
#X obj 242 221 s bunt3;
#X obj 253 197 s bunt4;
#N canvas 437 281 1198 741 routing 0;
#X obj -13 -3 r toggle_r11;
#X obj -13 42 s b1_ctl;
#X msg -13 19 toggle \$1;
#X obj 71 -3 r fader1;
#X msg 71 18 fader \$1;
#X obj 131 -5 r rot1;
#X obj 189 -5 r rot2;
#X msg 189 18 range \$1;
#X msg -13 86 toggle \$1;
#X msg 71 85 fader \$1;
#X msg 189 85 range \$1;
#X msg -13 153 toggle \$1;
#X msg 71 152 fader \$1;
#X msg 189 152 range \$1;
#X msg -13 220 toggle \$1;
#X msg 71 219 fader \$1;
#X msg 189 219 range \$1;
#X obj -13 64 r toggle_r12;
#X obj 71 64 r fader2;
#X obj 131 62 r rot3;
#X obj 189 62 r rot4;
#X obj -13 109 s b2_ctl;
#X obj -13 131 r toggle_r13;
#X obj 71 131 r fader3;
#X obj 131 129 r rot5;
#X obj 189 129 r rot6;
#X obj -13 176 s b3_ctl;
#X obj -13 198 r toggle_r14;
#X obj 71 198 r fader4;
#X obj 189 196 r rot8;
#X obj -13 243 s b4_ctl;
#X obj 301 190 r note_c;
#X msg 301 261 red \$1;
#X obj 301 238 / 127;
#X obj 362 234 / 127;
#X msg 359 262 green \$1;
#X obj 362 188 r note_d;
#X obj 422 239 / 127;
#X obj 422 196 r note_e;
#X msg 422 261 blue \$1;
#X msg 1254 254 red \$1;
#X msg 1312 255 green \$1;
#X msg 1375 254 blue \$1;
#X msg 703 139 red \$1;
#X msg 761 140 green \$1;
#X msg 824 139 blue \$1;
#X msg 1020 258 red \$1;
#X obj 1020 235 / 127;
#X obj 1081 231 / 127;
#X msg 1078 259 green \$1;
#X obj 1141 236 / 127;
#X msg 1141 258 blue \$1;
#X msg 537 262 red \$1;
#X obj 537 239 / 127;
#X obj 598 235 / 127;
#X msg 595 263 green \$1;
#X obj 658 240 / 127;
#X msg 658 262 blue \$1;
#X msg 777 262 red \$1;
#X obj 777 239 / 127;
#X obj 838 235 / 127;
#X msg 835 263 green \$1;
#X obj 898 240 / 127;
#X msg 898 262 blue \$1;
#X obj 536 288 s b2_ctl;
#X obj 537 191 r note_f;
#X obj 598 189 r note_g;
#X obj 658 197 r note_a;
#X obj 777 191 r note_h;
#X obj 840 191 r note_c1;
#X obj 776 288 s b3_ctl;
#X obj 1019 284 s b4_ctl;
#X obj 898 197 r note_d1;
#X obj 1020 187 r note_e1;
#X obj 1080 185 r note_f1;
#X obj 1141 193 r note_g1;
#X obj 1254 183 r note_a1;
#X obj 1315 181 r note_h1;
#X obj 1375 188 r note_c2;
#X obj 1253 279 s canny_ctl;
#X obj 280 168 r env_c;
#X obj 353 164 r env_d;
#X obj 429 163 r env_e;
#X obj 300 287 s b1_ctl;
#X obj 1254 231 / 127;
#X obj 1315 227 / 127;
#X obj 1375 232 / 127;
#X obj 131 196 r rot7;
#X obj 701 165 s fraktal_ctl;
#X obj 656 27 r note_d2;
#X obj 719 26 r note_e2;
#X obj 783 26 r note_f2;
#X obj 703 105 * 0;
#X obj 764 101 * 0;
#X obj 824 106 * 0;
#X obj 907 36 r fraktal_gain;
#X obj 460 222 r bunt_gain;
#X obj 696 223 r bunt_gain;
#X obj 936 223 r bunt_gain;
#X obj 1172 213 r bunt_gain;
#X obj 1425 211 r canny_gain;
#X msg 624 133 color \$1;
#X obj 627 107 * 0;
#X floatatom 574 66 5 0 0 0 - - -;
#X msg 131 19 level \$1;
#X msg 130 85 level \$1;
#X msg 131 153 level \$1;
#X msg 131 220 level \$1;
#X connect 0 0 2 0;
#X connect 2 0 1 0;
#X connect 3 0 4 0;
#X connect 4 0 1 0;
#X connect 5 0 104 0;
#X connect 6 0 7 0;
#X connect 7 0 1 0;
#X connect 8 0 21 0;
#X connect 9 0 21 0;
#X connect 10 0 21 0;
#X connect 11 0 26 0;
#X connect 12 0 26 0;
#X connect 13 0 26 0;
#X connect 14 0 30 0;
#X connect 15 0 30 0;
#X connect 16 0 30 0;
#X connect 17 0 8 0;
#X connect 18 0 9 0;
#X connect 19 0 105 0;
#X connect 20 0 10 0;
#X connect 22 0 11 0;
#X connect 23 0 12 0;
#X connect 24 0 106 0;
#X connect 25 0 13 0;
#X connect 27 0 14 0;
#X connect 28 0 15 0;
#X connect 29 0 16 0;
#X connect 31 0 33 0;
#X connect 32 0 83 0;
#X connect 33 0 32 0;
#X connect 34 0 35 0;
#X connect 35 0 83 0;
#X connect 36 0 34 0;
#X connect 37 0 39 0;
#X connect 38 0 37 0;
#X connect 39 0 83 0;
#X connect 40 0 79 0;
#X connect 41 0 79 0;
#X connect 42 0 79 0;
#X connect 43 0 88 0;
#X connect 44 0 88 0;
#X connect 45 0 88 0;
#X connect 46 0 71 0;
#X connect 47 0 46 0;
#X connect 48 0 49 0;
#X connect 49 0 71 0;
#X connect 50 0 51 0;
#X connect 51 0 71 0;
#X connect 52 0 64 0;
#X connect 53 0 52 0;
#X connect 54 0 55 0;
#X connect 55 0 64 0;
#X connect 56 0 57 0;
#X connect 57 0 64 0;
#X connect 58 0 70 0;
#X connect 59 0 58 0;
#X connect 60 0 61 0;
#X connect 61 0 70 0;
#X connect 62 0 63 0;
#X connect 63 0 70 0;
#X connect 65 0 53 0;
#X connect 66 0 54 0;
#X connect 67 0 56 0;
#X connect 68 0 59 0;
#X connect 69 0 60 0;
#X connect 72 0 62 0;
#X connect 73 0 47 0;
#X connect 74 0 48 0;
#X connect 75 0 50 0;
#X connect 76 0 84 0;
#X connect 77 0 85 0;
#X connect 78 0 86 0;
#X connect 80 0 32 0;
#X connect 81 0 35 0;
#X connect 82 0 39 0;
#X connect 84 0 40 0;
#X connect 85 0 41 0;
#X connect 86 0 42 0;
#X connect 89 0 92 0;
#X connect 89 0 102 0;
#X connect 90 0 93 0;
#X connect 90 0 102 0;
#X connect 91 0 94 0;
#X connect 91 0 102 0;
#X connect 92 0 43 0;
#X connect 93 0 44 0;
#X connect 94 0 45 0;
#X connect 95 0 92 1;
#X connect 95 0 93 1;
#X connect 95 0 94 1;
#X connect 96 0 37 1;
#X connect 96 0 34 1;
#X connect 96 0 33 1;
#X connect 97 0 56 1;
#X connect 97 0 54 1;
#X connect 97 0 53 1;
#X connect 98 0 62 1;
#X connect 98 0 60 1;
#X connect 98 0 59 1;
#X connect 99 0 50 1;
#X connect 99 0 48 1;
#X connect 99 0 47 1;
#X connect 100 0 86 1;
#X connect 100 0 85 1;
#X connect 100 0 84 1;
#X connect 101 0 88 0;
#X connect 102 0 101 0;
#X connect 103 0 102 1;
#X connect 104 0 1 0;
#X connect 105 0 21 0;
#X connect 106 0 26 0;
#X connect 107 0 30 0;
#X restore 23 77 pd routing;
#X obj 27 120 outlet;
#X obj 201 42 tgl 50 0 empty empty on 17 7 0 10 -228856 -13381 -1 1
1;
#X obj 219 114 spigot;
#X obj 262 55 tgl 15 0 empty empty unlock -7 -7 0 10 -262144 -1 -1
1 1;
#X msg 220 142 \$1;
#X msg 176 120 1;
#X obj 64 203 s drunkenvalues;
#X connect 0 0 3 0;
#X connect 1 0 2 0;
#X connect 4 0 5 0;
#X connect 6 0 18 0;
#X connect 8 0 7 0;
#X connect 8 0 11 0;
#X connect 8 0 10 0;
#X connect 8 0 9 0;
#X connect 14 0 15 0;
#X connect 15 0 17 0;
#X connect 16 0 15 1;
#X connect 17 0 0 0;
#X connect 17 0 4 0;
#X connect 17 0 8 0;
#X connect 17 0 19 0;
#X connect 18 0 17 0;
#X coords 0 -1 1 1 95 50 2 200 42;
#X restore 145 -36 pd startup;
#N canvas 1411 682 450 310 effecttemplate 0;
#X obj 15 36 r cam;
#X obj 13 125 Textur;
#X text 18 92 stuff :);
#X obj 15 64 spigot;
#X obj 130 12 tgl 15 0 empty empty empty 17 7 0 10 -262144 -1 -1 0
1;
#X obj 78 -44 inlet;
#X obj 78 -21 route toggle;
#X connect 0 0 3 0;
#X connect 4 0 3 1;
#X connect 5 0 6 0;
#X connect 6 0 4 0;
#X coords 0 -1 1 1 137 20 1 10 10;
#X restore 447 467 pd effecttemplate;
#N canvas 780 581 625 409 soundfiltervalues 0;
#X obj 19 79 lop~;
#X obj 19 138 env~;
#X floatatom 40 52 5 0 0 0 - - -;
#X obj 23 337 s b1_ctl;
#X obj 101 136 env~;
#X floatatom 122 50 5 0 0 0 - - -;
#X obj 105 335 s b2_ctl;
#X obj 101 77 hip~;
#X obj 209 142 env~;
#X floatatom 230 56 5 0 0 0 - - -;
#X obj 325 137 env~;
#X obj 325 108 vcf~;
#X obj 213 341 s b3_ctl;
#X obj 209 83 bp~ 500 10;
#X msg 21 294 range \$1;
#X msg 103 292 range \$1;
#X msg 211 298 range \$1;
#X obj 206 269 *;
#X obj 20 264 *;
#X obj 102 265 *;
#X obj 327 262 *;
#X obj 325 341 s b4_ctl;
#X msg 323 298 range \$1;
#X floatatom 437 196 10 0 0 0 - - -;
#X obj 38 235 r \$0-factor;
#X obj 124 238 r \$0-factor;
#X obj 228 243 r \$0-factor;
#X obj 338 235 r \$0-factor;
#X obj 423 228 s \$0-factor;
#X floatatom 369 49 5 0 0 0 - - -;
#X obj 368 74 osc~;
#X floatatom 409 73 5 0 0 0 - - -;
#X obj 435 118 hsl 128 15 0 1 0 0 empty empty empty -2 -8 0 10 -262144
-1 -1 1600 1;
#X obj 445 323 autoscale;
#X obj 326 171 pow 2;
#X obj 327 200 / 1270;
#X obj 22 174 pow 2;
#X obj 100 167 pow 2;
#X obj 209 171 pow 2;
#X obj 210 206 / 1270;
#X obj 102 200 / 1270;
#X obj 20 202 / 1270;
#X floatatom 370 147 5 0 0 0 - - -;
#X obj 441 164 / 100;
#X obj 523 186 spigot~;
#X obj 550 102 tgl 15 0 empty empty empty 17 7 0 10 -262144 -1 -1 1
1;
#X obj 502 156 adc~ 1;
#X obj 522 224 s~ \$0-adc;
#X obj 18 8 r~ \$0-adc;
#X obj 100 27 r~ \$0-adc;
#X obj 208 12 r~ \$0-adc;
#X obj 326 24 r~ \$0-adc;
#X connect 0 0 1 0;
#X connect 1 0 36 0;
#X connect 2 0 0 1;
#X connect 4 0 37 0;
#X connect 5 0 7 1;
#X connect 7 0 4 0;
#X connect 8 0 38 0;
#X connect 9 0 13 1;
#X connect 10 0 34 0;
#X connect 11 0 10 0;
#X connect 13 0 8 0;
#X connect 14 0 3 0;
#X connect 15 0 6 0;
#X connect 16 0 12 0;
#X connect 17 0 16 0;
#X connect 18 0 14 0;
#X connect 19 0 15 0;
#X connect 20 0 22 0;
#X connect 22 0 21 0;
#X connect 23 0 28 0;
#X connect 24 0 18 1;
#X connect 25 0 19 1;
#X connect 26 0 17 1;
#X connect 27 0 20 1;
#X connect 29 0 30 0;
#X connect 30 0 11 1;
#X connect 31 0 11 2;
#X connect 32 0 43 0;
#X connect 34 0 35 0;
#X connect 35 0 20 0;
#X connect 36 0 41 0;
#X connect 37 0 40 0;
#X connect 38 0 39 0;
#X connect 39 0 17 0;
#X connect 40 0 19 0;
#X connect 41 0 18 0;
#X connect 42 0 34 1;
#X connect 43 0 23 0;
#X connect 44 1 47 0;
#X connect 45 0 44 1;
#X connect 46 0 44 0;
#X connect 48 0 0 0;
#X connect 49 0 7 0;
#X connect 50 0 13 0;
#X connect 51 0 11 0;
#X coords 0 -1 1 1 137 35 1 430 100;
#X restore 392 -34 pd soundfiltervalues;
#X obj 30 329 bunt 2;
#X obj 169 329 bunt 3;
#X obj 308 329 bunt 4;
#X obj -109 305 cnv 15 100 20 empty empty videofilter 4 12 0 14 -229049
-66577 0;
#X obj -110 137 cnv 15 120 20 empty empty midi_envelopes 4 12 0 14
-229049 -66577 0;
#X obj -109 39 cnv 15 100 20 empty empty audio2midi 4 12 0 14 -229049
-66577 0;
#X connect 2 0 3 0;
#X connect 5 0 4 0;
#X connect 5 1 4 2;
#X connect 6 0 7 0;
