#N canvas 505 390 450 300 10;
#X obj 18 175 drunk 255 10;
#X obj 20 145 metro 100;
#X obj 103 103 tgl 15 0 empty empty empty 17 7 0 10 -262144 -1 -1 0
1;
#X floatatom 103 121 5 0 0 0 - - -;
#X msg 15 229 value \$1;
#X floatatom 103 160 5 0 0 0 - - -;
#X obj 196 211 drunk 255 10;
#X obj 199 155 metro 100;
#X obj 144 103 tgl 15 0 empty empty empty 17 7 0 10 -262144 -1 -1 0
1;
#X floatatom 247 120 5 0 0 0 - - -;
#X floatatom 255 187 5 0 0 0 - - -;
#X msg 127 269 range \$1;
#X floatatom 220 185 5 0 0 0 - - -;
#X obj 162 241 / 255;
#X floatatom 103 140 5 0 0 0 - - -;
#X obj 18 204 / 255;
#X obj 18 42 r \$0-start;
#X obj 15 269 s \$1;
#X obj 362 28 loadbang;
#X obj 360 56 s \$0-start;
#X obj 334 32 bng 15 250 50 0 empty empty empty 17 7 0 10 -262144 -1
-1;
#X connect 0 0 15 0;
#X connect 1 0 0 0;
#X connect 2 0 1 0;
#X connect 3 0 1 1;
#X connect 4 0 17 0;
#X connect 5 0 0 2;
#X connect 6 0 13 0;
#X connect 7 0 6 0;
#X connect 8 0 7 0;
#X connect 9 0 7 1;
#X connect 10 0 6 2;
#X connect 11 0 17 0;
#X connect 12 0 6 1;
#X connect 13 0 11 0;
#X connect 14 0 0 1;
#X connect 15 0 4 0;
#X connect 16 0 2 0;
#X connect 16 0 8 0;
#X connect 18 0 19 0;
#X coords 0 -1 1 1 85 60 1 100 100;
