#N canvas 503 225 607 442 10;
#X obj 14 330 gemwin 25;
#X msg 335 142 0 \, destroy;
#X obj 147 27 bng 15 250 50 0 empty empty STOP 17 7 0 5 -1 -4034 -191407
;
#X obj 102 27 bng 15 250 50 0 empty empty START 17 7 0 5 -33289 -4034
-191407;
#X floatatom 102 44 5 0 0 1 X - -;
#X floatatom 147 44 5 0 0 1 Y - -;
#X msg 164 204 dimen \$1 \$2;
#X obj 164 173 pack 640 480;
#X obj 101 98 s screenX;
#X obj 182 150 r screenX;
#X obj 181 98 s screenY;
#X obj 262 150 r screenY;
#X obj 358 -24 r screenX;
#X obj 436 -24 r screenY;
#X obj 436 3 t b f;
#X obj 358 35 / 1;
#X floatatom 358 57 5 0 0 0 - - -;
#X obj 358 76 s screenAspectRatio;
#X obj 335 182 s gemwin;
#X obj 14 298 r gemwin;
#X obj 28 253 s gemwin;
#X obj 331 100 bng 15 250 50 0 empty empty 2_screen 17 7 0 10 -262144
-1 -1;
#X msg 251 112 1024;
#X msg 289 112 768;
#X obj 52 101 t b b b;
#X msg 16 200 title dots \, create \, 1;
#X obj 27 149 delay 500;
#X obj 28 -40 loadbang;
#X msg 28 -7 960;
#X msg 67 -10 720;
#X floatatom 89 269 5 0 0 0 - - -;
#X msg 89 294 color 0 0 0 \$1;
#X msg 194 300 print;
#X obj 248 278 s gemwin;
#X obj 248 220 tgl 15 0 empty empty empty 17 7 0 10 -262144 -1 -1 1
1;
#X msg 248 240 border \$1;
#X obj 343 212 bng 15 250 50 0 empty empty empty 17 7 0 10 -262144
-1 -1;
#X msg 346 238 offset 1920 0;
#X obj 433 211 bng 15 250 50 0 empty empty empty 17 7 0 10 -262144
-1 -1;
#X msg 436 237 offset 1280 0;
#X connect 1 0 18 0;
#X connect 2 0 1 0;
#X connect 3 0 24 0;
#X connect 4 0 8 0;
#X connect 5 0 10 0;
#X connect 6 0 20 0;
#X connect 7 0 6 0;
#X connect 9 0 7 0;
#X connect 11 0 7 1;
#X connect 12 0 15 0;
#X connect 13 0 14 0;
#X connect 14 0 15 0;
#X connect 14 1 15 1;
#X connect 15 0 16 0;
#X connect 16 0 17 0;
#X connect 19 0 0 0;
#X connect 21 0 22 0;
#X connect 21 0 23 0;
#X connect 22 0 8 0;
#X connect 23 0 10 0;
#X connect 24 0 26 0;
#X connect 24 1 7 0;
#X connect 24 2 1 0;
#X connect 25 0 20 0;
#X connect 26 0 25 0;
#X connect 27 0 28 0;
#X connect 27 0 29 0;
#X connect 27 0 3 0;
#X connect 28 0 4 0;
#X connect 29 0 5 0;
#X connect 30 0 31 0;
#X connect 31 0 0 0;
#X connect 32 0 0 0;
#X connect 34 0 35 0;
#X connect 35 0 33 0;
#X connect 36 0 37 0;
#X connect 37 0 33 0;
#X connect 38 0 39 0;
#X connect 39 0 33 0;
#X coords 0 -1 1 1 90 52 1 100 10;
