#N canvas 860 164 790 478 10;
#X msg 295 132 0 \, destroy;
#X obj 147 27 bng 15 250 50 0 empty empty STOP 17 7 0 5 -1 -4034 -191407
;
#X obj 102 27 bng 15 250 50 0 empty \$0r-start START 17 7 0 5 -33289
-4034 -191407;
#X floatatom 102 54 5 0 0 1 X r-screenX screenX;
#X floatatom 147 54 5 0 0 1 Y r-screenY screenY;
#X msg 164 204 dimen \$1 \$2;
#X obj 164 173 pack 640 480;
#X obj 163 147 r screenX;
#X obj 234 147 r screenY;
#X obj 458 -34 r screenX;
#X obj 536 -34 r screenY;
#X obj 536 -7 t b f;
#X obj 458 25 / 1;
#X floatatom 458 47 5 0 0 0 - - -;
#X obj 458 66 s screenAspectRatio;
#X obj 295 172 s gemwin;
#X obj 14 298 r gemwin;
#X obj 28 253 s gemwin;
#X msg 247 77 1024;
#X msg 285 77 768;
#X obj 27 120 t b b b;
#X msg 16 200 title dots \, create \, 1;
#X obj 27 149 delay 500;
#X obj 28 -40 loadbang;
#X msg 28 -7 960;
#X msg 67 -10 720;
#X msg 114 320 print;
#X obj 192 85 tgl 15 0 empty r-border border 0 -5 0 7 -262144 -1 -1
0 1;
#X msg 192 104 border \$1;
#X obj 263 -2 pack 640 480;
#X msg 263 29 offset \$1 \$2;
#X floatatom 102 84 5 0 0 1 X r-offsetX #0-offsetX;
#X floatatom 147 84 5 0 0 1 Y r-offsetY #0-offsetY;
#X text 100 40 size;
#X text 100 70 offset;
#X obj 263 50 s gemwin;
#X obj 192 27 vradio 15 1 0 3 \$0-preset empty presets 0 -8 0 7 -262144
-1 -1 0;
#X obj 380 89 r \$0-preset;
#X obj 380 117 route 0 1 2;
#X obj 380 266 s \$0r-start;
#X obj 380 151 t b b;
#X obj 520 266 s \$0r-start;
#X obj 520 151 t b b;
#X obj 650 266 s \$0r-start;
#X obj 650 151 t b b;
#X msg 407 173 \; r-screenY 768 \; r-screenX 1024 \; r-offsetY 0 \;
r-offsetX 1280 \; r-border 1 \;;
#X obj 263 -26 r r-offsetX;
#X obj 343 -26 r r-offsetY;
#X msg 677 173 \; r-screenY 800 \; r-screenX 1280 \; r-offsetY 0 \;
r-offsetX 1280 \; r-border 1 \;;
#X msg 214 357 frame \$1;
#X floatatom 238 323 5 0 0 0 - - -;
#X obj 257 209 r fader8;
#X obj 258 231 * 255;
#X obj 257 260 int;
#X obj 282 303 sel 0;
#X msg 284 352 25;
#X obj 282 257 r toggle_r18;
#X obj 237 285 spigot;
#X obj 202 393 s gemwin;
#X msg 547 173 \; r-offsetY 0 \; r-offsetX 1920 \; r-screenY 768 \;
r-screenX 1024 \; r-border 0 \;;
#X obj 14 330 gemwin 50;
#X msg 89 291 buffer \$1;
#X msg 98 257 2;
#X msg 139 258 1;
#X connect 0 0 15 0;
#X connect 1 0 0 0;
#X connect 2 0 20 0;
#X connect 5 0 17 0;
#X connect 6 0 5 0;
#X connect 7 0 6 0;
#X connect 8 0 6 1;
#X connect 9 0 12 0;
#X connect 10 0 11 0;
#X connect 11 0 12 0;
#X connect 11 1 12 1;
#X connect 12 0 13 0;
#X connect 13 0 14 0;
#X connect 16 0 60 0;
#X connect 20 0 22 0;
#X connect 20 0 29 0;
#X connect 20 1 6 0;
#X connect 20 2 0 0;
#X connect 21 0 17 0;
#X connect 22 0 21 0;
#X connect 23 0 24 0;
#X connect 23 0 25 0;
#X connect 23 0 2 0;
#X connect 26 0 60 0;
#X connect 27 0 28 0;
#X connect 28 0 17 0;
#X connect 29 0 30 0;
#X connect 30 0 35 0;
#X connect 37 0 38 0;
#X connect 38 0 40 0;
#X connect 38 1 42 0;
#X connect 38 2 44 0;
#X connect 40 0 39 0;
#X connect 40 1 45 0;
#X connect 42 0 41 0;
#X connect 42 1 59 0;
#X connect 44 0 43 0;
#X connect 44 1 48 0;
#X connect 46 0 29 0;
#X connect 47 0 29 1;
#X connect 49 0 58 0;
#X connect 50 0 49 0;
#X connect 51 0 52 0;
#X connect 52 0 53 0;
#X connect 53 0 57 0;
#X connect 54 0 55 0;
#X connect 55 0 50 0;
#X connect 56 0 54 0;
#X connect 56 0 57 1;
#X connect 57 0 50 0;
#X connect 61 0 60 0;
#X connect 62 0 61 0;
#X connect 63 0 61 0;
#X coords 0 -1 1 1 130 92 1 100 10;
