#N canvas 2 52 450 300 10;
#N canvas 887 423 541 547 fft 0;
#X obj 19 172 rfft~;
#X obj 20 218 *~;
#X obj 55 217 *~;
#X obj 21 260 +~;
#X obj 51 379 print~ amp;
#X msg 98 310 bang;
#X obj 14 416 pix_sig2pix~ 64 64;
#X obj -38 316 gemhead;
#X obj 21 286 q8_sqrt~;
#N canvas 98 213 450 300 blocksize 0;
#N canvas 376 80 695 365 block-example 0;
#X obj 54 30 tgl 15 0 empty empty empty 0 -6 0 8 -262144 -1 -1 0 1
;
#X msg 78 53 set 4096 1 1;
#X msg 78 108 set 4096 2 1;
#X msg 78 79 set 8192 1 1;
#X msg 81 138 set 4096 1 0.5;
#X msg 81 165 set 4096 1 2;
#X obj 52 192 switch~ 4096 1 1;
#X text 94 25 <--- switch this subpatch on and off;
#X text 209 53 <--- block size 4096 \, no overlap \, no resampling
;
#X text 206 81 <--- bigger block size;
#X text 208 109 <--- double overlap;
#X text 219 142 <--- downsampled by factor of 2;
#X text 218 167 <--- upsampled by factor of 2;
#X text 206 194 <--- creation arguments (if any) initialize blocking
;
#X text 317 317 <--- measured time (msec) between blocks;
#X text 245 209 (args are blocksize \, overlap \, up/downsampling)
;
#X connect 0 0 6 0;
#X connect 1 0 6 0;
#X connect 2 0 6 0;
#X connect 3 0 6 0;
#X connect 4 0 6 0;
#X connect 5 0 6 0;
#X restore 222 36 pd block-example;
#X obj 58 52 block~ 4096;
#X restore 236 104 pd blocksize;
#X obj 18 116 adc~;
#X obj 22 327 /~ 32;
#X connect 0 0 1 0;
#X connect 0 0 1 1;
#X connect 0 1 2 0;
#X connect 0 1 2 1;
#X connect 1 0 3 0;
#X connect 2 0 3 1;
#X connect 3 0 8 0;
#X connect 5 0 4 0;
#X connect 7 0 6 0;
#X connect 8 0 11 0;
#X connect 10 0 0 0;
#X connect 11 0 4 0;
#X connect 11 0 6 0;
#X connect 11 0 6 1;
#X connect 11 0 6 2;
#X connect 11 0 6 3;
#X restore 105 59 pd fft;
