#N canvas 194 197 1629 734 10;
#X obj 1032 321 pix_snap2tex;
#X msg 1074 291 0 0;
#X obj 1074 268 t b b;
#X obj 1074 249 loadbang;
#X msg 989 -75 print;
#X obj 1034 200 glsl_program;
#X obj 1107 126 pack 0 0;
#X msg 991 7 print;
#X obj 1128 106 t b f;
#X obj 1128 61 change;
#X obj 1106 -34 change;
#X msg 1107 151 link \$1 \$2;
#X msg 983 132 print;
#X floatatom 1128 87 2 0 0 0 ID - -;
#X floatatom 1106 -11 2 0 0 0 ID - -;
#X obj 1125 172 print linking;
#X obj 1034 41 glsl_fragment;
#X obj 1034 -53 glsl_vertex;
#X obj 1056 -102 bng 15 250 50 0 empty empty empty 0 -6 0 8 -262144
-1 -1;
#X text 1093 -101 <- 2 : load shader;
#X obj 1034 222 t b a;
#X floatatom 318 90 5 0 0 1 Iterationen - -;
#X floatatom 213 71 10 -5 5 1 X - -;
#X floatatom 213 89 5 0 0 1 Farbe - -;
#X msg 629 115 maxiterations \$1;
#X msg 483 91 x_offset \$1;
#X msg 567 115 color \$1;
#X floatatom 318 71 10 -5 5 1 Y - -;
#X msg 560 91 y_offset \$1;
#X obj 1056 -126 loadbang;
#X obj 1034 -155 spigot;
#X obj 463 52 tgl 15 0 empty empty empty 17 7 0 10 -262144 -1 -1 1
1;
#X obj 112 -39 inlet;
#X obj 449 -198 inlet;
#X obj 389 -9 inlet;
#X obj 1305 -172 inlet;
#X floatatom 859 -203 10 0 100 1 Faktor(unused) - -;
#X msg 860 -131 factor \$1;
#X floatatom 860 -160 10 0 0 0 - - -;
#X floatatom 213 110 5 0 0 1 rot - -;
#X msg 514 139 red \$1;
#X floatatom 277 111 5 0 0 1 grün - -;
#X msg 574 138 green \$1;
#X floatatom 346 111 5 0 0 1 blau - -;
#X msg 644 138 blue \$1;
#X floatatom 443 -138 10 -2 2 1 a - -;
#X floatatom 548 -138 10 -2 2 1 b - -;
#X msg 443 -116 a_offset \$1;
#X msg 548 -116 b_offset \$1;
#X floatatom 750 -176 10 0 0 1 xy - -;
#X floatatom 636 -138 10 -2 2 1 ab - -;
#X msg 751 -126 xy_offset \$1;
#X msg 636 -116 ab_offset \$1;
#X floatatom -130 81 10 -2 2 1 z_re - -;
#X floatatom -27 81 10 -2 2 1 z_im - -;
#X floatatom 394 72 10 0 0 1 z_b - -;
#X msg -130 101 zoom_re \$1;
#X msg -27 101 zoom_im \$1;
#X obj 859 -183 / 100000;
#X msg 695 138 infinity \$1;
#X floatatom 411 112 5 0 0 1 inf - -;
#X obj -47 -146 loadbang;
#X obj 784 109 s to_glslprogramm;
#X msg 152 -176 0;
#X msg 168 73 200;
#X msg 93 89 0.04;
#X obj 504 -89 s to_glslprogramm;
#X obj 912 162 r to_glslprogramm;
#X obj 782 134 s to_glslprogramm;
#X obj 784 157 s to_glslprogramm;
#X msg 639 90 zoom_b \$1;
#X obj 513 114 / 100000;
#X msg 135 72 512;
#X obj 113 -20 unpack 0 0 0;
#X obj 446 -165 unpack 0 0 0;
#X obj 386 33 unpack 0 0 0;
#X obj 1034 -181 gemhead;
#X msg 1048 -75 open shader/mandelbrot1.vert;
#X msg 1045 11 open shader/mandelbrot1.frag;
#X msg 1116 292 0 0;
#X obj 82 25 bng 15 250 50 0 empty empty reset 17 7 0 10 -262144 -1
-1;
#X msg 106 48 2;
#X msg 136 48 1.32;
#X msg 171 49 0.27;
#X msg 134 91 8;
#X obj 15 -119 delay 500;
#X obj 1265 -79 * 1;
#X floatatom 1287 -105 8 0 0 0 - - -;
#X floatatom 213 132 5 0 0 1 t_r - -;
#X floatatom 281 134 5 0 0 1 t_g - -;
#X floatatom 350 134 5 0 0 1 t_b - -;
#X obj 785 182 s to_glslprogramm;
#X msg 518 168 thres1 \$1;
#X msg 586 168 thres2 \$1;
#X msg 654 167 thres3 \$1;
#X obj 1249 -48 - 100;
#X floatatom 1312 -73 5 0 0 0 - - -;
#X obj 1303 22 autoscale 0 700;
#X floatatom 1360 -73 5 0 0 0 - - -;
#X floatatom 1317 -1 5 0 0 0 - - -;
#X floatatom 1364 -7 5 0 0 0 - - -;
#X obj 1370 126 pack 0 50;
#X msg 1370 91 0;
#X obj 1370 68 moses 0.011;
#X obj 1370 147 line;
#X msg 103 114 0.04;
#X msg 140 113 0.14;
#X msg 174 112 0.34;
#X obj 67 96 bng 15 250 50 0 empty empty empty 17 7 0 10 -262144 -1
-1;
#X text 211 49 x y;
#X text 285 52 a b ab;
#X text 397 52 z;
#X obj 1034 345 Textur;
#X obj 446 52 bng 15 250 50 0 empty empty reload -25 7 0 5 -262144
-1 -1;
#X connect 0 0 112 0;
#X connect 1 0 0 1;
#X connect 2 0 1 0;
#X connect 2 1 79 0;
#X connect 3 0 2 0;
#X connect 4 0 17 0;
#X connect 5 0 20 0;
#X connect 6 0 11 0;
#X connect 7 0 16 0;
#X connect 8 0 6 0;
#X connect 8 1 6 1;
#X connect 9 0 13 0;
#X connect 10 0 14 0;
#X connect 11 0 5 0;
#X connect 11 0 15 0;
#X connect 12 0 5 0;
#X connect 13 0 8 0;
#X connect 14 0 6 0;
#X connect 16 0 5 0;
#X connect 16 1 9 0;
#X connect 17 0 16 0;
#X connect 17 1 10 0;
#X connect 18 0 77 0;
#X connect 18 0 78 0;
#X connect 18 0 85 0;
#X connect 20 0 0 0;
#X connect 20 1 0 0;
#X connect 21 0 24 0;
#X connect 22 0 25 0;
#X connect 23 0 71 0;
#X connect 24 0 68 0;
#X connect 25 0 62 0;
#X connect 26 0 68 0;
#X connect 27 0 28 0;
#X connect 28 0 62 0;
#X connect 29 0 18 0;
#X connect 30 0 17 0;
#X connect 31 0 30 1;
#X connect 32 0 73 0;
#X connect 33 0 74 0;
#X connect 34 0 75 0;
#X connect 35 0 86 0;
#X connect 35 0 97 0;
#X connect 35 0 98 0;
#X connect 36 0 58 0;
#X connect 38 0 37 0;
#X connect 39 0 40 0;
#X connect 40 0 69 0;
#X connect 41 0 42 0;
#X connect 42 0 69 0;
#X connect 43 0 44 0;
#X connect 44 0 69 0;
#X connect 45 0 47 0;
#X connect 46 0 48 0;
#X connect 47 0 66 0;
#X connect 48 0 66 0;
#X connect 49 0 51 0;
#X connect 50 0 52 0;
#X connect 52 0 66 0;
#X connect 53 0 56 0;
#X connect 54 0 57 0;
#X connect 55 0 70 0;
#X connect 58 0 38 0;
#X connect 59 0 69 0;
#X connect 60 0 59 0;
#X connect 61 0 85 0;
#X connect 63 0 45 0;
#X connect 63 0 46 0;
#X connect 63 0 50 0;
#X connect 64 0 21 0;
#X connect 65 0 39 0;
#X connect 65 0 41 0;
#X connect 65 0 43 0;
#X connect 67 0 5 0;
#X connect 70 0 62 0;
#X connect 71 0 26 0;
#X connect 72 0 23 0;
#X connect 73 0 22 0;
#X connect 73 1 27 0;
#X connect 74 0 45 0;
#X connect 74 1 46 0;
#X connect 74 2 50 0;
#X connect 75 0 55 0;
#X connect 76 0 30 0;
#X connect 77 0 17 0;
#X connect 78 0 16 0;
#X connect 79 0 0 2;
#X connect 80 0 83 0;
#X connect 80 0 63 0;
#X connect 80 0 81 0;
#X connect 80 0 82 0;
#X connect 80 0 64 0;
#X connect 80 0 72 0;
#X connect 80 0 65 0;
#X connect 80 0 84 0;
#X connect 80 0 108 0;
#X connect 81 0 22 0;
#X connect 82 0 27 0;
#X connect 83 0 55 0;
#X connect 83 0 54 0;
#X connect 83 0 53 0;
#X connect 84 0 60 0;
#X connect 85 0 80 0;
#X connect 86 0 95 0;
#X connect 87 0 86 1;
#X connect 88 0 92 0;
#X connect 89 0 93 0;
#X connect 90 0 94 0;
#X connect 92 0 91 0;
#X connect 93 0 91 0;
#X connect 94 0 91 0;
#X connect 96 0 95 1;
#X connect 97 0 103 0;
#X connect 99 0 97 1;
#X connect 100 0 97 2;
#X connect 101 0 104 0;
#X connect 102 0 101 0;
#X connect 103 0 102 0;
#X connect 103 1 101 0;
#X connect 105 0 88 0;
#X connect 106 0 89 0;
#X connect 107 0 90 0;
#X connect 108 0 105 0;
#X connect 108 0 106 0;
#X connect 108 0 107 0;
#X connect 113 0 80 0;
#X coords 0 -1 1 1 270 100 2 210 50;
