#N canvas 543 155 733 655 10;
#X obj 164 518 pix_snap2tex;
#X msg 204 491 0 0;
#X obj 204 468 t b b;
#X obj 204 449 loadbang;
#X msg 119 125 print;
#X obj 164 400 glsl_program;
#X obj 237 326 pack 0 0;
#X msg 121 207 print;
#X obj 258 306 t b f;
#X obj 258 261 change;
#X obj 236 166 change;
#X msg 237 351 link \$1 \$2;
#X msg 181 353 print;
#X floatatom 258 287 2 0 0 0 ID - -;
#X floatatom 236 189 2 0 0 0 ID - -;
#X obj 255 372 print linking;
#X obj 164 241 glsl_fragment;
#X obj 164 147 glsl_vertex;
#X obj 186 98 bng 15 250 50 0 empty empty empty 0 -6 0 8 -262144 -1
-1;
#X obj 164 426 t b a;
#X obj 164 593 outlet;
#X obj 186 74 loadbang;
#X obj 131 70 spigot;
#X obj 164 543 alpha 1;
#X obj 463 22 tgl 15 0 empty empty empty 17 7 0 10 -262144 -1 -1 1
1;
#X obj 34 20 inlet;
#X obj 366 249 r screenX;
#X obj 31 245 r screenY;
#X obj 366 277 t b f;
#X obj 366 321 / 1;
#X msg 366 298 1;
#X msg 366 370 width \$1;
#X obj 30 273 t b f;
#X obj 30 320 / 1;
#X msg 30 294 1;
#X msg 30 360 height \$1;
#X msg 178 127 open shader/gaussblur.vert;
#X obj 69 90 tgl 15 0 empty empty empty 17 7 0 10 -262144 -1 -1 0 -1
;
#X obj 69 63 - 1;
#X obj 37 114 spigot;
#X msg 389 125 print;
#X obj 434 400 glsl_program;
#X obj 507 326 pack 0 0;
#X msg 391 207 print;
#X obj 528 306 t b f;
#X obj 528 261 change;
#X obj 506 166 change;
#X msg 507 351 link \$1 \$2;
#X msg 451 353 print;
#X floatatom 528 287 2 0 0 0 ID - -;
#X floatatom 506 189 2 0 0 0 ID - -;
#X obj 525 372 print linking;
#X obj 434 241 glsl_fragment;
#X obj 434 147 glsl_vertex;
#X msg 448 127 open shader/gaussblur.vert;
#X obj 447 107 bng 15 250 50 0 empty empty empty 17 7 0 10 -262144
-1 -1;
#X msg 177 210 open shader/gaussblur5x5vert.frag;
#X msg 447 210 open shader/gaussblur5x5horiz.frag;
#X obj 30 340 f;
#X obj 402 53 t b b;
#X obj 366 345 f;
#X obj 334 167 delay 500;
#X msg 252 492 960 720;
#X obj 446 22 bng 15 250 50 0 empty empty reload -25 7 0 5 -262144
-1 -1;
#X obj 81 21 r cam;
#X connect 0 0 23 0;
#X connect 1 0 0 1;
#X connect 2 0 1 0;
#X connect 2 1 62 0;
#X connect 3 0 2 0;
#X connect 4 0 17 0;
#X connect 5 0 53 0;
#X connect 6 0 11 0;
#X connect 7 0 16 0;
#X connect 8 0 6 0;
#X connect 8 1 6 1;
#X connect 9 0 13 0;
#X connect 10 0 14 0;
#X connect 11 0 5 0;
#X connect 11 0 15 0;
#X connect 12 0 5 0;
#X connect 13 0 8 0;
#X connect 14 0 6 0;
#X connect 16 0 5 0;
#X connect 16 1 9 0;
#X connect 17 0 16 0;
#X connect 17 1 10 0;
#X connect 18 0 36 0;
#X connect 18 0 56 0;
#X connect 19 0 0 0;
#X connect 19 1 0 0;
#X connect 21 0 18 0;
#X connect 21 0 55 0;
#X connect 22 0 17 0;
#X connect 23 0 20 0;
#X connect 24 0 22 1;
#X connect 24 0 38 0;
#X connect 25 0 22 0;
#X connect 25 0 39 0;
#X connect 26 0 28 0;
#X connect 27 0 32 0;
#X connect 28 0 30 0;
#X connect 28 1 29 1;
#X connect 29 0 60 0;
#X connect 30 0 29 0;
#X connect 31 0 41 0;
#X connect 32 0 34 0;
#X connect 32 1 33 1;
#X connect 33 0 58 0;
#X connect 34 0 33 0;
#X connect 35 0 5 0;
#X connect 36 0 17 0;
#X connect 37 0 39 1;
#X connect 38 0 37 0;
#X connect 39 0 20 0;
#X connect 40 0 53 0;
#X connect 41 0 19 0;
#X connect 42 0 47 0;
#X connect 43 0 52 0;
#X connect 44 0 42 0;
#X connect 44 1 42 1;
#X connect 45 0 49 0;
#X connect 46 0 50 0;
#X connect 47 0 41 0;
#X connect 47 0 51 0;
#X connect 48 0 41 0;
#X connect 49 0 44 0;
#X connect 50 0 42 0;
#X connect 52 0 41 0;
#X connect 52 1 45 0;
#X connect 53 0 52 0;
#X connect 53 1 46 0;
#X connect 54 0 53 0;
#X connect 55 0 54 0;
#X connect 55 0 57 0;
#X connect 56 0 16 0;
#X connect 57 0 52 0;
#X connect 58 0 35 0;
#X connect 59 0 61 0;
#X connect 59 1 55 0;
#X connect 59 1 18 0;
#X connect 60 0 31 0;
#X connect 61 0 60 0;
#X connect 61 0 58 0;
#X connect 62 0 0 2;
#X connect 63 0 59 0;
#X connect 64 0 39 0;
#X coords 0 -1 1 1 138 20 1 342 20;
