#N canvas 1147 452 705 675 10;
#X obj 37 480 glsl_program;
#X obj 100 317 pack 0 0;
#X obj 118 294 t b f;
#X obj 118 252 change;
#X msg 100 343 link \$1 \$2;
#X floatatom 118 275 2 0 0 0 ID - -;
#X floatatom 100 170 2 0 0 0 ID - -;
#X obj 105 367 print linking;
#X obj 153 56 bng 15 250 50 0 empty empty empty 0 -6 0 8 -262144 -1
-1;
#X obj 37 128 glsl_vertex;
#X obj 37 232 glsl_fragment;
#N canvas 0 0 450 300 load_shader 0;
#X obj 89 99 t b b;
#X msg 119 126 0;
#X obj 89 154 outlet;
#X obj 89 71 gemhead 1;
#X connect 0 0 2 0;
#X connect 0 1 1 0;
#X connect 1 0 3 0;
#X connect 3 0 0 0;
#X restore 153 34 pd load_shader;
#X obj 100 147 change;
#X msg 273 395 MyTex1 \$1;
#X msg 404 393 MyTex2 \$1;
#X obj 210 299 pix_texture;
#X obj 342 301 pix_texture;
#X obj 37 55 gemframebuffer;
#X obj 314 69 loadbang;
#X obj 314 90 pack \$3 \$4;
#X obj 37 34 gemhead 50;
#X msg 52 106 open examples/GLSL_multitexture.vert;
#X msg 51 202 open examples/GLSL_multitexture.frag;
#X msg 314 120 dimen 960 720 \, format RGB32;
#X obj 342 277 inlet;
#X obj 210 272 inlet;
#X floatatom 253 87 5 0 0 0 - - -;
#X obj 37 559 outlet;
#X obj 273 346 change;
#X obj 405 347 change;
#X floatatom 404 367 5 0 0 0 - - -;
#X floatatom 273 370 5 0 0 0 - - -;
#X obj 210 549 rectangle 5 4;
#X obj 342 478 rectangle 5 4;
#X floatatom 240 519 5 0 0 0 - - -;
#X floatatom 377 451 5 0 0 0 - - -;
#X obj 210 489 pix_snap2tex;
#X obj 210 459 t b a;
#X obj 264 425 pack 0 0;
#X msg 278 450 960 720;
#X connect 0 0 27 0;
#X connect 1 0 4 0;
#X connect 2 0 1 0;
#X connect 2 1 1 1;
#X connect 3 0 5 0;
#X connect 4 0 0 0;
#X connect 4 0 7 0;
#X connect 5 0 2 0;
#X connect 6 0 1 0;
#X connect 8 0 21 0;
#X connect 8 0 22 0;
#X connect 9 0 10 0;
#X connect 9 1 12 0;
#X connect 10 0 0 0;
#X connect 10 1 3 0;
#X connect 11 0 8 0;
#X connect 12 0 6 0;
#X connect 13 0 0 0;
#X connect 14 0 0 0;
#X connect 15 0 37 0;
#X connect 15 1 28 0;
#X connect 16 0 33 0;
#X connect 16 1 29 0;
#X connect 17 0 9 0;
#X connect 17 1 26 0;
#X connect 18 0 19 0;
#X connect 19 0 23 0;
#X connect 20 0 17 0;
#X connect 21 0 9 0;
#X connect 22 0 10 0;
#X connect 23 0 17 0;
#X connect 24 0 16 0;
#X connect 25 0 15 0;
#X connect 28 0 31 0;
#X connect 29 0 30 0;
#X connect 30 0 14 0;
#X connect 31 0 13 0;
#X connect 34 0 32 1;
#X connect 35 0 33 1;
#X connect 36 0 32 0;
#X connect 37 0 36 0;
#X connect 37 1 36 0;
#X connect 38 0 36 2;
#X connect 39 0 36 2;
