#N canvas 265 0 953 754 10;
#X obj 541 626 unpack;
#X msg 447 459 print;
#X obj 541 586 route 1 2 3 4;
#X obj 624 626 unpack;
#X floatatom 624 676 0 0 0 0 - - -;
#X floatatom 638 653 0 0 0 0 - - -;
#X obj 708 626 unpack;
#X floatatom 708 676 0 0 0 0 - - -;
#X floatatom 722 653 0 0 0 0 - - -;
#X msg 565 55 \; pd dsp 1;
#X text 470 49 click here;
#X text 470 71 to start DSP;
#X text 236 14 FIDDLE - pitch estimator and sinusoidal peak finder
;
#X text 18 80 The Fiddle object estimates the pitch and amplitude of
an incoming sound \, both continuously and as a stream of discrete
"note" events. Fiddle optionally outputs a list of detected sinusoidal
peaks used to make the pitch determination. Fiddle is described theoretically
in the 1998 ICMC proceedings \, reprinted on http://man104nfs.ucsd.edu/~mpuckett.
;
#X text 18 180 Fiddle's creation arguments specify an analysis window
size \, the maximum polyphony (i.e. \, the number of simultaneous "pitches"
to try to find) \, the number of peaks in the spectrum to consider
\, and the number of peaks \, if any \, to output "raw." The outlets
give discrete pitch (a number) \, detected attacks in the amplitude
envelope (a bang) \, one or more voices of continuous pitch and amplitude
\, overall amplitude \, and optionally a sequence of messages with
the peaks.;
#X text 18 306 The analysis hop size is half the window size so in
the example shown here \, one analysis is done every 512 samples (11.6
msec at 44K1) \, and the analysis uses the most recent 1024 samples
(23.2 msec at 44K1). The minimum frequency that Fiddle will report
is 2-1/2 cycles per analysis windows \, or about 108 Hz. (just below
MIDI 45.);
#X text 679 545 number of pitch outlets (1-3 \, default 1);
#X text 679 567 number of peaks to find (1-100 \, default 20);
#X text 679 589 number of peaks to output (default 0.);
#X msg 449 237 reattack 100 10;
#X msg 448 292 npartial 7;
#X msg 448 180 vibrato 50 0.5;
#X text 570 101 a low and high amplitude threshold: if signal amplitude
is below the low threshold \, no pitches or peaks are output. The high
threshold is a minimum at which "cooked" outputs may appear.;
#X text 570 162 A period in milliseconds (50) over which the raw pitch
may not deviate more than an interval in half-tones (0.5) from the
average pitch to report it as a note to the "cooked" pitch outlet.
;
#X text 570 223 A period in milliseconds (100) over which a re-attack
is reported if the amplitude rises more than (1) dB. The re-attack
will result in a "bang" in the attack outlet and may give rise to repeated
notes in the cooked pitch output.;
#X text 548 700 individual sinusoidal components;
#X text 555 555 ------ arguments:;
#X msg 450 341 auto 1;
#X msg 450 363 auto 0;
#X msg 449 428 bang;
#X text 571 426 poll current values --- useful if not in auto mode
\,;
#X text 570 284 Higher partials are weighed less strongly than lower
ones in determining the pitch. This specifies the number of the partial
(7) which will be weighted half as strongly as the fundamental.;
#X text 570 345 start and stop "auto" mode (on by default.) If off
\, output only appears on "bang" (poll mode).;
#X text 571 458 print out all settings;
#X text 679 523 window size (128-2048 \, default 1024);
#X text 572 394 number of points in analysis window (power of 2 \,
128-2048);
#X msg 449 406 npoints 128;
#X msg 451 117 amp-range 70 90;
#X obj 447 662 pack 0 0;
#X obj 569 20 r startaudio;
#X obj 338 526 spigot~;
#X obj 335 413 adc~ 1;
#X obj 542 655 ftom;
#X obj 413 594 int;
#X msg 450 385 npoints 8192;
#X obj 483 499 metro 40;
#X obj 503 470 tgl 15 0 empty empty empty 17 7 0 10 -262144 -1 -1 0
1;
#X obj 108 729 hsl 174 30 -127 127 0 0 empty empty transpose 0 15 0
10 -199729 -4160 -1 9600 1;
#X obj 415 618 + 0;
#X obj 471 771 outlet;
#X obj 174 719 bng 10 250 50 0 empty empty empty 17 7 0 10 -262144
-1 -1;
#X obj 184 719 bng 10 250 50 0 empty empty empty 17 7 0 10 -262144
-1 -1;
#X obj 194 719 bng 10 250 50 0 empty empty empty 17 7 0 10 -262144
-1 -1;
#X obj 204 719 bng 10 250 50 0 empty empty empty 17 7 0 10 -262144
-1 -1;
#X obj 214 719 bng 10 250 50 0 empty empty empty 17 7 0 10 -262144
-1 -1;
#X obj 224 719 bng 10 250 50 0 empty empty empty 17 7 0 10 -262144
-1 -1;
#X obj 234 719 bng 10 250 50 0 empty empty empty 17 7 0 10 -262144
-1 -1;
#X obj 244 719 bng 10 250 50 0 empty empty empty 17 7 0 10 -262144
-1 -1;
#X obj 105 719 bng 10 250 50 0 empty empty empty 17 7 0 10 -262144
-1 -1;
#X obj 115 719 bng 10 250 50 0 empty empty empty 17 7 0 10 -262144
-1 -1;
#X obj 125 719 bng 10 250 50 0 empty empty empty 17 7 0 10 -262144
-1 -1;
#X obj 135 719 bng 10 250 50 0 empty empty empty 17 7 0 10 -262144
-1 -1;
#X obj 144 719 bng 10 250 50 0 empty empty empty 17 7 0 10 -262144
-1 -1;
#X obj 154 719 bng 10 250 50 0 empty empty empty 17 7 0 10 -262144
-1 -1;
#X obj 164 719 bng 10 250 50 0 empty empty empty 17 7 0 10 -262144
-1 -1;
#X obj 77 634 spigot;
#X obj 284 712 tgl 25 0 empty empty monitor 2 -5 0 7 -262144 -1 -1
1 1;
#X obj 417 556 fiddle~ 1024 1 20 3;
#X text 107 621 midinote correction;
#X obj 285 562 r \$0-midinote_offset;
#X obj 105 793 s \$0-midinote_offset;
#X obj 105 769 int;
#X obj 409 640 moses 0;
#X obj 80 689 tgl 25 0 \$0-start empty empty 17 7 0 10 -262144 -1 -1
1 1;
#X obj 250 437 r \$0-start;
#X obj 655 38 r \$0-start;
#X obj 78 653 route 48 50 52 53 55 57 59 60 62 64 65 67 69 71 72 74
76 77;
#X obj 254 719 bng 10 250 50 0 empty empty empty 17 7 0 10 -262144
-1 -1;
#X obj 264 719 bng 10 250 50 0 empty empty empty 17 7 0 10 -262144
-1 -1;
#X obj 274 719 bng 10 250 50 0 empty empty empty 17 7 0 10 -262144
-1 -1;
#X floatatom 509 529 5 0 0 0 - - -;
#X obj 464 593 moses 0;
#X obj 472 745 spigot;
#X msg 509 713 1;
#X msg 473 715 0;
#X obj 493 573 r \$0-mindb;
#X obj 108 689 hsl 174 30 0 127 0 0 \$0-mindb empty min_dB 0 15 0 10
-220534 -4160 -1 7200 1;
#X connect 0 0 42 0;
#X connect 1 0 67 0;
#X connect 2 0 0 0;
#X connect 2 1 3 0;
#X connect 2 2 6 0;
#X connect 19 0 67 0;
#X connect 20 0 67 0;
#X connect 21 0 67 0;
#X connect 27 0 67 0;
#X connect 28 0 67 0;
#X connect 29 0 67 0;
#X connect 36 0 67 0;
#X connect 37 0 67 0;
#X connect 38 0 82 0;
#X connect 39 0 9 0;
#X connect 40 1 67 0;
#X connect 41 0 40 0;
#X connect 41 0 67 0;
#X connect 42 0 43 0;
#X connect 43 0 48 0;
#X connect 44 0 67 0;
#X connect 45 0 67 0;
#X connect 46 0 45 0;
#X connect 47 0 71 0;
#X connect 48 0 72 0;
#X connect 65 0 76 0;
#X connect 66 0 65 1;
#X connect 67 0 38 1;
#X connect 67 3 81 0;
#X connect 67 4 2 0;
#X connect 69 0 48 1;
#X connect 71 0 70 0;
#X connect 72 1 38 0;
#X connect 74 0 40 1;
#X connect 75 0 9 0;
#X connect 76 0 58 0;
#X connect 76 1 59 0;
#X connect 76 2 60 0;
#X connect 76 3 61 0;
#X connect 76 4 62 0;
#X connect 76 5 63 0;
#X connect 76 6 64 0;
#X connect 76 7 50 0;
#X connect 76 8 51 0;
#X connect 76 9 52 0;
#X connect 76 10 53 0;
#X connect 76 11 54 0;
#X connect 76 12 55 0;
#X connect 76 13 56 0;
#X connect 76 14 57 0;
#X connect 76 15 77 0;
#X connect 76 16 78 0;
#X connect 76 17 79 0;
#X connect 81 0 84 0;
#X connect 81 1 83 0;
#X connect 82 0 49 0;
#X connect 82 0 65 0;
#X connect 83 0 82 1;
#X connect 84 0 82 1;
#X connect 85 0 81 1;
#X coords 0 -1 1 1 244 76 2 77 686;
