#N canvas 34 196 966 698 10;
#X msg 27 432 draw line;
#X msg 34 466 draw fill;
#X msg 42 493 draw point;
#X obj 322 488 sphere 1;
#X obj 121 322 inlet;
#X obj 300 226 gemhead;
#X obj 119 397 / 127;
#X obj 298 330 translateXYZ;
#X obj 373 248 counter 360;
#X obj 379 209 metro;
#X obj 300 249 rotateXYZ;
#X obj 118 450 smooth;
#X obj 322 534 outlet;
#X obj 305 359 rotateXYZ;
#X obj 328 405 translateXYZ;
#X obj 110 43 tgl 15 0 \$0s-rotate \$0r-rotate rotate 17 7 0 10 -262144
-1 -1 0 1;
#X obj 318 154 r \$0s-rotate;
#X obj 135 85 hsl 64 15 -4 4 0 0 \$0s-x \$0r-x X -12 7 0 10 -262144
-1 -1 4525 1;
#X obj 110 63 hradio 15 1 0 3 \$0s-drawmode \$0r-drawmode drawmode
50 7 0 10 -262144 -1 -1 0;
#X obj 26 309 r \$0s-drawmode;
#X obj 26 338 + 1;
#X obj 26 365 t b f;
#X obj 26 396 gate 3;
#X obj 322 298 r \$0s-x;
#X obj 135 106 hsl 64 15 -4 4 0 0 \$0s-x2 \$0r-x2 X2 -15 7 0 10 -262144
-1 -1 3623 1;
#X obj 135 127 hsl 64 15 0 4 0 0 \$0s-size \$0r-size basesize -30 7
0 10 -262144 -1 -1 787 1;
#X floatatom 169 166 5 0 0 0 segments #0r-segments #0s-segments;
#X obj 477 460 r \$0s-segments;
#X obj 174 474 r \$0s-size;
#X obj 276 20 r mysphere\$1;
#X obj 276 126 s \$0r-rotate;
#X obj 291 103 s \$0r-drawmode;
#X obj 341 81 s \$0r-x;
#X obj 394 124 s \$0r-x2;
#X obj 352 379 r \$0s-x2;
#X obj 405 100 s \$0r-size;
#X obj 467 133 s \$0r-segments;
#X obj 102 229 vsl 42 42 0 1 0 0 empty \$0-mon-red empty 11 64 0 10
-261234 -1 -1 4100 0;
#X obj 147 229 vsl 42 42 0 1 0 0 empty \$0-mon-green empty 12 63 0
10 -204786 -1 -1 4100 1;
#X obj 191 229 vsl 42 42 0 1 0 0 empty \$0-mon-blue empty 12 63 0 10
-203904 -1 -1 0 1;
#X obj 158 289 s \$0-green;
#X obj 99 290 s \$0-red;
#X obj 226 289 s \$0-blue;
#X obj 422 307 r \$0-red;
#X obj 481 306 r \$0-green;
#X obj 549 306 r \$0-blue;
#X obj 328 441 color;
#X obj 710 32 print mysphere\$1 unknown message:;
#X obj 424 408 pack 1 1 1;
#X obj 481 336 t b f;
#X obj 548 336 t b f;
#X floatatom 169 205 5 0 0 0 threshold #0r-threshold #0s-threshold
;
#X obj 276 47 route rotate drawmode x x2 size segments threshold red
green blue;
#X obj 545 91 s \$0-mon-red;
#X obj 627 91 s \$0-mon-green;
#X obj 723 90 s \$0-mon-blue;
#X obj 486 106 s \$0r-threshold;
#X obj 246 440 r \$0-sphere;
#X obj 30 534 s \$0-sphere;
#X obj 364 458 r \$0-sphere_size;
#X obj 119 566 s \$0-sphere_size;
#X obj 680 178 r \$0s-threshold;
#X obj 143 358 s \$0-inlet;
#X obj 570 143 r \$0-inlet;
#X obj 570 184 * 1;
#X obj 570 214 moses 127;
#X obj 636 291 s \$0r-rotate;
#X obj 407 176 r \$0-metro;
#X floatatom 169 186 5 0 0 0 speed - #0s-speed;
#X obj 652 145 r \$0s-speed;
#X obj 525 248 s \$0-metro;
#X obj 117 536 / 1;
#X floatatom 169 508 5 0 0 0 - - -;
#X obj 119 505 + 1;
#X obj 135 144 hsl 64 15 1 4 0 0 \$0s-div \$0r-div div -30 7 0 10 -262144
-1 -1 0 1;
#X msg 607 247 0;
#X msg 675 246 1;
#X connect 0 0 58 0;
#X connect 1 0 58 0;
#X connect 2 0 58 0;
#X connect 3 0 12 0;
#X connect 4 0 6 0;
#X connect 4 0 62 0;
#X connect 5 0 10 0;
#X connect 6 0 11 0;
#X connect 7 0 13 0;
#X connect 8 0 10 3;
#X connect 8 0 13 3;
#X connect 9 0 8 0;
#X connect 10 0 7 0;
#X connect 11 0 73 0;
#X connect 13 0 14 0;
#X connect 14 0 46 0;
#X connect 16 0 9 0;
#X connect 19 0 20 0;
#X connect 20 0 21 0;
#X connect 21 0 22 1;
#X connect 21 1 22 0;
#X connect 22 0 0 0;
#X connect 22 1 1 0;
#X connect 22 2 2 0;
#X connect 23 0 7 1;
#X connect 27 0 3 2;
#X connect 28 0 73 1;
#X connect 29 0 52 0;
#X connect 34 0 14 1;
#X connect 37 0 41 0;
#X connect 38 0 40 0;
#X connect 39 0 42 0;
#X connect 43 0 48 0;
#X connect 44 0 49 0;
#X connect 45 0 50 0;
#X connect 46 0 3 0;
#X connect 48 0 46 1;
#X connect 49 0 48 0;
#X connect 49 1 48 1;
#X connect 50 0 48 0;
#X connect 50 1 48 2;
#X connect 52 0 30 0;
#X connect 52 1 31 0;
#X connect 52 2 32 0;
#X connect 52 3 33 0;
#X connect 52 4 35 0;
#X connect 52 5 36 0;
#X connect 52 6 56 0;
#X connect 52 7 53 0;
#X connect 52 8 54 0;
#X connect 52 9 55 0;
#X connect 57 0 3 0;
#X connect 59 0 3 1;
#X connect 61 0 65 1;
#X connect 63 0 64 0;
#X connect 64 0 65 0;
#X connect 65 0 75 0;
#X connect 65 0 70 0;
#X connect 65 1 76 0;
#X connect 67 0 9 1;
#X connect 69 0 64 1;
#X connect 71 0 60 0;
#X connect 72 0 71 1;
#X connect 73 0 71 0;
#X connect 75 0 66 0;
#X connect 76 0 66 0;
#X coords 0 -1 1 1 135 255 1 100 20;
