#N canvas 985 547 933 632 10;
#X msg 119 205 print;
#X msg 121 287 print;
#X obj 545 105 spigot;
#X obj 463 22 tgl 15 0 empty empty empty 17 7 0 10 -262144 -1 -1 1
1;
#X obj 402 22 bng 15 250 50 0 empty empty reload 17 7 0 10 -262144
-1 -1;
#X obj 545 15 inlet;
#X obj 21 320 t b f;
#X obj 21 364 / 1;
#X msg 21 341 1;
#X msg 21 413 width \$1;
#X obj 86 327 t b f;
#X obj 86 374 / 1;
#X msg 86 348 1;
#X msg 86 414 height \$1;
#X obj 86 394 f;
#X obj 21 388 f;
#X obj 16 276 pix_info;
#X obj 764 15 inlet;
#X obj 277 510 glsl_program;
#X obj 340 347 pack 0 0;
#X obj 358 324 t b f;
#X obj 358 282 change;
#X msg 340 373 link \$1 \$2;
#X floatatom 358 305 2 0 0 0 ID - -;
#X floatatom 340 200 2 0 0 0 ID - -;
#X obj 345 397 print linking;
#X obj 393 86 bng 15 250 50 0 empty empty empty 0 -6 0 8 -262144 -1
-1;
#X obj 277 158 glsl_vertex;
#X obj 277 262 glsl_fragment;
#N canvas 0 0 450 300 load_shader 0;
#X obj 89 99 t b b;
#X msg 119 126 0;
#X obj 89 154 outlet;
#X obj 89 71 gemhead 1;
#X connect 0 0 2 0;
#X connect 0 1 1 0;
#X connect 1 0 3 0;
#X connect 3 0 0 0;
#X restore 393 64 pd load_shader;
#X obj 340 177 change;
#X msg 474 356 MyTex1 \$1;
#X msg 669 356 MyTex2 \$1;
#X obj 545 149 pix_texture;
#X obj 669 336 f;
#X obj 579 290 f;
#X obj 277 550 outlet;
#X obj 748 188 pix_texture;
#X obj 81 31 loadbang;
#X obj 81 52 pack \$3 \$4;
#X msg 81 82 dimen \$1 \$2 \, format RGB32;
#X obj 277 64 gemhead 50;
#X msg 292 136 open examples/GLSL_multitexture.vert;
#X msg 291 232 open examples/GLSL_multitexture.frag;
#X obj 758 79 spigot;
#X msg 203 466 print;
#X msg 227 230 print;
#X msg 231 106 print;
#X obj 561 256 bng 15 250 50 0 empty empty empty 17 7 0 10 -262144
-1 -1;
#X obj 689 265 bng 15 250 50 0 empty empty empty 17 7 0 10 -262144
-1 -1;
#X obj 485 398 print;
#X obj 696 397 print;
#X obj 609 185 change;
#X floatatom 617 214 5 0 0 0 - - -;
#X obj 788 233 change;
#X floatatom 796 262 5 0 0 0 - - -;
#X obj 574 214 bng 15 250 50 0 empty empty empty 17 7 0 10 -262144
-1 -1;
#X obj 357 558 pix_texture;
#X obj 453 578 change;
#X floatatom 541 574 5 0 0 0 - - -;
#X msg 442 473 tex0 \$1;
#X obj 524 499 print;
#X connect 2 0 33 0;
#X connect 3 0 2 1;
#X connect 3 0 44 1;
#X connect 4 0 26 0;
#X connect 5 0 2 0;
#X connect 6 0 8 0;
#X connect 6 1 7 1;
#X connect 7 0 15 0;
#X connect 8 0 7 0;
#X connect 10 0 12 0;
#X connect 10 1 11 1;
#X connect 11 0 14 0;
#X connect 12 0 11 0;
#X connect 14 0 13 0;
#X connect 15 0 9 0;
#X connect 16 1 6 0;
#X connect 16 2 10 0;
#X connect 17 0 44 0;
#X connect 18 0 36 0;
#X connect 18 0 57 0;
#X connect 19 0 22 0;
#X connect 20 0 19 0;
#X connect 20 1 19 1;
#X connect 21 0 23 0;
#X connect 22 0 18 0;
#X connect 22 0 25 0;
#X connect 23 0 20 0;
#X connect 24 0 19 0;
#X connect 26 0 42 0;
#X connect 26 0 43 0;
#X connect 27 0 28 0;
#X connect 27 1 30 0;
#X connect 28 0 18 0;
#X connect 28 1 21 0;
#X connect 29 0 26 0;
#X connect 30 0 24 0;
#X connect 31 0 18 0;
#X connect 31 0 50 0;
#X connect 32 0 18 0;
#X connect 32 0 51 0;
#X connect 33 1 52 0;
#X connect 34 0 32 0;
#X connect 35 0 31 0;
#X connect 37 1 54 0;
#X connect 38 0 39 0;
#X connect 39 0 40 0;
#X connect 41 0 27 0;
#X connect 42 0 27 0;
#X connect 43 0 28 0;
#X connect 44 0 37 0;
#X connect 45 0 18 0;
#X connect 46 0 28 0;
#X connect 47 0 27 0;
#X connect 48 0 35 0;
#X connect 49 0 34 0;
#X connect 52 0 53 0;
#X connect 53 0 35 0;
#X connect 54 0 55 0;
#X connect 55 0 34 0;
#X connect 56 0 48 0;
#X connect 56 0 49 0;
#X connect 57 1 58 0;
#X connect 58 0 59 0;
#X connect 59 0 60 0;
#X connect 60 0 18 0;
#X connect 60 0 61 0;
#X coords 0 -1 1 1 200 38 1 280 20;
