#N canvas 1274 565 423 365 10;
#X obj 114 274 pdp_rec~;
#X obj 114 229 adc~;
#X msg 193 80 stop;
#X msg 192 54 start;
#X msg 192 28 open /tmp/output.mov;
#X msg 193 235 framerate \$1;
#X floatatom 290 235 5 0 0 0 - - -;
#X msg 194 187 compressor \$1;
#X msg 273 156 symbol divx;
#X obj 40 178 pdp2gem;
#X obj 27 132 pix_2pdp;
#X connect 1 0 0 0;
#X connect 1 1 0 1;
#X connect 2 0 0 0;
#X connect 3 0 0 0;
#X connect 4 0 0 0;
#X connect 5 0 0 0;
#X connect 6 0 5 0;
#X connect 7 0 0 0;
#X connect 8 0 7 0;
#X connect 9 0 0 0;
