#N canvas 1201 254 428 673 10;
#X obj 22 -197 my_fiddle;
#X obj 22 154 vsl 15 128 0 127 0 0 empty empty empty 0 -9 0 10 -262144
-1 -1 0 1;
#X obj 42 154 vsl 15 128 0 127 0 0 empty empty empty 0 -9 0 10 -262144
-1 -1 0 1;
#X obj 62 154 vsl 15 128 0 127 0 0 empty empty empty 0 -9 0 10 -262144
-1 -1 0 1;
#X obj 82 154 vsl 15 128 0 127 0 0 empty empty empty 0 -9 0 10 -262144
-1 -1 0 1;
#X obj 102 154 vsl 15 128 0 127 0 0 empty empty empty 0 -9 0 10 -262144
-1 -1 0 1;
#X obj 122 154 vsl 15 128 0 127 0 0 empty empty empty 0 -9 0 10 -262144
-1 -1 0 1;
#X obj 142 154 vsl 15 128 0 127 0 0 empty empty empty 0 -9 0 10 -262144
-1 -1 0 1;
#X obj 162 154 vsl 15 128 0 127 0 0 empty empty empty 0 -9 0 10 -262144
-1 -1 0 1;
#X msg 5 407 blue \$1;
#X msg 196 417 green \$1;
#X obj 194 358 line;
#X obj 3 347 line;
#X obj 70 344 line;
#X msg 344 409 red \$1;
#X obj 344 330 line;
#X msg 258 416 red \$1;
#X msg 70 418 green \$1;
#X obj 118 344 line;
#X obj 4 380 / 90;
#X obj 69 366 / 90;
#X obj 118 368 / 90;
#X obj 196 387 / 90;
#X obj 344 359 / 90;
#X msg -9 301 \$1 250;
#X msg 67 315 \$1 250;
#X msg 115 315 \$1 250;
#X msg 194 330 \$1 250;
#X msg 344 304 \$1 250;
#X obj 241 213 / 127;
#X obj 241 239 / 4;
#X floatatom 242 269 5 0 0 0 - - -;
#X msg 237 303 range \$1;
#X floatatom 31 329 5 0 0 0 - - -;
#X floatatom 276 -147 5 0 0 0 - - -;
#X obj 315 170 line;
#X obj 315 199 / 90;
#X msg 315 144 \$1 250;
#X msg 315 249 threshhold \$1;
#X obj 14 -94 / 90;
#X obj 54 -94 / 90;
#X obj 94 -94 / 90;
#X obj 134 -94 / 90;
#X obj 174 -94 / 90;
#X obj 214 -94 / 90;
#X obj 254 -94 / 90;
#X obj 294 -94 / 90;
#X obj 12 6 line;
#X msg 12 -20 \$1 \$2;
#X obj 12 -48 pack 0 0;
#X obj 5 73 outlet;
#X obj 329 75 outlet;
#X obj 70 84 outlet;
#X obj 195 88 outlet;
#X msg 8 49 range \$1;
#X floatatom 57 -71 5 0 0 0 - - -;
#X floatatom 54 7 5 0 0 0 - - -;
#X obj 92 6 line;
#X msg 92 -20 \$1 \$2;
#X obj 92 -48 pack 0 0;
#X msg 88 49 range \$1;
#X floatatom 137 -71 5 0 0 0 - - -;
#X floatatom 134 7 5 0 0 0 - - -;
#X obj 182 6 line;
#X msg 182 -20 \$1 \$2;
#X obj 182 -48 pack 0 0;
#X msg 178 49 range \$1;
#X floatatom 227 -71 5 0 0 0 - - -;
#X floatatom 224 7 5 0 0 0 - - -;
#X obj 272 6 line;
#X msg 272 -20 \$1 \$2;
#X obj 272 -48 pack 0 0;
#X msg 268 49 range \$1;
#X floatatom 317 -71 5 0 0 0 - - -;
#X floatatom 314 7 5 0 0 0 - - -;
#X obj 23 28 * 0.1;
#X obj 103 28 * 0.1;
#X obj 193 28 * 0.1;
#X obj 283 28 * 0.1;
#X floatatom 349 -113 5 0 0 0 - - -;
#X text 226 -187 TODO: catch music automagically;
#X obj 18 133 bng 15 250 50 0 empty empty START 17 7 0 5 -1 -4034 -128992
;
#X obj 198 154 s startaudio;
#N canvas 0 0 499 336 lop 0;
#X obj 97 5 adc~;
#X floatatom 176 153 5 0 0 0 - - -;
#X obj 207 47 mtof;
#X floatatom 207 24 5 0 0 0 - #0-pit -;
#X obj 176 93 lop~;
#X text 259 23 <-- cutoff (pitch units);
#X text 270 70 <-- cutoff (Hertz);
#X floatatom 207 72 5 0 0 0 - - -;
#X text 223 95 low-pass filter;
#X obj 174 130 snapshot~;
#X obj 67 42 *~ 0.5;
#X obj 119 46 *~ 0.5;
#X obj 83 74 +~;
#X obj 3 100 metro 40;
#X obj 2 74 tgl 15 0 empty empty empty 17 7 0 10 -262144 -1 -1 0 1
;
#X connect 0 0 10 0;
#X connect 0 1 11 0;
#X connect 2 0 7 0;
#X connect 3 0 2 0;
#X connect 4 0 9 0;
#X connect 7 0 4 1;
#X connect 9 0 1 0;
#X connect 10 0 12 0;
#X connect 11 0 12 1;
#X connect 12 0 4 0;
#X connect 13 0 9 0;
#X connect 14 0 13 0;
#X restore 262 97 pd lop;
#X connect 0 0 39 0;
#X connect 0 1 40 0;
#X connect 0 2 41 0;
#X connect 0 3 42 0;
#X connect 0 4 43 0;
#X connect 0 5 44 0;
#X connect 0 6 45 0;
#X connect 0 7 46 0;
#X connect 1 0 24 0;
#X connect 2 0 37 0;
#X connect 3 0 25 0;
#X connect 4 0 26 0;
#X connect 4 0 29 0;
#X connect 5 0 27 0;
#X connect 8 0 28 0;
#X connect 11 0 22 0;
#X connect 12 0 19 0;
#X connect 13 0 20 0;
#X connect 15 0 23 0;
#X connect 18 0 21 0;
#X connect 19 0 9 0;
#X connect 20 0 17 0;
#X connect 21 0 17 0;
#X connect 22 0 10 0;
#X connect 22 0 16 0;
#X connect 23 0 14 0;
#X connect 24 0 12 0;
#X connect 25 0 13 0;
#X connect 26 0 18 0;
#X connect 27 0 11 0;
#X connect 28 0 15 0;
#X connect 29 0 30 0;
#X connect 30 0 31 0;
#X connect 31 0 32 0;
#X connect 33 0 19 1;
#X connect 33 0 20 1;
#X connect 33 0 21 1;
#X connect 33 0 22 1;
#X connect 34 0 39 1;
#X connect 34 0 45 1;
#X connect 34 0 46 1;
#X connect 34 0 44 1;
#X connect 34 0 43 1;
#X connect 34 0 42 1;
#X connect 34 0 41 1;
#X connect 34 0 40 1;
#X connect 35 0 36 0;
#X connect 36 0 38 0;
#X connect 37 0 35 0;
#X connect 39 0 49 0;
#X connect 41 0 59 0;
#X connect 43 0 65 0;
#X connect 44 0 71 0;
#X connect 47 0 75 0;
#X connect 48 0 47 0;
#X connect 49 0 48 0;
#X connect 54 0 50 0;
#X connect 55 0 49 1;
#X connect 56 0 75 1;
#X connect 57 0 76 0;
#X connect 58 0 57 0;
#X connect 59 0 58 0;
#X connect 60 0 52 0;
#X connect 61 0 59 1;
#X connect 62 0 76 1;
#X connect 63 0 77 0;
#X connect 64 0 63 0;
#X connect 65 0 64 0;
#X connect 66 0 53 0;
#X connect 67 0 65 1;
#X connect 68 0 77 1;
#X connect 69 0 78 0;
#X connect 70 0 69 0;
#X connect 71 0 70 0;
#X connect 72 0 51 0;
#X connect 73 0 71 1;
#X connect 74 0 78 1;
#X connect 75 0 54 0;
#X connect 76 0 60 0;
#X connect 77 0 66 0;
#X connect 78 0 72 0;
#X connect 79 0 55 0;
#X connect 79 0 61 0;
#X connect 79 0 67 0;
#X connect 79 0 73 0;
#X connect 81 0 82 0;
#X coords 0 -1 1 1 300 160 2 15 130;
