#N canvas 596 270 314 335 10;
#X obj 16 152 pix_texture;
#X floatatom 52 89 5 0 0 1 X - -;
#X floatatom 100 89 5 0 0 1 Y - -;
#X obj 16 244 rectangle 5.34 4;
#X obj -37 -57 inlet;
#X obj 16 190 translateXYZ;
#X floatatom 52 61 5 0 0 1 X - -;
#X floatatom 100 61 5 0 0 1 Y - -;
#X floatatom 148 61 5 0 0 1 Z - -;
#X text 139 40 position;
#X text 149 87 size;
#X obj 58 16 hsl 128 25 0 1 0 0 empty empty empty -2 -8 0 10 -262144
-1 -1 0 1;
#X obj -62 52 pix_snap2tex;
#X obj -62 22 t b a;
#X obj -62 97 alpha 1;
#X obj 12 -40 pix_info;
#X obj 137 177 change;
#X floatatom 136 207 5 0 0 0 - - -;
#X obj -19 -10 change;
#X obj 42 -12 change;
#X obj -15 20 pack 128 128;
#X connect 0 0 5 0;
#X connect 0 1 16 0;
#X connect 1 0 3 1;
#X connect 2 0 3 2;
#X connect 4 0 13 0;
#X connect 4 0 15 0;
#X connect 5 0 3 0;
#X connect 6 0 5 1;
#X connect 7 0 5 2;
#X connect 8 0 5 3;
#X connect 11 0 14 1;
#X connect 12 0 14 0;
#X connect 13 0 12 0;
#X connect 13 1 12 0;
#X connect 14 0 0 0;
#X connect 15 1 18 0;
#X connect 15 2 19 0;
#X connect 16 0 17 0;
#X connect 18 0 20 0;
#X connect 19 0 20 1;
#X connect 20 0 12 2;
#X coords 0 -1 1 1 145 100 2 50 10;
