#N canvas 89 269 593 328 10;
#X obj 62 30 Fenster;
#X obj -98 26 Cam;
#N canvas 0 0 624 702 multitex 0;
#X obj 30 433 glsl_program;
#X obj 104 272 pack 0 0;
#X obj 125 252 t b f;
#X obj 119 207 change;
#X msg 104 298 link \$1 \$2;
#X floatatom 125 233 2 0 0 0 ID - -;
#X floatatom 103 125 2 0 0 0 ID - -;
#X obj 122 319 print linking;
#X obj 82 39 bng 15 250 50 0 empty empty empty 0 -6 0 8 -262144 -1
-1;
#X obj 31 83 glsl_vertex;
#X obj 31 187 glsl_fragment;
#X msg 45 61 open multitexture.vert;
#X msg 41 157 open multitexture.frag;
#X msg 142 410 MyTex 0;
#X msg 209 385 MyTex1 1;
#X msg 210 410 MyTex 1;
#X msg 141 385 MyTex1 0;
#X msg 276 386 MyTex1 2;
#X msg 281 411 MyTex 2;
#N canvas 0 0 450 300 load_shader 0;
#X obj 89 99 t b b;
#X msg 119 126 0;
#X obj 89 154 outlet;
#X obj 89 71 gemhead 1;
#X connect 0 0 2 0;
#X connect 0 1 1 0;
#X connect 1 0 3 0;
#X connect 3 0 0 0;
#X restore 82 17 pd load_shader;
#N canvas 0 0 450 300 init_shader 0;
#X obj 89 154 outlet;
#X obj 89 45 inlet;
#X obj 89 73 change;
#X obj 89 100 t b;
#X connect 1 0 2 0;
#X connect 2 0 3 0;
#X connect 3 0 0 0;
#X restore 111 454 pd init_shader;
#X text 142 364 2) change shader texuinit;
#X obj 103 102 change;
#X msg 306 192 texunit 1;
#X msg 427 182 texunit 0;
#X obj 520 213 pix_delay 15;
#X obj 501 149 pix_separator;
#X obj 500 116 t b a;
#X obj 300 251 pix_texture;
#X obj 500 247 pix_texture;
#X obj 316 26 loadbang;
#X obj 389 102 tgl 15 0 empty empty empty 17 7 0 10 -262144 -1 -1 1
1;
#X obj 31 2 spigot;
#X obj 31 -23 inlet;
#X msg 319 76 1;
#X obj 205 119 bng 15 250 50 0 empty empty reset 17 7 0 10 -262144
-1 -1;
#X floatatom 204 139 5 0 0 1 delay - -;
#X msg 290 323 threshhold \$1;
#X obj 200 222 delay 100;
#X msg 386 323 real \$1;
#X msg 271 75 0.05;
#X obj 275 119 hsl 128 15 0 1 0 0 empty empty empty -2 -8 0 10 -262144
-1 -1 635 1;
#X obj 275 141 hsl 128 15 0 1 0 0 empty empty empty -2 -8 0 10 -262144
-1 -1 6300 1;
#X obj 50 561 translateXYZ 0 0 0;
#X obj 49 621 rectangle 5.34 4;
#X floatatom 79 533 5 0 0 0 - - -;
#X floatatom 122 535 5 0 0 0 - - -;
#X floatatom 88 594 5 0 0 0 - - -;
#X floatatom 138 594 5 0 0 0 - - -;
#X msg 67 504 3.18;
#X msg 179 532 8.63;
#X msg 228 547 4.36;
#X obj 73 468 bng 15 250 50 0 empty empty empty 17 7 0 10 -262144 -1
-1;
#X floatatom 217 487 5 0 0 0 - - -;
#X connect 0 0 43 0;
#X connect 0 1 20 0;
#X connect 1 0 4 0;
#X connect 2 0 1 0;
#X connect 2 1 1 1;
#X connect 3 0 5 0;
#X connect 4 0 0 0;
#X connect 4 0 7 0;
#X connect 5 0 2 0;
#X connect 6 0 1 0;
#X connect 8 0 11 0;
#X connect 8 0 12 0;
#X connect 9 0 10 0;
#X connect 9 1 22 0;
#X connect 10 0 0 0;
#X connect 10 1 3 0;
#X connect 11 0 9 0;
#X connect 12 0 10 0;
#X connect 13 0 0 0;
#X connect 14 0 0 0;
#X connect 15 0 0 0;
#X connect 16 0 0 0;
#X connect 17 0 0 0;
#X connect 18 0 0 0;
#X connect 19 0 8 0;
#X connect 20 0 14 0;
#X connect 20 0 18 0;
#X connect 22 0 6 0;
#X connect 23 0 28 0;
#X connect 24 0 29 0;
#X connect 25 0 29 0;
#X connect 26 0 25 0;
#X connect 27 0 26 0;
#X connect 27 1 26 0;
#X connect 30 0 40 0;
#X connect 30 0 35 0;
#X connect 30 0 34 0;
#X connect 31 0 32 1;
#X connect 32 0 9 0;
#X connect 32 0 27 0;
#X connect 32 0 28 0;
#X connect 33 0 32 0;
#X connect 34 0 36 0;
#X connect 35 0 23 0;
#X connect 35 0 24 0;
#X connect 35 0 16 0;
#X connect 35 0 36 0;
#X connect 35 0 8 0;
#X connect 35 0 38 0;
#X connect 35 0 52 0;
#X connect 36 0 25 1;
#X connect 37 0 0 0;
#X connect 38 0 40 0;
#X connect 38 0 15 0;
#X connect 38 0 16 0;
#X connect 39 0 0 0;
#X connect 40 0 41 0;
#X connect 41 0 37 0;
#X connect 42 0 39 0;
#X connect 43 0 44 0;
#X connect 45 0 43 1;
#X connect 46 0 43 2;
#X connect 47 0 44 1;
#X connect 48 0 44 2;
#X connect 49 0 45 0;
#X connect 50 0 47 0;
#X connect 51 0 48 0;
#X connect 52 0 49 0;
#X connect 52 0 50 0;
#X connect 52 0 51 0;
#X connect 53 0 43 3;
#X coords 0 -1 1 1 210 60 1 200 100;
#X restore -98 129 pd multitex;
#X connect 1 0 2 0;
