#N canvas 104 468 664 322 10;
#X msg 87 30 reset;
#X obj 13 29 metro 500;
#X obj 13 8 tgl 15 0 empty empty empty 17 7 0 10 -262144 -1 -1 1 1
;
#X text 143 24 TODO - test separate midiin from slmkii on channel2
and midiout on channel 3;
#X obj 171 208 launchpad_row_out 2;
#X floatatom 63 7 5 0 0 0 - - -;
#X obj 12 205 launchpad_row_out 1;
#X obj 332 207 launchpad_row_out 3;
#X obj 491 208 launchpad_row_out 4;
#X obj 12 229 midi_ctlout_send 41 31 81;
#N canvas 765 543 450 300 midi_through 0;
#X obj 9 127 midi_through 45 0;
#X obj 9 152 midi_through 46 0;
#X obj 9 177 midi_through 47 0;
#X obj 9 202 midi_through 48 0;
#X obj 139 126 midi_through 35 0;
#X obj 139 151 midi_through 36 0;
#X obj 139 176 midi_through 37 0;
#X obj 139 201 midi_through 38 0;
#X obj 8 9 midi_through 21 0;
#X obj 8 34 midi_through 22 0;
#X obj 8 59 midi_through 23 0;
#X obj 8 84 midi_through 24 0;
#X obj 138 8 midi_through 25 0;
#X obj 138 33 midi_through 26 0;
#X obj 138 58 midi_through 27 0;
#X obj 138 83 midi_through 28 0;
#X restore 152 4 pd midi_through;
#X obj 171 229 midi_ctlout_send 42 32 82;
#X obj 332 229 midi_ctlout_send 43 33 83;
#X obj 491 229 midi_ctlout_send 44 34 84;
#X obj 13 61 launchpad_stepsequencer_16steps;
#X connect 0 0 14 0;
#X connect 1 0 14 0;
#X connect 2 0 1 0;
#X connect 4 0 11 0;
#X connect 5 0 1 1;
#X connect 6 0 9 0;
#X connect 7 0 12 0;
#X connect 8 0 13 0;
