#N canvas 104 468 924 395 10;
#X obj 14 61 launchpad_stepsequencer;
#X msg 53 17 reset;
#X obj 123 20 metro 500;
#X obj 229 24 tgl 15 0 empty empty empty 17 7 0 10 -262144 -1 -1 1
1;
#X text 339 20 TODO - test separate midiin from slmkii on channel2
and midiout on channel 3;
#X obj 400 96 launchpad_row_out 2;
#X floatatom 271 64 5 0 0 0 - - -;
#X obj 400 117 midi_ctlout_send 42;
#X obj 699 117 midi_ctlout_send 44;
#X obj 550 117 midi_ctlout_send 43;
#X obj 251 119 midi_ctlout_send 41;
#X obj 251 95 launchpad_row_out 1;
#X obj 550 95 launchpad_row_out 3;
#X obj 699 96 launchpad_row_out 4;
#X connect 1 0 0 0;
#X connect 2 0 0 0;
#X connect 3 0 2 0;
#X connect 5 0 7 0;
#X connect 6 0 2 1;
#X connect 11 0 10 0;
#X connect 12 0 9 0;
#X connect 13 0 8 0;
