#N canvas 649 596 450 300 10;
#X obj 9 22 r lp_row\$1_out;
#X obj 9 47 sel 1;
#X obj 15 102 outlet;
#X obj 152 116 bng 15 250 50 0 empty empty empty 17 7 0 10 -262144
-1 -1;
#X floatatom 132 74 5 0 0 0 - - -;
#X obj 9 72 t b;
#X obj 182 22 r lp_row_trigger\$1;
#X obj 183 55 outlet;
#X connect 0 0 1 0;
#X connect 0 0 4 0;
#X connect 1 0 5 0;
#X connect 5 0 2 0;
#X connect 5 0 3 0;
#X connect 6 0 7 0;
