#N canvas 127 637 389 326 10;
#N canvas 1301 758 560 262 sequencer 0;
#X obj 14 69 route 0 1 2 3 4 5 6 7;
#X obj 15 100 bng 25 250 50 0 empty empty empty 17 7 0 10 -262144 -1
-1;
#X obj 40 100 bng 25 250 50 0 empty empty empty 17 7 0 10 -262144 -1
-1;
#X obj 65 100 bng 25 250 50 0 empty empty empty 17 7 0 10 -262144 -1
-1;
#X obj 90 100 bng 25 250 50 0 empty empty empty 17 7 0 10 -262144 -1
-1;
#X obj 115 100 bng 25 250 50 0 empty empty empty 17 7 0 10 -262144
-1 -1;
#X obj 140 100 bng 25 250 50 0 empty empty empty 17 7 0 10 -262144
-1 -1;
#X obj 165 100 bng 25 250 50 0 empty empty empty 17 7 0 10 -262144
-1 -1;
#X obj 190 100 bng 25 250 50 0 empty empty empty 17 7 0 10 -262144
-1 -1;
#X obj 14 20 inlet;
#X msg 15 158 step 1;
#X msg 72 156 step 1;
#X msg 138 157 step 1;
#X msg 195 158 step 1;
#X msg 261 156 step 1;
#X msg 328 154 step 1;
#X msg 384 154 step 1;
#X msg 434 153 step 1;
#X msg 31 189 step 0;
#X msg 88 187 step 0;
#X msg 142 185 step 0;
#X msg 212 183 step 0;
#X msg 272 187 step 0;
#X msg 333 188 step 0;
#X msg 390 182 step 0;
#X msg 453 183 step 0;
#X obj 15 214 s lp_col1;
#X obj 76 214 s lp_col2;
#X obj 138 214 s lp_col3;
#X obj 200 213 s lp_col4;
#X obj 262 213 s lp_col5;
#X obj 323 213 s lp_col6;
#X obj 385 212 s lp_col7;
#X obj 447 212 s lp_col8;
#X obj 14 45 counter 0 7;
#X connect 0 0 1 0;
#X connect 0 1 2 0;
#X connect 0 2 3 0;
#X connect 0 3 4 0;
#X connect 0 4 5 0;
#X connect 0 5 6 0;
#X connect 0 6 7 0;
#X connect 0 7 8 0;
#X connect 1 0 10 0;
#X connect 1 0 25 0;
#X connect 2 0 18 0;
#X connect 2 0 11 0;
#X connect 3 0 19 0;
#X connect 3 0 12 0;
#X connect 4 0 20 0;
#X connect 4 0 13 0;
#X connect 5 0 21 0;
#X connect 5 0 14 0;
#X connect 6 0 22 0;
#X connect 6 0 15 0;
#X connect 7 0 23 0;
#X connect 7 0 16 0;
#X connect 8 0 24 0;
#X connect 8 0 17 0;
#X connect 9 0 34 0;
#X connect 10 0 26 0;
#X connect 11 0 27 0;
#X connect 12 0 28 0;
#X connect 13 0 29 0;
#X connect 14 0 30 0;
#X connect 15 0 31 0;
#X connect 16 0 32 0;
#X connect 17 0 33 0;
#X connect 18 0 26 0;
#X connect 19 0 27 0;
#X connect 20 0 28 0;
#X connect 21 0 29 0;
#X connect 22 0 30 0;
#X connect 23 0 31 0;
#X connect 24 0 32 0;
#X connect 25 0 33 0;
#X connect 34 0 0 0;
#X coords 0 -1 1 1 200 25 2 15 100;
#X restore 15 70 pd sequencer;
#X obj 15 48 metro 500;
#X obj 15 25 tgl 15 0 empty empty empty 17 7 0 10 -262144 -1 -1 1 1
;
#X floatatom 66 23 5 0 0 0 - - -;
#X text 11 4 launchpad sequencer;
#X obj 219 103 lp_row_trigger 8;
#N canvas 533 538 450 139 init 0;
#X obj 9 77 s lp_all_leds;
#X msg 9 44 green 1;
#X obj 9 11 inlet;
#X obj 101 76 s lp_all_tgl;
#X msg 102 40 0;
#X connect 1 0 0 0;
#X connect 2 0 1 0;
#X connect 2 0 4 0;
#X connect 4 0 3 0;
#X restore 272 90 pd init;
#X obj 272 67 bng 15 250 50 0 empty empty empty 17 7 0 10 -262144 -1
-1;
#N canvas 53 274 536 306 routing 0;
#N canvas 745 133 308 337 row1 0;
#X obj 15 187 s lp_ctl0;
#X obj 36 169 s lp_ctl1;
#X obj 57 151 s lp_ctl2;
#X obj 78 133 s lp_ctl3;
#X obj 106 116 s lp_ctl4;
#X obj 127 98 s lp_ctl5;
#X obj 152 80 s lp_ctl6;
#X obj 174 62 s lp_ctl7;
#X obj 15 41 r lp_row1;
#X obj 150 305 s lp_row1_out;
#X obj 151 151 r lp_out_0;
#X obj 160 171 r lp_out_1;
#X obj 172 190 r lp_out_2;
#X obj 182 209 r lp_out_3;
#X obj 193 228 r lp_out_4;
#X obj 204 247 r lp_out_5;
#X obj 217 265 r lp_out_6;
#X obj 230 283 r lp_out_7;
#X connect 8 0 0 0;
#X connect 8 0 1 0;
#X connect 8 0 2 0;
#X connect 8 0 3 0;
#X connect 8 0 4 0;
#X connect 8 0 5 0;
#X connect 8 0 6 0;
#X connect 8 0 7 0;
#X connect 10 0 9 0;
#X connect 11 0 9 0;
#X connect 12 0 9 0;
#X connect 13 0 9 0;
#X connect 14 0 9 0;
#X connect 15 0 9 0;
#X connect 16 0 9 0;
#X connect 17 0 9 0;
#X restore 23 88 pd row1;
#N canvas 487 300 308 295 row2 0;
#X obj 16 17 r lp_row2;
#X obj 16 163 s lp_ctl16;
#X obj 37 145 s lp_ctl17;
#X obj 58 127 s lp_ctl18;
#X obj 79 109 s lp_ctl19;
#X obj 107 92 s lp_ctl20;
#X obj 128 74 s lp_ctl21;
#X obj 153 57 s lp_ctl22;
#X obj 175 38 s lp_ctl23;
#X obj 153 118 r lp_out_16;
#X obj 162 138 r lp_out_17;
#X obj 174 157 r lp_out_18;
#X obj 184 176 r lp_out_19;
#X obj 195 195 r lp_out_20;
#X obj 206 214 r lp_out_21;
#X obj 219 232 r lp_out_22;
#X obj 227 250 r lp_out_23;
#X obj 152 272 s lp_row2_out;
#X connect 0 0 1 0;
#X connect 0 0 2 0;
#X connect 0 0 3 0;
#X connect 0 0 4 0;
#X connect 0 0 5 0;
#X connect 0 0 6 0;
#X connect 0 0 7 0;
#X connect 0 0 8 0;
#X connect 9 0 17 0;
#X connect 10 0 17 0;
#X connect 11 0 17 0;
#X connect 12 0 17 0;
#X connect 13 0 17 0;
#X connect 14 0 17 0;
#X connect 15 0 17 0;
#X connect 16 0 17 0;
#X restore 21 109 pd row2;
#N canvas 804 228 336 283 row3 0;
#X obj 15 157 s lp_ctl32;
#X obj 36 139 s lp_ctl33;
#X obj 57 121 s lp_ctl34;
#X obj 78 103 s lp_ctl35;
#X obj 106 86 s lp_ctl36;
#X obj 127 68 s lp_ctl37;
#X obj 152 50 s lp_ctl38;
#X obj 174 32 s lp_ctl39;
#X obj 15 10 r lp_row3;
#X obj 176 96 r lp_out_32;
#X obj 185 116 r lp_out_33;
#X obj 197 135 r lp_out_34;
#X obj 207 154 r lp_out_35;
#X obj 218 173 r lp_out_36;
#X obj 229 192 r lp_out_37;
#X obj 242 210 r lp_out_38;
#X obj 250 228 r lp_out_39;
#X obj 175 250 s lp_row3_out;
#X connect 8 0 0 0;
#X connect 8 0 1 0;
#X connect 8 0 2 0;
#X connect 8 0 3 0;
#X connect 8 0 4 0;
#X connect 8 0 5 0;
#X connect 8 0 6 0;
#X connect 8 0 7 0;
#X connect 9 0 17 0;
#X connect 10 0 17 0;
#X connect 11 0 17 0;
#X connect 12 0 17 0;
#X connect 13 0 17 0;
#X connect 14 0 17 0;
#X connect 15 0 17 0;
#X connect 16 0 17 0;
#X restore 20 129 pd row3;
#N canvas 448 247 308 299 row4 0;
#X obj 15 157 s lp_ctl48;
#X obj 36 139 s lp_ctl49;
#X obj 57 121 s lp_ctl50;
#X obj 78 103 s lp_ctl51;
#X obj 106 86 s lp_ctl52;
#X obj 127 68 s lp_ctl53;
#X obj 152 50 s lp_ctl54;
#X obj 174 32 s lp_ctl55;
#X obj 15 10 r lp_row4;
#X obj 152 113 r lp_out_48;
#X obj 161 133 r lp_out_49;
#X obj 173 152 r lp_out_50;
#X obj 183 171 r lp_out_51;
#X obj 194 190 r lp_out_52;
#X obj 205 209 r lp_out_53;
#X obj 218 227 r lp_out_54;
#X obj 226 245 r lp_out_55;
#X obj 151 269 s lp_row4_out;
#X connect 8 0 0 0;
#X connect 8 0 7 0;
#X connect 8 0 6 0;
#X connect 8 0 5 0;
#X connect 8 0 4 0;
#X connect 8 0 3 0;
#X connect 8 0 2 0;
#X connect 8 0 1 0;
#X connect 9 0 17 0;
#X connect 10 0 17 0;
#X connect 11 0 17 0;
#X connect 12 0 17 0;
#X connect 13 0 17 0;
#X connect 14 0 17 0;
#X connect 15 0 17 0;
#X connect 16 0 17 0;
#X restore 18 151 pd row4;
#N canvas 461 85 308 292 row5 0;
#X obj 9 7 r lp_row5;
#X obj 9 154 s lp_ctl64;
#X obj 30 136 s lp_ctl65;
#X obj 50 118 s lp_ctl66;
#X obj 72 100 s lp_ctl67;
#X obj 100 83 s lp_ctl68;
#X obj 121 65 s lp_ctl69;
#X obj 146 47 s lp_ctl70;
#X obj 168 29 s lp_ctl71;
#X obj 155 108 r lp_out_64;
#X obj 164 128 r lp_out_65;
#X obj 176 147 r lp_out_66;
#X obj 186 166 r lp_out_67;
#X obj 197 185 r lp_out_68;
#X obj 208 204 r lp_out_69;
#X obj 221 222 r lp_out_70;
#X obj 229 240 r lp_out_71;
#X obj 154 261 s lp_row5_out;
#X connect 0 0 1 0;
#X connect 0 0 2 0;
#X connect 0 0 3 0;
#X connect 0 0 4 0;
#X connect 0 0 5 0;
#X connect 0 0 6 0;
#X connect 0 0 7 0;
#X connect 0 0 8 0;
#X connect 9 0 17 0;
#X connect 10 0 17 0;
#X connect 11 0 17 0;
#X connect 12 0 17 0;
#X connect 13 0 17 0;
#X connect 14 0 17 0;
#X connect 15 0 17 0;
#X connect 16 0 17 0;
#X restore 18 174 pd row5;
#N canvas 560 107 318 306 row6 0;
#X obj 15 157 s lp_ctl80;
#X obj 36 139 s lp_ctl81;
#X obj 57 121 s lp_ctl82;
#X obj 78 102 s lp_ctl83;
#X obj 106 86 s lp_ctl84;
#X obj 127 68 s lp_ctl85;
#X obj 152 50 s lp_ctl86;
#X obj 174 32 s lp_ctl87;
#X obj 15 10 r lp_row6;
#X obj 158 118 r lp_out_80;
#X obj 167 138 r lp_out_81;
#X obj 179 157 r lp_out_82;
#X obj 189 176 r lp_out_83;
#X obj 200 195 r lp_out_84;
#X obj 211 214 r lp_out_85;
#X obj 224 232 r lp_out_86;
#X obj 232 250 r lp_out_87;
#X obj 157 271 s lp_row6_out;
#X connect 8 0 0 0;
#X connect 8 0 1 0;
#X connect 8 0 2 0;
#X connect 8 0 3 0;
#X connect 8 0 4 0;
#X connect 8 0 5 0;
#X connect 8 0 6 0;
#X connect 8 0 7 0;
#X connect 9 0 17 0;
#X connect 10 0 17 0;
#X connect 11 0 17 0;
#X connect 12 0 17 0;
#X connect 13 0 17 0;
#X connect 14 0 17 0;
#X connect 15 0 17 0;
#X connect 16 0 17 0;
#X restore 19 197 pd row6;
#N canvas 836 283 325 310 row7 0;
#X obj 15 10 r lp_row7;
#X obj 15 157 s lp_ctl96;
#X obj 36 139 s lp_ctl97;
#X obj 57 121 s lp_ctl98;
#X obj 78 102 s lp_ctl99;
#X obj 106 86 s lp_ctl100;
#X obj 127 68 s lp_ctl101;
#X obj 152 50 s lp_ctl102;
#X obj 174 32 s lp_ctl103;
#X obj 167 273 s lp_row7_out;
#X obj 168 120 r lp_out_96;
#X obj 177 140 r lp_out_97;
#X obj 189 159 r lp_out_98;
#X obj 199 179 r lp_out_99;
#X obj 210 197 r lp_out_100;
#X obj 221 216 r lp_out_101;
#X obj 234 234 r lp_out_102;
#X obj 241 252 r lp_out_103;
#X connect 0 0 1 0;
#X connect 0 0 2 0;
#X connect 0 0 3 0;
#X connect 0 0 4 0;
#X connect 0 0 5 0;
#X connect 0 0 6 0;
#X connect 0 0 7 0;
#X connect 0 0 8 0;
#X connect 10 0 9 0;
#X connect 11 0 9 0;
#X connect 12 0 9 0;
#X connect 13 0 9 0;
#X connect 14 0 9 0;
#X connect 15 0 9 0;
#X connect 16 0 9 0;
#X connect 17 0 9 0;
#X restore 21 220 pd row7;
#N canvas 422 232 350 321 row8 0;
#X obj 15 157 s lp_ctl112;
#X obj 36 139 s lp_ctl113;
#X obj 57 121 s lp_ctl114;
#X obj 78 103 s lp_ctl115;
#X obj 107 86 s lp_ctl116;
#X obj 127 68 s lp_ctl117;
#X obj 152 50 s lp_ctl118;
#X obj 174 32 s lp_ctl119;
#X obj 15 10 r lp_row8;
#X obj 178 130 r lp_out_112;
#X obj 187 150 r lp_out_113;
#X obj 199 170 r lp_out_114;
#X obj 209 189 r lp_out_115;
#X obj 220 207 r lp_out_116;
#X obj 231 226 r lp_out_117;
#X obj 244 244 r lp_out_118;
#X obj 251 262 r lp_out_119;
#X obj 177 283 s lp_row8_out;
#X connect 8 0 0 0;
#X connect 8 0 1 0;
#X connect 8 0 2 0;
#X connect 8 0 3 0;
#X connect 8 0 4 0;
#X connect 8 0 5 0;
#X connect 8 0 6 0;
#X connect 8 0 7 0;
#X connect 9 0 17 0;
#X connect 10 0 17 0;
#X connect 11 0 17 0;
#X connect 12 0 17 0;
#X connect 13 0 17 0;
#X connect 14 0 17 0;
#X connect 15 0 17 0;
#X connect 16 0 17 0;
#X restore 21 245 pd row8;
#N canvas 300 201 380 114 col1 0;
#X obj 16 54 s lp_ctl0;
#X obj 40 78 s lp_ctl16;
#X obj 95 54 s lp_ctl32;
#X obj 121 77 s lp_ctl48;
#X obj 174 52 s lp_ctl64;
#X obj 202 75 s lp_ctl80;
#X obj 261 52 s lp_ctl96;
#X obj 293 79 s lp_ctl112;
#X obj 16 24 r lp_col1;
#X connect 8 0 0 0;
#X connect 8 0 1 0;
#X connect 8 0 2 0;
#X connect 8 0 3 0;
#X connect 8 0 4 0;
#X connect 8 0 5 0;
#X connect 8 0 6 0;
#X connect 8 0 7 0;
#X restore 87 48 pd col1;
#N canvas 272 515 398 109 col2 0;
#X obj 16 24 r lp_col2;
#X obj 16 54 s lp_ctl1;
#X obj 41 76 s lp_ctl17;
#X obj 99 52 s lp_ctl33;
#X obj 122 76 s s lp_ctl49;
#X obj 179 52 s lp_ctl65;
#X obj 218 74 s lp_ctl81;
#X obj 271 52 s lp_ctl97;
#X obj 302 73 s lp_ctl113;
#X connect 0 0 1 0;
#X connect 0 0 2 0;
#X connect 0 0 3 0;
#X connect 0 0 4 0;
#X connect 0 0 5 0;
#X connect 0 0 6 0;
#X connect 0 0 7 0;
#X connect 0 0 8 0;
#X restore 139 49 pd col2;
#N canvas 33 174 394 114 col3 0;
#X obj 16 24 r lp_col3;
#X obj 16 54 s lp_ctl2;
#X obj 30 81 s lp_ctl18;
#X obj 98 54 s lp_ctl34;
#X obj 126 79 s lp_ctl50;
#X obj 181 54 s lp_ctl66;
#X obj 215 81 s lp_ctl82;
#X obj 273 54 s lp_ctl98;
#X obj 302 79 s lp_ctl114;
#X connect 0 0 1 0;
#X connect 0 0 2 0;
#X connect 0 0 3 0;
#X connect 0 0 4 0;
#X connect 0 0 5 0;
#X connect 0 0 6 0;
#X connect 0 0 7 0;
#X connect 0 0 8 0;
#X restore 190 50 pd col3;
#N canvas 33 174 395 114 col4 0;
#X obj 16 24 r lp_col4;
#X obj 16 54 s lp_ctl3;
#X obj 39 80 s lp_ctl19;
#X obj 89 54 s lp_ctl35;
#X obj 126 80 s lp_ctl51;
#X obj 179 55 s lp_ctl67;
#X obj 213 81 s lp_ctl83;
#X obj 266 57 s lp_ctl99;
#X obj 296 81 s lp_ctl115;
#X connect 0 0 1 0;
#X connect 0 0 2 0;
#X connect 0 0 3 0;
#X connect 0 0 4 0;
#X connect 0 0 5 0;
#X connect 0 0 6 0;
#X connect 0 0 7 0;
#X connect 0 0 8 0;
#X restore 244 49 pd col4;
#N canvas 60 351 364 114 col5 0;
#X obj 16 24 r lp_col5;
#X obj 16 54 s lp_ctl4;
#X obj 37 79 s lp_ctl20;
#X obj 87 55 s lp_ctl36;
#X obj 115 78 s lp_ctl52;
#X obj 162 54 s lp_ctl68;
#X obj 190 77 s lp_ctl84;
#X obj 242 53 s lp_ctl100;
#X obj 266 76 s lp_ctl116;
#X connect 0 0 1 0;
#X connect 0 0 2 0;
#X connect 0 0 3 0;
#X connect 0 0 4 0;
#X connect 0 0 5 0;
#X connect 0 0 6 0;
#X connect 0 0 7 0;
#X connect 0 0 8 0;
#X restore 300 48 pd col5;
#N canvas 610 425 362 114 col6 0;
#X obj 16 24 r lp_col6;
#X obj 16 54 s lp_ctl5;
#X obj 28 81 s lp_ctl21;
#X obj 86 55 s lp_ctl37;
#X obj 107 81 s lp_ctl53;
#X obj 166 54 s lp_ctl69;
#X obj 190 79 s lp_ctl85;
#X obj 248 55 s lp_ctl101;
#X obj 274 79 s lp_ctl117;
#X connect 0 0 1 0;
#X connect 0 0 2 0;
#X connect 0 0 3 0;
#X connect 0 0 4 0;
#X connect 0 0 5 0;
#X connect 0 0 6 0;
#X connect 0 0 7 0;
#X connect 0 0 8 0;
#X restore 356 47 pd col6;
#N canvas 37 352 364 114 col7 0;
#X obj 16 54 s lp_ctl6;
#X obj 31 78 s lp_ctl22;
#X obj 91 55 s lp_ctl38;
#X obj 114 77 s lp_ctl54;
#X obj 172 54 s lp_ctl70;
#X obj 191 77 s lp_ctl86;
#X obj 256 53 s lp_ctl102;
#X obj 281 77 s lp_ctl118;
#X obj 16 24 r lp_col7;
#X connect 8 0 0 0;
#X connect 8 0 1 0;
#X connect 8 0 2 0;
#X connect 8 0 3 0;
#X connect 8 0 4 0;
#X connect 8 0 5 0;
#X connect 8 0 6 0;
#X connect 8 0 7 0;
#X restore 414 47 pd col7;
#N canvas 33 174 381 114 col8 0;
#X obj 16 54 s lp_ctl7;
#X obj 39 80 s lp_ctl23;
#X obj 89 56 s lp_ctl39;
#X obj 124 83 s lp_ctl55;
#X obj 167 55 s lp_ctl71;
#X obj 201 82 s lp_ctl87;
#X obj 245 54 s lp_ctl103;
#X obj 287 82 s lp_ctl119;
#X obj 16 24 r lp_col8;
#X connect 8 0 0 0;
#X connect 8 0 1 0;
#X connect 8 0 2 0;
#X connect 8 0 3 0;
#X connect 8 0 4 0;
#X connect 8 0 5 0;
#X connect 8 0 6 0;
#X connect 8 0 7 0;
#X restore 470 46 pd col8;
#X obj 106 87 r lp_row_triggered_by8;
#X obj 106 113 s lp_row1;
#X obj 106 165 s lp_row2;
#X obj 105 214 s lp_row3;
#X obj 105 266 s lp_row4;
#X obj 310 113 s lp_row5;
#X obj 310 165 s lp_row6;
#X obj 309 214 s lp_row7;
#X obj 309 266 s lp_row8;
#X obj 106 139 r lp_row_triggered_by24;
#X obj 105 188 r lp_row_triggered_by40;
#X obj 105 240 r lp_row_triggered_by56;
#X obj 310 87 r lp_row_triggered_by72;
#X obj 310 139 r lp_row_triggered_by88;
#X obj 309 188 r lp_row_triggered_by104;
#X obj 309 240 r lp_row_triggered_by120;
#X connect 16 0 17 0;
#X connect 25 0 18 0;
#X connect 26 0 19 0;
#X connect 27 0 20 0;
#X connect 28 0 21 0;
#X connect 29 0 22 0;
#X connect 30 0 23 0;
#X connect 31 0 24 0;
#X restore 273 181 pd routing;
#X obj 219 128 lp_row_trigger 24;
#X obj 219 153 lp_row_trigger 40;
#X obj 219 178 lp_row_trigger 56;
#X obj 219 203 lp_row_trigger 72;
#X obj 219 228 lp_row_trigger 88;
#X obj 219 253 lp_row_trigger 104;
#X obj 219 278 lp_row_trigger 120;
#X obj 190 100 lp_led 7;
#X obj 148 6 inlet;
#X text 262 151 output symbols: lp_rowX_out;
#X obj 147 35 route bang reset;
#X obj 15 100 lp_led 0;
#X obj 40 150 lp_led 33;
#X obj 90 150 lp_led 35;
#X obj 65 150 lp_led 34;
#X obj 115 150 lp_led 36;
#X obj 140 150 lp_led 37;
#X obj 165 150 lp_led 38;
#X obj 190 150 lp_led 39;
#X obj 15 150 lp_led 32;
#X obj 40 100 lp_led 1;
#X obj 65 100 lp_led 2;
#X obj 90 100 lp_led 3;
#X obj 115 100 lp_led 4;
#X obj 140 100 lp_led 5;
#X obj 165 100 lp_led 6;
#X obj 15 125 lp_led 16;
#X obj 40 125 lp_led 17;
#X obj 65 125 lp_led 18;
#X obj 90 125 lp_led 19;
#X obj 115 125 lp_led 20;
#X obj 140 125 lp_led 21;
#X obj 165 125 lp_led 22;
#X obj 190 125 lp_led 23;
#X obj 15 175 lp_led 48;
#X obj 40 175 lp_led 49;
#X obj 65 175 lp_led 50;
#X obj 90 175 lp_led 51;
#X obj 115 175 lp_led 52;
#X obj 15 200 lp_led 64;
#X obj 140 175 lp_led 53;
#X obj 165 175 lp_led 54;
#X obj 190 175 lp_led 55;
#X obj 40 200 lp_led 65;
#X obj 65 200 lp_led 66;
#X obj 90 200 lp_led 67;
#X obj 115 200 lp_led 68;
#X obj 140 200 lp_led 69;
#X obj 165 200 lp_led 70;
#X obj 190 200 lp_led 71;
#X obj 15 225 lp_led 80;
#X obj 40 225 lp_led 81;
#X obj 65 225 lp_led 82;
#X obj 90 225 lp_led 83;
#X obj 115 225 lp_led 84;
#X obj 140 225 lp_led 85;
#X obj 165 225 lp_led 86;
#X obj 190 225 lp_led 87;
#X obj 15 250 lp_led 96;
#X obj 40 250 lp_led 97;
#X obj 65 250 lp_led 98;
#X obj 90 250 lp_led 99;
#X obj 115 250 lp_led 100;
#X obj 140 250 lp_led 101;
#X obj 165 250 lp_led 102;
#X obj 190 250 lp_led 103;
#X obj 15 275 lp_led 112;
#X obj 40 275 lp_led 113;
#X obj 65 275 lp_led 114;
#X obj 90 275 lp_led 115;
#X obj 115 275 lp_led 116;
#X obj 140 275 lp_led 117;
#X obj 165 275 lp_led 118;
#X obj 190 275 lp_led 119;
#N canvas 2199 779 402 237 pseudomidiclock 0;
#X obj 14 152 ctlout 4;
#X obj 14 95 bng 15 250 50 0 empty empty empty 17 7 0 10 -262144 -1
-1;
#X msg 49 119 1;
#X msg 14 121 1;
#X obj 14 20 r lp_col1;
#X obj 14 42 route step;
#X obj 14 64 sel 1;
#X obj 84 20 r lp_col5;
#X connect 1 0 2 0;
#X connect 1 0 3 0;
#X connect 2 0 0 1;
#X connect 3 0 0 0;
#X connect 4 0 5 0;
#X connect 5 0 6 0;
#X connect 6 0 1 0;
#X connect 7 0 5 0;
#X restore 234 13 pd pseudomidiclock;
#X connect 1 0 0 0;
#X connect 2 0 1 0;
#X connect 3 0 1 1;
#X connect 7 0 6 0;
#X connect 17 0 19 0;
#X connect 19 0 0 0;
#X connect 19 1 7 0;
#X coords 0 -1 1 1 227 230 1 15 70;
