#N canvas 242 196 754 341 10;
#X obj 271 94 r lp_row1_out;
#X obj 271 122 sel 1;
#X obj 14 61 launchpad_stepsequencer;
#X msg 53 17 reset;
#X obj 123 20 metro 500;
#X obj 229 24 tgl 15 0 empty empty empty 17 7 0 10 -262144 -1 -1 1
1;
#X obj 271 146 bng 15 250 50 0 empty empty empty 17 7 0 10 -262144
-1 -1;
#X obj 353 147 bng 15 250 50 0 empty empty empty 17 7 0 10 -262144
-1 -1;
#X obj 280 169 ctlin 41 2;
#X obj 271 215 f;
#X floatatom 292 192 5 0 0 0 - - -;
#X msg 353 215 0;
#X obj 271 262 ctlout 41 3;
#X text 307 18 TODO - test separate midiin from slmkii on channel2
and midiout on channel 3;
#X obj 391 121 sel 1;
#X obj 391 145 bng 15 250 50 0 empty empty empty 17 7 0 10 -262144
-1 -1;
#X obj 473 146 bng 15 250 50 0 empty empty empty 17 7 0 10 -262144
-1 -1;
#X obj 391 214 f;
#X floatatom 412 191 5 0 0 0 - - -;
#X msg 473 214 0;
#X obj 391 93 r lp_row2_out;
#X obj 400 168 ctlin 42 2;
#X obj 391 261 ctlout 42 3;
#X obj 511 121 sel 1;
#X obj 511 145 bng 15 250 50 0 empty empty empty 17 7 0 10 -262144
-1 -1;
#X obj 593 146 bng 15 250 50 0 empty empty empty 17 7 0 10 -262144
-1 -1;
#X obj 511 214 f;
#X floatatom 532 191 5 0 0 0 - - -;
#X msg 593 214 0;
#X obj 631 120 sel 1;
#X obj 631 144 bng 15 250 50 0 empty empty empty 17 7 0 10 -262144
-1 -1;
#X obj 713 145 bng 15 250 50 0 empty empty empty 17 7 0 10 -262144
-1 -1;
#X obj 631 213 f;
#X floatatom 652 190 5 0 0 0 - - -;
#X msg 713 213 0;
#X obj 511 93 r lp_row3_out;
#X obj 520 168 ctlin 43 2;
#X obj 511 261 ctlout 43 3;
#X obj 631 92 r lp_row4_out;
#X obj 640 167 ctlin 44 2;
#X obj 631 260 ctlout 44 3;
#X connect 0 0 1 0;
#X connect 1 0 6 0;
#X connect 1 1 7 0;
#X connect 3 0 2 0;
#X connect 4 0 2 0;
#X connect 5 0 4 0;
#X connect 6 0 9 0;
#X connect 7 0 11 0;
#X connect 8 0 9 0;
#X connect 9 0 12 0;
#X connect 10 0 9 0;
#X connect 11 0 12 0;
#X connect 14 0 15 0;
#X connect 14 1 16 0;
#X connect 15 0 17 0;
#X connect 16 0 19 0;
#X connect 17 0 22 0;
#X connect 18 0 17 0;
#X connect 19 0 22 0;
#X connect 20 0 14 0;
#X connect 21 0 17 0;
#X connect 23 0 24 0;
#X connect 23 1 25 0;
#X connect 24 0 26 0;
#X connect 25 0 28 0;
#X connect 26 0 37 0;
#X connect 27 0 26 0;
#X connect 28 0 37 0;
#X connect 29 0 30 0;
#X connect 29 1 31 0;
#X connect 30 0 32 0;
#X connect 31 0 34 0;
#X connect 32 0 40 0;
#X connect 33 0 32 0;
#X connect 34 0 40 0;
#X connect 35 0 23 0;
#X connect 36 0 26 0;
#X connect 38 0 29 0;
#X connect 39 0 32 0;
