#N canvas 85 621 444 294 10;
#N canvas 490 516 450 292 routing_from_launchpad 0;
#X obj 15 12 notein;
#X obj 15 38 stripnote;
#N canvas -1299 328 308 223 row1 0;
#X obj 15 12 inlet;
#X obj 15 40 route 0 1 2 3 4 5 6 7;
#X obj 15 187 s lp_0;
#X obj 36 169 s lp_1;
#X obj 57 151 s lp_2;
#X obj 78 133 s lp_3;
#X obj 106 116 s lp_4;
#X obj 127 98 s lp_5;
#X obj 152 80 s lp_6;
#X obj 174 62 s lp_7;
#X connect 0 0 1 0;
#X connect 1 0 2 0;
#X connect 1 1 3 0;
#X connect 1 2 4 0;
#X connect 1 3 5 0;
#X connect 1 4 6 0;
#X connect 1 5 7 0;
#X connect 1 6 8 0;
#X connect 1 7 9 0;
#X restore 15 69 pd row1;
#N canvas -1325 361 308 223 row2 0;
#X obj 15 12 inlet;
#X obj 15 40 route 16 17 18 19 20 21 22 23;
#X obj 15 187 s lp_16;
#X obj 36 169 s lp_17;
#X obj 57 151 s lp_18;
#X obj 78 133 s lp_19;
#X obj 106 116 s lp_20;
#X obj 127 98 s lp_21;
#X obj 152 80 s lp_22;
#X obj 174 62 s lp_23;
#X connect 0 0 1 0;
#X connect 1 0 2 0;
#X connect 1 1 3 0;
#X connect 1 2 4 0;
#X connect 1 3 5 0;
#X connect 1 4 6 0;
#X connect 1 5 7 0;
#X connect 1 6 8 0;
#X connect 1 7 9 0;
#X restore 68 68 pd row2;
#N canvas 0 188 308 223 row3 0;
#X obj 15 187 s lp_32;
#X obj 36 169 s lp_33;
#X obj 57 151 s lp_34;
#X obj 78 133 s lp_35;
#X obj 106 116 s lp_36;
#X obj 127 98 s lp_37;
#X obj 152 80 s lp_38;
#X obj 174 62 s lp_39;
#X obj 15 40 route 32 33 34 35 36 37 38 39;
#X obj 15 12 inlet;
#X connect 8 0 0 0;
#X connect 8 1 1 0;
#X connect 8 2 2 0;
#X connect 8 3 3 0;
#X connect 8 4 4 0;
#X connect 8 5 5 0;
#X connect 8 6 6 0;
#X connect 8 7 7 0;
#X connect 9 0 8 0;
#X restore 119 69 pd row3;
#N canvas 514 774 308 223 row4 0;
#X obj 15 12 inlet;
#X obj 15 40 route 48 49 50 51 52 53 54 55;
#X obj 15 187 s lp_48;
#X obj 36 169 s lp_49;
#X obj 57 151 s lp_50;
#X obj 78 133 s lp_51;
#X obj 106 116 s lp_52;
#X obj 127 98 s lp_53;
#X obj 174 62 s lp_55;
#X obj 152 80 s lp_54;
#X connect 0 0 1 0;
#X connect 1 0 2 0;
#X connect 1 1 3 0;
#X connect 1 2 4 0;
#X connect 1 3 5 0;
#X connect 1 4 6 0;
#X connect 1 5 7 0;
#X connect 1 6 9 0;
#X connect 1 7 8 0;
#X restore 172 69 pd row4;
#N canvas 244 847 308 223 row5 0;
#X obj 15 12 inlet;
#X obj 15 40 route 64 65 66 67 68 69 70 71;
#X obj 15 187 s lp_64;
#X obj 36 169 s lp_65;
#X obj 56 151 s lp_66;
#X obj 78 133 s lp_67;
#X obj 106 116 s lp_68;
#X obj 127 98 s lp_69;
#X obj 152 80 s lp_70;
#X obj 174 62 s lp_71;
#X connect 0 0 1 0;
#X connect 1 0 2 0;
#X connect 1 1 3 0;
#X connect 1 2 4 0;
#X connect 1 3 5 0;
#X connect 1 4 6 0;
#X connect 1 5 7 0;
#X connect 1 6 8 0;
#X connect 1 7 9 0;
#X restore 226 69 pd row5;
#N canvas 334 792 308 223 row6 0;
#X obj 15 12 inlet;
#X obj 15 40 route 80 81 82 83 84 85 86 87;
#X obj 15 187 s lp_80;
#X obj 36 169 s lp_81;
#X obj 57 151 s lp_82;
#X obj 78 132 s lp_83;
#X obj 106 116 s lp_84;
#X obj 127 98 s lp_85;
#X obj 152 80 s lp_86;
#X obj 174 62 s lp_87;
#X connect 0 0 1 0;
#X connect 1 0 2 0;
#X connect 1 1 3 0;
#X connect 1 2 4 0;
#X connect 1 3 5 0;
#X connect 1 4 6 0;
#X connect 1 5 7 0;
#X connect 1 6 8 0;
#X connect 1 7 9 0;
#X restore 279 69 pd row6;
#N canvas 342 794 308 223 row7 0;
#X obj 15 12 inlet;
#X obj 15 40 route 96 97 98 99 100 101 102 103;
#X obj 15 187 s lp_96;
#X obj 36 169 s lp_97;
#X obj 57 151 s lp_98;
#X obj 78 132 s lp_99;
#X obj 106 116 s lp_100;
#X obj 127 98 s lp_101;
#X obj 152 80 s lp_102;
#X obj 174 62 s lp_103;
#X connect 0 0 1 0;
#X connect 1 0 2 0;
#X connect 1 1 3 0;
#X connect 1 2 4 0;
#X connect 1 3 5 0;
#X connect 1 4 6 0;
#X connect 1 5 7 0;
#X connect 1 6 8 0;
#X connect 1 7 9 0;
#X restore 330 69 pd row7;
#N canvas 545 725 308 223 row8 0;
#X obj 15 12 inlet;
#X obj 15 40 route 112 113 114 115 116 117 118 119;
#X obj 15 187 s lp_112;
#X obj 36 169 s lp_113;
#X obj 57 151 s lp_114;
#X obj 78 133 s lp_115;
#X obj 107 116 s lp_116;
#X obj 127 98 s lp_117;
#X obj 152 80 s lp_118;
#X obj 174 62 s lp_119;
#X connect 0 0 1 0;
#X connect 1 0 2 0;
#X connect 1 1 3 0;
#X connect 1 2 4 0;
#X connect 1 3 5 0;
#X connect 1 4 6 0;
#X connect 1 5 7 0;
#X connect 1 6 8 0;
#X connect 1 7 9 0;
#X restore 383 69 pd row8;
#X connect 0 0 1 0;
#X connect 0 1 1 1;
#X connect 1 0 2 0;
#X connect 1 0 3 0;
#X connect 1 0 4 0;
#X connect 1 0 5 0;
#X connect 1 0 6 0;
#X connect 1 0 8 0;
#X connect 1 0 9 0;
#X connect 1 0 7 0;
#X restore 260 20 pd routing_from_launchpad;
#X obj 46 93 lp_led 33;
#X obj 96 93 lp_led 35;
#X obj 71 93 lp_led 34;
#X obj 121 93 lp_led 36;
#X obj 146 93 lp_led 37;
#X obj 171 93 lp_led 38;
#X obj 196 93 lp_led 39;
#X obj 21 93 lp_led 32;
#X obj 21 43 lp_led 0;
#X obj 46 43 lp_led 1;
#X obj 71 43 lp_led 2;
#X obj 96 43 lp_led 3;
#X obj 121 43 lp_led 4;
#X obj 146 43 lp_led 5;
#X obj 171 43 lp_led 6;
#X obj 196 43 lp_led 7;
#X obj 21 68 lp_led 16;
#X obj 46 68 lp_led 17;
#X obj 71 68 lp_led 18;
#X obj 96 68 lp_led 19;
#X obj 121 68 lp_led 20;
#X obj 146 68 lp_led 21;
#X obj 171 68 lp_led 22;
#X obj 196 68 lp_led 23;
#X obj 21 118 lp_led 48;
#X obj 46 118 lp_led 49;
#X obj 71 118 lp_led 50;
#X obj 96 118 lp_led 51;
#X obj 121 118 lp_led 52;
#X obj 21 143 lp_led 64;
#X obj 146 118 lp_led 53;
#X obj 171 118 lp_led 54;
#X obj 196 118 lp_led 55;
#X obj 46 143 lp_led 65;
#X obj 71 143 lp_led 66;
#X obj 96 143 lp_led 67;
#X obj 121 143 lp_led 68;
#X obj 146 143 lp_led 69;
#X obj 171 143 lp_led 70;
#X obj 196 143 lp_led 71;
#X obj 21 168 lp_led 80;
#X obj 46 168 lp_led 81;
#X obj 71 168 lp_led 82;
#X obj 96 168 lp_led 83;
#X obj 121 168 lp_led 84;
#X obj 146 168 lp_led 85;
#X obj 171 168 lp_led 86;
#X obj 196 168 lp_led 87;
#X obj 21 193 lp_led 96;
#X obj 46 193 lp_led 97;
#X obj 71 193 lp_led 98;
#X obj 96 193 lp_led 99;
#X obj 121 193 lp_led 100;
#X obj 146 193 lp_led 101;
#X obj 171 193 lp_led 102;
#X obj 196 193 lp_led 103;
#X obj 21 218 lp_led 112;
#X obj 46 218 lp_led 113;
#X obj 71 218 lp_led 114;
#X obj 96 218 lp_led 115;
#X obj 121 218 lp_led 116;
#X obj 146 218 lp_led 117;
#X obj 171 218 lp_led 118;
#X obj 196 218 lp_led 119;
#X text 21 10 launchpad matrix sketch;
