#N canvas 1012 451 774 457 10;
#X obj 519 258 makenote;
#X obj 519 234 float \$1;
#X obj 10 90 tgl 25 0 lp_s\$1 lp_\$1 empty 17 7 0 10 -262144 -1 -1
1 1;
#X obj 519 284 stripnote;
#X obj 519 127 f;
#X obj 519 188 +;
#X text 546 124 red;
#X msg 549 99 1;
#X msg 579 99 2;
#X msg 519 99 0;
#X msg 608 99 3;
#X obj 519 77 route 0 1 2 3;
#X obj 519 23 r lp_r\$1;
#X obj 581 234 f;
#X obj 519 149 t b f;
#X text 605 235 current value;
#X obj 590 24 r lp_all_leds;
#X obj 519 52 route red green;
#X obj 641 127 f;
#X msg 641 99 0;
#X obj 641 77 route 0 1 2 3;
#X text 668 124 green;
#X obj 10 9 notein;
#X obj 10 34 stripnote;
#X obj 10 61 route \$1;
#X msg 671 99 16;
#X msg 701 99 32;
#X msg 730 99 48;
#X obj 10 218 print;
#X obj 519 209 t b f;
#X floatatom 606 264 5 0 0 0 - - -;
#X obj 136 8 r lp_ctl\$1;
#X obj 328 59 print lp_led\$1 unknown ctl;
#X obj 136 82 f;
#X obj 183 81 f;
#X obj 230 81 f;
#X obj 220 8 r lp_all_controls;
#X obj 10 155 s lp_ctl\$1;
#X msg 10 128 toggle \$1;
#X floatatom 264 80 5 0 0 0 - - -;
#X floatatom 148 127 5 0 0 0 - - -;
#X floatatom 98 104 5 0 0 0 - - -;
#X obj 135 191 gate 4;
#X obj 230 106 * 2;
#X obj 230 159 +;
#X obj 230 132 t b f;
#X floatatom 205 188 5 0 0 0 - - -;
#X obj 191 154 + 1;
#X obj 20 303 sel 1;
#X obj 20 379 s lp_r\$1;
#X msg 20 347 red 1 \, green 1;
#X msg 45 327 red 1 \, green 0;
#X obj 143 305 sel 1;
#X obj 143 381 s lp_r\$1;
#X obj 263 305 sel 1;
#X obj 263 381 s lp_r\$1;
#X obj 386 307 sel 1;
#X obj 386 383 s lp_r\$1;
#X msg 168 329 red 0 \, green 1;
#X msg 143 349 red 2 \, green 1;
#X msg 411 331 red 0 \, green 3;
#X msg 386 351 red 2 \, green 3;
#X obj 294 220 bng 15 250 50 0 empty empty empty 17 7 0 10 -262144
-1 -1;
#X text 34 286 disabled+off;
#X text 151 285 enabled+off;
#X text 265 285 disabled+on;
#X text 382 284 enabled+on;
#X msg 263 349 red 1 \, green 2;
#X msg 288 329 red 1 \, green 2;
#X obj 43 84 r lp_all_tgl;
#X obj 9 430 s lp_out_\$1;
#X msg 9 402 0;
#X msg 127 404 0;
#X msg 248 404 0;
#X msg 368 406 1;
#X obj 519 313 noteout 1;
#X obj 136 32 route step enable toggle bang channel;
#X connect 0 0 3 0;
#X connect 0 1 3 1;
#X connect 1 0 0 0;
#X connect 2 0 38 0;
#X connect 3 0 75 0;
#X connect 3 1 75 1;
#X connect 4 0 14 0;
#X connect 5 0 29 0;
#X connect 7 0 4 0;
#X connect 8 0 4 0;
#X connect 9 0 4 0;
#X connect 10 0 4 0;
#X connect 11 0 9 0;
#X connect 11 1 7 0;
#X connect 11 2 8 0;
#X connect 11 3 10 0;
#X connect 12 0 17 0;
#X connect 13 0 0 1;
#X connect 13 0 30 0;
#X connect 14 0 5 0;
#X connect 14 1 5 1;
#X connect 16 0 17 0;
#X connect 17 0 11 0;
#X connect 17 1 20 0;
#X connect 18 0 5 0;
#X connect 19 0 18 0;
#X connect 20 0 19 0;
#X connect 20 1 25 0;
#X connect 20 2 26 0;
#X connect 20 3 27 0;
#X connect 22 0 23 0;
#X connect 22 1 23 1;
#X connect 23 0 24 0;
#X connect 24 0 2 0;
#X connect 25 0 18 0;
#X connect 26 0 18 0;
#X connect 27 0 18 0;
#X connect 29 0 1 0;
#X connect 29 1 13 0;
#X connect 31 0 76 0;
#X connect 33 0 41 0;
#X connect 33 0 42 1;
#X connect 34 0 40 0;
#X connect 34 0 44 0;
#X connect 35 0 39 0;
#X connect 35 0 43 0;
#X connect 36 0 76 0;
#X connect 38 0 37 0;
#X connect 42 0 48 0;
#X connect 42 1 52 0;
#X connect 42 2 54 0;
#X connect 42 3 56 0;
#X connect 42 3 62 0;
#X connect 43 0 45 0;
#X connect 44 0 47 0;
#X connect 45 0 44 0;
#X connect 45 0 33 0;
#X connect 45 1 44 1;
#X connect 47 0 46 0;
#X connect 47 0 42 0;
#X connect 48 0 50 0;
#X connect 48 0 71 0;
#X connect 48 1 51 0;
#X connect 50 0 49 0;
#X connect 51 0 49 0;
#X connect 52 0 59 0;
#X connect 52 0 72 0;
#X connect 52 1 58 0;
#X connect 54 0 67 0;
#X connect 54 0 73 0;
#X connect 54 1 68 0;
#X connect 56 0 61 0;
#X connect 56 0 74 0;
#X connect 56 1 60 0;
#X connect 58 0 53 0;
#X connect 59 0 53 0;
#X connect 60 0 57 0;
#X connect 61 0 57 0;
#X connect 67 0 55 0;
#X connect 68 0 55 0;
#X connect 69 0 2 0;
#X connect 71 0 70 0;
#X connect 72 0 70 0;
#X connect 73 0 70 0;
#X connect 74 0 70 0;
#X connect 76 0 33 0;
#X connect 76 1 34 0;
#X connect 76 2 35 0;
#X connect 76 3 33 0;
#X connect 76 4 75 2;
#X connect 76 5 32 0;
#X coords 0 -1 1 1 25 25 2 10 90;
