#N canvas 723 111 467 402 10;
#X obj 10 100 tgl 20 0 lp_row_trigger_s\$1 lp_row_trigger\$1 empty
17 7 0 10 -262144 -1 -1 1 1;
#X obj 189 28 r lp_row_trigger_s\$1;
#X obj 189 286 makenote;
#X obj 189 262 float \$1;
#X obj 189 312 stripnote;
#X obj 189 155 f;
#X obj 189 216 +;
#X text 216 152 red;
#X msg 219 127 1;
#X msg 249 127 2;
#X msg 189 127 0;
#X msg 278 127 3;
#X obj 189 85 route 0 1 2 3;
#X obj 251 262 f;
#X obj 189 177 t b f;
#X text 275 263 current value;
#X obj 189 60 route red green;
#X obj 311 155 f;
#X msg 311 127 0;
#X obj 311 85 route 0 1 2 3;
#X text 338 152 green;
#X msg 341 127 16;
#X msg 371 127 32;
#X msg 400 127 48;
#X obj 189 237 t b f;
#X obj 10 20 notein;
#X obj 10 45 stripnote;
#X obj 10 72 route \$1;
#X msg 30 152 green 3;
#X obj 30 127 sel 1;
#X msg 85 152 green 1;
#X obj 30 183 s lp_row_trigger_s\$1;
#X msg 10 209 enable \$1;
#X obj 10 237 s lp_row_triggered_by\$1;
#X obj 189 341 noteout 1;
#X connect 0 0 29 0;
#X connect 0 0 32 0;
#X connect 1 0 16 0;
#X connect 2 0 4 0;
#X connect 2 1 4 1;
#X connect 3 0 2 0;
#X connect 4 0 34 0;
#X connect 4 1 34 1;
#X connect 5 0 14 0;
#X connect 6 0 24 0;
#X connect 8 0 5 0;
#X connect 9 0 5 0;
#X connect 10 0 5 0;
#X connect 11 0 5 0;
#X connect 12 0 10 0;
#X connect 12 1 8 0;
#X connect 12 2 9 0;
#X connect 12 3 11 0;
#X connect 13 0 2 1;
#X connect 14 0 6 0;
#X connect 14 1 6 1;
#X connect 16 0 12 0;
#X connect 16 1 19 0;
#X connect 17 0 6 0;
#X connect 18 0 17 0;
#X connect 19 0 18 0;
#X connect 19 1 21 0;
#X connect 19 2 22 0;
#X connect 19 3 23 0;
#X connect 21 0 17 0;
#X connect 22 0 17 0;
#X connect 23 0 17 0;
#X connect 24 0 3 0;
#X connect 24 1 13 0;
#X connect 25 0 26 0;
#X connect 25 1 26 1;
#X connect 26 0 27 0;
#X connect 27 0 0 0;
#X connect 28 0 31 0;
#X connect 29 0 28 0;
#X connect 29 1 30 0;
#X connect 30 0 31 0;
#X connect 32 0 33 0;
#X coords 0 -1 1 1 20 20 2 10 100;
