#N canvas 802 590 723 425 10;
#X obj 15 100 tgl 25 0 empty empty empty 17 7 0 10 -262144 -1 -1 0
1;
#X obj 16 14 ctlin \$1;
#X obj 14 43 sel 127;
#X obj 15 74 b;
#X obj 266 129 f;
#X obj 266 190 +;
#X text 293 126 red;
#X msg 296 101 1;
#X msg 326 101 2;
#X msg 266 101 0;
#X msg 355 101 3;
#X obj 266 79 route 0 1 2 3;
#X obj 264 231 f;
#X obj 266 151 t b f;
#X text 352 237 current value;
#X obj 337 26 r lp_all_leds;
#X obj 266 54 route red green;
#X obj 388 129 f;
#X msg 388 101 0;
#X obj 388 79 route 0 1 2 3;
#X text 415 126 green;
#X msg 418 101 16;
#X msg 448 101 32;
#X floatatom 353 266 5 0 0 0 - - -;
#X obj 253 22 r \$0-color;
#X obj 87 335 s \$0-color;
#X msg 68 261 green 3 \, red 3;
#X msg 171 263 green 0 \, red 1;
#X obj 47 74 b;
#X obj 270 287 ctlout \$1;
#X obj 82 212 sel 127;
#X obj 16 159 outlet;
#X obj 95 73 inlet;
#X connect 0 0 30 0;
#X connect 0 0 31 0;
#X connect 1 0 2 0;
#X connect 2 0 3 0;
#X connect 2 1 28 0;
#X connect 3 0 0 0;
#X connect 4 0 13 0;
#X connect 5 0 12 0;
#X connect 7 0 4 0;
#X connect 8 0 4 0;
#X connect 9 0 4 0;
#X connect 10 0 4 0;
#X connect 11 0 9 0;
#X connect 11 1 7 0;
#X connect 11 2 8 0;
#X connect 11 3 10 0;
#X connect 12 0 23 0;
#X connect 12 0 29 0;
#X connect 13 0 5 0;
#X connect 13 1 5 1;
#X connect 15 0 16 0;
#X connect 16 0 11 0;
#X connect 16 1 19 0;
#X connect 17 0 5 0;
#X connect 18 0 17 0;
#X connect 19 0 18 0;
#X connect 19 1 21 0;
#X connect 19 2 22 0;
#X connect 21 0 17 0;
#X connect 22 0 17 0;
#X connect 24 0 16 0;
#X connect 26 0 25 0;
#X connect 27 0 25 0;
#X connect 30 0 26 0;
#X connect 30 1 27 0;
#X connect 32 0 0 0;
#X coords 0 -1 1 1 25 25 2 15 100;
