#N canvas 882 472 455 386 10;
#X obj 57 225 f;
#X obj 18 111 inlet;
#X obj 270 68 ctlin \$1 2;
#X obj 69 273 line;
#X obj 57 249 pack f f;
#X obj 352 69 ctlin \$2 2;
#X obj 23 277 bng 15 250 50 0 empty empty empty 17 7 0 10 -262144 -1
-1;
#X obj 107 221 f;
#X obj 257 249 bng 15 250 50 0 empty empty empty 17 7 0 10 -262144
-1 -1;
#X floatatom 52 304 5 0 0 0 - - -;
#X obj 18 143 t b b b;
#X obj 106 150 hsl 128 15 0 127 0 0 empty empty empty -2 -8 0 10 -228856
-4160 -1 8300 1;
#X obj 106 133 hsl 128 15 0 127 0 0 empty empty empty -2 -8 0 10 -228856
-4160 -1 6500 1;
#X obj 197 264 pack f f;
#X msg 151 233 0;
#X obj 150 214 loadbang;
#X obj 107 177 * 3;
#X obj 121 312 ctlout \$1 1;
#X obj 214 202 delay 1;
#X obj 188 116 tgl 15 0 empty empty bypass 17 7 0 10 -262144 -1 -1
0 1;
#X obj 287 26 inlet;
#X obj 269 116 gate 2;
#X obj 299 90 + 1;
#X obj 340 118 gate 2;
#X obj 337 317 ctlout \$2 1;
#X connect 0 0 4 0;
#X connect 1 0 10 0;
#X connect 2 0 21 0;
#X connect 3 0 9 0;
#X connect 3 0 17 0;
#X connect 4 0 6 0;
#X connect 4 0 3 0;
#X connect 5 0 23 0;
#X connect 7 0 4 1;
#X connect 7 0 13 1;
#X connect 10 0 0 0;
#X connect 10 1 7 0;
#X connect 10 2 18 0;
#X connect 11 0 16 0;
#X connect 12 0 0 1;
#X connect 13 0 3 0;
#X connect 14 0 13 0;
#X connect 15 0 14 0;
#X connect 16 0 7 1;
#X connect 16 0 18 1;
#X connect 18 0 8 0;
#X connect 18 0 13 0;
#X connect 19 0 22 0;
#X connect 20 0 19 0;
#X connect 21 0 12 0;
#X connect 21 1 17 0;
#X connect 22 0 21 1;
#X connect 22 0 23 1;
#X connect 23 0 11 0;
#X connect 23 1 24 0;
#X coords 0 -1 1 1 145 70 1 100 100;
