#N canvas 531 326 455 386 10;
#X obj 57 225 f;
#X obj 18 111 inlet;
#X obj 69 273 line;
#X obj 57 249 pack f f;
#X obj 23 277 bng 15 250 50 0 empty empty empty 17 7 0 10 -262144 -1
-1;
#X obj 107 221 f;
#X obj 257 249 bng 15 250 50 0 empty empty empty 17 7 0 10 -262144
-1 -1;
#X floatatom 52 304 5 0 0 0 - - -;
#X obj 18 143 t b b b;
#X obj 106 150 hsl 128 15 0 127 0 0 empty empty empty -2 -8 0 10 -228856
-4160 -1 7300 1;
#X obj 106 133 hsl 128 15 0 127 0 0 empty empty empty -2 -8 0 10 -228856
-4160 -1 12700 1;
#X obj 197 264 pack f f;
#X msg 151 233 0;
#X obj 150 214 loadbang;
#X obj 107 177 * 3;
#X obj 121 337 ctlout \$1 1;
#X obj 214 202 delay 1;
#X obj 188 116 tgl 15 0 empty empty bypass 17 7 0 10 -262144 -1 -1
127 127;
#X obj 287 26 inlet;
#X obj 269 116 gate 2;
#X obj 267 91 + 1;
#X obj 340 118 gate 2;
#X obj 337 317 ctlout \$2 1;
#X obj 304 70 ctlin \$1;
#X obj 376 75 ctlin \$2;
#X obj 125 44 ctlin \$3;
#X obj 175 307 spigot;
#X msg 188 75 0;
#X obj 188 49 loadbang;
#X obj 297 285 tgl 15 0 empty empty empty 17 7 0 10 -262144 -1 -1 0
1;
#X msg 290 259 0;
#X msg 322 259 1;
#X obj 299 231 sel 127;
#X connect 0 0 3 0;
#X connect 1 0 8 0;
#X connect 2 0 7 0;
#X connect 2 0 26 0;
#X connect 3 0 4 0;
#X connect 3 0 2 0;
#X connect 5 0 3 1;
#X connect 5 0 11 1;
#X connect 8 0 0 0;
#X connect 8 1 5 0;
#X connect 8 2 16 0;
#X connect 9 0 14 0;
#X connect 10 0 0 1;
#X connect 11 0 2 0;
#X connect 12 0 11 0;
#X connect 13 0 12 0;
#X connect 14 0 5 1;
#X connect 14 0 16 1;
#X connect 16 0 6 0;
#X connect 16 0 11 0;
#X connect 17 0 20 0;
#X connect 17 0 32 0;
#X connect 18 0 17 0;
#X connect 19 0 10 0;
#X connect 19 1 15 0;
#X connect 20 0 21 0;
#X connect 20 0 19 0;
#X connect 21 0 9 0;
#X connect 21 1 22 0;
#X connect 23 0 19 1;
#X connect 24 0 21 1;
#X connect 25 0 17 0;
#X connect 26 0 15 0;
#X connect 27 0 17 0;
#X connect 28 0 27 0;
#X connect 29 0 26 1;
#X connect 30 0 29 0;
#X connect 31 0 29 0;
#X connect 32 0 30 0;
#X connect 32 1 31 0;
#X coords 0 -1 1 1 145 70 1 100 100;
