#N canvas 153 128 717 388 10;
#X text 451 8 GEM object;
#X obj 8 179 cnv 15 430 95 empty empty empty 20 12 0 14 -233017 -66577
0;
#X text 17 191 Inlets:;
#X text 41 204 Inlet 1: gemlist;
#X text 17 236 Outlets:;
#X obj 8 102 cnv 15 430 70 empty empty empty 20 12 0 14 -195568 -66577
0;
#X text 17 101 Arguments:;
#X obj 8 76 cnv 15 430 20 empty empty empty 20 12 0 14 -233017 -66577
0;
#X obj 447 76 cnv 15 260 300 empty empty empty 20 12 0 14 -228992 -66577
0;
#X text 451 59 Example:;
#X obj 598 307 cnv 15 100 60 empty empty empty 20 12 0 14 -195568 -66577
0;
#N canvas 0 0 450 300 gemwin 0;
#X obj 132 136 gemwin;
#X obj 67 89 outlet;
#X obj 67 10 inlet;
#X obj 67 41 route create;
#X msg 67 70 set destroy;
#X msg 142 68 set create;
#X msg 132 112 create \, 1;
#X msg 198 112 destroy;
#X connect 2 0 3 0;
#X connect 3 0 4 0;
#X connect 3 0 6 0;
#X connect 3 1 5 0;
#X connect 3 1 7 0;
#X connect 4 0 1 0;
#X connect 5 0 1 0;
#X connect 6 0 0 0;
#X connect 7 0 0 0;
#X restore 603 346 pd gemwin;
#X msg 603 327 destroy;
#X text 599 306 Create window:;
#X text 50 12 Synopsis: [GLSL_add];
#X text 71 31 Class: shader object;
#X text 60 140 3 : X-size of the texture outputed;
#X text 60 150 4 : Y-size of the texture outputed;
#X text 60 120 1 : texture unit used for the first source;
#X text 60 130 2 : texture unit used for the second source;
#X text 41 219 Inlet 2: gemlist;
#X text 35 249 Outlet 1: texture ID;
#X obj 480 198 cnv 15 200 30 empty empty empty 20 12 0 14 -4034 -66577
0;
#X obj 639 154 gemhead;
#X msg 541 130 open \$1;
#X obj 541 106 openpanel;
#X obj 541 84 bng 15 250 50 0 empty empty empty 17 7 0 10 -262144 -1
-1;
#X obj 459 235 pix_texture;
#X obj 492 154 gemhead;
#X obj 459 276 rectangle 2 1.5;
#X obj 459 256 translateXYZ 1 -1 0;
#X obj 459 94 gemhead 51;
#X obj 492 175 pix_image;
#X obj 639 175 pix_image;
#X msg 621 130 open \$1;
#X obj 621 106 openpanel;
#X obj 621 84 bng 15 250 50 0 empty empty empty 17 7 0 10 -262144 -1
-1;
#X text 17 77 Description: use two textures of any size;
#X obj 531 28 r cam;
#X obj 628 33 r canny;
#X obj 492 206 GLSL_multitexture 3 4 960 720;
#X connect 11 0 12 0;
#X connect 12 0 11 0;
#X connect 23 0 33 0;
#X connect 24 0 32 0;
#X connect 25 0 24 0;
#X connect 26 0 25 0;
#X connect 27 0 30 0;
#X connect 28 0 32 0;
#X connect 30 0 29 0;
#X connect 31 0 27 0;
#X connect 32 0 40 0;
#X connect 33 0 40 1;
#X connect 34 0 33 0;
#X connect 35 0 34 0;
#X connect 36 0 35 0;
#X connect 38 0 40 0;
#X connect 39 0 40 1;
#X connect 40 0 27 1;
