#N canvas 1227 552 450 329 10;
#X obj 14 14 inlet~;
#X obj 15 206 bp~;
#X obj 50 60 vsl 20 128 0 127 0 0 empty empty F 0 -9 0 10 -262144 -1
-1 0 1;
#X obj 70 60 vsl 20 128 0 127 0 0 empty empty Q 0 -9 0 10 -262144 -1
-1 0 1;
#X obj 101 266 spigot;
#X obj 95 42 tgl 15 0 empty empty empty 17 7 0 10 -262144 -1 -1 0 1
;
#X obj 90 60 vsl 20 128 0 127 0 0 empty empty empty 0 -9 0 10 -262144
-1 -1 0 1;
#X obj 15 239 env~ 256 128;
#X obj 16 268 outlet;
#X obj 87 -14 r bp_monitor\$1;
#X obj 87 13 route freq q;
#X obj 156 44 print bp_monitor \$1 unknown message:;
#X connect 0 0 1 0;
#X connect 1 0 7 0;
#X connect 2 0 1 1;
#X connect 3 0 1 2;
#X connect 4 0 6 0;
#X connect 5 0 4 1;
#X connect 7 0 4 0;
#X connect 7 0 8 0;
#X connect 9 0 10 0;
#X connect 10 0 2 0;
#X connect 10 1 3 0;
#X connect 10 2 11 0;
#X coords 0 -1 1 1 60 152 2 50 40;
