#N canvas 778 474 450 300 10;
#X obj 100 100 tgl 17 0 0-tgl_snd 0-tgl_rcv empty 17 7 0 10 -166441
-166441 -166441 0 1;
#X msg 162 168 16;
#X msg 162 205 \; \$0-tgl_rcv color \$1 \$1 1;
#X msg 197 170 1;
#X obj 146 133 sel 1;
#X obj 100 68 inlet;
#X obj 100 133 outlet;
#X connect 0 0 6 0;
#X connect 0 0 4 0;
#X connect 1 0 2 0;
#X connect 3 0 2 0;
#X connect 4 0 1 0;
#X connect 4 1 3 0;
#X connect 5 0 0 0;
#X coords 0 -1 1 1 17 17 2 100 100;
