#N canvas 302 448 450 300 10;
#X obj 32 131 metro 100;
#X obj 169 102 tgl 15 0 empty empty empty 17 7 0 10 -262144 -1 -1 1
1;
#X floatatom 100 117 5 0 0 0 - - -;
#X floatatom 102 137 5 0 0 0 - - -;
#X obj 26 190 drunk 255 10;
#X obj 168 19 inlet;
#X floatatom 146 139 5 0 0 0 - - -;
#X obj 216 16 inlet;
#X obj 30 269 outlet;
#X obj 50 27 inlet;
#X obj 29 244 / 255;
#X obj 28 219 +;
#X obj 160 54 * 255;
#X obj 210 51 * 255;
#X obj 59 164 int;
#X obj 107 24 inlet;
#X connect 0 0 4 0;
#X connect 1 0 0 0;
#X connect 2 0 0 1;
#X connect 3 0 14 0;
#X connect 4 0 11 0;
#X connect 5 0 12 0;
#X connect 6 0 11 1;
#X connect 7 0 13 0;
#X connect 9 0 1 0;
#X connect 10 0 8 0;
#X connect 11 0 10 0;
#X connect 12 0 3 0;
#X connect 13 0 6 0;
#X connect 14 0 4 1;
#X connect 15 0 2 0;
#X coords 0 -1 1 1 85 60 1 100 100;
