#N canvas 2406 600 642 358 10;
#X obj 373 257 line;
#X obj 320 210 pack 1 100;
#X obj 451 184 pack 0 100;
#X obj -21 22 inlet;
#X obj 320 297 outlet;
#X obj 451 117 delay 100;
#X obj 327 166 f;
#X obj 451 156 f;
#X floatatom 204 224 5 0 0 1 attack #0r-attack #0-attack;
#X floatatom 204 262 5 0 0 1 sustain #0r-sustain #0-sustain;
#X floatatom 204 243 5 0 0 1 hold #0r-hold #0-hold;
#X floatatom 204 205 5 0 0 1 amount #0r-amount #0-amount;
#X floatatom 204 281 5 0 0 1 release #0r-release #0-release;
#X obj 327 81 b;
#X obj -21 54 route amount attack hold sustain release;
#X obj -21 167 s \$0r-amount;
#X obj 24 142 s \$0r-attack;
#X obj 67 120 s \$0r-hold;
#X obj 120 98 s \$0r-sustain;
#X obj 165 78 s \$0r-release;
#X obj 368 170 r \$0-attack;
#X obj 344 130 r \$0-amount;
#X obj 504 88 r \$0-hold;
#X obj 527 126 r \$0-release;
#X obj 505 161 r \$0-sustain;
#X connect 0 0 4 0;
#X connect 1 0 0 0;
#X connect 2 0 0 0;
#X connect 3 0 14 0;
#X connect 5 0 7 0;
#X connect 6 0 1 0;
#X connect 7 0 2 0;
#X connect 13 0 6 0;
#X connect 13 0 5 0;
#X connect 14 0 15 0;
#X connect 14 1 16 0;
#X connect 14 2 17 0;
#X connect 14 3 18 0;
#X connect 14 4 19 0;
#X connect 14 5 13 0;
#X connect 20 0 1 1;
#X connect 21 0 6 1;
#X connect 22 0 5 1;
#X connect 23 0 7 1;
#X connect 24 0 2 1;
#X coords 0 -1 1 1 86 100 2 200 200;
