#N canvas 1048 291 611 391 10;
#X msg 163 232 hold \$1;
#X msg 87 234 attack \$1;
#X msg 14 235 amount \$1;
#X msg 228 231 sustain \$1;
#X msg 310 228 release \$1;
#X obj 14 210 r \$0-amount;
#X obj 88 209 r \$0-attack;
#X obj 165 209 r \$0-hold;
#X obj 230 208 r \$0-sustain;
#X obj 317 206 r \$0-release;
#X obj 13 268 outlet;
#X obj 11 -61 inlet;
#X obj 10 -40 route amount attack hold sustain release;
#X obj 11 -14 s \$0r-amount;
#X obj 100 -13 s \$0r-attack;
#X obj 180 -13 s \$0r-hold;
#X obj 257 -10 s \$0r-sustain;
#X obj 345 -17 s \$0r-release;
#X obj 16 13 hsl 128 25 0.01 1 0 0 \$0-amount \$0r-amount amount 44
12 0 10 -262144 -1 -1 10500 1;
#X obj 16 41 hsl 128 25 0.01 250 1 0 \$0-attack \$0r-attack attack
44 12 0 10 -262144 -1 -1 3400 1;
#X obj 16 69 hsl 128 25 0.01 250 0 0 \$0-hold \$0r-hold hold 50 12
0 10 -262144 -1 -1 3600 1;
#X obj 16 97 hsl 128 25 0.01 250 0 0 \$0-sustain \$0r-sustain sustain
44 12 0 10 -262144 -1 -1 11500 1;
#X obj 16 125 hsl 128 25 0.01 1 1 0 \$0-release \$0r-release release
44 12 0 10 -262144 -1 -1 1700 1;
#X connect 0 0 10 0;
#X connect 1 0 10 0;
#X connect 2 0 10 0;
#X connect 3 0 10 0;
#X connect 4 0 10 0;
#X connect 5 0 2 0;
#X connect 6 0 1 0;
#X connect 7 0 0 0;
#X connect 8 0 3 0;
#X connect 9 0 4 0;
#X connect 11 0 12 0;
#X connect 12 0 13 0;
#X connect 12 1 14 0;
#X connect 12 2 15 0;
#X connect 12 3 16 0;
#X connect 12 4 17 0;
#X coords 0 -1 1 1 139 143 2 10 10;
