#N canvas 2376 586 611 391 10;
#X floatatom 14 34 5 0 0 1 attack #0r-attack #0-attack;
#X floatatom 14 72 5 0 0 1 sustain #0r-sustain #0-sustain;
#X floatatom 14 53 5 0 0 1 hold #0r-hold #0-hold;
#X floatatom 14 15 5 0 0 1 amount #0r-amount #0-amount;
#X floatatom 14 91 5 0 0 1 release #0r-release #0-release;
#X msg 163 142 hold \$1;
#X msg 87 144 attack \$1;
#X msg 14 145 amount \$1;
#X msg 228 141 sustain \$1;
#X msg 310 138 release \$1;
#X obj 14 120 r \$0-amount;
#X obj 88 119 r \$0-attack;
#X obj 165 119 r \$0-hold;
#X obj 230 118 r \$0-sustain;
#X obj 317 116 r \$0-release;
#X obj 13 178 outlet;
#X obj 11 -61 inlet;
#X obj 10 -40 route amount attack hold sustain release;
#X obj 11 -14 s \$0r-amount;
#X obj 100 -13 s \$0r-attack;
#X obj 180 -13 s \$0r-hold;
#X obj 257 -10 s \$0r-sustain;
#X obj 345 -17 s \$0r-release;
#X connect 5 0 15 0;
#X connect 6 0 15 0;
#X connect 7 0 15 0;
#X connect 8 0 15 0;
#X connect 9 0 15 0;
#X connect 10 0 7 0;
#X connect 11 0 6 0;
#X connect 12 0 5 0;
#X connect 13 0 8 0;
#X connect 14 0 9 0;
#X connect 16 0 17 0;
#X connect 17 0 18 0;
#X connect 17 1 19 0;
#X connect 17 2 20 0;
#X connect 17 3 21 0;
#X connect 17 4 22 0;
#X coords 0 -1 1 1 140 100 2 10 10;
