#N canvas 2211 527 672 358 10;
#X obj 373 257 line;
#X obj 320 210 pack 1 100;
#X obj 451 184 pack 0 100;
#X floatatom 357 138 5 0 0 1 attack #0-attack -;
#X floatatom 508 152 5 0 0 1 sustain #0-sustain -;
#X obj -21 22 inlet;
#X obj 320 297 outlet;
#X obj 451 117 delay 100;
#X floatatom 502 93 5 0 0 1 hold #0-hold -;
#X floatatom 340 111 5 0 0 1 amount #0-amount -;
#X floatatom 522 120 5 0 0 1 release #0-release -;
#X obj 327 166 f;
#X obj 451 156 f;
#X floatatom 204 224 5 0 0 1 attack #0r-attack #0-attack;
#X floatatom 204 262 5 0 0 1 sustain #0r-sustain #0-sustain;
#X floatatom 204 243 5 0 0 1 hold #0r-hold #0-hold;
#X floatatom 204 205 5 0 0 1 amount #0r-amount #0-amount;
#X floatatom 204 281 5 0 0 1 release #0r-release #0-release;
#X obj 327 81 b;
#X obj -21 54 route amount attack hold sustain release;
#X obj -21 167 s \$0r-amount;
#X obj 24 142 s \$0r-attack;
#X obj 67 120 s \$0r-hold;
#X obj 120 98 s \$0r-sustain;
#X obj 165 78 s \$0r-release;
#X connect 0 0 6 0;
#X connect 1 0 0 0;
#X connect 2 0 0 0;
#X connect 3 0 1 1;
#X connect 4 0 2 1;
#X connect 5 0 19 0;
#X connect 7 0 12 0;
#X connect 8 0 7 1;
#X connect 9 0 11 1;
#X connect 10 0 12 1;
#X connect 11 0 1 0;
#X connect 12 0 2 0;
#X connect 18 0 11 0;
#X connect 18 0 7 0;
#X connect 19 0 20 0;
#X connect 19 1 21 0;
#X connect 19 2 22 0;
#X connect 19 3 23 0;
#X connect 19 4 24 0;
#X connect 19 5 18 0;
#X coords 0 -1 1 1 86 100 2 200 200;
