#N canvas -8 25 1265 688 10;
#X obj -141 116 pgmin;
#X floatatom -99 165 5 0 0 3 Midi_Channel - -;
#X floatatom -141 161 5 0 0 2 Program_Change_Number - pc_nr;
#X floatatom -146 262 5 0 0 3 LeftPedalControlValue - LeftPedalControlValueOut
;
#X floatatom -101 245 5 0 0 2 Midi_Channel - -;
#X floatatom 197 347 5 0 0 2 split_pgmin_messages_by_banks pc_nr -
;
#X obj 197 410 moses 11;
#X obj 213 434 moses 21;
#X obj 229 457 moses 31;
#X obj 251 482 moses 41;
#X obj 271 503 moses 51;
#X obj 157 272 ctlout;
#X floatatom 174 235 5 0 0 3 LPControlChannelOut LPControlChannelOut
-;
#X floatatom 151 196 5 0 0 3 Control_Value LeftPedalControlValueOut
-;
#X obj 475 66 hradio 20 1 0 2 empty empty MidiOut_Port 0 -8 0 10 -262144
-1 -1 1;
#X obj 477 100 * 16;
#X obj 285 530 moses 61;
#X obj 306 555 moses 71;
#X obj 327 581 moses 81;
#X obj 345 604 moses 91;
#X obj 368 630 moses 101;
#X obj 401 0 r MidiOutSelector;
#X obj 402 58 print;
#X symbolatom 50 31 10 0 0 2 MidiOutPort - -;
#X symbolatom -148 29 30 0 0 2 Pedal_Parameter_Name PedalParameterName
-;
#X obj 254 118 s PedalParameterName;
#X msg -122 378 127;
#X obj -144 404 makenote;
#X obj -147 207 ctlin 27;
#X floatatom -5 262 5 0 0 3 RightPedalControlValue - RightPedalControlValueOut
;
#X floatatom 34 244 5 0 0 2 Midi_Channel - -;
#X obj -6 209 ctlin 7;
#X obj 354 273 ctlout;
#X floatatom 365 237 5 0 0 3 RPControlChannelOut RPControlChannelOut
-;
#X floatatom 354 188 5 0 0 3 Control_Value RightPedalControlValueOut
-;
#X floatatom 411 222 5 0 0 3 MidiChannelOut MidiChannelOut -;
#X obj 754 532 loadbang;
#X msg 823 584 27;
#X obj 828 606 s LPControlChannelOut;
#X msg 794 622 7;
#X obj 798 644 s RPControlChannelOut;
#X msg -85 379 10;
#X obj 648 547 bng 15 250 50 0 empty empty empty 17 7 0 10 -262144
-1 -1;
#X msg 641 599 0 IACOut;
#X obj 642 645 s MidiOutSelector;
#X obj 642 621 pack f s;
#X obj 488 723 s MidiOutSelector;
#X obj 488 699 pack f s;
#X msg 488 677 1 PocketPod;
#X obj 486 655 bng 15 250 50 0 empty empty empty 17 7 0 10 -262144
-1 -1;
#X obj 180 148 s LPControlChannelOut;
#X obj 765 679 s LPMidiChannelOut;
#X msg 761 657 1;
#X obj 410 24 unpack f s;
#X obj 221 194 r MidiChannelOut;
#X floatatom 222 236 5 0 0 0 - - -;
#X obj 283 915 send PedalParameter;
#X obj 180 89 r PedalParameter;
#X obj -144 426 noteout 1;
#X msg 331 707 13 Ampdrive;
#X msg 330 742 17 AmpChannelVolume;
#X msg 334 775 18 ReverbLevel;
#X msg 335 807 51 ChorusFlangeSpeed;
#X msg 335 839 42 CompressionRatio;
#X obj 180 119 unpack f s;
#X obj 475 159 s MidiChannelOut;
#X obj 476 133 + 1;
#X obj 283 885 pack f s;
#X obj 203 676 select 91 92 93 94 95 96 97 98 99 100 90;
#X obj 288 362 moses 91;
#X obj 370 447 s MidiOutSelector;
#X obj 370 423 pack f s;
#X msg 370 401 1 PocketPod;
#X obj 368 379 bng 15 250 50 0 empty empty empty 17 7 0 10 -262144
-1 -1;
#X obj 59 501 pgmout;
#X obj 50 449 r MidiChannelOut;
#X floatatom 98 475 5 0 0 0 - - -;
#X obj 149 474 - 9;
#X obj 73 592 r MidiChannelOut;
#X floatatom 209 486 5 0 0 0 - - -;
#X obj 351 519 s MidiOutSelector;
#X obj 351 495 pack f s;
#X msg 351 473 1 PocketPod;
#X obj 349 451 bng 15 250 50 0 empty empty empty 17 7 0 10 -262144
-1 -1;
#X obj 12 655 ctlout;
#X obj 6 561 select 21 22 23 24 25 26 27 28 29 30 20;
#X obj 10 592 120;
#X obj 40 592 64;
#X obj 625 896 r MidiChannelOut;
#X obj 581 923 ctlout;
#X obj 455 705 bng 15 250 50 0 empty empty empty 17 7 0 10 -262144
-1 -1;
#X msg 335 863 4 WahPosition;
#X obj 596 884 43;
#X obj 556 861 t b b;
#X obj 503 833 127;
#X obj 459 790 spigot;
#X obj 497 813 bng 15 250 50 0 empty empty empty 17 7 0 10 -262144
-1 -1;
#X obj 490 767 tgl 15 0 empty empty empty 17 7 0 10 -262144 -1 -1 0
1;
#X obj 507 790 spigot;
#X obj 558 814 bng 15 250 50 0 empty empty empty 17 7 0 10 -262144
-1 -1;
#X obj 515 766 tgl 15 0 empty empty empty 17 7 0 10 -262144 -1 -1 1
1;
#X obj 459 743 t b b;
#X obj 557 833 0;
#X connect 0 0 2 0;
#X connect 0 1 1 0;
#X connect 5 0 6 0;
#X connect 5 0 69 0;
#X connect 6 0 26 0;
#X connect 6 0 41 0;
#X connect 6 0 27 0;
#X connect 6 1 7 0;
#X connect 7 0 73 0;
#X connect 7 0 77 0;
#X connect 7 1 8 0;
#X connect 8 0 83 0;
#X connect 8 0 79 0;
#X connect 8 1 9 0;
#X connect 9 1 10 0;
#X connect 10 1 16 0;
#X connect 12 0 11 1;
#X connect 13 0 11 0;
#X connect 14 0 15 0;
#X connect 15 0 66 0;
#X connect 16 1 17 0;
#X connect 17 1 18 0;
#X connect 18 1 19 0;
#X connect 19 0 42 0;
#X connect 19 1 20 0;
#X connect 20 0 49 0;
#X connect 20 0 68 0;
#X connect 21 0 22 0;
#X connect 21 0 53 0;
#X connect 26 0 27 1;
#X connect 27 0 58 0;
#X connect 27 1 58 1;
#X connect 28 0 3 0;
#X connect 28 1 4 0;
#X connect 31 0 29 0;
#X connect 31 1 30 0;
#X connect 33 0 32 1;
#X connect 34 0 32 0;
#X connect 35 0 32 2;
#X connect 36 0 37 0;
#X connect 36 0 39 0;
#X connect 36 0 43 0;
#X connect 36 0 52 0;
#X connect 37 0 38 0;
#X connect 39 0 40 0;
#X connect 41 0 27 2;
#X connect 42 0 43 0;
#X connect 42 0 37 0;
#X connect 43 0 45 0;
#X connect 45 0 44 0;
#X connect 47 0 46 0;
#X connect 48 0 47 0;
#X connect 49 0 48 0;
#X connect 52 0 51 0;
#X connect 53 0 14 0;
#X connect 53 1 23 0;
#X connect 54 0 55 0;
#X connect 55 0 11 2;
#X connect 57 0 64 0;
#X connect 59 0 67 0;
#X connect 60 0 67 0;
#X connect 61 0 67 0;
#X connect 62 0 67 0;
#X connect 63 0 67 0;
#X connect 64 0 50 0;
#X connect 64 1 25 0;
#X connect 66 0 65 0;
#X connect 67 0 56 0;
#X connect 68 1 59 0;
#X connect 68 2 60 0;
#X connect 68 3 61 0;
#X connect 68 4 62 0;
#X connect 68 5 63 0;
#X connect 68 6 90 0;
#X connect 71 0 70 0;
#X connect 72 0 71 0;
#X connect 73 0 72 0;
#X connect 75 0 74 1;
#X connect 76 0 74 0;
#X connect 77 0 76 0;
#X connect 78 0 84 2;
#X connect 79 0 85 0;
#X connect 81 0 80 0;
#X connect 82 0 81 0;
#X connect 83 0 82 0;
#X connect 85 0 86 0;
#X connect 85 0 87 0;
#X connect 85 1 86 0;
#X connect 85 1 87 0;
#X connect 86 0 84 0;
#X connect 87 0 84 1;
#X connect 88 0 89 2;
#X connect 90 0 101 0;
#X connect 91 0 67 0;
#X connect 92 0 89 1;
#X connect 93 0 92 0;
#X connect 93 1 91 0;
#X connect 94 0 89 0;
#X connect 94 0 93 0;
#X connect 95 0 96 0;
#X connect 96 0 94 0;
#X connect 97 0 95 1;
#X connect 98 0 99 0;
#X connect 99 0 102 0;
#X connect 100 0 98 1;
#X connect 101 0 95 0;
#X connect 101 0 97 0;
#X connect 101 1 98 0;
#X connect 101 1 100 0;
#X connect 102 0 93 0;
#X connect 102 0 89 0;
