#N canvas 917 283 297 305 10;
#X obj 47 91 / 32768;
#X obj 18 121 gemhead;
#X obj 17 149 b;
#X obj 68 120 / 1000;
#X obj 89 197 +;
#X obj 87 226 f;
#X obj 46 63 moses -4096;
#X obj 128 63 moses 4096;
#X obj 67 169 f;
#X msg 107 149 0;
#X obj 44 25 inlet;
#X obj 87 252 outlet;
#X obj 143 120 hsl 120 25 1000 5 1 0 empty empty speed 5 12 0 10 -262144
-1 -1 8300 1;
#X obj 238 31 inlet;
#X connect 0 0 3 0;
#X connect 1 0 2 0;
#X connect 2 0 8 0;
#X connect 3 0 8 1;
#X connect 4 0 5 0;
#X connect 5 0 4 1;
#X connect 5 0 11 0;
#X connect 6 0 0 0;
#X connect 6 1 7 0;
#X connect 7 0 9 0;
#X connect 7 1 0 0;
#X connect 8 0 4 0;
#X connect 9 0 8 1;
#X connect 10 0 6 0;
#X connect 12 0 3 1;
#X connect 13 0 12 0;
#X coords 0 -1 1 1 125 45 1 140 100;
