#N canvas 801 576 532 382 10;
#X floatatom 137 52 5 0 0 0 - - -;
#X obj 137 28 ctlin 41 1;
#X obj 145 282 * 3303;
#X obj 145 336 ctlout 41 2;
#X floatatom -1 315 10 0 0 0 - - -;
#X obj 137 121 moses 1;
#X obj 176 153 moses 42;
#X obj 221 182 moses 84;
#X floatatom 176 248 5 0 0 0 - - -;
#X floatatom 266 249 5 0 0 0 - - -;
#X floatatom 221 248 5 0 0 0 - - -;
#X obj 176 218 log;
#X obj 221 218 log;
#X obj 266 219 log;
#X floatatom 161 307 5 0 0 0 - - -;
#X connect 0 0 5 0;
#X connect 1 0 0 0;
#X connect 2 0 3 0;
#X connect 2 0 4 0;
#X connect 5 1 6 0;
#X connect 5 1 11 0;
#X connect 6 1 7 0;
#X connect 7 0 12 0;
#X connect 7 1 13 0;
#X connect 8 0 2 0;
#X connect 11 0 8 0;
#X connect 12 0 10 0;
#X connect 13 0 9 0;
#X connect 14 0 3 0;
