#N canvas 336 375 1348 655 12;
#X obj 12 -102 notein;
#X floatatom 13 -75 5 0 0 0 - - -;
#X floatatom 50 -74 5 0 0 0 - - -;
#X floatatom 79 -77 5 0 0 0 - - -;
#X obj 130 -107 ctlin;
#X floatatom 168 -77 5 0 0 0 - - -;
#X floatatom 130 -79 5 0 0 0 - - -;
#X floatatom 240 -76 5 0 0 0 - - -;
#X obj 130 -54 pack 0 0;
#X obj 507 2 / 127;
#X obj 556 2 / 127;
#X obj 606 2 / 127;
#X obj 516 31 s fader2;
#X obj 575 31 s fader3;
#X obj 634 31 s fader4;
#X obj 742 2 / 127;
#X obj 792 2 / 127;
#X obj 841 2 / 127;
#X obj 692 31 s fader5;
#X obj 751 31 s fader6;
#X obj 811 31 s fader7;
#X obj 870 31 s fader8;
#X obj 530 168 vsl 15 50 0 127 0 0 empty empty 1 0 -9 0 10 -262144
-1 -1 4861 1;
#X obj 550 168 vsl 15 50 0 127 0 0 empty empty 2 0 -9 0 10 -262144
-1 -1 3164 1;
#X obj 570 168 vsl 15 50 0 127 0 0 empty empty 3 0 -9 0 10 -262144
-1 -1 2971 1;
#X obj 590 168 vsl 15 50 0 127 0 0 empty empty 4 0 -9 0 10 -262144
-1 -1 270 1;
#X obj 610 168 vsl 15 50 0 127 0 0 empty empty 5 0 -9 0 10 -262144
-1 -1 39 1;
#X obj 630 168 vsl 15 50 0 127 0 0 empty empty 6 0 -9 0 10 -262144
-1 -1 3048 1;
#X obj 650 168 vsl 15 50 0 127 0 0 empty empty 7 0 -9 0 10 -262144
-1 -1 0 1;
#X obj 670 168 vsl 15 50 0 127 0 0 empty empty 8 0 -9 0 10 -262144
-1 -1 0 1;
#X obj 502 -95 r \$0-ctlin;
#X obj 130 -32 s \$0-ctlin;
#X obj 13 -32 s \$0-notein;
#X obj 13 -53 pack 0 0;
#X obj 2 56 / 127;
#X obj 51 56 / 127;
#X obj 101 56 / 127;
#X obj 150 56 / 127;
#X obj 238 56 / 127;
#X obj 287 56 / 127;
#X obj 337 56 / 127;
#X obj 386 56 / 127;
#X obj 312 168 vsl 15 50 0 127 0 0 empty empty 1 0 -9 0 10 -262144
-1 -1 579 1;
#X obj 332 168 vsl 15 50 0 127 0 0 empty empty 2 0 -9 0 10 -262144
-1 -1 502 1;
#X obj 352 168 vsl 15 50 0 127 0 0 empty empty 3 0 -9 0 10 -262144
-1 -1 617 1;
#X obj 372 168 vsl 15 50 0 127 0 0 empty empty 4 0 -9 0 10 -262144
-1 -1 3665 1;
#X obj 392 168 vsl 15 50 0 127 0 0 empty empty 5 0 -9 0 10 -262144
-1 -1 0 1;
#X obj 411 168 vsl 15 50 0 127 0 0 empty empty 6 0 -9 0 10 -262144
-1 -1 0 1;
#X obj 431 168 vsl 15 50 0 127 0 0 empty empty 7 0 -9 0 10 -262144
-1 -1 0 1;
#X obj 451 168 vsl 15 50 0 127 0 0 empty empty 8 0 -9 0 10 -262144
-1 -1 0 1;
#X obj 2 7 r \$0-ctlin;
#X obj 1 85 s rot1;
#X obj 60 85 s rot2;
#X obj 120 85 s rot3;
#X obj 179 85 s rot4;
#X obj 237 85 s rot5;
#X obj 296 85 s rot6;
#X obj 356 85 s rot7;
#X obj 415 85 s rot8;
#X obj 672 4 / 127;
#X obj 3 31 route 21 22 23 24 25 26 27 28;
#X obj 530 225 tgl 15 0 empty empty empty 17 7 0 10 -262144 -1 -1 -127
-127;
#X obj 550 225 tgl 15 0 empty empty empty 17 7 0 10 -262144 -1 -1 -127
-127;
#X text 311 132 rot;
#X text 528 133 fader;
#X obj 570 225 tgl 15 0 empty empty empty 17 7 0 10 -262144 -1 -1 -127
-127;
#X obj 590 225 tgl 15 0 empty empty empty 17 7 0 10 -262144 -1 -1 -127
-127;
#X obj 610 225 tgl 15 0 empty empty empty 17 7 0 10 -262144 -1 -1 -127
-127;
#X obj 630 225 tgl 15 0 empty empty empty 17 7 0 10 -262144 -1 -1 0
1;
#X obj 650 225 tgl 15 0 empty empty empty 17 7 0 10 -262144 -1 -1 0
1;
#X obj 670 225 tgl 15 0 empty empty empty 17 7 0 10 -262144 -1 -1 0
-127;
#X obj 707 114 - 127;
#X obj 710 54 r \$0-ctlin;
#X obj 708 85 route 81 82 83 84 85 86 87 88;
#X obj 751 115 - 127;
#X obj 797 116 - 127;
#X obj 841 117 - 127;
#X obj 886 115 - 127;
#X obj 930 116 - 127;
#X obj 973 117 - 127;
#X obj 1020 118 - 127;
#X obj 530 243 tgl 15 0 empty empty empty 17 7 0 10 -262144 -1 -1 0
-127;
#X obj 550 243 tgl 15 0 empty empty empty 17 7 0 10 -262144 -1 -1 0
-127;
#X obj 570 243 tgl 15 0 empty empty empty 17 7 0 10 -262144 -1 -1 0
-127;
#X obj 590 243 tgl 15 0 empty empty empty 17 7 0 10 -262144 -1 -1 0
1;
#X obj 610 243 tgl 15 0 empty empty empty 17 7 0 10 -262144 -1 -1 0
1;
#X obj 630 243 tgl 15 0 empty empty empty 17 7 0 10 -262144 -1 -1 0
1;
#X obj 650 243 tgl 15 0 empty empty empty 17 7 0 10 -262144 -1 -1 0
1;
#X obj 670 243 tgl 15 0 empty empty empty 17 7 0 10 -262144 -1 -1 0
-127;
#X obj 705 261 - 127;
#X obj 708 201 r \$0-ctlin;
#X obj 749 262 - 127;
#X obj 795 263 - 127;
#X obj 839 264 - 127;
#X obj 884 262 - 127;
#X obj 928 263 - 127;
#X obj 972 264 - 127;
#X obj 1021 264 - 127;
#X obj 706 232 route 91 92 93 94 95 96 97 98;
#X obj 708 151 s toggle_r11;
#X obj 794 151 s toggle_r12;
#X obj 878 151 s toggle_r13;
#X obj 964 151 s toggle_r14;
#X obj 743 177 s toggle_r15;
#X obj 830 176 s toggle_r16;
#X obj 915 176 s toggle_r17;
#X obj 1000 176 s toggle_r18;
#X obj 706 295 s toggle_r21;
#X obj 791 295 s toggle_r22;
#X obj 875 295 s toggle_r23;
#X obj 961 295 s toggle_r24;
#X obj 741 320 s toggle_r25;
#X obj 827 320 s toggle_r26;
#X obj 913 320 s toggle_r27;
#X obj 997 320 s toggle_r28;
#X text 508 222 r1;
#X text 508 241 r2;
#X obj 1107 -7 bng 15 250 50 0 empty empty empty 17 7 0 10 -262144
-1 -1;
#X obj 1127 -7 bng 15 250 50 0 empty empty empty 17 7 0 10 -262144
-1 -1;
#X obj 1146 -7 bng 15 250 50 0 empty empty empty 17 7 0 10 -262144
-1 -1;
#X obj 1166 -7 bng 15 250 50 0 empty empty empty 17 7 0 10 -262144
-1 -1;
#X obj 1117 -27 bng 15 250 50 0 empty empty empty 17 7 0 10 -262144
-1 -1;
#X obj 1136 -27 bng 15 250 50 0 empty empty empty 17 7 0 10 -262144
-1 -1;
#X obj 1186 -7 bng 15 250 50 0 empty empty empty 17 7 0 10 -262144
-1 -1;
#X obj 1206 -7 bng 15 250 50 0 empty empty empty 17 7 0 10 -262144
-1 -1;
#X obj 1226 -7 bng 15 250 50 0 empty empty empty 17 7 0 10 -262144
-1 -1;
#X obj 1245 -7 bng 15 250 50 0 empty empty empty 17 7 0 10 -262144
-1 -1;
#X obj 1176 -27 bng 15 250 50 0 empty empty empty 17 7 0 10 -262144
-1 -1;
#X obj 1196 -27 bng 15 250 50 0 empty empty empty 17 7 0 10 -262144
-1 -1;
#X obj 1216 -27 bng 15 250 50 0 empty empty empty 17 7 0 10 -262144
-1 -1;
#X obj 968 -7 bng 15 250 50 0 empty empty empty 17 7 0 10 -262144 -1
-1;
#X obj 988 -7 bng 15 250 50 0 empty empty empty 17 7 0 10 -262144 -1
-1;
#X obj 1008 -7 bng 15 250 50 0 empty empty empty 17 7 0 10 -262144
-1 -1;
#X obj 1028 -7 bng 15 250 50 0 empty empty empty 17 7 0 10 -262144
-1 -1;
#X obj 978 -27 bng 15 250 50 0 empty empty empty 17 7 0 10 -262144
-1 -1;
#X obj 998 -27 bng 15 250 50 0 empty empty empty 17 7 0 10 -262144
-1 -1;
#X obj 1047 -7 bng 15 250 50 0 empty empty empty 17 7 0 10 -262144
-1 -1;
#X obj 1067 -7 bng 15 250 50 0 empty empty empty 17 7 0 10 -262144
-1 -1;
#X obj 1087 -7 bng 15 250 50 0 empty empty empty 17 7 0 10 -262144
-1 -1;
#X obj 1037 -27 bng 15 250 50 0 empty empty empty 17 7 0 10 -262144
-1 -1;
#X obj 1057 -27 bng 15 250 50 0 empty empty empty 17 7 0 10 -262144
-1 -1;
#X obj 1077 -27 bng 15 250 50 0 empty empty empty 17 7 0 10 -262144
-1 -1;
#X obj 968 -50 route 48 50 52 53 55 57 59 60 62 64 65 67 69 71 72;
#X obj 968 -94 r \$0-notein;
#X obj 979 -72 route 49 51 54 56 58 61 63 66 68 70;
#X obj 938 29 s note_c;
#X obj 958 53 s note_d;
#X obj 994 29 s note_e;
#X obj 1016 53 s note_f;
#X obj 1050 29 s note_g;
#X obj 1073 53 s note_a;
#X obj 1108 29 s note_h;
#X obj 311 225 tgl 15 0 empty empty empty 17 7 0 10 -262144 -1 -1 0
-127;
#X obj 331 225 tgl 15 0 empty empty empty 17 7 0 10 -262144 -1 -1 0
-127;
#X obj 351 225 tgl 15 0 empty empty empty 17 7 0 10 -262144 -1 -1 0
-127;
#X obj 371 225 tgl 15 0 empty empty empty 17 7 0 10 -262144 -1 -1 0
-127;
#X obj 391 225 tgl 15 0 empty empty empty 17 7 0 10 -262144 -1 -1 0
-127;
#X obj 411 225 tgl 15 0 empty empty empty 17 7 0 10 -262144 -1 -1 0
-127;
#X obj 431 225 tgl 15 0 empty empty empty 17 7 0 10 -262144 -1 -1 0
127;
#X obj 451 225 tgl 15 0 empty empty empty 17 7 0 10 -262144 -1 -1 0
-127;
#X obj -94 295 - 127;
#X obj -91 235 r \$0-ctlin;
#X obj -50 296 - 127;
#X obj -4 297 - 127;
#X obj 40 298 - 127;
#X obj 85 296 - 127;
#X obj 129 297 - 127;
#X obj 171 297 - 127;
#X obj 219 299 - 127;
#X obj 311 243 tgl 15 0 empty empty empty 17 7 0 10 -262144 -1 -1 0
-127;
#X obj 331 243 tgl 15 0 empty empty empty 17 7 0 10 -262144 -1 -1 0
-127;
#X obj 351 243 tgl 15 0 empty empty empty 17 7 0 10 -262144 -1 -1 0
-127;
#X obj 371 243 tgl 15 0 empty empty empty 17 7 0 10 -262144 -1 -1 0
-127;
#X obj 391 243 tgl 15 0 empty empty empty 17 7 0 10 -262144 -1 -1 0
-127;
#X obj 411 243 tgl 15 0 empty empty empty 17 7 0 10 -262144 -1 -1 0
-127;
#X obj 431 243 tgl 15 0 empty empty empty 17 7 0 10 -262144 -1 -1 0
127;
#X obj 451 243 tgl 15 0 empty empty empty 17 7 0 10 -262144 -1 -1 0
-127;
#X obj -96 442 - 127;
#X obj -93 382 r \$0-ctlin;
#X obj -52 443 - 127;
#X obj -6 444 - 127;
#X obj 38 445 - 127;
#X obj 83 443 - 127;
#X obj 127 444 - 127;
#X obj 170 445 - 127;
#X obj 220 445 - 127;
#X text 466 223 l1;
#X text 467 240 l2;
#X obj -93 332 s toggle_l11;
#X obj -7 332 s toggle_l12;
#X obj 77 332 s toggle_l13;
#X obj 163 332 s toggle_l14;
#X obj -58 358 s toggle_l15;
#X obj 29 357 s toggle_l16;
#X obj 117 357 s toggle_l17;
#X obj 199 357 s toggle_l18;
#X obj -96 475 s toggle_l21;
#X obj -10 476 s toggle_l22;
#X obj 74 476 s toggle_l23;
#X obj 160 476 s toggle_l24;
#X obj 196 501 s toggle_l28;
#X obj 112 501 s toggle_l27;
#X obj 26 501 s toggle_l26;
#X obj -60 501 s toggle_l25;
#X obj -95 413 route 71 72 73 74 75 76 77 78;
#X obj -93 266 route 51 52 53 54 55 56 57 58;
#X obj 440 1 / 127;
#X obj 447 30 s fader1;
#X obj 530 301 bng 15 250 50 0 empty empty empty 17 7 0 10 -262144
-1 -1;
#X obj 550 301 bng 15 250 50 0 empty empty empty 17 7 0 10 -262144
-1 -1;
#X obj 570 301 bng 15 250 50 0 empty empty empty 17 7 0 10 -262144
-1 -1;
#X obj 590 301 bng 15 250 50 0 empty empty empty 17 7 0 10 -262144
-1 -1;
#X obj 540 281 bng 15 250 50 0 empty empty empty 17 7 0 10 -262144
-1 -1;
#X obj 560 281 bng 15 250 50 0 empty empty empty 17 7 0 10 -262144
-1 -1;
#X obj 610 301 bng 15 250 50 0 empty empty empty 17 7 0 10 -262144
-1 -1;
#X obj 630 301 bng 15 250 50 0 empty empty empty 17 7 0 10 -262144
-1 -1;
#X obj 650 301 bng 15 250 50 0 empty empty empty 17 7 0 10 -262144
-1 -1;
#X obj 670 301 bng 15 250 50 0 empty empty empty 17 7 0 10 -262144
-1 -1;
#X obj 600 281 bng 15 250 50 0 empty empty empty 17 7 0 10 -262144
-1 -1;
#X obj 620 281 bng 15 250 50 0 empty empty empty 17 7 0 10 -262144
-1 -1;
#X obj 640 281 bng 15 250 50 0 empty empty empty 17 7 0 10 -262144
-1 -1;
#X obj 390 301 bng 15 250 50 0 empty empty empty 17 7 0 10 -262144
-1 -1;
#X obj 410 301 bng 15 250 50 0 empty empty empty 17 7 0 10 -262144
-1 -1;
#X obj 430 301 bng 15 250 50 0 empty empty empty 17 7 0 10 -262144
-1 -1;
#X obj 450 301 bng 15 250 50 0 empty empty empty 17 7 0 10 -262144
-1 -1;
#X obj 400 281 bng 15 250 50 0 empty empty empty 17 7 0 10 -262144
-1 -1;
#X obj 420 281 bng 15 250 50 0 empty empty empty 17 7 0 10 -262144
-1 -1;
#X obj 470 301 bng 15 250 50 0 empty empty empty 17 7 0 10 -262144
-1 -1;
#X obj 490 301 bng 15 250 50 0 empty empty empty 17 7 0 10 -262144
-1 -1;
#X obj 510 301 bng 15 250 50 0 empty empty empty 17 7 0 10 -262144
-1 -1;
#X obj 460 281 bng 15 250 50 0 empty empty empty 17 7 0 10 -262144
-1 -1;
#X obj 480 281 bng 15 250 50 0 empty empty empty 17 7 0 10 -262144
-1 -1;
#X obj 500 281 bng 15 250 50 0 empty empty empty 17 7 0 10 -262144
-1 -1;
#X obj 390 378 route 48 50 52 53 55 57 59 60 62 64 65 67 69 71 72;
#X obj 390 334 r \$0-notein;
#X obj 401 356 route 49 51 54 56 58 61 63 66 68 70;
#X obj 359 457 s note_c;
#X obj 380 481 s note_d;
#X obj 416 457 s note_e;
#X obj 438 481 s note_f;
#X obj 473 457 s note_g;
#X obj 496 481 s note_a;
#X obj 531 457 s note_h;
#X text 401 262 keys;
#X obj 593 457 s note_c1;
#X obj 662 458 s note_e1;
#X obj 739 458 s note_g1;
#X obj 812 458 s note_h1;
#X obj 626 482 s note_d1;
#X obj 703 482 s note_f1;
#X obj 777 482 s note_a1;
#X obj 893 457 s note_c2;
#X obj 501 -64 route 41 42 43 44 45 46 47 48;
#X obj -86 150 / 127;
#X obj -37 150 / 127;
#X obj 13 150 / 127;
#X obj 62 150 / 127;
#X obj 4 210 / 127;
#X obj 53 210 / 127;
#X obj 103 210 / 127;
#X obj 152 210 / 127;
#X obj -86 101 r \$0-ctlin;
#X obj -87 179 s cc31;
#X obj -28 179 s cc32;
#X obj 32 179 s cc33;
#X obj -1 238 s cc35;
#X obj 62 239 s cc36;
#X obj 122 239 s cc37;
#X obj 181 239 s cc38;
#X obj -87 124 route 31 32 33 34 35 36 37 38;
#X obj 91 179 s cc34;
#X connect 0 0 1 0;
#X connect 0 1 2 0;
#X connect 0 2 3 0;
#X connect 1 0 33 0;
#X connect 2 0 33 1;
#X connect 4 0 5 0;
#X connect 4 1 6 0;
#X connect 4 2 7 0;
#X connect 5 0 8 1;
#X connect 6 0 8 0;
#X connect 8 0 31 0;
#X connect 9 0 12 0;
#X connect 10 0 13 0;
#X connect 11 0 14 0;
#X connect 15 0 19 0;
#X connect 16 0 20 0;
#X connect 17 0 21 0;
#X connect 30 0 252 0;
#X connect 33 0 32 0;
#X connect 34 0 51 0;
#X connect 35 0 52 0;
#X connect 36 0 53 0;
#X connect 37 0 54 0;
#X connect 38 0 55 0;
#X connect 39 0 56 0;
#X connect 40 0 57 0;
#X connect 41 0 58 0;
#X connect 50 0 60 0;
#X connect 59 0 18 0;
#X connect 60 0 34 0;
#X connect 60 0 42 0;
#X connect 60 1 35 0;
#X connect 60 1 43 0;
#X connect 60 2 36 0;
#X connect 60 2 44 0;
#X connect 60 3 37 0;
#X connect 60 3 45 0;
#X connect 60 4 46 0;
#X connect 60 5 47 0;
#X connect 60 6 38 1;
#X connect 60 6 48 0;
#X connect 60 7 39 0;
#X connect 60 7 49 0;
#X connect 60 8 40 0;
#X connect 61 0 99 0;
#X connect 62 0 100 0;
#X connect 65 0 101 0;
#X connect 66 0 102 0;
#X connect 67 0 103 0;
#X connect 68 0 104 0;
#X connect 69 0 105 0;
#X connect 70 0 106 0;
#X connect 71 0 61 0;
#X connect 72 0 73 0;
#X connect 73 0 71 0;
#X connect 73 1 74 0;
#X connect 73 2 75 0;
#X connect 73 3 76 0;
#X connect 73 4 77 0;
#X connect 73 5 78 0;
#X connect 73 6 79 0;
#X connect 73 7 80 0;
#X connect 74 0 62 0;
#X connect 75 0 65 0;
#X connect 76 0 66 0;
#X connect 77 0 67 0;
#X connect 78 0 68 0;
#X connect 79 0 69 0;
#X connect 80 0 70 0;
#X connect 81 0 107 0;
#X connect 82 0 108 0;
#X connect 83 0 109 0;
#X connect 84 0 110 0;
#X connect 85 0 111 0;
#X connect 86 0 112 0;
#X connect 87 0 113 0;
#X connect 88 0 114 0;
#X connect 89 0 81 0;
#X connect 90 0 98 0;
#X connect 91 0 82 0;
#X connect 92 0 83 0;
#X connect 93 0 84 0;
#X connect 94 0 85 0;
#X connect 95 0 86 0;
#X connect 96 0 87 0;
#X connect 97 0 88 0;
#X connect 98 0 89 0;
#X connect 98 1 91 0;
#X connect 98 2 92 0;
#X connect 98 3 93 0;
#X connect 98 4 94 0;
#X connect 98 5 95 0;
#X connect 98 6 96 0;
#X connect 98 7 97 0;
#X connect 142 0 130 0;
#X connect 142 0 145 0;
#X connect 142 1 131 0;
#X connect 142 1 146 0;
#X connect 142 2 132 0;
#X connect 142 2 147 0;
#X connect 142 3 133 0;
#X connect 142 3 148 0;
#X connect 142 4 136 0;
#X connect 142 4 149 0;
#X connect 142 5 137 0;
#X connect 142 5 150 0;
#X connect 142 6 138 0;
#X connect 142 6 151 0;
#X connect 142 7 117 0;
#X connect 142 8 118 0;
#X connect 142 9 119 0;
#X connect 142 10 120 0;
#X connect 142 11 123 0;
#X connect 142 12 124 0;
#X connect 142 13 125 0;
#X connect 142 14 126 0;
#X connect 143 0 142 0;
#X connect 143 0 144 0;
#X connect 144 0 134 0;
#X connect 144 1 135 0;
#X connect 144 2 139 0;
#X connect 144 3 140 0;
#X connect 144 4 141 0;
#X connect 144 5 121 0;
#X connect 144 6 122 0;
#X connect 144 7 127 0;
#X connect 144 8 128 0;
#X connect 144 9 129 0;
#X connect 152 0 188 0;
#X connect 153 0 189 0;
#X connect 154 0 190 0;
#X connect 155 0 191 0;
#X connect 156 0 192 0;
#X connect 157 0 193 0;
#X connect 158 0 194 0;
#X connect 159 0 195 0;
#X connect 160 0 152 0;
#X connect 161 0 205 0;
#X connect 162 0 153 0;
#X connect 163 0 154 0;
#X connect 164 0 155 0;
#X connect 165 0 156 0;
#X connect 166 0 157 0;
#X connect 167 0 158 0;
#X connect 168 0 159 0;
#X connect 169 0 196 0;
#X connect 170 0 197 0;
#X connect 171 0 198 0;
#X connect 172 0 199 0;
#X connect 173 0 203 0;
#X connect 174 0 202 0;
#X connect 175 0 201 0;
#X connect 176 0 200 0;
#X connect 177 0 169 0;
#X connect 178 0 204 0;
#X connect 179 0 170 0;
#X connect 180 0 171 0;
#X connect 181 0 172 0;
#X connect 182 0 173 0;
#X connect 183 0 174 0;
#X connect 184 0 175 0;
#X connect 185 0 176 0;
#X connect 204 0 177 0;
#X connect 204 1 179 0;
#X connect 204 2 180 0;
#X connect 204 3 181 0;
#X connect 204 4 182 0;
#X connect 204 5 183 0;
#X connect 204 6 184 0;
#X connect 204 7 185 0;
#X connect 205 0 160 0;
#X connect 205 1 162 0;
#X connect 205 2 163 0;
#X connect 205 3 164 0;
#X connect 205 4 165 0;
#X connect 205 5 166 0;
#X connect 205 6 167 0;
#X connect 205 7 168 0;
#X connect 206 0 207 0;
#X connect 233 0 221 0;
#X connect 233 0 236 0;
#X connect 233 1 222 0;
#X connect 233 1 237 0;
#X connect 233 2 223 0;
#X connect 233 2 238 0;
#X connect 233 3 224 0;
#X connect 233 3 239 0;
#X connect 233 4 227 0;
#X connect 233 4 240 0;
#X connect 233 5 228 0;
#X connect 233 5 241 0;
#X connect 233 6 229 0;
#X connect 233 6 242 0;
#X connect 233 7 208 0;
#X connect 233 7 244 0;
#X connect 233 8 209 0;
#X connect 233 8 248 0;
#X connect 233 9 210 0;
#X connect 233 9 245 0;
#X connect 233 10 211 0;
#X connect 233 10 249 0;
#X connect 233 11 214 0;
#X connect 233 11 246 0;
#X connect 233 12 215 0;
#X connect 233 12 250 0;
#X connect 233 13 216 0;
#X connect 233 13 247 0;
#X connect 233 14 217 0;
#X connect 233 14 251 0;
#X connect 234 0 233 0;
#X connect 234 0 235 0;
#X connect 235 0 225 0;
#X connect 235 1 226 0;
#X connect 235 2 230 0;
#X connect 235 3 231 0;
#X connect 235 4 232 0;
#X connect 235 5 212 0;
#X connect 235 6 213 0;
#X connect 235 7 218 0;
#X connect 235 8 219 0;
#X connect 235 9 220 0;
#X connect 252 0 22 0;
#X connect 252 0 206 0;
#X connect 252 1 9 0;
#X connect 252 1 23 0;
#X connect 252 2 10 0;
#X connect 252 2 24 0;
#X connect 252 3 11 0;
#X connect 252 3 25 0;
#X connect 252 4 26 0;
#X connect 252 4 59 0;
#X connect 252 5 27 0;
#X connect 252 5 15 0;
#X connect 252 6 28 0;
#X connect 252 6 16 0;
#X connect 252 7 29 0;
#X connect 252 7 17 0;
#X connect 253 0 262 0;
#X connect 254 0 263 0;
#X connect 255 0 264 0;
#X connect 256 0 270 0;
#X connect 257 0 265 0;
#X connect 258 0 266 0;
#X connect 259 0 267 0;
#X connect 260 0 268 0;
#X connect 261 0 269 0;
#X connect 269 0 253 0;
#X connect 269 1 254 0;
#X connect 269 2 255 0;
#X connect 269 3 256 0;
#X connect 269 4 257 0;
#X connect 269 5 258 0;
#X connect 269 6 259 0;
#X connect 269 7 260 0;
#X coords 0 -1 1 1 400 189 2 300 130;
