#N canvas 56 713 544 301 10;
#N canvas 1109 467 726 496 triangle 0;
#N canvas 592 856 505 334 xyz_pack 0;
#X floatatom 33 74 5 0 0 0 X - -;
#X floatatom 33 92 5 0 0 0 Y - -;
#X floatatom 33 110 5 0 0 0 Z - -;
#X obj 80 176 pack 0 0 0;
#X obj 81 215 outlet;
#X obj 89 138 t b a;
#X obj 129 138 t b a;
#X msg 80 74 5.34;
#X msg 80 91 -4;
#X msg 80 110 0.01;
#X obj 27 12 loadbang;
#X obj 142 46 bng 15 250 50 0 empty empty empty 17 7 0 10 -262144 -1
-1;
#X obj 141 13 inlet;
#X connect 0 0 3 0;
#X connect 1 0 5 0;
#X connect 2 0 6 0;
#X connect 3 0 4 0;
#X connect 5 0 3 0;
#X connect 5 1 3 1;
#X connect 6 0 3 0;
#X connect 6 1 3 2;
#X connect 7 0 0 0;
#X connect 8 0 1 0;
#X connect 9 0 2 0;
#X connect 10 0 11 0;
#X connect 11 0 7 0;
#X connect 11 0 8 0;
#X connect 11 0 9 0;
#X connect 12 0 11 0;
#X coords 0 -1 1 1 60 58 2 20 70;
#X restore 133 100 pd xyz_pack;
#N canvas 765 862 505 334 xyz_pack 0;
#X floatatom 33 74 5 0 0 0 X - -;
#X floatatom 33 92 5 0 0 0 Y - -;
#X floatatom 33 110 5 0 0 0 Z - -;
#X obj 80 176 pack 0 0 0;
#X obj 81 215 outlet;
#X obj 89 138 t b a;
#X obj 129 138 t b a;
#X msg 80 91 -4;
#X msg 80 73 -5.34;
#X msg 80 110 0.01;
#X obj 27 12 loadbang;
#X obj 142 46 bng 15 250 50 0 empty empty empty 17 7 0 10 -262144 -1
-1;
#X obj 141 13 inlet;
#X connect 0 0 3 0;
#X connect 1 0 5 0;
#X connect 2 0 6 0;
#X connect 3 0 4 0;
#X connect 5 0 3 0;
#X connect 5 1 3 1;
#X connect 6 0 3 0;
#X connect 6 1 3 2;
#X connect 7 0 1 0;
#X connect 8 0 0 0;
#X connect 9 0 2 0;
#X connect 10 0 11 0;
#X connect 11 0 8 0;
#X connect 11 0 7 0;
#X connect 11 0 9 0;
#X connect 12 0 11 0;
#X coords 0 -1 1 1 60 58 2 20 70;
#X restore 62 100 pd xyz_pack;
#N canvas 1210 864 505 334 xyz_pack 0;
#X floatatom 33 74 5 0 0 0 X - -;
#X floatatom 33 92 5 0 0 0 Y - -;
#X floatatom 33 110 5 0 0 0 Z - -;
#X obj 80 176 pack 0 0 0;
#X obj 81 215 outlet;
#X obj 30 9 loadbang;
#X obj 89 138 t b a;
#X obj 129 138 t b a;
#X msg 80 74 0;
#X msg 80 91 4;
#X msg 80 110 0.01;
#X obj 145 43 bng 15 250 50 0 empty empty empty 17 7 0 10 -262144 -1
-1;
#X obj 144 10 inlet;
#X connect 0 0 3 0;
#X connect 1 0 6 0;
#X connect 2 0 7 0;
#X connect 3 0 4 0;
#X connect 5 0 11 0;
#X connect 6 0 3 0;
#X connect 6 1 3 1;
#X connect 7 0 3 0;
#X connect 7 1 3 2;
#X connect 8 0 0 0;
#X connect 9 0 1 0;
#X connect 10 0 2 0;
#X connect 11 0 8 0;
#X connect 11 0 9 0;
#X connect 11 0 10 0;
#X connect 12 0 11 0;
#X coords 0 -1 1 1 60 58 2 20 70;
#X restore 97 42 pd xyz_pack;
#X obj -314 217 loadbang;
#X obj -227 246 color 0 0 0;
#X obj 116 173 s mitte;
#X obj -43 237 r mitte;
#X obj 171 174 s rechts;
#X obj 10 237 r rechts;
#X obj 61 172 s links;
#X obj 14 317 r links;
#X obj -102 278 polygon 5;
#X obj 130 237 r ecke_ro;
#X obj 67 237 r ecke_ru;
#X obj -101 117 s ecke_ro;
#X obj -92 182 s ecke_ru;
#X msg -189 95 0 4 0.01;
#X obj -189 118 s mitte_oben;
#X obj -183 23 loadbang;
#X obj -182 57 bng 15 250 50 0 empty empty empty 17 7 0 10 -262144
-1 -1;
#X obj -286 118 s ecke_lo;
#X obj -284 182 s ecke_lu;
#X obj 177 393 r ecke_lo;
#X obj 67 318 r ecke_lu;
#X obj -129 237 r mitte_oben;
#X msg -92 157 5.34 -4 0.01;
#X msg -101 95 5.34 4 0.01;
#X obj 63 43 bng 15 250 50 0 empty empty reset 0 20 0 8 -262144 -1
-1;
#X obj -111 319 r ecke_ru;
#X obj -45 317 r rechts;
#X obj -102 352 polygon 4;
#X msg -284 157 -5.34 -4 0.01;
#X msg -286 96 -5.34 4 0.01;
#X obj -108 431 polygon 5;
#X obj -13 397 r mitte;
#X obj -99 397 r mitte_oben;
#X obj 105 394 r ecke_lu;
#X obj 39 393 r links;
#X obj -227 215 gemhead 55;
#X msg -308 245 draw fill;
#X connect 0 0 7 0;
#X connect 1 0 9 0;
#X connect 2 0 5 0;
#X connect 3 0 39 0;
#X connect 4 0 11 0;
#X connect 4 0 30 0;
#X connect 4 0 33 0;
#X connect 6 0 11 2;
#X connect 8 0 11 3;
#X connect 10 0 30 3;
#X connect 12 0 11 5;
#X connect 13 0 11 4;
#X connect 16 0 17 0;
#X connect 18 0 19 0;
#X connect 19 0 16 0;
#X connect 19 0 26 0;
#X connect 19 0 25 0;
#X connect 19 0 32 0;
#X connect 19 0 31 0;
#X connect 22 0 33 5;
#X connect 23 0 30 4;
#X connect 24 0 11 1;
#X connect 25 0 15 0;
#X connect 26 0 14 0;
#X connect 27 0 2 0;
#X connect 27 0 1 0;
#X connect 27 0 0 0;
#X connect 27 0 19 0;
#X connect 28 0 30 1;
#X connect 29 0 30 2;
#X connect 31 0 21 0;
#X connect 32 0 20 0;
#X connect 34 0 33 2;
#X connect 35 0 33 1;
#X connect 36 0 33 4;
#X connect 37 0 33 3;
#X connect 38 0 4 0;
#X connect 39 0 11 0;
#X connect 39 0 30 0;
#X connect 39 0 33 0;
#X coords 0 -1 1 1 135 120 2 60 40;
#X restore 14 90 pd triangle;
#N canvas 559 708 603 325 recorder 0;
#X obj 340 44 key;
#X floatatom 340 74 5 0 0 0 - - -;
#X obj 103 109 tgl 15 0 empty empty enable 17 7 0 10 -258113 -261682
-1 0 1;
#N canvas 344 354 450 245 record 0;
#X obj 17 174 pix_record;
#X msg 100 149 codeclist;
#X obj 71 201 print;
#X obj -14 84 inlet;
#X msg 15 127 auto \$1;
#X obj 17 104 tgl 15 0 empty empty empty 17 7 0 10 -262144 -1 -1 1
1;
#X msg 102 124 record \$1;
#X obj 102 102 tgl 15 0 empty empty recording 17 7 0 10 -262144 -1
-1 0 1;
#X obj 161 11 loadbang;
#X msg 41 79 1;
#X obj 66 15 inlet;
#X obj 66 46 bng 15 250 50 0 empty empty empty 17 7 0 10 -262144 -1
-1;
#X obj 173 34 bng 15 250 50 0 empty empty empty 17 7 0 10 -262144 -1
-1;
#X msg 177 148 codec mjpa;
#X obj 281 128 getdir;
#X obj 281 107 bng 15 250 50 0 empty empty empty 17 7 0 10 -262144
-1 -1;
#X msg 281 185 file \$1;
#X obj 281 150 makefilename %s/1.mpg;
#X connect 0 2 2 0;
#X connect 1 0 0 0;
#X connect 3 0 0 0;
#X connect 4 0 0 0;
#X connect 5 0 4 0;
#X connect 6 0 0 0;
#X connect 7 0 6 0;
#X connect 8 0 12 0;
#X connect 9 0 5 0;
#X connect 10 0 11 0;
#X connect 11 0 7 0;
#X connect 12 0 9 0;
#X connect 12 0 13 0;
#X connect 12 0 14 0;
#X connect 13 0 0 0;
#X connect 14 0 17 0;
#X connect 15 0 14 0;
#X connect 16 0 0 0;
#X connect 17 0 16 0;
#X coords 0 -1 1 1 85 19 2 100 100;
#X restore 103 125 pd record a;
#X obj 31 70 r cam;
#X obj 273 82 gate;
#N canvas 344 354 450 245 record 0;
#X obj 17 174 pix_record;
#X msg 100 149 codeclist;
#X obj 71 201 print;
#X obj -14 84 inlet;
#X msg 15 127 auto \$1;
#X obj 17 104 tgl 15 0 empty empty empty 17 7 0 10 -262144 -1 -1 1
1;
#X msg 102 124 record \$1;
#X obj 102 102 tgl 15 0 empty empty recording 17 7 0 10 -262144 -1
-1 0 1;
#X obj 161 11 loadbang;
#X msg 41 79 1;
#X obj 66 15 inlet;
#X obj 66 46 bng 15 250 50 0 empty empty empty 17 7 0 10 -262144 -1
-1;
#X obj 173 34 bng 15 250 50 0 empty empty empty 17 7 0 10 -262144 -1
-1;
#X msg 177 148 codec mjpa;
#X obj 281 128 getdir;
#X obj 281 107 bng 15 250 50 0 empty empty empty 17 7 0 10 -262144
-1 -1;
#X msg 281 185 file \$1;
#X obj 281 150 makefilename %s/2.mpg;
#X connect 0 2 2 0;
#X connect 1 0 0 0;
#X connect 3 0 0 0;
#X connect 4 0 0 0;
#X connect 5 0 4 0;
#X connect 6 0 0 0;
#X connect 7 0 6 0;
#X connect 8 0 12 0;
#X connect 9 0 5 0;
#X connect 10 0 11 0;
#X connect 11 0 7 0;
#X connect 12 0 9 0;
#X connect 12 0 13 0;
#X connect 12 0 14 0;
#X connect 13 0 0 0;
#X connect 14 0 17 0;
#X connect 15 0 14 0;
#X connect 16 0 0 0;
#X connect 17 0 16 0;
#X coords 0 -1 1 1 85 19 2 100 100;
#X restore 103 147 pd record a;
#N canvas 344 354 450 245 record 0;
#X obj 17 174 pix_record;
#X msg 100 149 codeclist;
#X obj 71 201 print;
#X obj -14 84 inlet;
#X msg 15 127 auto \$1;
#X obj 17 104 tgl 15 0 empty empty empty 17 7 0 10 -262144 -1 -1 1
1;
#X msg 102 124 record \$1;
#X obj 102 102 tgl 15 0 empty empty recording 17 7 0 10 -262144 -1
-1 0 1;
#X obj 161 11 loadbang;
#X msg 41 79 1;
#X obj 66 15 inlet;
#X obj 66 46 bng 15 250 50 0 empty empty empty 17 7 0 10 -262144 -1
-1;
#X obj 173 34 bng 15 250 50 0 empty empty empty 17 7 0 10 -262144 -1
-1;
#X msg 177 148 codec mjpa;
#X obj 281 128 getdir;
#X obj 281 107 bng 15 250 50 0 empty empty empty 17 7 0 10 -262144
-1 -1;
#X msg 281 185 file \$1;
#X obj 281 151 makefilename %s/3.mpg;
#X connect 0 2 2 0;
#X connect 1 0 0 0;
#X connect 3 0 0 0;
#X connect 4 0 0 0;
#X connect 5 0 4 0;
#X connect 6 0 0 0;
#X connect 7 0 6 0;
#X connect 8 0 12 0;
#X connect 9 0 5 0;
#X connect 10 0 11 0;
#X connect 11 0 7 0;
#X connect 12 0 9 0;
#X connect 12 0 13 0;
#X connect 12 0 14 0;
#X connect 13 0 0 0;
#X connect 14 0 17 0;
#X connect 15 0 14 0;
#X connect 16 0 0 0;
#X connect 17 0 16 0;
#X coords 0 -1 1 1 85 19 2 100 100;
#X restore 103 169 pd record a;
#N canvas 344 354 450 245 record 0;
#X obj 17 174 pix_record;
#X msg 100 149 codeclist;
#X obj 71 201 print;
#X obj -14 84 inlet;
#X msg 15 127 auto \$1;
#X obj 17 104 tgl 15 0 empty empty empty 17 7 0 10 -262144 -1 -1 1
1;
#X msg 102 124 record \$1;
#X obj 102 102 tgl 15 0 empty empty recording 17 7 0 10 -262144 -1
-1 0 1;
#X obj 161 11 loadbang;
#X msg 41 79 1;
#X obj 66 15 inlet;
#X obj 66 46 bng 15 250 50 0 empty empty empty 17 7 0 10 -262144 -1
-1;
#X obj 173 34 bng 15 250 50 0 empty empty empty 17 7 0 10 -262144 -1
-1;
#X msg 177 148 codec mjpa;
#X obj 281 128 getdir;
#X obj 281 107 bng 15 250 50 0 empty empty empty 17 7 0 10 -262144
-1 -1;
#X msg 281 185 file \$1;
#X obj 281 150 makefilename %s/4.mpg;
#X connect 0 2 2 0;
#X connect 1 0 0 0;
#X connect 3 0 0 0;
#X connect 4 0 0 0;
#X connect 5 0 4 0;
#X connect 6 0 0 0;
#X connect 7 0 6 0;
#X connect 8 0 12 0;
#X connect 9 0 5 0;
#X connect 10 0 11 0;
#X connect 11 0 7 0;
#X connect 12 0 9 0;
#X connect 12 0 13 0;
#X connect 12 0 14 0;
#X connect 13 0 0 0;
#X connect 14 0 17 0;
#X connect 15 0 14 0;
#X connect 16 0 0 0;
#X connect 17 0 16 0;
#X coords 0 -1 1 1 85 19 2 100 100;
#X restore 103 191 pd record a;
#N canvas 342 362 450 245 record 0;
#X obj 17 174 pix_record;
#X msg 100 149 codeclist;
#X obj 71 201 print;
#X obj -14 84 inlet;
#X msg 15 127 auto \$1;
#X obj 17 104 tgl 15 0 empty empty empty 17 7 0 10 -262144 -1 -1 1
1;
#X msg 102 124 record \$1;
#X obj 102 102 tgl 15 0 empty empty recording 17 7 0 10 -262144 -1
-1 0 1;
#X obj 161 11 loadbang;
#X msg 41 79 1;
#X obj 66 15 inlet;
#X obj 66 46 bng 15 250 50 0 empty empty empty 17 7 0 10 -262144 -1
-1;
#X obj 173 34 bng 15 250 50 0 empty empty empty 17 7 0 10 -262144 -1
-1;
#X msg 177 148 codec mjpa;
#X obj 281 128 getdir;
#X obj 281 107 bng 15 250 50 0 empty empty empty 17 7 0 10 -262144
-1 -1;
#X msg 281 185 file \$1;
#X obj 281 151 makefilename %s/5.mpg;
#X connect 0 2 2 0;
#X connect 1 0 0 0;
#X connect 3 0 0 0;
#X connect 4 0 0 0;
#X connect 5 0 4 0;
#X connect 6 0 0 0;
#X connect 7 0 6 0;
#X connect 8 0 12 0;
#X connect 9 0 5 0;
#X connect 10 0 11 0;
#X connect 11 0 7 0;
#X connect 12 0 9 0;
#X connect 12 0 13 0;
#X connect 12 0 14 0;
#X connect 13 0 0 0;
#X connect 14 0 17 0;
#X connect 15 0 14 0;
#X connect 16 0 0 0;
#X connect 17 0 16 0;
#X coords 0 -1 1 1 85 19 2 100 100;
#X restore 103 213 pd record a;
#N canvas 344 354 450 245 record 0;
#X obj 17 174 pix_record;
#X msg 100 149 codeclist;
#X obj 71 201 print;
#X obj -14 84 inlet;
#X msg 15 127 auto \$1;
#X obj 17 104 tgl 15 0 empty empty empty 17 7 0 10 -262144 -1 -1 1
1;
#X msg 102 124 record \$1;
#X obj 102 102 tgl 15 0 empty empty recording 17 7 0 10 -262144 -1
-1 0 1;
#X obj 161 11 loadbang;
#X msg 41 79 1;
#X obj 66 15 inlet;
#X obj 66 46 bng 15 250 50 0 empty empty empty 17 7 0 10 -262144 -1
-1;
#X obj 173 34 bng 15 250 50 0 empty empty empty 17 7 0 10 -262144 -1
-1;
#X msg 177 148 codec mjpa;
#X obj 281 128 getdir;
#X obj 281 107 bng 15 250 50 0 empty empty empty 17 7 0 10 -262144
-1 -1;
#X msg 281 185 file \$1;
#X obj 281 150 makefilename %s/6.mpg;
#X connect 0 2 2 0;
#X connect 1 0 0 0;
#X connect 3 0 0 0;
#X connect 4 0 0 0;
#X connect 5 0 4 0;
#X connect 6 0 0 0;
#X connect 7 0 6 0;
#X connect 8 0 12 0;
#X connect 9 0 5 0;
#X connect 10 0 11 0;
#X connect 11 0 7 0;
#X connect 12 0 9 0;
#X connect 12 0 13 0;
#X connect 12 0 14 0;
#X connect 13 0 0 0;
#X connect 14 0 17 0;
#X connect 15 0 14 0;
#X connect 16 0 0 0;
#X connect 17 0 16 0;
#X coords 0 -1 1 1 85 19 2 100 100;
#X restore 103 235 pd record a;
#X obj 222 115 sel 97 115 100 102 103 104;
#X connect 0 0 1 0;
#X connect 1 0 5 1;
#X connect 2 0 5 0;
#X connect 4 0 3 0;
#X connect 4 0 6 0;
#X connect 4 0 7 0;
#X connect 4 0 8 0;
#X connect 4 0 9 0;
#X connect 4 0 10 0;
#X connect 5 0 11 0;
#X connect 11 0 3 1;
#X connect 11 1 6 1;
#X connect 11 2 7 1;
#X connect 11 3 8 1;
#X connect 11 4 9 1;
#X connect 11 5 10 1;
#X coords 0 -1 1 1 90 166 1 100 91;
#X restore 159 95 pd recorder;
#N canvas 627 766 955 424 player 0;
#X obj 13 259 pix_film;
#X obj 218 16 key;
#X floatatom 218 46 5 0 0 0 - - -;
#X obj 13 32 tgl 15 0 empty empty enable 17 7 0 10 -4034 -33289 -1
0 1;
#X obj 164 21 gate;
#X obj 91 131 getdir;
#X obj 91 110 bng 15 250 50 0 empty empty empty 17 7 0 10 -262144 -1
-1;
#X obj 91 153 makefilename %s/1.mpg;
#X obj 14 102 spigot;
#X obj 26 141 loadbang;
#X msg 30 179 auto 1;
#X obj 319 44 sel 121 120 99 118 98 110;
#X obj 13 287 spigot;
#X msg 106 242 1;
#X obj 106 269 tgl 15 0 empty empty empty 17 7 0 10 -262144 -1 -1 0
1;
#X obj 14 76 gemhead 40;
#X obj 231 131 getdir;
#X obj 231 110 bng 15 250 50 0 empty empty empty 17 7 0 10 -262144
-1 -1;
#X obj 231 153 makefilename %s/2.mpg;
#X obj 367 131 getdir;
#X obj 367 110 bng 15 250 50 0 empty empty empty 17 7 0 10 -262144
-1 -1;
#X obj 507 131 getdir;
#X obj 507 110 bng 15 250 50 0 empty empty empty 17 7 0 10 -262144
-1 -1;
#X obj 643 131 getdir;
#X obj 643 110 bng 15 250 50 0 empty empty empty 17 7 0 10 -262144
-1 -1;
#X obj 783 131 getdir;
#X obj 783 110 bng 15 250 50 0 empty empty empty 17 7 0 10 -262144
-1 -1;
#X obj 367 153 makefilename %s/3.mpg;
#X obj 507 153 makefilename %s/4.mpg;
#X obj 643 153 makefilename %s/5.mpg;
#X obj 783 153 makefilename %s/6.mpg;
#X msg 91 218 open \$1;
#X obj 93 190 t a a;
#N canvas 1 88 450 346 Textur 0;
#X obj 16 152 pix_texture;
#X floatatom 52 89 5 0 0 1 X - -;
#X floatatom 100 89 5 0 0 1 Y - -;
#X obj 16 244 rectangle 5.34 4;
#X obj -37 -57 inlet;
#X obj 16 190 translateXYZ;
#X floatatom 52 61 5 0 0 1 X - -;
#X floatatom 100 61 5 0 0 1 Y - -;
#X floatatom 148 61 5 0 0 1 Z - -;
#X text 139 40 position;
#X text 149 87 size;
#X obj 58 16 hsl 128 25 0 1 0 0 empty empty empty -2 -8 0 10 -262144
-1 -1 0 1;
#X obj -62 52 pix_snap2tex;
#X obj -62 22 t b a;
#X obj 11 -14 pix_info;
#X obj -15 20 pack 0 0;
#X obj -62 97 alpha 1;
#X connect 0 0 5 0;
#X connect 1 0 3 1;
#X connect 2 0 3 2;
#X connect 4 0 13 0;
#X connect 4 0 14 0;
#X connect 5 0 3 0;
#X connect 6 0 5 1;
#X connect 7 0 5 2;
#X connect 8 0 5 3;
#X connect 11 0 16 1;
#X connect 12 0 16 0;
#X connect 13 0 12 0;
#X connect 13 1 12 0;
#X connect 14 1 15 0;
#X connect 14 2 15 1;
#X connect 15 0 12 2;
#X connect 16 0 0 0;
#X coords 0 -1 1 1 145 100 1 50 10;
#X restore 13 311 pd Textur;
#X connect 0 0 12 0;
#X connect 0 2 14 0;
#X connect 1 0 2 0;
#X connect 2 0 4 1;
#X connect 3 0 4 0;
#X connect 3 0 8 1;
#X connect 4 0 11 0;
#X connect 5 0 7 0;
#X connect 6 0 5 0;
#X connect 7 0 32 0;
#X connect 8 0 0 0;
#X connect 9 0 10 0;
#X connect 10 0 0 0;
#X connect 11 0 6 0;
#X connect 11 1 17 0;
#X connect 11 2 20 0;
#X connect 11 3 22 0;
#X connect 11 4 24 0;
#X connect 11 5 26 0;
#X connect 12 0 33 0;
#X connect 13 0 14 0;
#X connect 14 0 12 1;
#X connect 15 0 8 0;
#X connect 16 0 18 0;
#X connect 17 0 16 0;
#X connect 18 0 32 0;
#X connect 19 0 27 0;
#X connect 20 0 19 0;
#X connect 21 0 28 0;
#X connect 22 0 21 0;
#X connect 23 0 29 0;
#X connect 24 0 23 0;
#X connect 25 0 30 0;
#X connect 26 0 25 0;
#X connect 27 0 32 0;
#X connect 28 0 32 0;
#X connect 29 0 32 0;
#X connect 30 0 32 0;
#X connect 31 0 13 0;
#X connect 31 0 0 0;
#X connect 32 1 31 0;
#X coords 0 -1 1 1 85 40 1 10 10;
#X restore 336 98 pd player;
#N canvas 1 96 588 418 Fenster 0;
#X obj 14 330 gemwin 25;
#X msg 335 142 0 \, destroy;
#X obj 106 27 bng 15 250 50 0 empty empty Start 17 7 0 10 -262144 -1
-1;
#X floatatom 106 59 5 0 0 1 X - -;
#X floatatom 148 59 5 0 0 1 Y - -;
#X msg 164 204 dimen \$1 \$2;
#X obj 164 175 pack 640 480;
#X obj 107 100 s screenX;
#X obj 165 142 r screenX;
#X obj 187 100 s screenY;
#X obj 256 149 r screenY;
#X obj 358 -24 r screenX;
#X obj 436 -24 r screenY;
#X obj 436 3 t b f;
#X obj 358 35 / 1;
#X floatatom 358 57 5 0 0 0 - - -;
#X obj 358 76 s screenAspectRatio;
#X obj 335 182 s gemwin;
#X obj 14 298 r gemwin;
#X obj 28 253 s gemwin;
#X msg 16 200 title dots \, create \, 1;
#X obj 27 149 delay 500;
#X obj 128 -50 loadbang;
#X msg 128 -17 960;
#X msg 167 -20 720;
#X floatatom 89 269 5 0 0 0 - - -;
#X msg 89 294 color 0 0 0 \$1;
#X msg 194 300 print;
#X obj 251 307 s gemwin;
#X obj 215 26 tgl 15 0 empty empty border 17 7 0 10 -262144 -1 -1 1
1;
#X msg 251 272 border \$1;
#X obj 265 96 s offsetX;
#X obj 345 96 s offsetY;
#X obj 341 215 r offsetX;
#X obj 421 215 r offsetY;
#X obj 341 248 pack 640 480;
#X msg 341 279 offset \$1 \$2;
#X floatatom 213 59 5 0 0 1 X - -;
#X floatatom 256 59 5 0 0 1 Y - -;
#X obj 163 26 bng 15 250 50 0 empty empty Stop 17 7 0 10 -262144 -1
-1;
#X text 106 42 size;
#X text 215 43 offset;
#X obj 52 101 t b b b;
#X obj 250 209 r \$0-border;
#X obj 262 -19 s \$0-border;
#X obj 250 230 tgl 15 0 empty empty empty 17 7 0 10 -262144 -1 -1 1
1;
#X obj 251 251 f;
#X msg 213 -22 1;
#X connect 1 0 17 0;
#X connect 2 0 42 0;
#X connect 3 0 7 0;
#X connect 4 0 9 0;
#X connect 5 0 19 0;
#X connect 6 0 5 0;
#X connect 8 0 6 0;
#X connect 10 0 6 1;
#X connect 11 0 14 0;
#X connect 12 0 13 0;
#X connect 13 0 14 0;
#X connect 13 1 14 1;
#X connect 14 0 15 0;
#X connect 15 0 16 0;
#X connect 18 0 0 0;
#X connect 20 0 19 0;
#X connect 21 0 20 0;
#X connect 22 0 23 0;
#X connect 22 0 24 0;
#X connect 22 0 2 0;
#X connect 22 0 47 0;
#X connect 23 0 3 0;
#X connect 24 0 4 0;
#X connect 25 0 26 0;
#X connect 26 0 0 0;
#X connect 27 0 0 0;
#X connect 29 0 44 0;
#X connect 30 0 28 0;
#X connect 33 0 35 0;
#X connect 34 0 35 1;
#X connect 35 0 36 0;
#X connect 36 0 28 0;
#X connect 37 0 31 0;
#X connect 38 0 32 0;
#X connect 39 0 1 0;
#X connect 42 0 21 0;
#X connect 42 1 35 0;
#X connect 42 1 46 0;
#X connect 42 1 6 0;
#X connect 42 2 1 0;
#X connect 43 0 45 0;
#X connect 45 0 46 0;
#X connect 46 0 30 0;
#X connect 47 0 29 0;
#X coords 0 -1 1 1 200 70 1 100 10;
#X restore 13 11 pd Fenster;
#N canvas 160 290 450 353 Cam 0;
#X obj -17 13 gemhead;
#X msg 77 13 colorspace RGBA;
#N canvas 897 390 218 230 flip 0;
#X obj 12 10 inlet;
#X obj 12 176 outlet;
#X obj 12 85 rotateXYZ 0 180 0;
#X obj 65 10 inlet;
#X obj 65 31 sel 0;
#X msg 65 52 0;
#X msg 98 52 180;
#X obj 135 10 inlet;
#X obj 135 31 sel 0;
#X msg 135 52 0;
#X msg 168 52 180;
#X connect 0 0 2 0;
#X connect 2 0 1 0;
#X connect 3 0 4 0;
#X connect 4 0 5 0;
#X connect 4 1 6 0;
#X connect 5 0 2 1;
#X connect 6 0 2 1;
#X connect 7 0 8 0;
#X connect 8 0 9 0;
#X connect 8 1 10 0;
#X connect 9 0 2 2;
#X connect 10 0 2 2;
#X restore -17 204 pd flip;
#X obj 15 150 tgl 15 0 empty empty vert 17 7 0 10 -262144 -1 -1 0 1
;
#X obj 65 150 tgl 15 0 empty empty horiz 17 7 0 10 -262144 -1 -1 0
1;
#X obj -17 316 outlet;
#X text 13 132 spiegeln;
#X obj 118 122 tgl 15 0 empty empty empty 17 7 0 10 -262144 -1 -1 1
1;
#X obj -17 35 spigot;
#X obj 166 86 loadbang;
#X obj 160 150 sel 1;
#X msg 102 51 open 0;
#X msg 161 50 close;
#X floatatom 15 174 5 0 0 1 X - -;
#X msg -2 264 dimen \$1 \$2;
#X msg 196 14 dialog;
#X obj -17 96 pix_video;
#X msg 73 -11 dimen 1280 720;
#X obj 23 229 pack 640 480;
#X floatatom 64 174 5 0 0 1 Y - -;
#X obj 41 316 s cam;
#X connect 0 0 8 0;
#X connect 1 0 16 0;
#X connect 2 0 5 0;
#X connect 2 0 20 0;
#X connect 3 0 2 1;
#X connect 4 0 2 2;
#X connect 7 0 8 1;
#X connect 7 0 10 0;
#X connect 8 0 16 0;
#X connect 9 0 7 0;
#X connect 10 0 11 0;
#X connect 10 1 12 0;
#X connect 11 0 16 0;
#X connect 12 0 16 0;
#X connect 13 0 18 0;
#X connect 14 0 16 0;
#X connect 15 0 16 0;
#X connect 16 0 2 0;
#X connect 17 0 16 0;
#X connect 18 0 14 0;
#X connect 19 0 18 1;
#X coords 0 -1 1 1 125 78 1 10 120;
#X restore 261 9 pd Cam;
#X obj 261 147 spigot;
#X obj 294 117 tgl 15 0 empty empty empty 17 7 0 10 -262144 -1 -1 1
1;
#N canvas 1 88 450 346 Textur 0;
#X obj 16 152 pix_texture;
#X floatatom 52 89 5 0 0 1 X - -;
#X floatatom 100 89 5 0 0 1 Y - -;
#X obj 16 244 rectangle 5.34 4;
#X obj -37 -57 inlet;
#X obj 16 190 translateXYZ;
#X floatatom 52 61 5 0 0 1 X - -;
#X floatatom 100 61 5 0 0 1 Y - -;
#X floatatom 148 61 5 0 0 1 Z - -;
#X text 139 40 position;
#X text 149 87 size;
#X obj 58 16 hsl 128 25 0 1 0 0 empty empty empty -2 -8 0 10 -262144
-1 -1 0 1;
#X obj -62 52 pix_snap2tex;
#X obj -62 22 t b a;
#X obj 11 -14 pix_info;
#X obj -15 20 pack 0 0;
#X obj -62 97 alpha 1;
#X connect 0 0 5 0;
#X connect 1 0 3 1;
#X connect 2 0 3 2;
#X connect 4 0 13 0;
#X connect 4 0 14 0;
#X connect 5 0 3 0;
#X connect 6 0 5 1;
#X connect 7 0 5 2;
#X connect 8 0 5 3;
#X connect 11 0 16 1;
#X connect 12 0 16 0;
#X connect 13 0 12 0;
#X connect 13 1 12 0;
#X connect 14 1 15 0;
#X connect 14 2 15 1;
#X connect 15 0 12 2;
#X connect 16 0 0 0;
#X coords 0 -1 1 1 145 100 1 50 10;
#X restore 261 177 pd Textur;
#X connect 4 0 5 0;
#X connect 5 0 7 0;
#X connect 6 0 5 1;
