#N canvas 487 541 449 472 10;
#X obj 17 160 cyclone/MouseState;
#X obj 17 189 sel 0;
#X msg 17 135 poll;
#X msg 17 214 nopoll;
#X obj 17 19 r \$0-bangsend;
#X obj 17 105 t b b;
#X obj 137 251 f;
#X obj 112 212 loadbang;
#X obj 227 250 f;
#X obj 188 386 pack;
#X obj 95 311 int;
#X obj 188 309 int;
#X obj 188 361 t b f;
#N canvas 1 150 377 272 xy-deltas---- 0;
#X obj 31 40 inlet;
#X obj 84 39 inlet;
#X obj 133 39 inlet;
#X obj 31 217 outlet;
#X obj 31 118 spigot;
#X obj 84 118 spigot;
#X msg 133 71 0;
#X text 162 70 skip first value after mousedown;
#X msg 48 72 1;
#X msg 98 71 1;
#X obj 84 217 outlet;
#X connect 0 0 4 0;
#X connect 0 0 8 0;
#X connect 1 0 5 0;
#X connect 1 0 9 0;
#X connect 2 0 6 0;
#X connect 4 0 3 0;
#X connect 5 0 10 0;
#X connect 6 0 4 1;
#X connect 6 0 5 1;
#X connect 8 0 4 1;
#X connect 9 0 5 1;
#X restore 95 188 pd xy-deltas----;
#X msg 30 54 get_pos;
#X obj 30 79 s \$0-canvasreceive;
#X msg 188 413 pos \$1 \$2;
#X obj 188 439 s \$0-dot;
#X obj 188 336 + 20;
#X obj 24 442 outlet;
#X obj 92 442 outlet;
#X obj 95 251 + 100;
#X obj 188 250 + 100;
#X obj 200 20 bng 133 250 50 0 \$0-bangsend \$0-bangreceive empty 0
0 0 10 -262144 -4160 -260097;
#X obj 267 88 image color.gif;
#X obj 313 133 cnv 15 20 20 empty \$0-dot + 1 7 0 30 -260097 -1 0;
#X obj 95 337 + 200;
#X obj 96 275 clip 0 113;
#X obj 188 278 clip 0 113;
#X connect 0 0 1 0;
#X connect 0 3 13 0;
#X connect 0 4 13 1;
#X connect 1 0 3 0;
#X connect 2 0 0 0;
#X connect 3 0 0 0;
#X connect 4 0 5 0;
#X connect 4 0 14 0;
#X connect 5 0 2 0;
#X connect 5 1 13 2;
#X connect 6 0 21 1;
#X connect 7 0 21 0;
#X connect 7 0 22 0;
#X connect 8 0 22 1;
#X connect 9 0 16 0;
#X connect 10 0 26 0;
#X connect 11 0 18 0;
#X connect 12 0 9 0;
#X connect 12 1 9 1;
#X connect 13 0 21 0;
#X connect 13 1 22 0;
#X connect 14 0 15 0;
#X connect 16 0 17 0;
#X connect 18 0 12 0;
#X connect 21 0 27 0;
#X connect 22 0 28 0;
#X connect 26 0 9 0;
#X connect 27 0 6 0;
#X connect 27 0 10 0;
#X connect 27 0 19 0;
#X connect 28 0 8 0;
#X connect 28 0 11 0;
#X connect 28 0 20 0;
#X coords 0 -1 1 1 133 133 2 200 20;
