#N canvas 343 68 636 687 10;
#X obj 49 529 pix_snap2tex;
#X msg 89 502 0 0;
#X obj 89 479 t b b;
#X obj 89 460 loadbang;
#X msg 4 136 print;
#X obj 49 411 glsl_program;
#X obj 122 337 pack 0 0;
#X msg 6 218 print;
#X obj 143 317 t b f;
#X obj 143 272 change;
#X obj 121 177 change;
#X msg 122 362 link \$1 \$2;
#X msg -2 343 print;
#X floatatom 143 298 2 0 0 0 ID - -;
#X floatatom 121 200 2 0 0 0 ID - -;
#X obj 140 383 print linking;
#X obj 49 252 glsl_fragment;
#X obj 49 158 glsl_vertex;
#X obj 71 109 bng 15 250 50 0 empty empty empty 0 -6 0 8 -262144 -1
-1;
#X text 108 110 <- 2 : load shader;
#X obj 49 437 t b a;
#X obj 49 574 outlet;
#X obj 71 85 loadbang;
#X obj 49 56 spigot;
#X obj 49 554 alpha 1;
#X obj 463 22 tgl 15 0 empty empty empty 17 7 0 10 -262144 -1 -1 1
1;
#X obj 402 22 bng 15 250 50 0 empty empty reload 17 7 0 10 -262144
-1 -1;
#X obj 34 20 inlet;
#X msg 234 386 thresh \$1;
#X msg 313 385 range \$1;
#X obj 215 -82 inlet;
#X obj 305 44 hsl 128 25 0 1 0 0 empty empty value 132 7 0 10 -262144
-1 -1 2400 1;
#X obj 305 82 hsl 128 25 0.01 0.5 0 0 empty empty range 132 7 0 10
-262144 -1 -1 0 1;
#X msg 432 331 full_color \$1;
#X obj 401 109 tgl 15 0 empty empty full_color 17 7 0 10 -262144 -1
-1 1 1;
#X obj 302 112 bng 25 250 50 0 empty empty pick_color 27 12 0 10 -262144
-1 -1;
#X obj 222 85 colorpanel;
#X obj 222 114 unpack f f f;
#X msg 352 279 green \$1;
#X msg 302 280 red \$1;
#X msg 418 281 blue \$1;
#X obj 302 143 vsl 30 128 0 1 0 0 empty empty empty 0 -9 0 10 -261234
-1 -1 0 1;
#X obj 352 143 vsl 30 128 0 1 0 0 empty empty empty 0 -9 0 10 -204786
-1 -1 0 1;
#X obj 402 143 vsl 30 128 0 1 0 0 empty empty empty 0 -9 0 10 -203904
-1 -1 12400 1;
#X msg 135 501 1024 768;
#X msg 63 137 open shader/bunt.vert;
#X msg 62 221 open shader/bunt.frag;
#X obj 215 -55 route value range red green blue;
#X obj 420 -26 print;
#X obj 498 151 s bunt_fullcolor1;
#X connect 0 0 24 0;
#X connect 1 0 0 1;
#X connect 2 0 1 0;
#X connect 2 1 44 0;
#X connect 3 0 2 0;
#X connect 4 0 17 0;
#X connect 5 0 20 0;
#X connect 6 0 11 0;
#X connect 7 0 16 0;
#X connect 8 0 6 0;
#X connect 8 1 6 1;
#X connect 9 0 13 0;
#X connect 10 0 14 0;
#X connect 11 0 5 0;
#X connect 11 0 15 0;
#X connect 12 0 5 0;
#X connect 13 0 8 0;
#X connect 14 0 6 0;
#X connect 16 0 5 0;
#X connect 16 1 9 0;
#X connect 17 0 16 0;
#X connect 17 1 10 0;
#X connect 18 0 45 0;
#X connect 18 0 46 0;
#X connect 20 0 0 0;
#X connect 20 1 0 0;
#X connect 22 0 18 0;
#X connect 23 0 17 0;
#X connect 24 0 21 0;
#X connect 25 0 23 1;
#X connect 26 0 18 0;
#X connect 27 0 23 0;
#X connect 28 0 5 0;
#X connect 29 0 5 0;
#X connect 30 0 47 0;
#X connect 31 0 28 0;
#X connect 32 0 29 0;
#X connect 33 0 5 0;
#X connect 34 0 33 0;
#X connect 34 0 49 0;
#X connect 35 0 36 0;
#X connect 36 0 37 0;
#X connect 37 0 41 0;
#X connect 37 1 42 0;
#X connect 37 2 43 0;
#X connect 38 0 5 0;
#X connect 39 0 5 0;
#X connect 40 0 5 0;
#X connect 41 0 39 0;
#X connect 42 0 38 0;
#X connect 43 0 40 0;
#X connect 44 0 0 2;
#X connect 45 0 17 0;
#X connect 46 0 16 0;
#X connect 47 0 31 0;
#X connect 47 1 32 0;
#X connect 47 2 41 0;
#X connect 47 3 42 0;
#X connect 47 4 43 0;
#X connect 47 5 48 0;
#X coords 0 -1 1 1 180 260 1 300 20;
