#N canvas 592 36 588 638 10;
#X obj 164 518 pix_snap2tex;
#X msg 119 125 print;
#X obj 164 400 glsl_program;
#X obj 237 326 pack 0 0;
#X msg 121 207 print;
#X obj 258 306 t b f;
#X obj 258 261 change;
#X obj 236 166 change;
#X msg 237 351 link \$1 \$2;
#X msg 181 353 print;
#X floatatom 258 287 2 0 0 0 ID - -;
#X floatatom 236 189 2 0 0 0 ID - -;
#X obj 255 372 print linking;
#X obj 164 241 glsl_fragment;
#X obj 164 147 glsl_vertex;
#X obj 186 98 bng 15 250 50 0 empty empty empty 0 -6 0 8 -262144 -1
-1;
#X obj 164 426 t b a;
#X obj 164 593 outlet;
#X obj 186 74 loadbang;
#X obj 131 70 spigot;
#X obj 164 543 alpha 1;
#X obj 463 22 tgl 15 0 empty empty empty 17 7 0 10 -262144 -1 -1 1
1;
#X obj 402 22 bng 15 250 50 0 empty empty reload 17 7 0 10 -262144
-1 -1;
#X obj 34 20 inlet;
#X obj 69 90 tgl 15 0 empty empty empty 17 7 0 10 -262144 -1 -1 0 -1
;
#X obj 69 63 - 1;
#X obj 37 114 spigot;
#X msg 178 127 open shader/cannyedge.vert;
#X msg 186 210 open shader/cannyedge.frag;
#X msg 310 323 threshhold \$1;
#X obj 285 41 hsl 128 15 0 1 0 0 empty empty threshhold 131 7 0 10
-262144 -1 -1 4500 1;
#X obj 282 430 print;
#X obj 21 270 t b f;
#X obj 21 314 / 1;
#X msg 21 291 1;
#X msg 21 363 width \$1;
#X obj 86 277 t b f;
#X obj 86 324 / 1;
#X msg 86 298 1;
#X msg 86 364 height \$1;
#X obj 86 344 f;
#X obj 21 338 f;
#X obj 17 212 pix_info;
#X obj 379 95 inlet;
#X obj 81 252 change;
#X obj 19 244 change;
#X obj 376 145 route threshhold brightness;
#X msg 430 320 brightness \$1;
#X connect 0 0 20 0;
#X connect 1 0 14 0;
#X connect 2 0 16 0;
#X connect 3 0 8 0;
#X connect 4 0 13 0;
#X connect 5 0 3 0;
#X connect 5 1 3 1;
#X connect 6 0 10 0;
#X connect 7 0 11 0;
#X connect 8 0 2 0;
#X connect 8 0 12 0;
#X connect 9 0 2 0;
#X connect 10 0 5 0;
#X connect 11 0 3 0;
#X connect 13 0 2 0;
#X connect 13 1 6 0;
#X connect 14 0 13 0;
#X connect 14 1 7 0;
#X connect 15 0 27 0;
#X connect 15 0 28 0;
#X connect 16 0 0 0;
#X connect 16 1 0 0;
#X connect 18 0 15 0;
#X connect 19 0 14 0;
#X connect 19 0 42 0;
#X connect 20 0 17 0;
#X connect 21 0 19 1;
#X connect 21 0 25 0;
#X connect 22 0 15 0;
#X connect 23 0 19 0;
#X connect 23 0 26 0;
#X connect 24 0 26 1;
#X connect 25 0 24 0;
#X connect 26 0 17 0;
#X connect 27 0 14 0;
#X connect 28 0 13 0;
#X connect 29 0 2 0;
#X connect 30 0 29 0;
#X connect 32 0 34 0;
#X connect 32 1 33 1;
#X connect 33 0 41 0;
#X connect 34 0 33 0;
#X connect 35 0 2 0;
#X connect 36 0 38 0;
#X connect 36 1 37 1;
#X connect 37 0 40 0;
#X connect 38 0 37 0;
#X connect 39 0 2 0;
#X connect 40 0 39 0;
#X connect 41 0 35 0;
#X connect 42 1 45 0;
#X connect 42 2 44 0;
#X connect 43 0 46 0;
#X connect 44 0 36 0;
#X connect 45 0 32 0;
#X connect 46 0 29 0;
#X connect 46 1 47 0;
#X connect 47 0 2 0;
#X coords 0 -1 1 1 200 38 1 280 20;
