#N canvas 252 334 1503 758 10;
#X obj 882 -1 Fenster;
#X obj -108 16 Cam;
#X obj -108 240 bunt;
#X obj 80 511 Textur;
#X obj 268 511 Textur;
#X obj 456 511 Textur;
#X obj -108 511 Textur;
#X obj 654 99 Textur;
#X obj 654 19 gaussblur5x5;
#X obj 654 51 cannyedge;
#X obj 36 16 sound2video_patcher;
#X obj 973 237 slmkii;
#N canvas 1136 683 489 298 bunt_ctrl2 0;
#X msg 9 43 green \$1;
#X obj 11 15 r fader2;
#X obj 9 187 outlet;
#X msg 88 123 range \$1;
#X msg 154 199 value \$1;
#X obj 157 149 r rot2;
#X obj 90 48 / 127;
#X obj 172 30 sel 0;
#X obj 197 52 bng 15 250 50 0 empty empty empty 17 7 0 10 -262144 -1
-1;
#X obj 200 80 f;
#X floatatom 252 85 5 0 0 0 - - -;
#X msg 132 49 1;
#X obj 105 88 * 1;
#X obj 102 21 r note_d;
#X obj 244 36 r fader6;
#X obj 171 7 r bunt_fullcolor2;
#X connect 0 0 2 0;
#X connect 1 0 0 0;
#X connect 3 0 2 0;
#X connect 4 0 2 0;
#X connect 5 0 4 0;
#X connect 6 0 12 0;
#X connect 7 0 11 0;
#X connect 7 1 8 0;
#X connect 8 0 9 0;
#X connect 9 0 12 1;
#X connect 11 0 12 1;
#X connect 12 0 3 0;
#X connect 13 0 6 0;
#X connect 14 0 9 1;
#X connect 14 0 10 0;
#X connect 14 0 12 1;
#X connect 15 0 7 0;
#X restore 120 197 pd bunt_ctrl2;
#N canvas 395 320 372 262 bunt_ctrl3 0;
#X obj 9 187 outlet;
#X obj 75 73 / 127;
#X msg 88 123 range \$1;
#X msg 9 43 green \$1 \, red \$1;
#X obj 11 15 r fader3;
#X obj 82 21 r note_e;
#X msg 174 119 value \$1;
#X obj 177 69 r rot3;
#X connect 1 0 2 0;
#X connect 2 0 0 0;
#X connect 3 0 0 0;
#X connect 4 0 3 0;
#X connect 5 0 1 0;
#X connect 6 0 0 0;
#X connect 7 0 6 0;
#X restore 280 197 pd bunt_ctrl3;
#N canvas 395 320 336 243 bunt_ctrl1 0;
#X obj 9 187 outlet;
#X obj 70 48 / 127;
#X msg 88 123 range \$1;
#X obj 82 21 r note_c;
#X obj 11 15 r fader1;
#X obj 164 124 r rot1;
#X msg 164 149 value \$1;
#X msg 9 43 blue \$1;
#X obj 151 7 r bunt_fullcolor1;
#X obj 152 30 sel 0;
#X obj 177 52 bng 15 250 50 0 empty empty empty 17 7 0 10 -262144 -1
-1;
#X obj 180 80 f;
#X obj 224 36 r fader5;
#X floatatom 232 85 5 0 0 0 - - -;
#X msg 112 49 1;
#X obj 85 88 * 1;
#X connect 1 0 15 0;
#X connect 2 0 0 0;
#X connect 3 0 1 0;
#X connect 4 0 7 0;
#X connect 5 0 6 0;
#X connect 6 0 0 0;
#X connect 7 0 0 0;
#X connect 8 0 9 0;
#X connect 9 0 14 0;
#X connect 9 1 10 0;
#X connect 10 0 11 0;
#X connect 11 0 15 1;
#X connect 12 0 11 1;
#X connect 12 0 13 0;
#X connect 12 0 15 1;
#X connect 14 0 15 1;
#X connect 15 0 2 0;
#X restore -41 206 pd bunt_ctrl1;
#N canvas 395 320 367 243 bunt_crl4 0;
#X obj 9 187 outlet;
#X obj 75 73 / 127;
#X msg 88 123 range \$1;
#X obj 82 21 r note_f;
#X obj 11 15 r fader4;
#X msg 158 84 value \$1;
#X obj 161 34 r rot4;
#X msg 9 42 red \$1;
#X connect 1 0 2 0;
#X connect 2 0 0 0;
#X connect 3 0 1 0;
#X connect 4 0 7 0;
#X connect 5 0 0 0;
#X connect 6 0 5 0;
#X connect 7 0 0 0;
#X restore 441 201 pd bunt_crl4;
#X obj 80 240 bunt;
#X obj 268 240 bunt;
#X obj 456 240 bunt;
#X obj 426 144 GLSL_multitexture 15 16;
#X obj 654 235 fraktal_shader;
#X obj 654 643 Textur;
#X connect 1 0 2 0;
#X connect 1 0 16 0;
#X connect 1 0 17 0;
#X connect 1 0 18 0;
#X connect 1 0 19 0;
#X connect 1 0 8 0;
#X connect 1 0 19 1;
#X connect 2 0 6 0;
#X connect 8 0 9 0;
#X connect 9 0 7 0;
#X connect 10 0 2 1;
#X connect 10 1 16 1;
#X connect 10 2 17 1;
#X connect 10 3 18 1;
#X connect 12 0 16 1;
#X connect 13 0 17 1;
#X connect 14 0 2 1;
#X connect 15 0 18 1;
#X connect 16 0 3 0;
#X connect 17 0 4 0;
#X connect 18 0 5 0;
#X connect 20 0 21 0;
