#N canvas 18 467 341 482 10;
#X obj 11 77 Colorfilter;
#X obj 11 296 Colorfilter;
#X obj 28 235 colorgrid colorgrid1 256 0 256 50 0 50 0 1 1 10 10 189
245;
#X obj 11 186 Colorfilter;
#X obj 28 125 colorgrid colorgrid1 256 0 256 50 0 50 0 1 1 10 10 205
138;
#X obj 11 416 Colorfilter;
#X obj 28 355 colorgrid colorgrid1 256 0 256 50 0 50 0 1 1 10 10 41
398;
#X obj 11 7 r bewegung;
#X obj 28 15 colorgrid colorgrid1 256 0 256 50 0 50 0 1 1 10 10 204
88;
#X connect 2 0 1 1;
#X connect 2 1 1 2;
#X connect 2 2 1 3;
#X connect 4 0 3 1;
#X connect 4 1 3 2;
#X connect 4 2 3 3;
#X connect 6 0 5 1;
#X connect 6 1 5 2;
#X connect 6 2 5 3;
#X connect 7 0 0 0;
#X connect 7 0 3 0;
#X connect 7 0 1 0;
#X connect 7 0 5 0;
#X connect 8 0 0 1;
#X connect 8 1 0 2;
#X connect 8 2 0 3;
