#N canvas 276 13 875 645 10;
#X obj 517 500 pix_snap2tex;
#X msg 557 473 0 0;
#X obj 557 450 t b b;
#X obj 557 431 loadbang;
#X msg 472 107 print;
#X obj 517 382 glsl_program;
#X obj 590 308 pack 0 0;
#X msg 474 189 print;
#X obj 611 288 t b f;
#X obj 611 243 change;
#X obj 589 148 change;
#X msg 590 333 link \$1 \$2;
#X msg 466 314 print;
#X floatatom 611 269 2 0 0 0 ID - -;
#X floatatom 589 171 2 0 0 0 ID - -;
#X obj 608 354 print linking;
#X obj 517 223 glsl_fragment;
#X obj 517 129 glsl_vertex;
#X obj 539 80 bng 15 250 50 0 empty empty empty 0 -6 0 8 -262144 -1
-1;
#X text 576 81 <- 2 : load shader;
#X obj 517 404 t b a;
#X floatatom 108 254 5 0 0 1 Iterationen - -;
#X floatatom 15 93 10 -2 2 1 X - -;
#X floatatom 25 243 5 0 0 1 Farbe - -;
#X msg 108 275 maxiterations \$1;
#X msg 15 113 x_offset \$1;
#X msg 26 275 color \$1;
#X floatatom 120 93 10 -2 2 1 Y - -;
#X msg 120 113 y_offset \$1;
#X obj 517 575 outlet;
#X obj 539 56 loadbang;
#X obj 517 27 spigot;
#X obj 291 54 tgl 15 0 empty empty empty 17 7 0 10 -262144 -1 -1 1
1;
#X obj 26 4 inlet;
#X obj 76 1 inlet;
#X obj 126 4 inlet;
#X obj 176 4 inlet;
#X floatatom 23 452 10 0 100 1 Faktor(unused) - -;
#X msg 24 524 factor \$1;
#X floatatom 24 495 10 0 0 0 - - -;
#X floatatom 27 323 5 0 0 1 rot - -;
#X msg 28 353 red \$1;
#X floatatom 91 324 5 0 0 1 grün - -;
#X msg 88 352 green \$1;
#X floatatom 160 324 5 0 0 1 blau - -;
#X msg 158 352 blue \$1;
#X floatatom 15 149 10 -2 2 1 a - -;
#X floatatom 120 149 10 -2 2 1 b - -;
#X msg 15 169 a_offset \$1;
#X msg 120 169 b_offset \$1;
#X floatatom 208 93 10 0 0 1 xy - -;
#X floatatom 208 149 10 -2 2 1 ab - -;
#X msg 208 113 xy_offset \$1;
#X msg 208 169 ab_offset \$1;
#X floatatom 27 198 10 -2 2 1 z_re - -;
#X floatatom 130 198 10 -2 2 1 z_im - -;
#X floatatom 220 198 10 0 0 1 z_b - -;
#X msg 27 218 zoom_re \$1;
#X msg 130 218 zoom_im \$1;
#X obj 245 342 bng 15 250 50 0 empty empty init 17 7 0 10 -262144 -1
-1;
#X obj 23 472 / 100000;
#X msg 29 409 infinity \$1;
#X floatatom 29 387 5 0 0 1 infinity - -;
#X obj -52 5 loadbang;
#X msg 26 27 0;
#X msg -26 123 1;
#X obj 345 129 s to_glslprogramm;
#X msg -26 94 0;
#X msg -37 196 200;
#X msg -50 290 0.04;
#X msg -61 350 16;
#X obj 344 176 s to_glslprogramm;
#X obj 343 247 s to_glslprogramm;
#X obj 395 344 r to_glslprogramm;
#X obj 334 302 s to_glslprogramm;
#X obj 336 404 s to_glslprogramm;
#X msg 220 218 zoom_b \$1;
#X obj -40 258 / 100000;
#X msg -42 230 512;
#X obj 116 30 unpack 0 0 0;
#X obj 239 9 unpack 0 0 0;
#X obj 333 76 unpack 0 0 0;
#X obj 201 390 bng 15 250 50 0 empty empty reset_a_and_z 17 7 0 10
-262144 -1 -1;
#X msg 528 193 open shader-standalone/mandelbrot1.frag;
#X msg 531 107 open shader-standalone/mandelbrot1.vert;
#X connect 0 0 38 0;
#X connect 0 0 29 0;
#X connect 2 0 1 0;
#X connect 3 0 2 0;
#X connect 4 0 17 0;
#X connect 5 0 20 0;
#X connect 6 0 11 0;
#X connect 7 0 16 0;
#X connect 8 0 6 0;
#X connect 8 1 6 1;
#X connect 9 0 13 0;
#X connect 10 0 14 0;
#X connect 11 0 5 0;
#X connect 11 0 15 0;
#X connect 12 0 5 0;
#X connect 13 0 8 0;
#X connect 14 0 6 0;
#X connect 16 0 5 0;
#X connect 16 1 9 0;
#X connect 17 0 16 0;
#X connect 17 1 10 0;
#X connect 18 0 84 0;
#X connect 18 0 83 0;
#X connect 20 0 0 0;
#X connect 20 1 0 0;
#X connect 21 0 24 0;
#X connect 22 0 25 0;
#X connect 23 0 77 0;
#X connect 24 0 74 0;
#X connect 25 0 66 0;
#X connect 26 0 74 0;
#X connect 27 0 28 0;
#X connect 28 0 66 0;
#X connect 30 0 18 0;
#X connect 31 0 17 0;
#X connect 32 0 31 1;
#X connect 33 0 79 0;
#X connect 34 0 80 0;
#X connect 35 0 81 0;
#X connect 37 0 60 0;
#X connect 39 0 38 0;
#X connect 40 0 41 0;
#X connect 41 0 75 0;
#X connect 42 0 43 0;
#X connect 43 0 75 0;
#X connect 44 0 45 0;
#X connect 45 0 75 0;
#X connect 46 0 48 0;
#X connect 47 0 49 0;
#X connect 48 0 71 0;
#X connect 49 0 71 0;
#X connect 50 0 52 0;
#X connect 51 0 53 0;
#X connect 53 0 71 0;
#X connect 54 0 57 0;
#X connect 55 0 58 0;
#X connect 56 0 76 0;
#X connect 56 0 55 0;
#X connect 56 0 54 0;
#X connect 59 0 50 0;
#X connect 59 0 27 0;
#X connect 59 0 22 0;
#X connect 60 0 39 0;
#X connect 61 0 75 0;
#X connect 62 0 61 0;
#X connect 63 0 64 0;
#X connect 63 0 67 0;
#X connect 63 0 65 0;
#X connect 63 0 78 0;
#X connect 63 0 68 0;
#X connect 63 0 69 0;
#X connect 63 0 70 0;
#X connect 64 0 22 0;
#X connect 64 0 27 0;
#X connect 64 0 50 0;
#X connect 65 0 56 0;
#X connect 65 0 55 0;
#X connect 65 0 54 0;
#X connect 67 0 46 0;
#X connect 67 0 47 0;
#X connect 67 0 51 0;
#X connect 68 0 21 0;
#X connect 69 0 40 0;
#X connect 69 0 42 0;
#X connect 69 0 44 0;
#X connect 70 0 62 0;
#X connect 73 0 5 0;
#X connect 76 0 72 0;
#X connect 77 0 26 0;
#X connect 78 0 23 0;
#X connect 79 0 22 0;
#X connect 79 1 27 0;
#X connect 80 0 46 0;
#X connect 80 1 47 0;
#X connect 80 2 51 0;
#X connect 81 2 56 0;
#X connect 82 0 67 0;
#X connect 82 0 65 0;
#X connect 83 0 16 0;
#X connect 84 0 17 0;
#X coords 0 -1 1 1 300 400 1 10 50;
