#N canvas 694 60 1185 974 10;
#X obj 536 502 loadbang;
#X obj 596 502 bng 15 250 50 0 empty empty empty 17 7 0 10 -262144
-1 -1;
#X floatatom 583 601 5 0 0 0 - - -;
#X obj 583 575 change;
#X obj 720 486 glsl_program;
#X obj 783 315 pack 0 0;
#X obj 801 292 t b f;
#X obj 801 250 change;
#X msg 783 341 link \$1 \$2;
#X floatatom 801 273 2 0 0 0 ID - -;
#X floatatom 783 168 2 0 0 0 ID - -;
#X obj 788 365 print linking;
#X obj 836 54 bng 15 250 50 0 empty empty empty 0 -6 0 8 -262144 -1
-1;
#X obj 720 230 glsl_fragment;
#N canvas 0 0 450 300 load_shader 0;
#X obj 89 99 t b b;
#X msg 119 126 0;
#X obj 89 154 outlet;
#X obj 89 71 gemhead 1;
#X connect 0 0 2 0;
#X connect 0 1 1 0;
#X connect 1 0 3 0;
#X connect 3 0 0 0;
#X restore 836 32 pd load_shader;
#X obj 783 146 change;
#X msg 735 104 open examples/GLSL_multitexture.vert;
#X msg 734 200 open examples/GLSL_multitexture.frag;
#X msg 681 432 print;
#X obj 720 126 glsl_vertex;
#X obj 720 10 tgl 15 0 empty empty empty 17 7 0 10 -262144 -1 -1 1
1;
#X obj 273 490 loadbang;
#X obj 333 490 bng 15 250 50 0 empty empty empty 17 7 0 10 -262144
-1 -1;
#X floatatom 320 589 5 0 0 0 - - -;
#X obj 320 563 change;
#X obj 191 436 inlet;
#X obj 260 535 gemframebuffer;
#X obj 523 547 gemframebuffer;
#X floatatom 333 667 5 0 0 0 - - -;
#X floatatom 589 665 5 0 0 0 - - -;
#X msg 863 411 MyTex1 1;
#X msg 864 436 MyTex 1;
#X msg 930 412 MyTex1 2;
#X msg 935 437 MyTex 2;
#X obj 371 725 Textur;
#X obj 434 307 inlet;
#X obj 435 348 pix_separator;
#X obj 527 435 gemhead 20;
#X obj 264 424 gemhead 30;
#X obj 262 631 pix_texture;
#X obj 521 632 pix_texture;
#X msg 274 512 texunit 0 \, rectangle 1;
#X msg 536 525 texunit 1 \, rectangle 1;
#X msg 343 99 colorspace RGBA;
#N canvas 897 390 218 230 flip 0;
#X obj 12 10 inlet;
#X obj 12 176 outlet;
#X obj 12 85 rotateXYZ 0 180 0;
#X obj 65 10 inlet;
#X obj 65 31 sel 0;
#X msg 65 52 0;
#X msg 98 52 180;
#X obj 135 10 inlet;
#X obj 135 31 sel 0;
#X msg 135 52 0;
#X msg 168 52 180;
#X connect 0 0 2 0;
#X connect 2 0 1 0;
#X connect 3 0 4 0;
#X connect 4 0 5 0;
#X connect 4 1 6 0;
#X connect 5 0 2 1;
#X connect 6 0 2 1;
#X connect 7 0 8 0;
#X connect 8 0 9 0;
#X connect 8 1 10 0;
#X connect 9 0 2 2;
#X connect 10 0 2 2;
#X restore 249 290 pd flip;
#X obj 281 236 tgl 15 0 empty empty vert 17 7 0 10 -262144 -1 -1 0
1;
#X obj 331 236 tgl 15 0 empty empty horiz 17 7 0 10 -262144 -1 -1 0
1;
#X text 279 218 spiegeln;
#X obj 384 208 tgl 15 0 empty empty empty 17 7 0 10 -262144 -1 -1 1
1;
#X obj 249 121 spigot;
#X obj 432 172 loadbang;
#X obj 426 236 sel 1;
#X msg 368 137 open 0;
#X msg 427 136 close;
#X floatatom 281 260 5 0 0 1 X - -;
#X msg 264 350 dimen \$1 \$2;
#X msg 462 100 dialog;
#X obj 249 182 pix_video;
#X msg 339 75 dimen 1280 720;
#X obj 289 315 pack 640 480;
#X floatatom 330 260 5 0 0 1 Y - -;
#X obj 14 779 outlet;
#X obj 249 99 gemhead 99;
#X obj 2 13 Fenster;
#X msg 795 411 MyTex1 5;
#X msg 796 436 MyTex 6;
#X obj 718 561 Textur;
#X obj 720 32 gemhead 10;
#X connect 0 0 42 0;
#X connect 1 0 42 0;
#X connect 3 0 2 0;
#X connect 4 0 66 0;
#X connect 5 0 8 0;
#X connect 6 0 5 0;
#X connect 6 1 5 1;
#X connect 7 0 9 0;
#X connect 8 0 4 0;
#X connect 8 0 11 0;
#X connect 9 0 6 0;
#X connect 10 0 5 0;
#X connect 12 0 16 0;
#X connect 12 0 17 0;
#X connect 13 0 4 0;
#X connect 13 1 7 0;
#X connect 14 0 12 0;
#X connect 15 0 10 0;
#X connect 16 0 19 0;
#X connect 17 0 13 0;
#X connect 18 0 4 0;
#X connect 19 0 13 0;
#X connect 19 1 15 0;
#X connect 20 0 67 0;
#X connect 21 0 41 0;
#X connect 22 0 41 0;
#X connect 24 0 23 0;
#X connect 25 0 26 0;
#X connect 26 0 39 0;
#X connect 26 1 24 0;
#X connect 27 0 40 0;
#X connect 27 1 3 0;
#X connect 30 0 4 0;
#X connect 31 0 4 0;
#X connect 32 0 4 0;
#X connect 33 0 4 0;
#X connect 35 0 36 0;
#X connect 36 0 27 0;
#X connect 37 0 27 0;
#X connect 38 0 26 0;
#X connect 39 1 28 0;
#X connect 40 1 29 0;
#X connect 41 0 26 0;
#X connect 41 0 39 0;
#X connect 42 0 27 0;
#X connect 42 0 40 0;
#X connect 43 0 57 0;
#X connect 44 0 61 0;
#X connect 44 0 26 0;
#X connect 44 0 36 0;
#X connect 45 0 44 1;
#X connect 46 0 44 2;
#X connect 48 0 49 1;
#X connect 48 0 51 0;
#X connect 49 0 57 0;
#X connect 50 0 48 0;
#X connect 51 0 52 0;
#X connect 51 1 53 0;
#X connect 52 0 57 0;
#X connect 53 0 57 0;
#X connect 54 0 59 0;
#X connect 55 0 57 0;
#X connect 56 0 57 0;
#X connect 57 0 44 0;
#X connect 58 0 57 0;
#X connect 59 0 55 0;
#X connect 60 0 59 1;
#X connect 62 0 49 0;
#X connect 64 0 4 0;
#X connect 65 0 4 0;
#X connect 67 0 19 0;
