#N canvas 752 12 1080 971 12;
#X obj 209 336 hidin;
#X msg 211 70 start;
#X msg 224 99 stop;
#X msg 264 235 close;
#X msg 266 261 show;
#X floatatom 2 489 5 0 0 0 - - -;
#X floatatom 41 489 5 0 0 0 - - -;
#X floatatom 80 489 5 0 0 0 - - -;
#X floatatom 119 489 5 0 0 0 - - -;
#X floatatom 158 489 5 0 0 0 - - -;
#X text 338 136 the interval between each event (in ms);
#X msg 270 287 print;
#X msg 248 206 open 4;
#X obj 18 374 cyclone/prepend set;
#X msg 18 420 2 128;
#X obj 271 436 route 1 2 3 4 5 6 7 8 9 10 11 12 13 14 15 16 17 18 19
;
#X text 178 408 [hidin] numbers the elements in the order that it finds
them;
#N canvas 162 133 578 428 serin 0;
#X obj 209 61 cnv 15 15 15 empty \$0-open-canvas 4 4 8 0 14 -233017
-1 0;
#X obj 60 61 hradio 15 1 1 10 empty empty empty 0 -6 0 8 -225271 -1
-1 4;
#X obj 60 13 inlet;
#X msg 200 202 label \$1;
#X obj 200 180 makefilename %d;
#X obj 59 108 int;
#X obj 59 337 outlet;
#X msg 201 306 set \$1 \$2;
#X obj 59 266 trigger bang anything;
#X obj 201 286 list;
#X msg 60 210 open \$1;
#X obj 200 225 send \$0-open-canvas;
#X connect 1 0 5 0;
#X connect 2 0 1 0;
#X connect 3 0 11 0;
#X connect 4 0 3 0;
#X connect 5 0 4 0;
#X connect 5 0 10 0;
#X connect 7 0 6 0;
#X connect 8 0 6 0;
#X connect 8 1 9 0;
#X connect 9 0 7 0;
#X connect 10 0 8 0;
#X coords 0 -1 1 1 165 17 1 60 60;
#X restore 248 179 pd serin;
#X text 303 260 print the available elements of the current device
;
#X text 314 288 print the available devices to the Pd window;
#X text 24 394 message format:;
#X msg 238 136 interval 10;
#X msg 192 38 bang;
#X text 228 37 prints a list of devices to the right outlet;
#X obj 257 375 print DEVICES;
#X floatatom 233 547 5 0 0 0 - - -;
#X obj 361 682 pack 0 0 0;
#X obj 298 546 + 0;
#X obj 340 545 f;
#X floatatom 298 577 5 0 0 0 - - -;
#X obj 361 716 outlet;
#X floatatom 412 547 5 0 0 0 - - -;
#X obj 411 505 autoscale -0.05 0.05;
#X obj 477 546 + 0;
#X obj 519 545 f;
#X floatatom 477 577 5 0 0 0 - - -;
#X floatatom 604 544 5 0 0 0 - - -;
#X obj 603 502 autoscale -0.05 0.05;
#X obj 770 674 pack 0 0 0;
#X obj 669 543 + 0;
#X obj 711 542 f;
#X floatatom 669 574 5 0 0 0 - - -;
#X obj 763 747 outlet;
#X floatatom 783 547 5 0 0 0 - - -;
#X obj 782 505 autoscale -0.05 0.05;
#X obj 848 546 + 0;
#X obj 890 545 f;
#X floatatom 848 577 5 0 0 0 - - -;
#X obj 232 505 autoscale 0.05 -0.05;
#X obj 363 625 t b f;
#X obj 773 594 t b f;
#X msg 624 659 1;
#X floatatom 637 694 5 0 0 0 - - -;
#X obj 105 110 bng 15 250 50 0 empty empty reset_to_0 17 7 0 10 -262144
-1 -1;
#X msg 108 307 0;
#X msg 163 308 1;
#X obj 437 644 /;
#X obj 534 644 /;
#X obj 486 644 /;
#X connect 0 0 13 0;
#X connect 0 0 15 0;
#X connect 0 1 24 0;
#X connect 1 0 0 0;
#X connect 2 0 0 0;
#X connect 3 0 0 0;
#X connect 4 0 0 0;
#X connect 11 0 0 0;
#X connect 12 0 0 0;
#X connect 13 0 14 0;
#X connect 15 0 5 0;
#X connect 15 0 44 0;
#X connect 15 1 6 0;
#X connect 15 1 37 0;
#X connect 15 2 7 0;
#X connect 15 2 32 0;
#X connect 15 3 8 0;
#X connect 15 3 48 0;
#X connect 15 4 9 0;
#X connect 17 0 12 0;
#X connect 21 0 0 0;
#X connect 22 0 0 0;
#X connect 26 0 30 0;
#X connect 27 0 28 0;
#X connect 27 0 29 0;
#X connect 28 0 27 1;
#X connect 29 0 26 0;
#X connect 32 0 31 0;
#X connect 32 0 58 0;
#X connect 33 0 34 0;
#X connect 33 0 35 0;
#X connect 34 0 33 1;
#X connect 35 0 49 0;
#X connect 37 0 36 0;
#X connect 37 0 39 0;
#X connect 38 0 42 0;
#X connect 39 0 40 0;
#X connect 39 0 41 0;
#X connect 40 0 39 1;
#X connect 41 0 50 0;
#X connect 44 0 43 0;
#X connect 44 0 45 0;
#X connect 45 0 46 0;
#X connect 45 0 47 0;
#X connect 46 0 45 1;
#X connect 48 0 25 0;
#X connect 48 0 56 0;
#X connect 49 0 26 0;
#X connect 49 1 26 1;
#X connect 50 0 38 0;
#X connect 50 0 51 0;
#X connect 50 1 38 2;
#X connect 50 1 58 1;
#X connect 50 1 56 1;
#X connect 51 0 52 0;
#X connect 52 0 38 0;
#X connect 52 0 38 1;
#X connect 53 0 54 0;
#X connect 53 0 55 0;
#X connect 54 0 34 0;
#X connect 54 0 28 0;
#X connect 55 0 40 0;
#X connect 55 0 46 0;
#X connect 56 0 27 0;
#X connect 58 0 33 0;
#X coords 0 -1 1 1 85 60 1 100 100;
