#N canvas 1022 404 884 708 10;
#X obj 14 17 Fenster;
#X obj 463 507 glsl_program;
#X obj 526 317 pack 0 0;
#X obj 544 294 t b f;
#X obj 544 252 change;
#X msg 526 343 link \$1 \$2;
#X floatatom 544 275 2 0 0 0 ID - -;
#X floatatom 526 170 2 0 0 0 ID - -;
#X obj 531 367 print linking;
#X obj 579 56 bng 15 250 50 0 empty empty empty 0 -6 0 8 -262144 -1
-1;
#X obj 463 232 glsl_fragment;
#N canvas 0 0 450 300 load_shader 0;
#X obj 89 99 t b b;
#X msg 119 126 0;
#X obj 89 154 outlet;
#X obj 89 71 gemhead 1;
#X connect 0 0 2 0;
#X connect 0 1 1 0;
#X connect 1 0 3 0;
#X connect 3 0 0 0;
#X restore 579 34 pd load_shader;
#X obj 526 148 change;
#X msg 478 106 open examples/GLSL_multitexture.vert;
#X msg 477 202 open examples/GLSL_multitexture.frag;
#X msg 424 434 print;
#X obj 463 128 glsl_vertex;
#X msg 539 438 MyTex 0;
#X msg 606 413 MyTex1 1;
#X msg 607 438 MyTex 1;
#X msg 538 413 MyTex1 0;
#X msg 673 414 MyTex1 2;
#X msg 678 439 MyTex 2;
#X msg 665 494 MyTex1 \$1;
#X msg 602 493 MyTex \$1;
#X floatatom 691 467 5 0 0 0 - - -;
#X floatatom 620 469 5 0 0 0 - - -;
#X obj 313 287 pix_video;
#X msg 329 253 open 0;
#X obj 58 516 pix_texture;
#X obj 463 580 pix_texture;
#X obj 463 643 rectangle 2 2;
#X obj 57 619 rectangle 2 2;
#X msg 103 424 texunit 0 \, rectangle 0;
#X obj 357 103 pix_texture;
#X obj 249 506 pix_texture;
#X obj 264 643 rectangle 2 2;
#X obj 263 613 translateXYZ -2 2 0;
#X obj 56 590 translateXYZ 0 -4 0;
#X obj 315 55 gemhead 5;
#X obj 466 46 gemhead 3;
#X obj 463 614 translateXYZ 2 0 0;
#X floatatom 304 558 5 0 0 0 - - -;
#X floatatom 117 551 5 0 0 0 - - -;
#X msg 480 548 texunit 2 \, rectangle 0;
#X msg 298 458 texunit 2 \, rectangle 0;
#X obj 75 325 pix_delay 10;
#X text 49 168 FIXME: pix_delay not working!!!!;
#X connect 1 0 30 0;
#X connect 2 0 5 0;
#X connect 3 0 2 0;
#X connect 3 1 2 1;
#X connect 4 0 6 0;
#X connect 5 0 1 0;
#X connect 5 0 8 0;
#X connect 6 0 3 0;
#X connect 7 0 2 0;
#X connect 9 0 13 0;
#X connect 9 0 14 0;
#X connect 10 0 1 0;
#X connect 10 1 4 0;
#X connect 11 0 9 0;
#X connect 12 0 7 0;
#X connect 13 0 16 0;
#X connect 14 0 10 0;
#X connect 15 0 1 0;
#X connect 16 0 10 0;
#X connect 16 1 12 0;
#X connect 17 0 1 0;
#X connect 18 0 1 0;
#X connect 19 0 1 0;
#X connect 20 0 1 0;
#X connect 21 0 1 0;
#X connect 22 0 1 0;
#X connect 23 0 1 0;
#X connect 24 0 1 0;
#X connect 25 0 23 0;
#X connect 26 0 24 0;
#X connect 27 0 46 0;
#X connect 27 0 35 0;
#X connect 28 0 27 0;
#X connect 29 0 38 0;
#X connect 29 1 43 0;
#X connect 30 0 41 0;
#X connect 33 0 29 0;
#X connect 35 0 37 0;
#X connect 35 1 30 1;
#X connect 35 1 42 0;
#X connect 37 0 36 0;
#X connect 38 0 32 0;
#X connect 39 0 27 0;
#X connect 40 0 16 0;
#X connect 41 0 31 0;
#X connect 44 0 30 0;
#X connect 45 0 35 0;
#X connect 46 0 29 0;
