#N canvas 211 19 933 632 10;
#X msg 119 205 print;
#X msg 121 287 print;
#X obj 128 69 spigot;
#X obj 463 22 tgl 15 0 empty empty empty 17 7 0 10 -262144 -1 -1 0
1;
#X obj 402 22 bng 15 250 50 0 empty empty reload 17 7 0 10 -262144
-1 -1;
#X obj 34 20 inlet;
#X obj 69 90 tgl 15 0 empty empty empty 17 7 0 10 -262144 -1 -1 0 -1
;
#X obj 69 63 - 1;
#X obj 37 114 spigot;
#X obj 21 320 t b f;
#X obj 21 364 / 1;
#X msg 21 341 1;
#X msg 21 413 width \$1;
#X obj 86 327 t b f;
#X obj 86 374 / 1;
#X msg 86 348 1;
#X msg 86 414 height \$1;
#X obj 86 394 f;
#X obj 21 388 f;
#X obj 16 276 pix_info;
#X obj 818 35 inlet;
#X obj 277 510 glsl_program;
#X obj 340 347 pack 0 0;
#X obj 358 324 t b f;
#X obj 358 282 change;
#X msg 340 373 link \$1 \$2;
#X floatatom 358 305 2 0 0 0 ID - -;
#X floatatom 340 200 2 0 0 0 ID - -;
#X obj 345 397 print linking;
#X obj 393 86 bng 15 250 50 0 empty empty empty 0 -6 0 8 -262144 -1
-1;
#X obj 277 158 glsl_vertex;
#X obj 277 262 glsl_fragment;
#N canvas 0 0 450 300 load_shader 0;
#X obj 89 99 t b b;
#X msg 119 126 0;
#X obj 89 154 outlet;
#X obj 89 71 gemhead 1;
#X connect 0 0 2 0;
#X connect 0 1 1 0;
#X connect 1 0 3 0;
#X connect 3 0 0 0;
#X restore 393 64 pd load_shader;
#X obj 340 177 change;
#X msg 474 356 MyTex1 \$1;
#X msg 669 356 MyTex2 \$1;
#X obj 541 294 loadbang;
#X msg 541 356 texunit \$1;
#X obj 552 452 pix_texture;
#X obj 736 294 loadbang;
#X obj 736 315 f \$2;
#X obj 669 336 f;
#X obj 474 336 f;
#X obj 541 314 f \$1;
#X obj 473 119 outlet;
#X obj 277 603 pix_texture;
#X msg 736 356 texunit \$1;
#X obj 748 452 pix_texture;
#X obj 277 581 pix_set;
#X msg 311 553 texunit 0;
#X obj 311 531 loadbang;
#X obj 277 85 gemframebuffer;
#X obj 573 395 pix_info -------;
#X obj 748 399 pix_info -------;
#X obj 631 421 route 1;
#X obj 631 442 t b;
#X obj 554 99 loadbang;
#X obj 554 120 pack \$3 \$4;
#X msg 554 150 dimen \$1 \$2 \, format RGB32;
#X obj 277 64 gemhead 50;
#X msg 292 136 open examples/GLSL_multitexture.vert;
#X msg 291 232 open examples/GLSL_multitexture.frag;
#X obj 758 79 spigot;
#X connect 2 0 52 0;
#X connect 3 0 2 1;
#X connect 3 0 7 0;
#X connect 3 0 62 1;
#X connect 4 0 29 0;
#X connect 5 0 2 0;
#X connect 5 0 8 0;
#X connect 6 0 8 1;
#X connect 7 0 6 0;
#X connect 9 0 11 0;
#X connect 9 1 10 1;
#X connect 10 0 18 0;
#X connect 11 0 10 0;
#X connect 13 0 15 0;
#X connect 13 1 14 1;
#X connect 14 0 17 0;
#X connect 15 0 14 0;
#X connect 17 0 16 0;
#X connect 18 0 12 0;
#X connect 19 1 9 0;
#X connect 19 2 13 0;
#X connect 20 0 62 0;
#X connect 21 0 48 0;
#X connect 22 0 25 0;
#X connect 23 0 22 0;
#X connect 23 1 22 1;
#X connect 24 0 26 0;
#X connect 25 0 21 0;
#X connect 25 0 28 0;
#X connect 26 0 23 0;
#X connect 27 0 22 0;
#X connect 29 0 60 0;
#X connect 29 0 61 0;
#X connect 30 0 31 0;
#X connect 30 1 33 0;
#X connect 31 0 21 0;
#X connect 31 1 24 0;
#X connect 32 0 29 0;
#X connect 33 0 27 0;
#X connect 34 0 21 0;
#X connect 35 0 21 0;
#X connect 36 0 43 0;
#X connect 37 0 38 0;
#X connect 39 0 40 0;
#X connect 40 0 41 0;
#X connect 40 0 46 0;
#X connect 41 0 35 0;
#X connect 42 0 34 0;
#X connect 43 0 37 0;
#X connect 43 0 42 0;
#X connect 46 0 47 0;
#X connect 48 0 45 0;
#X connect 49 0 45 0;
#X connect 50 0 49 0;
#X connect 51 0 30 0;
#X connect 51 1 44 0;
#X connect 52 0 38 0;
#X connect 52 6 54 0;
#X connect 53 0 47 0;
#X connect 54 0 55 0;
#X connect 55 0 42 0;
#X connect 56 0 57 0;
#X connect 57 0 58 0;
#X connect 58 0 51 0;
#X connect 59 0 51 0;
#X connect 60 0 30 0;
#X connect 61 0 31 0;
#X connect 62 0 53 0;
#X coords 0 -1 1 1 200 38 1 280 20;
