#N canvas 323 79 682 638 10;
#X obj 164 518 pix_snap2tex;
#X msg 204 491 0 0;
#X obj 204 468 t b b;
#X obj 204 449 loadbang;
#X msg 119 125 print;
#X obj 164 400 glsl_program;
#X obj 237 326 pack 0 0;
#X msg 121 207 print;
#X obj 258 306 t b f;
#X obj 258 261 change;
#X obj 236 166 change;
#X msg 237 351 link \$1 \$2;
#X msg 181 353 print;
#X floatatom 258 287 2 0 0 0 ID - -;
#X floatatom 236 189 2 0 0 0 ID - -;
#X obj 255 372 print linking;
#X obj 164 241 glsl_fragment;
#X obj 164 147 glsl_vertex;
#X obj 186 98 bng 15 250 50 0 empty empty empty 0 -6 0 8 -262144 -1
-1;
#X obj 164 426 t b a;
#X obj 164 593 outlet;
#X obj 186 74 loadbang;
#X obj 131 70 spigot;
#X obj 164 543 alpha 1;
#X obj 463 22 tgl 15 0 empty empty empty 17 7 0 10 -262144 -1 -1 1
1;
#X obj 402 22 bng 15 250 50 0 empty empty reload 17 7 0 10 -262144
-1 -1;
#X msg 250 490 640 480;
#X obj 34 20 inlet;
#X obj 171 324 inlet;
#X obj 69 90 tgl 15 0 empty empty empty 17 7 0 10 -262144 -1 -1 0 -1
;
#X obj 69 63 - 1;
#X obj 37 114 spigot;
#X text 384 71 momentan alles mit fenstergröße 1024x768 in den .frag
Dateien eingetragen!!;
#X msg 178 127 open shader/cannyedge.vert;
#X msg 186 210 open shader/cannyedge.frag;
#X connect 0 0 23 0;
#X connect 1 0 0 1;
#X connect 2 0 1 0;
#X connect 2 1 26 0;
#X connect 3 0 2 0;
#X connect 4 0 17 0;
#X connect 5 0 19 0;
#X connect 6 0 11 0;
#X connect 7 0 16 0;
#X connect 8 0 6 0;
#X connect 8 1 6 1;
#X connect 9 0 13 0;
#X connect 10 0 14 0;
#X connect 11 0 5 0;
#X connect 11 0 15 0;
#X connect 12 0 5 0;
#X connect 13 0 8 0;
#X connect 14 0 6 0;
#X connect 16 0 5 0;
#X connect 16 1 9 0;
#X connect 17 0 16 0;
#X connect 17 1 10 0;
#X connect 18 0 33 0;
#X connect 18 0 34 0;
#X connect 19 0 0 0;
#X connect 19 1 0 0;
#X connect 21 0 18 0;
#X connect 22 0 17 0;
#X connect 23 0 20 0;
#X connect 24 0 22 1;
#X connect 24 0 30 0;
#X connect 25 0 18 0;
#X connect 26 0 0 2;
#X connect 27 0 22 0;
#X connect 27 0 31 0;
#X connect 28 0 5 0;
#X connect 29 0 31 1;
#X connect 30 0 29 0;
#X connect 31 0 20 0;
#X connect 33 0 17 0;
#X connect 34 0 16 0;
#X coords 0 -1 1 1 180 19 1 300 20;
