#N canvas 815 133 759 599 10;
#X obj 209 403 spigot~;
#X msg 276 339 1;
#X obj 243 381 tgl 15 0 empty empty empty 17 7 0 10 -262144 -1 -1 0
1;
#X obj 343 401 spigot~;
#X msg 400 337 1;
#X obj 377 379 tgl 15 0 empty empty empty 17 7 0 10 -262144 -1 -1 1
1;
#X obj 476 402 spigot~;
#X msg 531 338 1;
#X obj 510 380 tgl 15 0 empty empty empty 17 7 0 10 -262144 -1 -1 1
1;
#X obj 157 488 s~ \$0-out1;
#X obj 181 124 r~ \$0-out1;
#X obj 287 105 r~ \$0-out2;
#X obj 307 491 s~ \$0-out2;
#X obj 447 471 s~ \$0-out3;
#X obj 423 109 r~ \$0-out3;
#X obj 180 150 NoteLED;
#X obj 208 28 loadbang;
#X obj 183 458 throw~ \$0-out;
#X obj 336 462 throw~ \$0-out;
#X obj 472 434 throw~ \$0-out;
#X obj 45 54 catch~ \$0-out;
#X obj 53 318 outlet~;
#X obj 196 380 inlet~;
#X obj 330 378 inlet~;
#X obj 463 379 inlet~;
#X obj 236 87 list append \$1;
#X obj 371 90 list append \$2;
#X obj 494 87 list append \$3;
#X obj 228 58 bng 15 250 50 0 empty empty empty 17 7 0 10 -262144 -1
-1;
#X obj 182 212 tgl 15 0 empty \$0-t1 empty 17 7 0 10 -262144 -1 -1
-1 -1;
#X obj 268 213 tgl 15 0 empty \$0-t2 empty 17 7 0 10 -262144 -1 -1
0 -1;
#X obj 352 214 tgl 15 0 empty \$0-t3 empty 17 7 0 10 -262144 -1 -1
0 -1;
#X obj 546 389 - 1;
#X obj 542 414 s \$0-t3;
#X obj 396 405 - 1;
#X obj 396 435 s \$0-t2;
#X obj 265 404 - 1;
#X obj 265 434 s \$0-t1;
#X obj 265 151 NoteLED;
#X obj 350 151 NoteLED;
#X msg 230 345 0;
#X msg 363 339 0;
#X msg 484 335 0;
#X obj 511 254 loadbang;
#X connect 0 0 9 0;
#X connect 0 0 17 0;
#X connect 1 0 2 0;
#X connect 2 0 0 1;
#X connect 2 0 36 0;
#X connect 3 0 12 0;
#X connect 3 0 18 0;
#X connect 4 0 5 0;
#X connect 5 0 3 1;
#X connect 5 0 34 0;
#X connect 6 0 13 0;
#X connect 6 0 19 0;
#X connect 7 0 8 0;
#X connect 8 0 6 1;
#X connect 8 0 32 0;
#X connect 10 0 15 1;
#X connect 11 0 38 1;
#X connect 14 0 39 1;
#X connect 15 0 4 0;
#X connect 15 0 7 0;
#X connect 15 0 40 0;
#X connect 16 0 28 0;
#X connect 20 0 21 0;
#X connect 22 0 0 0;
#X connect 23 0 3 0;
#X connect 24 0 6 0;
#X connect 25 0 15 0;
#X connect 26 0 38 0;
#X connect 27 0 39 0;
#X connect 28 0 25 0;
#X connect 28 0 26 0;
#X connect 28 0 27 0;
#X connect 32 0 33 0;
#X connect 34 0 35 0;
#X connect 36 0 37 0;
#X connect 38 0 1 0;
#X connect 38 0 7 0;
#X connect 38 0 41 0;
#X connect 39 0 1 0;
#X connect 39 0 4 0;
#X connect 39 0 42 0;
#X connect 40 0 2 0;
#X connect 41 0 5 0;
#X connect 42 0 8 0;
#X connect 43 0 40 0;
#X connect 43 0 4 0;
#X connect 43 0 7 0;
#X coords 0 -1 1 1 300 100 1 180 130;
