#N canvas 481 57 1041 801 10;
#N canvas 1147 137 450 300 meter 0;
#X obj 46 26 inlet~;
#X obj 43 145 vu 15 120 empty empty -1 -8 0 10 -66577 -1 1 0;
#X obj 47 107 env~;
#X obj 48 66 *~;
#X floatatom 151 74 3 -99 300 0 - - -;
#X obj 157 107 dbtorms;
#X obj 159 6 loadbang;
#X msg 159 39 15;
#X connect 0 0 3 0;
#X connect 2 0 1 0;
#X connect 3 0 2 0;
#X connect 4 0 5 0;
#X connect 5 0 3 1;
#X connect 6 0 7 0;
#X connect 7 0 4 0;
#X coords 0 -1 1 1 50 130 2 40 140;
#X restore 9 -7 pd meter;
#X obj 271 -13 adc~ 1 2 3;
#X obj 275 160 adc~ 4 5 6;
#X obj 269 314 adc~ 7 8 9;
#X obj 274 462 adc~ 10 11 12;
#X obj 76 181 dac~ 1;
#X obj 70 488 dac~ 3;
#X obj 73 637 dac~ 4;
#X obj 794 -13 adc~ 13 14 15;
#X obj 798 160 adc~ 16 17 18;
#X obj 792 314 adc~ 19 20 21;
#X obj 797 462 adc~ 22 23 24;
#X obj 569 187 dac~ 5;
#X obj 569 333 dac~ 6;
#X obj 575 477 dac~ 7;
#X obj 572 625 dac~ 8;
#X obj 168 36 LiveBus_channel 24 25 26;
#X obj 167 196 LiveBus_channel 27 28 29;
#X obj 169 348 LiveBus_channel 30 31 32;
#X obj 168 494 LiveBus_channel 33 34 35;
#X obj 691 36 LiveBus_channel 36 37 38;
#X obj 690 196 LiveBus_channel 39 40 41;
#X obj 692 348 LiveBus_channel 42 43 44;
#X obj 691 494 LiveBus_channel 45 46 47;
#X obj 32 147 midi_cc_volume 110;
#X obj 34 299 midi_cc_volume 111;
#X obj 71 331 dac~ 2;
#X obj 37 461 midi_cc_volume 112;
#X obj 34 603 midi_cc_volume 113;
#X obj 536 144 midi_cc_volume 114;
#X obj 536 306 midi_cc_volume 115;
#X obj 539 453 midi_cc_volume 116;
#X obj 540 603 midi_cc_volume 117;
#X connect 1 0 16 0;
#X connect 1 1 16 1;
#X connect 1 2 16 2;
#X connect 2 0 17 0;
#X connect 2 1 17 1;
#X connect 2 2 17 2;
#X connect 3 0 18 0;
#X connect 3 1 18 1;
#X connect 3 2 18 2;
#X connect 4 0 19 0;
#X connect 4 1 19 1;
#X connect 4 2 19 2;
#X connect 8 0 20 0;
#X connect 8 1 20 1;
#X connect 8 2 20 2;
#X connect 9 0 21 0;
#X connect 9 1 21 1;
#X connect 9 2 21 2;
#X connect 10 0 22 0;
#X connect 10 1 22 1;
#X connect 10 2 22 2;
#X connect 11 0 23 0;
#X connect 11 1 23 1;
#X connect 11 2 23 2;
#X connect 16 0 24 0;
#X connect 17 0 25 0;
#X connect 18 0 27 0;
#X connect 19 0 28 0;
#X connect 20 0 29 0;
#X connect 21 0 30 0;
#X connect 22 0 31 0;
#X connect 23 0 32 0;
#X connect 24 0 5 0;
#X connect 25 0 26 0;
#X connect 27 0 6 0;
#X connect 28 0 7 0;
#X connect 29 0 12 0;
#X connect 30 0 13 0;
#X connect 31 0 14 0;
#X connect 32 0 15 0;
