#N canvas 604 24 548 675 10;
#X obj 312 348 inlet;
#X obj 508 349 inlet;
#X obj 37 480 glsl_program;
#X obj 100 317 pack 0 0;
#X obj 118 294 t b f;
#X obj 118 252 change;
#X msg 100 343 link \$1 \$2;
#X floatatom 118 275 2 0 0 0 ID - -;
#X floatatom 100 170 2 0 0 0 ID - -;
#X obj 105 367 print linking;
#X obj 153 56 bng 15 250 50 0 empty empty empty 0 -6 0 8 -262144 -1
-1;
#X obj 37 128 glsl_vertex;
#X obj 37 232 glsl_fragment;
#N canvas 0 0 450 300 load_shader 0;
#X obj 89 99 t b b;
#X msg 119 126 0;
#X obj 89 154 outlet;
#X obj 89 71 gemhead 1;
#X connect 0 0 2 0;
#X connect 0 1 1 0;
#X connect 1 0 3 0;
#X connect 3 0 0 0;
#X restore 153 34 pd load_shader;
#X obj 100 147 change;
#X msg 234 326 MyTex1 \$1;
#X msg 429 326 MyTex2 \$1;
#X obj 301 264 loadbang;
#X msg 301 326 texunit \$1;
#X obj 312 422 pix_texture;
#X obj 496 264 loadbang;
#X obj 496 285 f \$2;
#X obj 429 306 f;
#X obj 234 306 f;
#X obj 301 284 f \$1;
#X obj 233 89 outlet;
#X obj 37 594 rectangle 4 4;
#X obj 37 573 pix_texture;
#X msg 496 326 texunit \$1;
#X obj 508 422 pix_texture;
#X obj 37 551 pix_set;
#X msg 71 523 texunit 0;
#X obj 71 501 loadbang;
#X obj 37 55 gemframebuffer;
#X obj 37 76 translateXYZ 0 0 -4;
#X obj 312 369 pix_info -------;
#X obj 508 369 pix_info -------;
#X obj 391 391 route 1;
#X obj 587 391 route 1;
#X obj 587 412 t b;
#X obj 391 412 t b;
#X obj 333 214 loadbang;
#X msg 333 235 rectangle 1;
#X obj 314 69 loadbang;
#X obj 314 90 pack \$3 \$4;
#X msg 314 120 dimen \$1 \$2 \, format RGB32;
#X obj 37 34 gemhead 50;
#X msg 51 106 open GLSL_multitexture.vert;
#X msg 51 202 open GLSL_multitexture.frag;
#X connect 0 0 35 0;
#X connect 1 0 36 0;
#X connect 2 0 30 0;
#X connect 3 0 6 0;
#X connect 4 0 3 0;
#X connect 4 1 3 1;
#X connect 5 0 7 0;
#X connect 6 0 2 0;
#X connect 6 0 9 0;
#X connect 7 0 4 0;
#X connect 8 0 3 0;
#X connect 10 0 47 0;
#X connect 10 0 48 0;
#X connect 11 0 12 0;
#X connect 11 1 14 0;
#X connect 12 0 2 0;
#X connect 12 1 5 0;
#X connect 13 0 10 0;
#X connect 14 0 8 0;
#X connect 15 0 2 0;
#X connect 16 0 2 0;
#X connect 17 0 24 0;
#X connect 18 0 19 0;
#X connect 20 0 21 0;
#X connect 21 0 22 0;
#X connect 21 0 28 0;
#X connect 22 0 16 0;
#X connect 23 0 15 0;
#X connect 24 0 18 0;
#X connect 24 0 23 0;
#X connect 27 0 26 0;
#X connect 28 0 29 0;
#X connect 30 0 27 0;
#X connect 31 0 27 0;
#X connect 32 0 31 0;
#X connect 33 0 34 0;
#X connect 33 1 25 0;
#X connect 34 0 11 0;
#X connect 35 0 19 0;
#X connect 35 6 37 0;
#X connect 36 0 29 0;
#X connect 36 6 38 0;
#X connect 37 0 40 0;
#X connect 38 0 39 0;
#X connect 39 0 22 0;
#X connect 40 0 23 0;
#X connect 41 0 42 0;
#X connect 42 0 19 0;
#X connect 42 0 29 0;
#X connect 42 0 27 0;
#X connect 43 0 44 0;
#X connect 44 0 45 0;
#X connect 45 0 33 0;
#X connect 46 0 33 0;
#X connect 47 0 11 0;
#X connect 48 0 12 0;
