#N canvas 763 504 610 338 10;
#N canvas 1962 409 516 315 initialvalues 0;
#X obj -35 38 loadbang;
#X msg -35 60 note 36 \, velocity 100 \, duration 250;
#X obj -35 82 s miditrigger_channel_8;
#X obj -35 108 loadbang;
#X msg -35 130 note 37 \, velocity 100 \, duration 250;
#X obj -35 152 s miditrigger_channel_7;
#X obj -35 178 loadbang;
#X obj -35 248 loadbang;
#X obj 205 38 loadbang;
#X obj 205 108 loadbang;
#X obj 205 178 loadbang;
#X obj 205 248 loadbang;
#X obj -35 222 s miditrigger_channel_6;
#X obj -35 292 s miditrigger_channel_5;
#X obj 205 82 s miditrigger_channel_4;
#X obj 205 152 s miditrigger_channel_3;
#X obj 205 222 s miditrigger_channel_2;
#X obj 205 292 s miditrigger_channel_1;
#X msg -35 200 note 38 \, velocity 100 \, duration 250;
#X msg -35 270 note 39 \, velocity 100 \, duration 250;
#X msg 205 270 note 43 \, velocity 100 \, duration 250;
#X obj 43 32 bng 15 250 50 0 empty empty empty 17 7 0 10 -262144 -1
-1;
#X obj 43 5 inlet;
#X msg 205 59 note 36 \, velocity 85 \, duration 250;
#X msg 205 129 note 38 \, velocity 60 \, duration 250;
#X msg 205 200 note 42 \, velocity 30 \, duration 250;
#X connect 0 0 1 0;
#X connect 1 0 2 0;
#X connect 3 0 4 0;
#X connect 4 0 5 0;
#X connect 6 0 18 0;
#X connect 7 0 19 0;
#X connect 8 0 23 0;
#X connect 9 0 24 0;
#X connect 10 0 25 0;
#X connect 11 0 20 0;
#X connect 18 0 12 0;
#X connect 19 0 13 0;
#X connect 20 0 17 0;
#X connect 21 0 1 0;
#X connect 21 0 23 0;
#X connect 21 0 4 0;
#X connect 21 0 24 0;
#X connect 21 0 18 0;
#X connect 21 0 25 0;
#X connect 21 0 19 0;
#X connect 21 0 20 0;
#X connect 22 0 21 0;
#X connect 23 0 14 0;
#X connect 24 0 15 0;
#X connect 25 0 16 0;
#X restore -28 294 pd initialvalues;
#X obj -55 296 bng 15 250 50 0 empty empty empty 17 7 0 10 -262144
-1 -1;
#X obj 202 59 miditrigger_channel 3;
#X obj 335 59 miditrigger_channel 4;
#X obj 69 59 miditrigger_channel 2;
#X obj -64 59 miditrigger_channel 1;
#X obj -64 38 midinote_msg 81;
#X obj 69 38 midinote_msg 82;
#X obj 202 38 midinote_msg 83;
#X obj 335 38 midinote_msg 84;
#X obj -64 148 midinote_msg 85;
#X obj 69 148 midinote_msg 86;
#X obj 202 148 midinote_msg 87;
#X obj 335 148 midinote_msg 88;
#X obj -64 169 miditrigger_channel 5;
#X obj 69 169 miditrigger_channel 6;
#X obj 202 169 miditrigger_channel 7;
#X obj 335 169 miditrigger_channel 8;
#X connect 1 0 0 0;
#X connect 6 0 5 0;
#X connect 7 0 4 0;
#X connect 8 0 2 0;
#X connect 9 0 3 0;
#X connect 10 0 14 0;
#X connect 11 0 15 0;
#X connect 12 0 16 0;
#X connect 13 0 17 0;
