#N canvas 71 74 1078 590 10;
#X obj 12 -104 notein;
#X floatatom 13 -77 5 0 0 0 - - -;
#X floatatom 51 -76 5 0 0 0 - - -;
#X floatatom 80 -79 5 0 0 0 - - -;
#X obj 131 -109 ctlin;
#X floatatom 170 -79 5 0 0 0 - - -;
#X floatatom 131 -81 5 0 0 0 - - -;
#X floatatom 243 -78 5 0 0 0 - - -;
#X obj 131 -56 pack 0 0;
#X obj 482 56 / 127;
#X obj 532 56 / 127;
#X obj 582 56 / 127;
#X obj 632 56 / 127;
#X obj 481 85 s fader1;
#X obj 541 85 s fader2;
#X obj 601 85 s fader3;
#X obj 661 85 s fader4;
#X obj 770 56 / 127;
#X obj 820 56 / 127;
#X obj 870 56 / 127;
#X obj 719 85 s fader5;
#X obj 779 85 s fader6;
#X obj 839 85 s fader7;
#X obj 899 85 s fader8;
#X obj 535 168 vsl 15 50 0 127 0 0 empty empty 1 0 -9 0 10 -262144
-1 -1 0 1;
#X obj 555 168 vsl 15 50 0 127 0 0 empty empty 2 0 -9 0 10 -262144
-1 -1 0 1;
#X obj 575 168 vsl 15 50 0 127 0 0 empty empty 3 0 -9 0 10 -262144
-1 -1 0 1;
#X obj 595 168 vsl 15 50 0 127 0 0 empty empty 4 0 -9 0 10 -262144
-1 -1 0 1;
#X obj 615 168 vsl 15 50 0 127 0 0 empty empty 5 0 -9 0 10 -262144
-1 -1 0 1;
#X obj 635 168 vsl 15 50 0 127 0 0 empty empty 6 0 -9 0 10 -262144
-1 -1 0 1;
#X obj 655 168 vsl 15 50 0 127 0 0 empty empty 7 0 -9 0 10 -262144
-1 -1 0 1;
#X obj 675 168 vsl 15 50 0 127 0 0 empty empty 8 0 -9 0 10 -262144
-1 -1 0 1;
#X obj 527 -43 r \$0-ctlin;
#X obj 131 -34 s \$0-ctlin;
#X obj 539 378 bng 15 250 50 0 empty empty empty 17 7 0 10 -262144
-1 -1;
#X obj 559 378 bng 15 250 50 0 empty empty empty 17 7 0 10 -262144
-1 -1;
#X obj 579 378 bng 15 250 50 0 empty empty empty 17 7 0 10 -262144
-1 -1;
#X obj 599 378 bng 15 250 50 0 empty empty empty 17 7 0 10 -262144
-1 -1;
#X obj 549 358 bng 15 250 50 0 empty empty empty 17 7 0 10 -262144
-1 -1;
#X obj 569 358 bng 15 250 50 0 empty empty empty 17 7 0 10 -262144
-1 -1;
#X obj 619 378 bng 15 250 50 0 empty empty empty 17 7 0 10 -262144
-1 -1;
#X obj 639 378 bng 15 250 50 0 empty empty empty 17 7 0 10 -262144
-1 -1;
#X obj 659 378 bng 15 250 50 0 empty empty empty 17 7 0 10 -262144
-1 -1;
#X obj 679 378 bng 15 250 50 0 empty empty empty 17 7 0 10 -262144
-1 -1;
#X obj 609 358 bng 15 250 50 0 empty empty empty 17 7 0 10 -262144
-1 -1;
#X obj 629 358 bng 15 250 50 0 empty empty empty 17 7 0 10 -262144
-1 -1;
#X obj 649 358 bng 15 250 50 0 empty empty empty 17 7 0 10 -262144
-1 -1;
#X obj 399 378 bng 15 250 50 0 empty empty empty 17 7 0 10 -262144
-1 -1;
#X obj 419 378 bng 15 250 50 0 empty empty empty 17 7 0 10 -262144
-1 -1;
#X obj 439 378 bng 15 250 50 0 empty empty empty 17 7 0 10 -262144
-1 -1;
#X obj 459 378 bng 15 250 50 0 empty empty empty 17 7 0 10 -262144
-1 -1;
#X obj 409 358 bng 15 250 50 0 empty empty empty 17 7 0 10 -262144
-1 -1;
#X obj 429 358 bng 15 250 50 0 empty empty empty 17 7 0 10 -262144
-1 -1;
#X obj 479 378 bng 15 250 50 0 empty empty empty 17 7 0 10 -262144
-1 -1;
#X obj 499 378 bng 15 250 50 0 empty empty empty 17 7 0 10 -262144
-1 -1;
#X obj 519 378 bng 15 250 50 0 empty empty empty 17 7 0 10 -262144
-1 -1;
#X obj 469 358 bng 15 250 50 0 empty empty empty 17 7 0 10 -262144
-1 -1;
#X obj 489 358 bng 15 250 50 0 empty empty empty 17 7 0 10 -262144
-1 -1;
#X obj 509 358 bng 15 250 50 0 empty empty empty 17 7 0 10 -262144
-1 -1;
#X obj 13 -34 s \$0-notein;
#X obj 13 -55 pack 0 0;
#X obj 399 335 route 48 50 52 53 55 57 59 60 62 64 65 67 69 71 72;
#X obj 399 291 r \$0-notein;
#X obj 410 313 route 49 51 54 56 58 61 63 66 68 70;
#X obj 368 414 s note_c;
#X obj 389 438 s note_d;
#X obj 425 414 s note_e;
#X obj 447 438 s note_f;
#X obj 482 414 s note_g;
#X obj 505 438 s note_a;
#X obj 540 414 s note_h;
#X obj 2 56 / 127;
#X obj 52 56 / 127;
#X obj 102 56 / 127;
#X obj 152 56 / 127;
#X obj 240 56 / 127;
#X obj 290 56 / 127;
#X obj 340 56 / 127;
#X obj 390 56 / 127;
#X obj 315 168 vsl 15 50 0 127 0 0 empty empty 1 0 -9 0 10 -262144
-1 -1 0 1;
#X obj 335 168 vsl 15 50 0 127 0 0 empty empty 2 0 -9 0 10 -262144
-1 -1 0 1;
#X obj 355 168 vsl 15 50 0 127 0 0 empty empty 3 0 -9 0 10 -262144
-1 -1 0 1;
#X obj 375 168 vsl 15 50 0 127 0 0 empty empty 4 0 -9 0 10 -262144
-1 -1 0 1;
#X obj 395 168 vsl 15 50 0 127 0 0 empty empty 5 0 -9 0 10 -262144
-1 -1 0 1;
#X obj 415 168 vsl 15 50 0 127 0 0 empty empty 6 0 -9 0 10 -262144
-1 -1 0 1;
#X obj 435 168 vsl 15 50 0 127 0 0 empty empty 7 0 -9 0 10 -262144
-1 -1 0 1;
#X obj 455 168 vsl 15 50 0 127 0 0 empty empty 8 0 -9 0 10 -262144
-1 -1 0 1;
#X obj 2 7 r \$0-ctlin;
#X obj 1 85 s rot1;
#X obj 61 85 s rot2;
#X obj 121 85 s rot3;
#X obj 181 85 s rot4;
#X obj 239 85 s rot5;
#X obj 299 85 s rot6;
#X obj 359 85 s rot7;
#X obj 419 85 s rot8;
#X obj 699 58 / 127;
#X obj 526 -12 route 41 42 43 44 45 46 47 48 49;
#X obj 3 31 route 21 22 23 24 25 26 27 28;
#X connect 0 0 1 0;
#X connect 0 1 2 0;
#X connect 0 2 3 0;
#X connect 1 0 60 0;
#X connect 2 0 60 1;
#X connect 4 0 5 0;
#X connect 4 1 6 0;
#X connect 4 2 7 0;
#X connect 5 0 8 1;
#X connect 6 0 8 0;
#X connect 8 0 33 0;
#X connect 9 0 13 0;
#X connect 10 0 14 0;
#X connect 11 0 15 0;
#X connect 12 0 16 0;
#X connect 17 0 21 0;
#X connect 18 0 22 0;
#X connect 19 0 23 0;
#X connect 32 0 97 0;
#X connect 60 0 59 0;
#X connect 61 0 47 0;
#X connect 61 0 64 0;
#X connect 61 1 48 0;
#X connect 61 1 65 0;
#X connect 61 2 49 0;
#X connect 61 2 66 0;
#X connect 61 3 50 0;
#X connect 61 3 67 0;
#X connect 61 4 53 0;
#X connect 61 4 68 0;
#X connect 61 5 54 0;
#X connect 61 5 69 0;
#X connect 61 6 55 0;
#X connect 61 6 70 0;
#X connect 61 7 34 0;
#X connect 61 8 35 0;
#X connect 61 9 36 0;
#X connect 61 10 37 0;
#X connect 61 11 40 0;
#X connect 61 12 41 0;
#X connect 61 13 42 0;
#X connect 61 14 43 0;
#X connect 62 0 61 0;
#X connect 62 0 63 0;
#X connect 63 0 51 0;
#X connect 63 1 52 0;
#X connect 63 2 56 0;
#X connect 63 3 57 0;
#X connect 63 4 58 0;
#X connect 63 5 38 0;
#X connect 63 6 39 0;
#X connect 63 7 44 0;
#X connect 63 8 45 0;
#X connect 63 9 46 0;
#X connect 71 0 88 0;
#X connect 72 0 89 0;
#X connect 73 0 90 0;
#X connect 74 0 91 0;
#X connect 75 0 92 0;
#X connect 76 0 93 0;
#X connect 77 0 94 0;
#X connect 78 0 95 0;
#X connect 87 0 98 0;
#X connect 96 0 20 0;
#X connect 97 0 9 0;
#X connect 97 0 24 0;
#X connect 97 1 10 0;
#X connect 97 1 25 0;
#X connect 97 2 11 0;
#X connect 97 2 26 0;
#X connect 97 3 12 0;
#X connect 97 3 27 0;
#X connect 97 4 28 0;
#X connect 97 4 96 0;
#X connect 97 5 29 0;
#X connect 97 5 17 0;
#X connect 97 6 30 0;
#X connect 97 7 31 0;
#X connect 97 7 18 0;
#X connect 98 0 71 0;
#X connect 98 0 79 0;
#X connect 98 1 72 0;
#X connect 98 1 80 0;
#X connect 98 2 73 0;
#X connect 98 2 81 0;
#X connect 98 3 74 0;
#X connect 98 3 82 0;
#X connect 98 4 83 0;
#X connect 98 5 84 0;
#X connect 98 6 75 1;
#X connect 98 6 85 0;
#X connect 98 7 76 0;
#X connect 98 7 86 0;
#X connect 98 8 77 0;
#X coords 0 -1 1 1 400 80 1 300 150;
