#N canvas 431 88 848 525 10;
#X obj 19 -101 adc~;
#N canvas 967 62 712 393 reverb 0;
#X msg 12 209 roomsize \$1;
#X msg 89 209 damping \$1;
#X msg 164 189 width \$1;
#X msg 162 209 wet \$1;
#X msg 209 208 dry \$1;
#X msg 157 238 print;
#X msg 97 189 freeze \$1;
#X msg 24 189 bypass \$1;
#X text 375 249 - print the current values of the above parameters
;
#X text 346 280 - start/stop freeze of reverb tail \, using 1 or 0
;
#X text 310 304 - bypass the reverb processing \, using a 1 or 0;
#X text 266 211 - level of unprocessed signal \, between 0 and 1 (default:
0);
#X text 269 153 - level of reverbed signal \, between 0 and 1 (default:
0.3);
#X text 257 86 - amount of damping of room's surfaces (default: 0.5)
;
#X text 345 125 - stereo width of reverb (default: 1);
#X text 254 39 - size of the room to be simulated (default=0.85);
#X floatatom 12 96 5 0 0 1 roomsize - -;
#X floatatom 99 96 5 0 0 1 damping - -;
#X obj 57 235 inlet~;
#X obj 10 235 inlet~;
#X obj 29 316 outlet~;
#X obj 87 316 outlet~;
#X floatatom 196 76 5 0 0 1 wet - -;
#X floatatom 197 96 5 0 0 1 dry - -;
#X obj 12 77 tgl 15 0 empty empty bypass 17 7 0 10 -262144 -1 -1 0
1;
#X obj 69 77 tgl 15 0 empty empty freeze 17 7 0 10 -262144 -1 -1 0
1;
#X floatatom 126 76 5 0 0 1 width - -;
#X obj 29 274 freeverb~;
#X obj 143 37 hsl 128 15 0 1 0 0 empty empty wet -2 -8 0 10 -262144
-1 -1 0 1;
#X connect 0 0 27 0;
#X connect 1 0 27 0;
#X connect 2 0 27 0;
#X connect 3 0 27 0;
#X connect 4 0 27 0;
#X connect 5 0 27 0;
#X connect 6 0 27 0;
#X connect 7 0 27 0;
#X connect 16 0 0 0;
#X connect 17 0 1 0;
#X connect 18 0 27 1;
#X connect 19 0 27 0;
#X connect 22 0 3 0;
#X connect 23 0 4 0;
#X connect 24 0 7 0;
#X connect 25 0 6 0;
#X connect 26 0 2 0;
#X connect 27 0 20 0;
#X connect 27 1 21 0;
#X connect 28 0 22 0;
#X coords 0 -1 1 1 252 56 1 10 58;
#X restore 20 197 pd reverb;
#N canvas 606 698 432 332 my_delay2 0;
#X obj 165 181 sig~;
#X floatatom 158 120 5 0 0 1 ms - -;
#X obj 22 101 inlet~;
#X obj 87 224 outlet~;
#X obj 138 71 inlet;
#X obj 248 53 inlet;
#X obj 209 227 *~;
#X obj 166 200 vd~ dl2;
#X obj 22 283 delwrite~ dl2 10000;
#X floatatom 238 193 5 0 0 0 - - -;
#X obj 106 141 hsl 128 15 0 1 0 0 empty empty wet -2 -8 0 10 -262144
-1 -1 0 1;
#X obj 233 103 tgl 15 0 empty empty empty 17 7 0 10 -262144 -1 -1 0
1;
#X obj 23 170 spigot~;
#X connect 0 0 7 0;
#X connect 1 0 0 0;
#X connect 2 0 12 0;
#X connect 4 0 1 0;
#X connect 5 0 10 0;
#X connect 6 0 8 0;
#X connect 7 0 3 0;
#X connect 7 0 6 0;
#X connect 9 0 6 1;
#X connect 10 0 9 0;
#X connect 11 0 12 1;
#X connect 12 0 8 0;
#X connect 12 1 3 0;
#X coords 0 -1 1 1 150 60 1 100 100;
#X restore 42 106 pd my_delay2;
#X obj 45 168 throw~ ch2;
#N canvas 215 88 1054 711 fiddle 0;
#X obj 541 626 unpack;
#X floatatom 541 676 0 0 0 0 - - -;
#X msg 447 459 print;
#X floatatom 555 653 0 0 0 0 - - -;
#X obj 541 586 route 1 2 3 4;
#X obj 624 626 unpack;
#X floatatom 624 676 0 0 0 0 - - -;
#X floatatom 638 653 0 0 0 0 - - -;
#X obj 708 626 unpack;
#X floatatom 708 676 0 0 0 0 - - -;
#X floatatom 722 653 0 0 0 0 - - -;
#X obj 399 626 unpack;
#X floatatom 399 676 0 0 0 0 - - -;
#X floatatom 413 653 0 0 0 0 - - -;
#X floatatom 476 676 0 0 0 0 - - -;
#X obj 291 676 print attack;
#X obj 200 676 print pitch;
#X msg 565 55 \; pd dsp 1;
#X text 470 49 click here;
#X text 470 71 to start DSP;
#X text 236 14 FIDDLE - pitch estimator and sinusoidal peak finder
;
#X text 18 80 The Fiddle object estimates the pitch and amplitude of
an incoming sound \, both continuously and as a stream of discrete
"note" events. Fiddle optionally outputs a list of detected sinusoidal
peaks used to make the pitch determination. Fiddle is described theoretically
in the 1998 ICMC proceedings \, reprinted on http://man104nfs.ucsd.edu/~mpuckett.
;
#X text 18 180 Fiddle's creation arguments specify an analysis window
size \, the maximum polyphony (i.e. \, the number of simultaneous "pitches"
to try to find) \, the number of peaks in the spectrum to consider
\, and the number of peaks \, if any \, to output "raw." The outlets
give discrete pitch (a number) \, detected attacks in the amplitude
envelope (a bang) \, one or more voices of continuous pitch and amplitude
\, overall amplitude \, and optionally a sequence of messages with
the peaks.;
#X text 18 306 The analysis hop size is half the window size so in
the example shown here \, one analysis is done every 512 samples (11.6
msec at 44K1) \, and the analysis uses the most recent 1024 samples
(23.2 msec at 44K1). The minimum frequency that Fiddle will report
is 2-1/2 cycles per analysis windows \, or about 108 Hz. (just below
MIDI 45.);
#X text 679 545 number of pitch outlets (1-3 \, default 1);
#X text 679 567 number of peaks to find (1-100 \, default 20);
#X text 679 589 number of peaks to output (default 0.);
#X msg 451 117 amp-range 40 50;
#X msg 449 237 reattack 100 10;
#X msg 448 292 npartial 7;
#X msg 448 180 vibrato 50 0.5;
#X text 570 101 a low and high amplitude threshold: if signal amplitude
is below the low threshold \, no pitches or peaks are output. The high
threshold is a minimum at which "cooked" outputs may appear.;
#X text 570 162 A period in milliseconds (50) over which the raw pitch
may not deviate more than an interval in half-tones (0.5) from the
average pitch to report it as a note to the "cooked" pitch outlet.
;
#X text 570 223 A period in milliseconds (100) over which a re-attack
is reported if the amplitude rises more than (1) dB. The re-attack
will result in a "bang" in the attack outlet and may give rise to repeated
notes in the cooked pitch output.;
#X text 548 700 individual sinusoidal components;
#X text 476 698 amplitude;
#X text 486 713 (dB);
#X text 399 698 raw pitch;
#X text 386 722 and amplitude;
#X text 374 739 (up to 3 outputs);
#X text 297 696 bang on;
#X text 297 718 attack;
#X text 195 696 cooked pitch;
#X text 212 713 output;
#X text 555 555 ------ arguments:;
#X msg 450 341 auto 1;
#X msg 450 363 auto 0;
#X msg 449 428 bang;
#X text 571 426 poll current values --- useful if not in auto mode
\,;
#X text 570 284 Higher partials are weighed less strongly than lower
ones in determining the pitch. This specifies the number of the partial
(7) which will be weighted half as strongly as the fundamental.;
#X text 570 345 start and stop "auto" mode (on by default.) If off
\, output only appears on "bang" (poll mode).;
#X text 571 458 print out all settings;
#X text 679 523 window size (128-2048 \, default 1024);
#X msg 450 385 npoints 2048;
#X text 572 394 number of points in analysis window (power of 2 \,
128-2048);
#X msg 449 406 npoints 1024;
#X obj 306 479 inlet~;
#X obj 301 759 outlet;
#X msg 113 528 amp-range \$1 \$2;
#X floatatom 104 411 5 0 0 1 min_dB - -;
#X floatatom 104 433 5 0 0 1 max_dB - -;
#X obj 99 469 pack 0 0;
#X obj 688 752 outlet;
#X obj 748 752 outlet;
#X obj 817 747 outlet;
#X obj 213 646 spigot;
#X obj 240 614 tgl 15 0 empty empty empty 17 7 0 10 -262144 -1 -1 0
1;
#X obj 304 647 spigot;
#X obj 331 615 tgl 15 0 empty empty empty 17 7 0 10 -262144 -1 -1 0
1;
#X obj 109 733 bng 15 250 50 0 empty empty empty 17 7 0 10 -262144
-1 -1;
#X obj 420 555 fiddle~ 2048 1 10 3;
#X obj 91 694 moses;
#X floatatom 104 658 5 0 0 0 - - -;
#X obj 779 708 moses 1;
#X connect 0 0 1 0;
#X connect 0 1 3 0;
#X connect 1 0 62 0;
#X connect 2 0 70 0;
#X connect 4 0 0 0;
#X connect 4 1 5 0;
#X connect 4 2 8 0;
#X connect 5 0 6 0;
#X connect 5 1 7 0;
#X connect 6 0 63 0;
#X connect 8 0 9 0;
#X connect 8 1 10 0;
#X connect 9 0 73 0;
#X connect 11 0 12 0;
#X connect 11 1 13 0;
#X connect 12 0 71 0;
#X connect 27 0 70 0;
#X connect 28 0 70 0;
#X connect 29 0 70 0;
#X connect 30 0 70 0;
#X connect 45 0 70 0;
#X connect 46 0 70 0;
#X connect 47 0 70 0;
#X connect 53 0 70 0;
#X connect 55 0 70 0;
#X connect 56 0 70 0;
#X connect 58 0 70 0;
#X connect 59 0 61 0;
#X connect 60 0 61 1;
#X connect 61 0 58 0;
#X connect 65 0 16 0;
#X connect 66 0 65 1;
#X connect 67 0 15 0;
#X connect 68 0 67 1;
#X connect 69 0 57 0;
#X connect 70 0 65 0;
#X connect 70 1 67 0;
#X connect 70 2 11 0;
#X connect 70 3 14 0;
#X connect 70 4 4 0;
#X connect 71 1 69 0;
#X connect 72 0 71 1;
#X connect 73 1 64 0;
#X coords 0 -1 1 1 85 60 2 100 400;
#X restore 523 92 pd fiddle;
#N canvas 1173 669 396 421 lead 0;
#X obj 13 80 vsl 15 128 40 1000 0 0 empty empty empty 0 -9 0 10 -262144
-1 -1 3867 1;
#X floatatom 13 216 5 0 0 0 - - -;
#X obj 13 235 osc~ 440;
#X floatatom 143 124 5 0 0 1 attack - -;
#X obj 113 217 f;
#X obj 78 132 t b b b;
#X msg 65 191 0.25;
#X obj 187 304 line;
#X obj 146 182 hsl 128 15 0 1 0 0 empty empty env -2 -8 0 10 -262144
-1 -1 0 1;
#X obj 86 297 line~;
#X obj 14 344 *~;
#X obj 13 296 clip~ -1 1;
#X obj 12 265 *~ 1;
#X floatatom 214 104 5 0 0 0 - - -;
#X obj 14 366 outlet~;
#X obj 13 21 inlet;
#X obj 13 48 t f b;
#X obj 80 47 bng 15 250 50 0 empty empty empty 17 7 0 10 -262144 -1
-1;
#X obj 79 16 inlet;
#X floatatom 143 103 5 0 0 1 delay - -;
#X obj 78 102 pipe 100;
#X floatatom 143 145 5 0 0 1 decay - -;
#X obj 167 216 f;
#X obj 47 105 bng 15 250 50 0 empty empty empty 17 7 0 10 -262144 -1
-1;
#X msg 122 249 0.8 \$1;
#X msg 185 253 0 \$1;
#X obj 202 214 pipe;
#X connect 0 0 1 0;
#X connect 1 0 2 0;
#X connect 2 0 12 0;
#X connect 3 0 4 1;
#X connect 4 0 24 0;
#X connect 4 0 26 1;
#X connect 5 0 22 0;
#X connect 5 1 4 0;
#X connect 5 2 6 0;
#X connect 6 0 2 1;
#X connect 7 0 8 0;
#X connect 9 0 10 1;
#X connect 10 0 14 0;
#X connect 11 0 10 0;
#X connect 12 0 11 0;
#X connect 13 0 12 1;
#X connect 15 0 16 0;
#X connect 16 0 0 0;
#X connect 17 0 20 0;
#X connect 18 0 17 0;
#X connect 19 0 20 1;
#X connect 20 0 5 0;
#X connect 21 0 22 1;
#X connect 22 0 26 0;
#X connect 23 0 5 0;
#X connect 24 0 7 0;
#X connect 24 0 9 0;
#X connect 25 0 7 0;
#X connect 25 0 9 0;
#X connect 26 0 25 0;
#X coords 0 -1 1 1 140 100 2 140 100;
#X restore 550 245 pd lead;
#N canvas 883 378 396 421 lead 1;
#X obj 13 80 vsl 15 128 40 1000 0 0 empty empty empty 0 -9 0 10 -262144
-1 -1 9741 1;
#X floatatom 13 216 5 0 0 0 - - -;
#X obj 13 235 osc~ 440;
#X floatatom 143 124 5 0 0 1 attack - -;
#X obj 113 217 f;
#X obj 78 132 t b b b;
#X msg 65 191 0.25;
#X obj 187 304 line;
#X obj 146 177 hsl 128 15 0 1 0 0 empty empty env -2 -8 0 10 -262144
-1 -1 0 1;
#X obj 86 297 line~;
#X obj 14 344 *~;
#X obj 13 296 clip~ -1 1;
#X obj 12 265 *~ 1;
#X floatatom 221 104 5 0 0 0 - - -;
#X obj 14 366 outlet~;
#X obj 13 21 inlet;
#X obj 13 48 t f b;
#X obj 80 47 bng 15 250 50 0 empty empty empty 17 7 0 10 -262144 -1
-1;
#X obj 79 16 inlet;
#X floatatom 143 103 5 0 0 1 delay - -;
#X obj 78 102 pipe 100;
#X floatatom 143 145 5 0 0 1 decay - -;
#X obj 167 216 f;
#X obj 47 105 bng 15 250 50 0 empty empty empty 17 7 0 10 -262144 -1
-1;
#X msg 122 249 0.8 \$1;
#X msg 185 253 0 \$1;
#X obj 206 218 pipe;
#X connect 0 0 1 0;
#X connect 1 0 2 0;
#X connect 2 0 12 0;
#X connect 3 0 4 1;
#X connect 4 0 24 0;
#X connect 4 0 26 1;
#X connect 5 0 22 0;
#X connect 5 1 4 0;
#X connect 5 2 6 0;
#X connect 6 0 2 1;
#X connect 7 0 8 0;
#X connect 9 0 10 1;
#X connect 10 0 14 0;
#X connect 11 0 10 0;
#X connect 12 0 11 0;
#X connect 13 0 12 1;
#X connect 15 0 16 0;
#X connect 16 0 0 0;
#X connect 17 0 20 0;
#X connect 18 0 17 0;
#X connect 19 0 20 1;
#X connect 20 0 5 0;
#X connect 21 0 22 1;
#X connect 22 0 26 0;
#X connect 23 0 5 0;
#X connect 24 0 7 0;
#X connect 24 0 9 0;
#X connect 25 0 7 0;
#X connect 25 0 9 0;
#X connect 26 0 25 0;
#X coords 0 -1 1 1 140 100 2 140 100;
#X restore 699 245 pd lead;
#X obj 551 357 throw~ ch5;
#X obj 701 357 throw~ ch6;
#X obj 99 -81 throw~ ch1;
#N canvas 71 328 396 421 lead 0;
#X obj 13 80 vsl 15 128 40 1000 0 0 empty empty empty 0 -9 0 10 -262144
-1 -1 930 1;
#X floatatom 13 216 5 0 0 0 - - -;
#X obj 13 235 osc~ 440;
#X floatatom 143 124 5 0 0 1 attack - -;
#X obj 113 217 f;
#X obj 78 132 t b b b;
#X msg 65 191 0.25;
#X obj 187 304 line;
#X obj 146 182 hsl 128 15 0 1 0 0 empty empty env -2 -8 0 10 -262144
-1 -1 0 1;
#X obj 86 297 line~;
#X obj 14 344 *~;
#X obj 13 296 clip~ -1 1;
#X obj 12 265 *~ 1;
#X floatatom 222 105 5 0 0 0 - - -;
#X obj 14 366 outlet~;
#X obj 13 21 inlet;
#X obj 13 48 t f b;
#X obj 80 47 bng 15 250 50 0 empty empty empty 17 7 0 10 -262144 -1
-1;
#X obj 79 16 inlet;
#X floatatom 143 103 5 0 0 1 delay - -;
#X obj 78 102 pipe 100;
#X floatatom 143 145 5 0 0 1 decay - -;
#X obj 167 216 f;
#X obj 47 105 bng 15 250 50 0 empty empty empty 17 7 0 10 -262144 -1
-1;
#X msg 122 249 0.8 \$1;
#X msg 185 253 0 \$1;
#X obj 269 237 pipe;
#X connect 0 0 1 0;
#X connect 1 0 2 0;
#X connect 2 0 12 0;
#X connect 3 0 4 1;
#X connect 4 0 24 0;
#X connect 4 0 26 1;
#X connect 5 0 22 0;
#X connect 5 1 4 0;
#X connect 5 2 6 0;
#X connect 6 0 2 1;
#X connect 7 0 8 0;
#X connect 9 0 10 1;
#X connect 10 0 14 0;
#X connect 11 0 10 0;
#X connect 12 0 11 0;
#X connect 13 0 12 1;
#X connect 15 0 16 0;
#X connect 16 0 0 0;
#X connect 17 0 20 0;
#X connect 18 0 17 0;
#X connect 19 0 20 1;
#X connect 20 0 5 0;
#X connect 21 0 22 1;
#X connect 22 0 26 0;
#X connect 23 0 5 0;
#X connect 24 0 7 0;
#X connect 24 0 9 0;
#X connect 25 0 7 0;
#X connect 25 0 9 0;
#X connect 26 0 25 0;
#X coords 0 -1 1 1 140 100 2 140 100;
#X restore 407 245 pd lead;
#X obj 408 357 throw~ ch4;
#X obj 21 261 throw~ ch3;
#X obj 397 -105 audiomixer;
#X obj 8 321 slmkii;
#N canvas 191 175 991 624 looper 0;
#N canvas 0 50 450 300 (subpatch) 0;
#X array cos-output 44100 float 0;
#X coords 0 1.02 44100 -1.02 200 130 1;
#X restore 734 201 graph;
#N canvas 0 50 450 300 (subpatch) 0;
#X array table18 44103 float 0;
#X coords 0 1.02 44103 -1.02 200 130 1;
#X restore 731 26 graph;
#X obj 594 501 loadbang;
#X obj 55 259 hip~ 5;
#X floatatom 56 60 0 0 0 0 - - -;
#X text 95 59 <-- frequency (Hz.);
#X floatatom 142 97 0 0 0 0 - - -;
#X obj 142 124 * 441;
#X obj 120 173 +~ 1;
#X text 181 96 <-- chunk size (100ths of a second);
#X msg 609 439 bang;
#X text 50 19 ENVELOPING YOUR LOOPING SAMPLER;
#X obj 55 149 -~ 0.5;
#X obj 55 199 cos~;
#X obj 55 232 *~;
#X obj 594 555 soundfiler;
#X text 746 158 -- 44103 samples ---;
#X text 737 332 ----- 1 second ------;
#X obj 56 87 phasor~;
#X obj 55 174 *~ 0.5;
#X obj 54 291 output~;
#X obj 120 148 *~;
#X text 38 372 Here we apply an amplitude envelope to protect against
discontinuities at the loop point. The envelope is just a cosine wave
from -90 degrees to +90 degrees \, (-pi/2 to pi/2 radians) \, i.e.
\, the part that is zero or positive in sign. The "cos~" object's input
is in cycles (units of 2pi radians) so -1/4 to +1/4 addresses the desired
part of the waveform.;
#X obj 177 257 tabwrite~ cos-output;
#X obj 177 233 bng 15 250 50 0 empty empty empty 0 -6 0 8 -262144 -1
-1;
#X text 198 230 <-- click to graph envelope;
#X text 38 486 To see the envelope \, put the phasor on 2 Hz or so
\, click the "graph" button \, and look at "cos-output." This is multiplied
by the tabread4~ output so that it doesn't click when the phase wraps
around.;
#X text 36 555 It is possible to get much more control over the shape
of the envelope \, but this will be taken up later.;
#X obj 120 199 tabread4~ table18;
#X obj 594 466 tabwrite~ table18;
#X msg 594 530 read ../sound/voice.wav table18;
#X text 651 440 <-- click here to record to table;
#X text 685 509 v-- re-read the original sound;
#X text 718 575 updated for Pd version 0.37;
#X obj 594 413 inlet~;
#X obj 652 413 inlet;
#X connect 2 0 30 0;
#X connect 3 0 20 0;
#X connect 3 0 20 1;
#X connect 4 0 18 0;
#X connect 6 0 7 0;
#X connect 7 0 21 1;
#X connect 8 0 28 0;
#X connect 10 0 29 0;
#X connect 12 0 19 0;
#X connect 13 0 14 0;
#X connect 13 0 23 0;
#X connect 14 0 3 0;
#X connect 18 0 12 0;
#X connect 18 0 21 0;
#X connect 19 0 13 0;
#X connect 21 0 8 0;
#X connect 24 0 23 0;
#X connect 28 0 14 1;
#X connect 30 0 15 0;
#X connect 34 0 29 0;
#X connect 35 0 10 0;
#X restore 326 129 pd looper;
#N canvas 96 499 450 300 lop 0;
#X obj 70 93 line;
#X floatatom 70 114 10 0 0 0 - - -;
#X floatatom 84 45 5 0 0 0 - - -;
#X obj 70 73 pack f 500;
#X floatatom 40 45 5 0 0 0 - - -;
#X obj 22 18 bng 15 250 50 0 empty empty empty 17 7 0 10 -262144 -1
-1;
#X obj 94 21 bng 15 250 50 0 empty empty empty 17 7 0 10 -262144 -1
-1;
#X obj 17 203 throw~ ch4;
#X obj 13 129 inlet~;
#X obj 23 -47 tgl 15 0 empty empty empty 17 7 0 10 -262144 -1 -1 0
1;
#X obj 56 -2 delay;
#X obj 24 -27 metro;
#X floatatom 105 -49 5 0 0 0 - - -;
#X obj 105 -25 / 2;
#X obj 138 197 outlet~;
#X floatatom 168 119 5 0 0 0 - - -;
#X obj 196 53 phasor~ 200;
#X obj 50 156 lop~;
#X connect 0 0 1 0;
#X connect 1 0 17 1;
#X connect 2 0 3 0;
#X connect 3 0 0 0;
#X connect 4 0 3 0;
#X connect 5 0 4 0;
#X connect 6 0 2 0;
#X connect 8 0 17 0;
#X connect 9 0 11 0;
#X connect 10 0 6 0;
#X connect 11 0 5 0;
#X connect 11 0 10 0;
#X connect 12 0 11 1;
#X connect 12 0 13 0;
#X connect 13 0 10 1;
#X connect 13 0 3 1;
#X connect 17 0 7 0;
#X connect 17 0 14 0;
#X restore 32 51 pd lop;
#N canvas 141 309 699 490 osc 0;
#X obj 332 375 outlet~;
#X obj 262 302 *~;
#X floatatom 114 48 0 0 0 0 - - -;
#X obj 286 274 line~;
#X msg 286 218 0.1 100;
#X msg 305 243 0 100;
#X text 357 213 on;
#X text 354 242 off;
#X text 343 271 envelope;
#X text 343 284 generator;
#X text 270 193 amplitude controls:;
#X text 335 388 audio output;
#X obj 136 304 metro 500;
#X obj 136 279 r metro;
#X text 98 354 graph the output;
#X text 489 253 frequency control;
#X text 13 130 change frequency;
#X text 302 435 <-- creation argument sets initial frequency;
#X text 289 413 v-- inlet resets phase;
#X text 12 115 incoming numbers;
#X obj 166 154 osc~ 1000;
#X obj 344 125 *~;
#X floatatom 353 87 5 0 0 0 - - -;
#X floatatom 253 104 0 0 0 0 - - -;
#X obj 253 128 sig~ 890;
#X obj 174 77 * 2;
#X obj 333 318 lop~;
#X floatatom 422 301 5 0 0 0 - - -;
#X obj 334 351 lop~;
#X obj 264 162 osc~;
#X obj 348 157 clip~ -1 1;
#X obj 395 26 bng 15 250 50 0 empty empty empty 17 7 0 10 -262144 -1
-1;
#X connect 1 0 26 0;
#X connect 2 0 20 0;
#X connect 2 0 25 0;
#X connect 3 0 1 1;
#X connect 4 0 3 0;
#X connect 5 0 3 0;
#X connect 13 0 12 0;
#X connect 13 0 12 0;
#X connect 20 0 1 0;
#X connect 21 0 30 0;
#X connect 22 0 21 1;
#X connect 23 0 24 0;
#X connect 24 0 29 0;
#X connect 25 0 23 0;
#X connect 26 0 28 0;
#X connect 27 0 26 1;
#X connect 27 0 28 1;
#X connect 28 0 0 0;
#X connect 29 0 21 0;
#X restore 641 48 pd osc;
#X obj 644 73 throw~ ch6;
#X connect 0 0 9 0;
#X connect 1 0 12 0;
#X connect 2 0 3 0;
#X connect 4 0 5 1;
#X connect 4 0 10 1;
#X connect 4 0 6 1;
#X connect 4 1 10 0;
#X connect 4 2 5 0;
#X connect 4 3 6 0;
#X connect 5 0 7 0;
#X connect 6 0 8 0;
#X connect 10 0 11 0;
#X connect 16 0 2 0;
#X connect 16 0 1 0;
#X connect 17 0 18 0;
