#N canvas 38 103 450 452 10;
#N canvas 599 501 450 300 filter 0;
#X obj 13 134 pix_threshold;
#X obj 123 134 pix_threshold;
#X floatatom 57 94 5 0 255 0 - - -;
#X obj 57 113 / 255;
#X obj 13 171 pix_diff;
#X floatatom 167 94 5 0 255 0 - - -;
#X obj 167 113 / 255;
#X obj 13 49 pix_separator;
#X obj 123 49 pix_separator;
#X obj 13 18 inlet;
#X obj 13 219 outlet;
#X obj 57 73 inlet;
#X obj 167 73 inlet;
#X connect 0 0 4 0;
#X connect 1 0 4 1;
#X connect 2 0 3 0;
#X connect 3 0 0 1;
#X connect 4 0 10 0;
#X connect 5 0 6 0;
#X connect 6 0 1 1;
#X connect 7 0 0 0;
#X connect 8 0 1 0;
#X connect 9 0 7 0;
#X connect 9 0 8 0;
#X connect 11 0 2 0;
#X connect 12 0 5 0;
#X restore 15 53 pd filter;
#X floatatom 87 51 5 0 255 0 - - -;
#X floatatom 88 27 5 0 255 0 - - -;
#X obj 13 252 pix_texture;
#X floatatom 33 115 5 0 1 1 pass - -;
#X floatatom 42 145 5 0 1 1 other - -;
#X obj 15 222 pix_alpha;
#X msg 57 169 0 0 0;
#X msg 72 193 0 0 0;
#X floatatom 61 314 5 0 0 0 - - -;
#X floatatom 185 314 5 0 0 0 - - -;
#X floatatom 310 311 5 0 0 0 - - -;
#X text 61 331 R;
#X text 185 330 G;
#X text 310 325 B;
#X obj 14 398 colorRGB 0 0 0;
#X obj 61 362 / 256;
#X obj 183 361 / 256;
#X obj 303 361 / 256;
#X obj 15 74 pix_rgba;
#X obj 15 7 inlet;
#X obj 14 425 outlet;
#X obj 69 287 inlet;
#X obj 184 288 inlet;
#X obj 314 288 inlet;
#X obj 64 425 rectangle 5.34 4;
#X connect 0 0 19 0;
#X connect 1 0 0 1;
#X connect 2 0 0 2;
#X connect 3 0 15 0;
#X connect 4 0 6 1;
#X connect 5 0 6 2;
#X connect 6 0 3 0;
#X connect 7 0 6 3;
#X connect 8 0 6 4;
#X connect 9 0 16 0;
#X connect 10 0 17 0;
#X connect 11 0 18 0;
#X connect 15 0 21 0;
#X connect 15 0 25 0;
#X connect 16 0 15 1;
#X connect 17 0 15 2;
#X connect 18 0 15 3;
#X connect 19 0 6 0;
#X connect 20 0 0 0;
#X connect 22 0 9 0;
#X connect 23 0 10 0;
#X connect 24 0 11 0;
#X coords 0 -1 1 1 60 55 2 80 20;
