#N canvas 988 607 392 391 10;
#X obj 12 180 inlet;
#X obj 166 194 inlet;
#X obj 38 208 inlet;
#X obj 231 192 inlet;
#X obj 110 41 vsl 15 128 0 1 0 0 empty empty empty 0 -9 0 10 -262144
-1 -1 0 1;
#X obj 12 324 outlet;
#X obj 12 278 pix_mix;
#X obj 81 249 pix_mix;
#X obj 167 220 pix_mix;
#X obj 150 41 vsl 15 128 0 1 0 0 empty empty empty 0 -9 0 10 -262144
-1 -1 0 1;
#X obj 190 41 vsl 15 128 0 1 0 0 empty empty empty 0 -9 0 10 -262144
-1 -1 0 1;
#X connect 0 0 6 0;
#X connect 1 0 8 0;
#X connect 2 0 7 0;
#X connect 3 0 8 1;
#X connect 4 0 6 2;
#X connect 6 0 5 0;
#X connect 7 0 6 1;
#X connect 8 0 7 1;
#X connect 9 0 7 2;
#X connect 10 0 8 2;
#X coords 0 -1 1 1 200 170 1 100 10;
