#N canvas 70 119 1227 723 10;
#X obj 326 498 pix_snap2tex;
#X msg 366 471 0 0;
#X msg 412 470 500 500;
#X obj 366 448 t b b;
#X obj 326 523 alpha;
#X obj 366 429 loadbang;
#X msg 281 105 print;
#X obj 326 379 glsl_program;
#X obj 399 305 pack 0 0;
#X msg 283 187 print;
#X obj 420 285 t b f;
#X obj 420 240 change;
#X obj 398 145 change;
#X msg 399 330 link \$1 \$2;
#X msg 270 227 print;
#X floatatom 420 266 2 0 0 0 ID - -;
#X floatatom 398 168 2 0 0 0 ID - -;
#X obj 417 351 print linking;
#X obj 326 220 glsl_fragment;
#X obj 326 126 glsl_vertex;
#X obj 358 73 bng 15 250 50 0 empty empty empty 0 -6 0 8 -262144 -1
-1;
#X obj 326 547 colorRGB 1 1 1 1;
#X obj 326 402 t b a;
#X floatatom 531 495 3 -4 4 0 X - -;
#X obj 491 551 translateXYZ 1 2 0;
#X floatatom 571 512 3 -4 4 0 Y - -;
#X floatatom 612 527 4 -16 16 0 Z - -;
#X floatatom 142 161 5 0 0 0 - - -;
#X floatatom 28 240 10 0 0 0 - - -;
#X floatatom 7 390 5 0 0 0 - - -;
#X floatatom 47 153 5 0 0 0 - - -;
#X msg 140 190 maxiterations \$1;
#X msg 27 260 x_offset \$1;
#X msg 33 452 color \$1;
#X floatatom 28 287 10 0 0 0 - - -;
#X msg 28 307 y_offset \$1;
#X floatatom 202 268 5 0 0 0 - - -;
#X floatatom 116 358 5 0 0 0 - - -;
#X msg 116 380 roff \$1;
#X floatatom 115 403 5 0 0 0 - - -;
#X floatatom 117 449 5 0 0 0 - - -;
#X msg 114 423 goff \$1;
#X msg 117 471 boff \$1;
#X floatatom 112 238 5 0 0 0 - - -;
#X floatatom 110 288 5 0 0 0 - - -;
#X msg 110 309 b_offset \$1;
#X msg 112 258 a_offset \$1;
#X msg 202 289 ab_offset \$1;
#X floatatom 187 141 5 0 0 0 - - -;
#X msg 187 162 infinity \$1;
#X msg 184 110 16;
#X msg 141 135 500;
#X floatatom 46 393 5 0 0 0 - - -;
#X obj 35 426 /;
#X msg 340 104 open mandelbrot1.vert;
#X msg 337 190 open mandelbrot1.frag;
#X floatatom 13 526 5 0 0 0 - - -;
#X floatatom 71 524 5 0 0 0 - - -;
#X floatatom 10 583 5 0 0 0 - - -;
#X floatatom 70 581 5 0 0 0 - - -;
#X floatatom 162 522 5 0 0 0 - - -;
#X floatatom 163 574 5 0 0 0 - - -;
#X floatatom 235 534 5 0 0 0 - - -;
#X msg 13 548 re_min \$1;
#X msg 10 605 re_max \$1;
#X msg 71 546 im_min \$1;
#X msg 70 603 im_max \$1;
#X msg 231 571 zoom_ab \$1;
#X msg 47 487 -1.5;
#X msg 44 653 1.5;
#X msg 222 501 1;
#X msg 45 360 500;
#X msg 162 544 zoom_re \$1;
#X msg 162 598 zoom_im \$1;
#X floatatom 26 185 10 0 0 0 - - -;
#X msg 25 205 xy_offset \$1;
#X obj 329 605 rectangle 3 3;
#X obj 437 630 r screenX;
#X obj 570 639 r screenY;
#X obj 428 656 / 100;
#X obj 560 667 / 100;
#X msg 7 359 1;
#X obj 12 30 bng 15 250 50 0 empty empty empty 0 -6 0 8 -262144 -1
-1;
#X obj 122 36 bng 15 250 50 0 empty empty empty 0 -6 0 8 -262144 -1
-1;
#X text 147 33 <- 2 : reload shader;
#X text 39 14 <- 1 : init shader;
#X floatatom 234 115 5 0 0 0 - - -;
#X msg 231 84 1;
#X msg 234 136 break_alpha \$1;
#X text 385 78 3:load/reload shader;
#X obj 566 17 Fenster;
#X obj 326 46 gemhead 4;
#X obj 789 144 bng 15 250 50 0 empty empty empty 17 7 0 10 -262144
-1 -1;
#X obj 671 541 glsl_program;
#X obj 744 376 pack 0 0;
#X obj 765 356 t b f;
#X obj 765 311 change;
#X obj 743 216 change;
#X msg 744 401 link \$1 \$2;
#X floatatom 765 337 2 0 0 0 ID - -;
#X floatatom 743 239 2 0 0 0 ID - -;
#X obj 762 422 print linking;
#X obj 671 291 glsl_fragment;
#X obj 671 197 glsl_vertex;
#X floatatom 739 470 5 0 0 0 - - -;
#X floatatom 863 472 5 0 0 0 - - -;
#X msg 739 493 textureWidth \$1;
#X msg 863 496 textureHeight \$1;
#X obj 671 116 gemhead 5;
#X floatatom 1013 472 5 0 0 0 - - -;
#X msg 1013 496 blur \$1;
#X obj 738 450 r screenX;
#X obj 870 449 r screenY;
#X obj 668 589 spigot;
#X obj 706 565 tgl 15 0 empty empty empty 17 7 0 10 -262144 -1 -1 1
1;
#X msg 790 169 open gaussian_blur.vert;
#X msg 787 255 open gaussian_blur.frag;
#X connect 0 0 4 0;
#X connect 1 0 0 1;
#X connect 2 0 0 2;
#X connect 3 0 1 0;
#X connect 3 1 2 0;
#X connect 4 0 21 0;
#X connect 5 0 3 0;
#X connect 6 0 19 0;
#X connect 7 0 22 0;
#X connect 8 0 13 0;
#X connect 9 0 18 0;
#X connect 10 0 8 0;
#X connect 10 1 8 1;
#X connect 11 0 15 0;
#X connect 12 0 16 0;
#X connect 13 0 7 0;
#X connect 13 0 17 0;
#X connect 14 0 7 0;
#X connect 15 0 10 0;
#X connect 16 0 8 0;
#X connect 18 0 7 0;
#X connect 18 1 11 0;
#X connect 19 0 18 0;
#X connect 19 1 12 0;
#X connect 20 0 54 0;
#X connect 20 0 55 0;
#X connect 21 0 76 0;
#X connect 22 0 0 0;
#X connect 22 1 0 0;
#X connect 23 0 24 1;
#X connect 24 0 76 0;
#X connect 25 0 24 2;
#X connect 26 0 24 3;
#X connect 27 0 31 0;
#X connect 28 0 32 0;
#X connect 29 0 53 0;
#X connect 30 0 74 0;
#X connect 30 0 28 0;
#X connect 30 0 34 0;
#X connect 31 0 7 0;
#X connect 32 0 7 0;
#X connect 33 0 7 0;
#X connect 34 0 35 0;
#X connect 35 0 7 0;
#X connect 36 0 47 0;
#X connect 37 0 38 0;
#X connect 38 0 7 0;
#X connect 39 0 41 0;
#X connect 40 0 42 0;
#X connect 41 0 7 0;
#X connect 42 0 7 0;
#X connect 43 0 46 0;
#X connect 44 0 45 0;
#X connect 45 0 7 0;
#X connect 46 0 7 0;
#X connect 47 0 7 0;
#X connect 48 0 49 0;
#X connect 49 0 7 0;
#X connect 50 0 48 0;
#X connect 51 0 27 0;
#X connect 52 0 53 1;
#X connect 53 0 33 0;
#X connect 54 0 19 0;
#X connect 55 0 18 0;
#X connect 56 0 63 0;
#X connect 57 0 65 0;
#X connect 58 0 64 0;
#X connect 59 0 66 0;
#X connect 60 0 72 0;
#X connect 61 0 73 0;
#X connect 62 0 67 0;
#X connect 62 0 73 0;
#X connect 62 0 72 0;
#X connect 63 0 7 0;
#X connect 64 0 7 0;
#X connect 65 0 7 0;
#X connect 66 0 7 0;
#X connect 68 0 56 0;
#X connect 68 0 57 0;
#X connect 69 0 58 0;
#X connect 69 0 59 0;
#X connect 70 0 60 0;
#X connect 70 0 61 0;
#X connect 70 0 62 0;
#X connect 71 0 52 0;
#X connect 72 0 7 0;
#X connect 73 0 7 0;
#X connect 74 0 75 0;
#X connect 75 0 7 0;
#X connect 77 0 79 0;
#X connect 78 0 80 0;
#X connect 79 0 76 1;
#X connect 80 0 76 2;
#X connect 81 0 29 0;
#X connect 82 0 50 0;
#X connect 82 0 51 0;
#X connect 82 0 71 0;
#X connect 82 0 81 0;
#X connect 82 0 70 0;
#X connect 82 0 68 0;
#X connect 82 0 69 0;
#X connect 82 0 30 0;
#X connect 82 0 87 0;
#X connect 83 0 48 0;
#X connect 83 0 27 0;
#X connect 83 0 29 0;
#X connect 83 0 52 0;
#X connect 83 0 62 0;
#X connect 83 0 60 0;
#X connect 83 0 74 0;
#X connect 83 0 28 0;
#X connect 83 0 34 0;
#X connect 83 0 43 0;
#X connect 83 0 44 0;
#X connect 83 0 36 0;
#X connect 83 0 37 0;
#X connect 83 0 39 0;
#X connect 83 0 40 0;
#X connect 83 0 56 0;
#X connect 83 0 57 0;
#X connect 83 0 58 0;
#X connect 83 0 59 0;
#X connect 83 0 61 0;
#X connect 83 0 86 0;
#X connect 86 0 88 0;
#X connect 87 0 86 0;
#X connect 88 0 7 0;
#X connect 91 0 19 0;
#X connect 92 0 115 0;
#X connect 92 0 116 0;
#X connect 93 0 113 0;
#X connect 94 0 98 0;
#X connect 95 0 94 0;
#X connect 95 1 94 1;
#X connect 96 0 99 0;
#X connect 97 0 100 0;
#X connect 98 0 93 0;
#X connect 98 0 101 0;
#X connect 99 0 95 0;
#X connect 100 0 94 0;
#X connect 102 0 93 0;
#X connect 102 1 96 0;
#X connect 103 0 102 0;
#X connect 103 1 97 0;
#X connect 104 0 106 0;
#X connect 105 0 107 0;
#X connect 106 0 93 0;
#X connect 107 0 93 0;
#X connect 108 0 103 0;
#X connect 109 0 110 0;
#X connect 110 0 93 0;
#X connect 111 0 104 0;
#X connect 112 0 105 0;
#X connect 113 0 76 0;
#X connect 114 0 113 1;
#X connect 115 0 103 0;
#X connect 116 0 102 0;
