#N canvas 546 72 635 368 10;
#X obj 62 30 Fenster;
#X obj -98 26 Cam;
#X obj -76 136 s cam;
#X obj -11 151 r cam;
#N canvas 1023 100 624 608 multitex 1;
#X obj 31 9 gemhead;
#X obj 30 433 glsl_program;
#X obj 104 272 pack 0 0;
#X obj 125 252 t b f;
#X obj 119 207 change;
#X msg 104 298 link \$1 \$2;
#X floatatom 125 233 2 0 0 0 ID - -;
#X floatatom 103 125 2 0 0 0 ID - -;
#X obj 122 319 print linking;
#X obj 97 31 bng 15 250 50 0 empty empty empty 0 -6 0 8 -262144 -1
-1;
#X obj 31 83 glsl_vertex;
#X obj 31 187 glsl_fragment;
#X msg 45 61 open multitexture.vert;
#X msg 41 157 open multitexture.frag;
#X obj 27 512 rectangle 4 3;
#X msg 142 410 MyTex 0;
#X obj 27 486 pix_texture;
#X msg 209 385 MyTex1 1;
#X msg 210 410 MyTex 1;
#X msg 141 385 MyTex1 0;
#X msg 276 386 MyTex1 2;
#X msg 281 411 MyTex 2;
#N canvas 0 0 450 300 load_shader 0;
#X obj 89 99 t b b;
#X msg 119 126 0;
#X obj 89 154 outlet;
#X obj 89 71 gemhead 1;
#X connect 0 0 2 0;
#X connect 0 1 1 0;
#X connect 1 0 3 0;
#X connect 3 0 0 0;
#X restore 97 9 pd load_shader;
#N canvas 0 0 450 300 init_shader 0;
#X obj 89 154 outlet;
#X obj 89 45 inlet;
#X obj 89 73 change;
#X obj 89 100 t b;
#X connect 1 0 2 0;
#X connect 2 0 3 0;
#X connect 3 0 0 0;
#X restore 111 454 pd init_shader;
#X text 142 364 2) change shader texuinit;
#X obj 103 102 change;
#X obj 263 80 bng 15 250 50 0 empty empty empty 17 7 0 10 -262144 -1
-1;
#X connect 0 0 10 0;
#X connect 1 0 16 0;
#X connect 1 1 23 0;
#X connect 2 0 5 0;
#X connect 3 0 2 0;
#X connect 3 1 2 1;
#X connect 4 0 6 0;
#X connect 5 0 1 0;
#X connect 5 0 8 0;
#X connect 6 0 3 0;
#X connect 7 0 2 0;
#X connect 9 0 12 0;
#X connect 9 0 13 0;
#X connect 10 0 11 0;
#X connect 10 1 25 0;
#X connect 11 0 1 0;
#X connect 11 1 4 0;
#X connect 12 0 10 0;
#X connect 13 0 11 0;
#X connect 15 0 1 0;
#X connect 16 0 14 0;
#X connect 17 0 1 0;
#X connect 18 0 1 0;
#X connect 19 0 1 0;
#X connect 20 0 1 0;
#X connect 21 0 1 0;
#X connect 22 0 9 0;
#X connect 23 0 17 0;
#X connect 23 0 21 0;
#X connect 25 0 7 0;
#X connect 26 0 19 0;
#X connect 26 0 18 0;
#X restore 303 122 pd multitex;
#X obj -9 288 pix_texture;
#X msg -76 253 texunit 1;
#X obj 140 305 pix_texture;
#X msg 37 251 texunit 0;
#X obj 135 170 t b a;
#X obj 140 220 pix_separator;
#X obj 140 249 cannyedge;
#X connect 1 0 2 0;
#X connect 3 0 5 0;
#X connect 3 0 9 0;
#X connect 6 0 5 0;
#X connect 8 0 7 0;
#X connect 9 0 10 0;
#X connect 9 1 10 0;
#X connect 10 0 11 0;
#X connect 11 0 7 0;
