#N canvas 115 790 444 316 10;
#N canvas 1293 561 450 292 routing_from_launchpad 1;
#X obj 15 12 notein;
#X obj 15 38 stripnote;
#X obj 102 75 s lp_row_trigger8;
#X obj 124 97 s lp_row_trigger24;
#X obj 146 119 s lp_row_trigger40;
#X obj 168 142 s lp_row_trigger56;
#X obj 190 164 s lp_row_trigger72;
#X obj 212 187 s lp_row_trigger88;
#X obj 234 210 s lp_row_trigger104;
#X obj 256 232 s lp_row_trigger120;
#X obj 102 53 route 8 24 40 56 72 88 104 120;
#X connect 0 0 1 0;
#X connect 0 1 1 1;
#X connect 1 0 10 0;
#X connect 10 0 2 0;
#X connect 10 1 3 0;
#X connect 10 2 4 0;
#X connect 10 3 5 0;
#X connect 10 4 6 0;
#X connect 10 5 7 0;
#X connect 10 6 8 0;
#X connect 10 7 9 0;
#X restore 260 20 pd routing_from_launchpad;
#N canvas 1191 536 450 262 sequencer 0;
#X obj 14 69 route 0 1 2 3 4 5 6 7;
#X obj 15 100 bng 25 250 50 0 empty empty empty 17 7 0 10 -262144 -1
-1;
#X obj 40 100 bng 25 250 50 0 empty empty empty 17 7 0 10 -262144 -1
-1;
#X obj 65 100 bng 25 250 50 0 empty empty empty 17 7 0 10 -262144 -1
-1;
#X obj 90 100 bng 25 250 50 0 empty empty empty 17 7 0 10 -262144 -1
-1;
#X obj 115 100 bng 25 250 50 0 empty empty empty 17 7 0 10 -262144
-1 -1;
#X obj 140 100 bng 25 250 50 0 empty empty empty 17 7 0 10 -262144
-1 -1;
#X obj 165 100 bng 25 250 50 0 empty empty empty 17 7 0 10 -262144
-1 -1;
#X obj 190 100 bng 25 250 50 0 empty empty empty 17 7 0 10 -262144
-1 -1;
#N canvas 1320 1023 511 114 col1 0;
#X obj 16 24 inlet;
#X obj 16 54 s lp_r0;
#X obj 65 54 s lp_r16;
#X obj 120 54 s lp_r32;
#X obj 176 54 s lp_r48;
#X obj 232 54 s lp_r64;
#X obj 287 54 s lp_r80;
#X obj 342 54 s lp_r96;
#X obj 398 54 s lp_r112;
#X connect 0 0 1 0;
#X connect 0 0 2 0;
#X connect 0 0 3 0;
#X connect 0 0 4 0;
#X connect 0 0 5 0;
#X connect 0 0 6 0;
#X connect 0 0 7 0;
#X connect 0 0 8 0;
#X restore 15 233 pd col1;
#X msg 31 189 0;
#X msg 81 188 0;
#N canvas 33 174 511 114 col2 0;
#X obj 16 24 inlet;
#X obj 16 54 s lp_r1;
#X obj 65 54 s lp_r17;
#X obj 120 54 s lp_r33;
#X obj 176 54 s lp_r49;
#X obj 232 54 s lp_r65;
#X obj 287 54 s lp_r81;
#X obj 342 54 s lp_r97;
#X obj 398 54 s lp_r113;
#X connect 0 0 1 0;
#X connect 0 0 2 0;
#X connect 0 0 3 0;
#X connect 0 0 4 0;
#X connect 0 0 5 0;
#X connect 0 0 6 0;
#X connect 0 0 7 0;
#X connect 0 0 8 0;
#X restore 65 232 pd col2;
#X msg 15 158 1;
#X msg 65 157 1;
#X msg 131 187 0;
#X msg 181 186 0;
#X msg 115 156 1;
#X msg 165 155 1;
#X msg 232 185 0;
#X msg 282 184 0;
#X msg 216 154 1;
#X msg 266 153 1;
#X msg 332 183 0;
#X msg 382 182 0;
#X msg 316 152 1;
#X msg 366 151 1;
#N canvas 33 174 511 114 col3 0;
#X obj 16 24 inlet;
#X obj 16 54 s lp_r2;
#X obj 65 54 s lp_r18;
#X obj 120 54 s lp_r34;
#X obj 176 54 s lp_r50;
#X obj 232 54 s lp_r66;
#X obj 287 54 s lp_r82;
#X obj 342 54 s lp_r98;
#X obj 398 54 s lp_r114;
#X connect 0 0 1 0;
#X connect 0 0 2 0;
#X connect 0 0 3 0;
#X connect 0 0 4 0;
#X connect 0 0 5 0;
#X connect 0 0 6 0;
#X connect 0 0 7 0;
#X connect 0 0 8 0;
#X restore 115 231 pd col3;
#N canvas 33 174 511 114 col4 0;
#X obj 16 24 inlet;
#X obj 16 54 s lp_r3;
#X obj 120 54 s lp_r35;
#X obj 65 54 s lp_r19;
#X obj 176 54 s lp_r51;
#X obj 232 54 s lp_r67;
#X obj 287 54 s lp_r83;
#X obj 342 54 s lp_r99;
#X obj 398 54 s lp_r115;
#X connect 0 0 1 0;
#X connect 0 0 2 0;
#X connect 0 0 3 0;
#X connect 0 0 4 0;
#X connect 0 0 5 0;
#X connect 0 0 6 0;
#X connect 0 0 7 0;
#X connect 0 0 8 0;
#X restore 165 230 pd col4;
#N canvas 60 351 511 114 col5 0;
#X obj 16 24 inlet;
#X obj 16 54 s lp_r4;
#X obj 65 54 s lp_r20;
#X obj 120 54 s lp_r36;
#X obj 176 54 s lp_r52;
#X obj 232 54 s lp_r68;
#X obj 287 54 s lp_r84;
#X obj 342 54 s lp_r100;
#X obj 403 54 s lp_r116;
#X connect 0 0 1 0;
#X connect 0 0 2 0;
#X connect 0 0 3 0;
#X connect 0 0 4 0;
#X connect 0 0 5 0;
#X connect 0 0 6 0;
#X connect 0 0 7 0;
#X connect 0 0 8 0;
#X restore 216 229 pd col5;
#N canvas 33 174 511 114 col6 0;
#X obj 16 24 inlet;
#X obj 16 54 s lp_r5;
#X obj 65 54 s lp_r21;
#X obj 120 54 s lp_r37;
#X obj 176 53 s lp_r53;
#X obj 232 54 s lp_r69;
#X obj 287 54 s lp_r85;
#X obj 342 54 s lp_r101;
#X obj 403 54 s lp_r117;
#X connect 0 0 1 0;
#X connect 0 0 2 0;
#X connect 0 0 3 0;
#X connect 0 0 4 0;
#X connect 0 0 5 0;
#X connect 0 0 6 0;
#X connect 0 0 7 0;
#X connect 0 0 8 0;
#X restore 266 228 pd col6;
#N canvas 37 352 511 114 col7 0;
#X obj 16 24 inlet;
#X obj 16 54 s lp_r6;
#X obj 65 54 s lp_r22;
#X obj 120 54 s lp_r38;
#X obj 176 54 s lp_r54;
#X obj 232 54 s lp_r70;
#X obj 287 54 s lp_r86;
#X obj 342 54 s lp_r102;
#X obj 403 54 s lp_r118;
#X connect 0 0 1 0;
#X connect 0 0 2 0;
#X connect 0 0 3 0;
#X connect 0 0 4 0;
#X connect 0 0 5 0;
#X connect 0 0 6 0;
#X connect 0 0 7 0;
#X connect 0 0 8 0;
#X restore 316 227 pd col7;
#N canvas 33 174 511 114 col8 0;
#X obj 16 24 inlet;
#X obj 16 54 s lp_r7;
#X obj 65 54 s lp_r23;
#X obj 120 54 s lp_r39;
#X obj 176 54 s lp_r55;
#X obj 232 54 s lp_r71;
#X obj 287 54 s lp_r87;
#X obj 342 54 s lp_r103;
#X obj 403 54 s lp_r119;
#X connect 0 0 1 0;
#X connect 0 0 2 0;
#X connect 0 0 3 0;
#X connect 0 0 4 0;
#X connect 0 0 5 0;
#X connect 0 0 6 0;
#X connect 0 0 7 0;
#X connect 0 0 8 0;
#X restore 366 226 pd col8;
#X obj 14 20 inlet;
#X floatatom 180 44 5 0 0 0 - - -;
#X obj 14 45 counter 0 7;
#X connect 0 0 1 0;
#X connect 0 1 2 0;
#X connect 0 2 3 0;
#X connect 0 3 4 0;
#X connect 0 4 5 0;
#X connect 0 5 6 0;
#X connect 0 6 7 0;
#X connect 0 7 8 0;
#X connect 1 0 13 0;
#X connect 1 0 24 0;
#X connect 2 0 10 0;
#X connect 2 0 14 0;
#X connect 3 0 11 0;
#X connect 3 0 17 0;
#X connect 4 0 15 0;
#X connect 4 0 18 0;
#X connect 5 0 16 0;
#X connect 5 0 21 0;
#X connect 6 0 19 0;
#X connect 6 0 22 0;
#X connect 7 0 20 0;
#X connect 7 0 25 0;
#X connect 8 0 23 0;
#X connect 8 0 26 0;
#X connect 10 0 9 0;
#X connect 11 0 12 0;
#X connect 13 0 9 0;
#X connect 14 0 12 0;
#X connect 15 0 27 0;
#X connect 16 0 28 0;
#X connect 17 0 27 0;
#X connect 18 0 28 0;
#X connect 19 0 29 0;
#X connect 20 0 30 0;
#X connect 21 0 29 0;
#X connect 22 0 30 0;
#X connect 23 0 31 0;
#X connect 24 0 32 0;
#X connect 25 0 31 0;
#X connect 26 0 32 0;
#X connect 33 0 35 0;
#X connect 35 0 0 0;
#X connect 35 0 34 0;
#X coords 0 -1 1 1 200 25 2 15 100;
#X restore 21 77 pd sequencer;
#X obj 21 55 metro 500;
#X obj 21 32 tgl 15 0 empty empty empty 17 7 0 10 -262144 -1 -1 1 1
;
#X floatatom 72 30 5 0 0 0 - - -;
#X text 17 11 launchpad sequencer;
#X obj 225 110 lp_row_trigger 8;
#X obj 21 107 lp_led 0;
#X obj 296 151 s lp_all_leds;
#X msg 296 121 0;
#X msg 328 121 1;
#X obj 196 107 lp_led 7;
#X obj 46 157 lp_led 33;
#X obj 96 157 lp_led 35;
#X obj 71 157 lp_led 34;
#X obj 121 157 lp_led 36;
#X obj 146 157 lp_led 37;
#X obj 171 157 lp_led 38;
#X obj 196 157 lp_led 39;
#X obj 21 157 lp_led 32;
#X obj 46 107 lp_led 1;
#X obj 71 107 lp_led 2;
#X obj 96 107 lp_led 3;
#X obj 121 107 lp_led 4;
#X obj 146 107 lp_led 5;
#X obj 171 107 lp_led 6;
#X obj 21 132 lp_led 16;
#X obj 46 132 lp_led 17;
#X obj 71 132 lp_led 18;
#X obj 96 132 lp_led 19;
#X obj 121 132 lp_led 20;
#X obj 146 132 lp_led 21;
#X obj 171 132 lp_led 22;
#X obj 196 132 lp_led 23;
#X obj 21 182 lp_led 48;
#X obj 46 182 lp_led 49;
#X obj 71 182 lp_led 50;
#X obj 96 182 lp_led 51;
#X obj 121 182 lp_led 52;
#X obj 21 207 lp_led 64;
#X obj 146 182 lp_led 53;
#X obj 171 182 lp_led 54;
#X obj 196 182 lp_led 55;
#X obj 46 207 lp_led 65;
#X obj 71 207 lp_led 66;
#X obj 96 207 lp_led 67;
#X obj 121 207 lp_led 68;
#X obj 146 207 lp_led 69;
#X obj 171 207 lp_led 70;
#X obj 196 207 lp_led 71;
#X obj 21 232 lp_led 80;
#X obj 46 232 lp_led 81;
#X obj 71 232 lp_led 82;
#X obj 96 232 lp_led 83;
#X obj 121 232 lp_led 84;
#X obj 146 232 lp_led 85;
#X obj 171 232 lp_led 86;
#X obj 196 232 lp_led 87;
#X obj 21 257 lp_led 96;
#X obj 46 257 lp_led 97;
#X obj 71 257 lp_led 98;
#X obj 96 257 lp_led 99;
#X obj 121 257 lp_led 100;
#X obj 146 257 lp_led 101;
#X obj 171 257 lp_led 102;
#X obj 196 257 lp_led 103;
#X obj 21 282 lp_led 112;
#X obj 46 282 lp_led 113;
#X obj 71 282 lp_led 114;
#X obj 96 282 lp_led 115;
#X obj 121 282 lp_led 116;
#X obj 146 282 lp_led 117;
#X obj 171 282 lp_led 118;
#X obj 196 282 lp_led 119;
#X obj 225 135 lp_row_trigger 24;
#X obj 225 160 lp_row_trigger 40;
#X obj 225 185 lp_row_trigger 56;
#X obj 225 210 lp_row_trigger 72;
#X obj 225 235 lp_row_trigger 88;
#X obj 225 260 lp_row_trigger 104;
#X obj 225 286 lp_row_trigger 120;
#X connect 2 0 1 0;
#X connect 3 0 2 0;
#X connect 4 0 2 1;
#X connect 9 0 8 0;
#X connect 10 0 8 0;
