#N canvas 929 268 501 585 10;
#X obj 5 83 f;
#X obj 5 109 sel 0;
#X obj 133 441 makenote;
#X obj 133 333 float \$1;
#X obj 133 496 noteout;
#X obj 5 50 tgl 25 0 lp_s\$1 lp_all_leds empty 17 7 0 10 -262144 -1
-1 0 1;
#X obj 133 467 stripnote;
#X obj 273 276 f;
#X obj 203 328 +;
#X msg 303 248 1;
#X msg 333 248 2;
#X msg 273 248 0;
#X msg 362 248 3;
#X obj 273 206 route 0 1 2 3;
#X obj 133 62 r lp_r\$1;
#X obj 215 184 t b f;
#X obj 174 357 f;
#X obj 273 298 t b f;
#X text 198 358 current value;
#X msg 133 248 0;
#X obj 133 206 route 0 1 2 3;
#X obj 133 275 f;
#X obj 133 300 t b f;
#X msg 163 248 16;
#X msg 193 248 32;
#X msg 222 248 48;
#X obj 174 382 sel 0;
#X msg 187 413 8;
#X text 209 413 clear with bit 3 (8);
#X obj 256 111 print unknown msg(lp_led):;
#X text 159 275 green (bits 4+5);
#X text 300 273 red (bits 0+1);
#X text 139 15 TODO: Logical Operators ( && .. ) for reading internal
state;
#X obj 221 130 route 0 1;
#X obj 283 359 f;
#X obj 283 335 r lp_read\$1;
#X msg 253 155 1;
#X msg 221 154 0;
#X text 290 146 this routes 0/1/bang to dark red;
#X obj 133 87 route green red float;
#X msg 5 157 1;
#X msg 33 157 3;
#X text 51 95 this routes toggle to dark green & bright green;
#X text 190 62 receive symbol for control lp_r\$1;
#X obj 5 26 sel \$1;
#X obj 5 -25 notein;
#X obj 5 1 stripnote;
#X obj 298 483 s lp_s\$1;
#X connect 0 0 1 0;
#X connect 1 0 40 0;
#X connect 1 1 41 0;
#X connect 2 0 6 0;
#X connect 2 1 6 1;
#X connect 3 0 2 0;
#X connect 5 0 0 0;
#X connect 6 0 4 0;
#X connect 6 1 4 1;
#X connect 7 0 17 0;
#X connect 8 0 16 0;
#X connect 8 0 34 0;
#X connect 9 0 7 0;
#X connect 10 0 7 0;
#X connect 11 0 7 0;
#X connect 12 0 7 0;
#X connect 13 0 11 0;
#X connect 13 1 9 0;
#X connect 13 2 10 0;
#X connect 13 3 12 0;
#X connect 14 0 39 0;
#X connect 15 0 3 0;
#X connect 15 1 13 0;
#X connect 16 0 26 0;
#X connect 17 0 21 0;
#X connect 17 1 8 1;
#X connect 19 0 21 0;
#X connect 20 0 19 0;
#X connect 20 1 23 0;
#X connect 20 2 24 0;
#X connect 20 3 25 0;
#X connect 21 0 22 0;
#X connect 22 0 3 0;
#X connect 22 1 8 0;
#X connect 23 0 21 0;
#X connect 24 0 21 0;
#X connect 25 0 21 0;
#X connect 26 0 27 0;
#X connect 26 1 2 1;
#X connect 27 0 2 1;
#X connect 33 0 37 0;
#X connect 33 1 36 0;
#X connect 34 0 47 0;
#X connect 35 0 34 0;
#X connect 36 0 15 0;
#X connect 37 0 15 0;
#X connect 39 0 20 0;
#X connect 39 1 15 0;
#X connect 39 2 33 0;
#X connect 39 3 29 0;
#X connect 40 0 20 0;
#X connect 41 0 20 0;
#X connect 44 0 5 0;
#X connect 45 0 46 0;
#X connect 45 1 46 1;
#X connect 46 0 44 0;
#X coords 0 -1 1 1 25 25 2 5 50;
