#N canvas 597 376 619 727 10;
#X obj 5 83 f;
#X obj 5 109 sel 0;
#X obj 213 441 makenote;
#X obj 213 333 float \$1;
#X obj 213 496 noteout;
#X obj 5 50 tgl 20 0 lp_s\$1 lp_all_leds empty 17 7 0 10 -262144 -1
-1 0 1;
#X obj 213 467 stripnote;
#X obj 353 276 f;
#X obj 283 328 +;
#X msg 383 248 1;
#X msg 413 248 2;
#X msg 353 248 0;
#X msg 442 248 3;
#X obj 353 206 route 0 1 2 3;
#X obj 295 184 t b f;
#X obj 254 357 f;
#X obj 353 298 t b f;
#X text 278 358 current value;
#X msg 213 248 0;
#X obj 213 206 route 0 1 2 3;
#X obj 213 275 f;
#X obj 213 300 t b f;
#X msg 243 248 16;
#X msg 273 248 32;
#X msg 302 248 48;
#X obj 254 382 sel 0;
#X msg 267 413 8;
#X text 289 413 clear with bit 3 (8);
#X obj 336 111 print unknown msg(lp_led):;
#X text 239 275 green (bits 4+5);
#X text 380 273 red (bits 0+1);
#X obj 301 130 route 0 1;
#X obj 363 359 f;
#X obj 363 335 r lp_read\$1;
#X msg 333 155 1;
#X msg 301 154 0;
#X obj 213 87 route green red float;
#X msg 139 140 1;
#X msg 167 140 3;
#X text 270 62 receive symbol for control lp_r\$1;
#X obj 5 26 sel \$1;
#X obj 5 -25 notein;
#X obj 5 1 stripnote;
#X obj 378 483 s lp_s\$1;
#X obj 213 62 r lp_r\$1;
#X text 96 -24 Special LED abstraction for row control;
#X text 41 49 this routes toggle to dark green & bright green;
#X text 371 133 this routes 0/1/bang to dark red and toggles row;
#X obj 5 170 bng 15 250 50 0 empty empty empty 17 7 0 10 -262144 -1
-1;
#X obj 9 303 s lp_read;
#X obj 20 250 expr;
#X connect 0 0 1 0;
#X connect 1 0 37 0;
#X connect 1 0 48 0;
#X connect 1 1 38 0;
#X connect 2 0 6 0;
#X connect 2 1 6 1;
#X connect 3 0 2 0;
#X connect 5 0 0 0;
#X connect 6 0 4 0;
#X connect 6 1 4 1;
#X connect 7 0 16 0;
#X connect 8 0 15 0;
#X connect 8 0 32 0;
#X connect 9 0 7 0;
#X connect 10 0 7 0;
#X connect 11 0 7 0;
#X connect 12 0 7 0;
#X connect 13 0 11 0;
#X connect 13 1 9 0;
#X connect 13 2 10 0;
#X connect 13 3 12 0;
#X connect 14 0 3 0;
#X connect 14 1 13 0;
#X connect 15 0 25 0;
#X connect 16 0 20 0;
#X connect 16 1 8 1;
#X connect 18 0 20 0;
#X connect 19 0 18 0;
#X connect 19 1 22 0;
#X connect 19 2 23 0;
#X connect 19 3 24 0;
#X connect 20 0 21 0;
#X connect 21 0 3 0;
#X connect 21 1 8 0;
#X connect 22 0 20 0;
#X connect 23 0 20 0;
#X connect 24 0 20 0;
#X connect 25 0 26 0;
#X connect 25 1 2 1;
#X connect 26 0 2 1;
#X connect 31 0 35 0;
#X connect 31 1 34 0;
#X connect 32 0 43 0;
#X connect 33 0 32 0;
#X connect 34 0 14 0;
#X connect 35 0 14 0;
#X connect 36 0 19 0;
#X connect 36 1 14 0;
#X connect 36 2 31 0;
#X connect 36 3 28 0;
#X connect 37 0 19 0;
#X connect 38 0 19 0;
#X connect 40 0 5 0;
#X connect 41 0 42 0;
#X connect 41 1 42 1;
#X connect 42 0 40 0;
#X connect 44 0 36 0;
#X coords 0 -1 1 1 20 20 2 5 50;
